<svg xmlns="http://www.w3.org/2000/svg" width="90.037" height="82.139" viewBox="0 0 90.037 82.139">
  <g id="_001-charla" data-name="001-charla" transform="translate(0 -22.456)">
    <path id="Path_57756" data-name="Path 57756" d="M83.882,34.687H72.275V28.611a6.162,6.162,0,0,0-6.155-6.155H6.155A6.162,6.162,0,0,0,0,28.611V86.2A6.156,6.156,0,0,0,11.7,88.87l6.06-12.588V81.6a6.162,6.162,0,0,0,6.155,6.155h48L78.335,101.1a6.156,6.156,0,0,0,11.7-2.671V40.841a6.162,6.162,0,0,0-6.155-6.155ZM16.467,70.251a2.637,2.637,0,0,0-2.376,1.493L6.946,86.581a.8.8,0,0,1-.987.477.8.8,0,0,1-.684-.856V28.611a.88.88,0,0,1,.879-.879H66.121a.88.88,0,0,1,.879.879V69.372a.88.88,0,0,1-.879.879Zm68.294,28.18a.879.879,0,0,1-1.671.382L75.946,83.976a2.637,2.637,0,0,0-2.376-1.493H23.916a.881.881,0,0,1-.879-.879V75.527H66.121a6.162,6.162,0,0,0,6.155-6.155V39.962H83.882a.88.88,0,0,1,.879.879Z" transform="translate(0 0)" fill="#fff"/>
    <path id="Path_57757" data-name="Path 57757" d="M161.693,118.322H155.8v-5.883a2.638,2.638,0,1,0-5.276,0v5.883h-5.892a2.638,2.638,0,0,0,0,5.276h5.892v5.851a2.638,2.638,0,0,0,5.276,0V123.6h5.892a2.638,2.638,0,0,0,0-5.276Z" transform="translate(-117.026 -71.985)" fill="#fff"/>
  </g>
</svg>
