<svg xmlns="http://www.w3.org/2000/svg" width="69.46" height="106.344" viewBox="0 0 69.46 106.344">
  <g id="_001-bouquet" data-name="001-bouquet" transform="translate(-88.99 0.267)">
    <g id="Group_9" data-name="Group 9" transform="translate(89.255 0)">
      <g id="Group_8" data-name="Group 8" transform="translate(0 0)">
        <path id="Path_57760" data-name="Path 57760" d="M143.466,28.285a8.3,8.3,0,0,0,1.3-.1,8.124,8.124,0,0,0,5.336-3.271l7.789-10.725a1.55,1.55,0,0,0-1-2.44,49.931,49.931,0,0,0-6.923-.566,50.3,50.3,0,0,0-2.68-6.409,1.55,1.55,0,0,0-2.63-.2L136.867,15.3a8.181,8.181,0,0,0,.562,10.3c-1.179,1.4-3.255,3.951-5.531,7.124V31.374a1.55,1.55,0,0,0-3.1,0V37.3c-1.244,1.947-2.456,4.007-3.527,6.1V34.688h0V32.016l4.517-4.517a1.55,1.55,0,1,0-2.192-2.192l-2.325,2.324v-4.8A8.19,8.19,0,0,0,131.9,14.8V1.55A1.55,1.55,0,0,0,129.654.163a50.288,50.288,0,0,0-5.934,3.611A50.247,50.247,0,0,0,117.785.163a1.55,1.55,0,0,0-2.243,1.386V14.8a8.19,8.19,0,0,0,6.627,8.028v8.112l-3.981-3.981A1.55,1.55,0,1,0,116,29.156l6.174,6.174v8.064a103.7,103.7,0,0,0-12.159-17.788,8.181,8.181,0,0,0,.562-10.3L102.784,4.576a1.55,1.55,0,0,0-2.63.2,50.134,50.134,0,0,0-2.68,6.409,50.062,50.062,0,0,0-6.923.566,1.55,1.55,0,0,0-1,2.44L97.34,24.911a8.125,8.125,0,0,0,5.336,3.271,8.277,8.277,0,0,0,1.3.1,8.084,8.084,0,0,0,3.547-.819c.479.57,1.141,1.371,1.924,2.357h-1.361a1.55,1.55,0,1,0,0,3.1h3.744a91.986,91.986,0,0,1,7.024,10.832A52.727,52.727,0,0,0,92.469,29.841a1.55,1.55,0,0,0-1.78,1.533,46.632,46.632,0,0,0,2.991,14.4,63.05,63.05,0,0,0,20.206,27.765V79.22l-6.575,24.657a1.55,1.55,0,0,0,1.5,1.95h29.824a1.55,1.55,0,0,0,1.5-1.95L133.554,79.22V73.539A63.052,63.052,0,0,0,153.76,45.774a46.625,46.625,0,0,0,2.991-14.4,1.55,1.55,0,0,0-1.78-1.533A47.065,47.065,0,0,0,143.419,33.6a52.838,52.838,0,0,0-14.844,10.185,92.045,92.045,0,0,1,7.039-10.858h3.743a1.55,1.55,0,0,0,0-3.1H138c.783-.986,1.444-1.787,1.923-2.357A8.088,8.088,0,0,0,143.466,28.285Zm10.368-13.791-2.341,3.223a25.3,25.3,0,0,0-.61-3.414C151.974,14.341,152.986,14.414,153.834,14.494ZM95.946,17.717l-2.341-3.224c.847-.08,1.858-.153,2.951-.19A25.287,25.287,0,0,0,95.946,17.717Zm10.994,6.5a5.077,5.077,0,0,1-7.092-1.124c-2.223-3.061.135-10.294,1.971-14.566l6.245,8.6A5.083,5.083,0,0,1,106.94,24.214ZM128.8,4.182V8.159a25.4,25.4,0,0,0-2.5-2.4C127.2,5.15,128.064,4.615,128.8,4.182ZM118.642,14.8V4.177c4,2.378,10.155,6.845,10.155,10.628a5.077,5.077,0,0,1-10.155,0Zm-22,30.054a49.232,49.232,0,0,1-2.726-11.55A50.86,50.86,0,0,1,108.8,39.723a46.921,46.921,0,0,1,12.934,12.13,50.971,50.971,0,0,1,8.377,19.392H126.5a45.655,45.655,0,0,0-11.611-22.017,1.55,1.55,0,1,0-2.228,2.156,42.413,42.413,0,0,1,10.652,19.86H115.98A60.023,60.023,0,0,1,96.645,44.859Zm33.808,29.487v3.527H116.985V74.346Zm6.16,28.38h-6.566l-.262-1.968a1.55,1.55,0,0,0-3.073.41l.208,1.558H110.826l5.8-21.753h7.393l1.809,13.567a1.55,1.55,0,1,0,3.073-.41l-1.754-13.157h3.666Zm8-66.267a49.429,49.429,0,0,1,8.9-3.149,49.224,49.224,0,0,1-2.726,11.549,59.676,59.676,0,0,1-17.785,25.113A54.562,54.562,0,0,0,125.594,52,48.454,48.454,0,0,1,144.617,36.459Zm-5.242-19.337,6.246-8.6c1.838,4.27,4.2,11.5,1.97,14.568a5.077,5.077,0,0,1-8.216-5.967Z" transform="translate(-89.255 0)" fill="#006cad" stroke="#17b3bf" stroke-width="0.5"/>
      </g>
    </g>
  </g>
</svg>
