<svg xmlns="http://www.w3.org/2000/svg" width="34.51" height="34.348" viewBox="0 0 34.51 34.348">
  <g id="_002-hand" data-name="002-hand" transform="translate(0.304 0.25)">
    <path id="Path_57828" data-name="Path 57828" d="M219.851,331.321a.66.66,0,1,0-.934,0A.661.661,0,0,0,219.851,331.321Zm0,0" transform="translate(-204.321 -308.4)" fill="#b79a57" stroke="#b79a57" stroke-width="0.5"/>
    <path id="Path_57829" data-name="Path 57829" d="M188.449,7.258A7.258,7.258,0,1,0,195.707,0,7.267,7.267,0,0,0,188.449,7.258Zm13.2,0a5.939,5.939,0,1,1-5.939-5.939A5.945,5.945,0,0,1,201.646,7.258Zm0,0" transform="translate(-176.044)" fill="#b79a57" stroke="#b79a57" stroke-width="0.5"/>
    <path id="Path_57830" data-name="Path 57830" d="M8.1,231.9a.66.66,0,0,0,.931.005l3.2-3.152a1.994,1.994,0,0,0,.47-2.048l.688-.664a1.968,1.968,0,0,1,1.374-.555h8.772a5.908,5.908,0,0,0,4.142-1.683c.046-.045-.348.42,5.984-7.149a2.64,2.64,0,0,0-4.016-3.426l-3.894,4a2.652,2.652,0,0,0-2.052-.982H16.343a8.513,8.513,0,0,0-3.3-.66A8.164,8.164,0,0,0,5.6,219.812a1.971,1.971,0,0,0-1.765.547L.694,223.508a.66.66,0,0,0,0,.931Zm4.937-14.991a7.2,7.2,0,0,1,2.9.6.658.658,0,0,0,.265.055H23.7a1.32,1.32,0,1,1,0,2.639H18.317a.66.66,0,0,0,0,1.32H23.7a2.635,2.635,0,0,0,2.616-2.984c3.767-3.872,4.3-4.416,4.32-4.443a1.32,1.32,0,1,1,2.015,1.705l-5.918,7.075a4.6,4.6,0,0,1-3.2,1.286H14.764a3.281,3.281,0,0,0-2.291.925l-.561.541-5.169-5.169a6.813,6.813,0,0,1,6.3-3.556Zm-8.272,4.379a.658.658,0,0,1,.817-.093c.114.07-.214-.229,5.715,5.692a.661.661,0,0,1,0,.93l-2.727,2.687-6.484-6.533Zm0,0" transform="translate(-0.501 -198.305)" fill="#b79a57" stroke="#b79a57" stroke-width="0.5"/>
    <path id="Path_57831" data-name="Path 57831" d="M267.149,40.648v.773a1.979,1.979,0,0,0,.66,3.846.66.66,0,1,1,0,1.32,1.193,1.193,0,0,1-.857-.5.66.66,0,1,0-1.01.849,2.737,2.737,0,0,0,1.207.859v.77a.66.66,0,1,0,1.32,0v-.773a1.979,1.979,0,0,0-.66-3.846.66.66,0,0,1,0-1.32,1.059,1.059,0,0,1,.714.345.66.66,0,0,0,.918-.948,2.549,2.549,0,0,0-.972-.607v-.769a.66.66,0,1,0-1.32,0Zm0,0" transform="translate(-248.277 -37.349)" fill="#b79a57" stroke="#b79a57" stroke-width="0.5"/>
  </g>
</svg>
