<svg xmlns="http://www.w3.org/2000/svg" width="11.366" height="17.5" viewBox="0 0 11.366 17.5">
  <g id="_001-cruzar" data-name="001-cruzar" transform="translate(-89.729)">
    <path id="Path_57755" data-name="Path 57755" d="M100.583,4.083H96.5V.512A.512.512,0,0,0,95.984,0H94.84a.512.512,0,0,0-.513.512V4.083H90.242a.512.512,0,0,0-.513.512V5.738a.512.512,0,0,0,.513.512h4.086V16.988a.512.512,0,0,0,.513.512h1.144a.512.512,0,0,0,.513-.512V6.251h4.086a.512.512,0,0,0,.513-.512V4.6a.512.512,0,0,0-.513-.512Z" fill="#c4ad76"/>
  </g>
</svg>
