<svg xmlns="http://www.w3.org/2000/svg" width="58.514" height="89.542" viewBox="0 0 58.514 89.542">
  <g id="_001-bouquet" data-name="001-bouquet" transform="translate(0.263 0.264)">
    <g id="Group_9" data-name="Group 9" transform="translate(0 0)">
      <g id="Group_8" data-name="Group 8" transform="translate(0 0)">
        <path id="Path_57760" data-name="Path 57760" d="M134.86,23.8a6.984,6.984,0,0,0,1.092-.086,6.834,6.834,0,0,0,4.489-2.752l6.553-9.022a1.3,1.3,0,0,0-.842-2.053,42,42,0,0,0-5.824-.476,42.309,42.309,0,0,0-2.254-5.391,1.3,1.3,0,0,0-2.212-.165l-6.553,9.022a6.882,6.882,0,0,0,.473,8.669c-.992,1.179-2.738,3.324-4.653,5.993v-1.14a1.3,1.3,0,0,0-2.608,0v4.983c-1.047,1.638-2.066,3.371-2.967,5.129V29.181h0V26.933l3.8-3.8a1.3,1.3,0,1,0-1.844-1.844l-1.956,1.955V19.209a6.89,6.89,0,0,0,5.575-6.754V1.3A1.3,1.3,0,0,0,123.241.137a42.3,42.3,0,0,0-4.992,3.038A42.271,42.271,0,0,0,113.256.137,1.3,1.3,0,0,0,111.369,1.3V12.455a6.89,6.89,0,0,0,5.575,6.754v6.824L113.6,22.683a1.3,1.3,0,1,0-1.844,1.844l5.193,5.193V36.5A87.24,87.24,0,0,0,106.716,21.54a6.882,6.882,0,0,0,.473-8.669l-6.553-9.022a1.3,1.3,0,0,0-2.212.165,42.176,42.176,0,0,0-2.255,5.391,42.115,42.115,0,0,0-5.824.476,1.3,1.3,0,0,0-.842,2.053l6.553,9.022a6.835,6.835,0,0,0,4.489,2.752,6.963,6.963,0,0,0,1.092.086,6.8,6.8,0,0,0,2.984-.689c.4.479.959,1.153,1.618,1.983h-1.145a1.3,1.3,0,1,0,0,2.608h3.15a77.382,77.382,0,0,1,5.909,9.112A44.357,44.357,0,0,0,91.959,25.1a1.3,1.3,0,0,0-1.5,1.29,39.229,39.229,0,0,0,2.516,12.114,53.041,53.041,0,0,0,17,23.358v4.779l-5.531,20.743a1.3,1.3,0,0,0,1.26,1.64h25.089a1.3,1.3,0,0,0,1.26-1.64l-5.531-20.743V61.865a53.042,53.042,0,0,0,17-23.358,39.223,39.223,0,0,0,2.516-12.114,1.3,1.3,0,0,0-1.5-1.29,39.594,39.594,0,0,0-9.718,3.16,44.45,44.45,0,0,0-12.488,8.568,77.432,77.432,0,0,1,5.921-9.134H131.4a1.3,1.3,0,0,0,0-2.608h-1.144c.659-.829,1.215-1.5,1.618-1.983A6.8,6.8,0,0,0,134.86,23.8Zm8.722-11.6L141.613,14.9a21.283,21.283,0,0,0-.513-2.872C142.018,12.064,142.869,12.126,143.582,12.193ZM94.884,14.9l-1.97-2.712c.713-.067,1.563-.129,2.483-.16A21.274,21.274,0,0,0,94.884,14.9Zm9.248,5.465a4.271,4.271,0,0,1-5.966-.946c-1.87-2.575.114-8.66,1.658-12.254l5.254,7.234A4.276,4.276,0,0,1,104.132,20.37ZM122.52,3.518V6.864a21.364,21.364,0,0,0-2.1-2.017C121.178,4.333,121.9,3.883,122.52,3.518Zm-8.542,8.937V3.514c3.362,2,8.543,5.758,8.543,8.94a4.271,4.271,0,0,1-8.543,0ZM95.472,37.738a41.417,41.417,0,0,1-2.293-9.716,42.786,42.786,0,0,1,12.522,5.4,39.473,39.473,0,0,1,10.881,10.2,42.879,42.879,0,0,1,7.047,16.314h-3.038a38.407,38.407,0,0,0-9.768-18.522,1.3,1.3,0,1,0-1.874,1.814,35.68,35.68,0,0,1,8.961,16.708h-6.172A50.5,50.5,0,0,1,95.472,37.738Zm28.441,24.806v2.967h-11.33V62.544ZM129.1,86.419h-5.524l-.221-1.656a1.3,1.3,0,0,0-2.585.345l.175,1.311H107.4l4.88-18.3H118.5l1.522,11.413a1.3,1.3,0,1,0,2.585-.345l-1.476-11.069h3.084Zm6.732-55.748a41.582,41.582,0,0,1,7.49-2.649,41.409,41.409,0,0,1-2.293,9.716,50.2,50.2,0,0,1-14.962,21.127,45.9,45.9,0,0,0-6.237-15.115A40.762,40.762,0,0,1,135.828,30.671ZM131.419,14.4l5.255-7.235c1.546,3.593,3.531,9.675,1.657,12.255a4.271,4.271,0,0,1-6.912-5.02Z" transform="translate(-89.255 0)" fill="#c4ad76" stroke="#c4ad76" stroke-width="0.5"/>
      </g>
    </g>
  </g>
</svg>
