<svg xmlns="http://www.w3.org/2000/svg" width="51.366" height="77.467" viewBox="0 0 51.366 77.467">
  <g id="_001-cruzar" data-name="001-cruzar" transform="translate(1.5 1.5)">
    <path id="Path_57755" data-name="Path 57755" d="M135.913,17.376H118.528V2.179A2.18,2.18,0,0,0,116.347,0h-4.869A2.18,2.18,0,0,0,109.3,2.179v15.2H91.911a2.18,2.18,0,0,0-2.182,2.179v4.863A2.18,2.18,0,0,0,91.911,26.6H109.3v45.69a2.18,2.18,0,0,0,2.182,2.179h4.869a2.18,2.18,0,0,0,2.182-2.179V26.6h17.385a2.18,2.18,0,0,0,2.182-2.179V19.555a2.18,2.18,0,0,0-2.182-2.179Z" transform="translate(-89.729 0)" fill="none" stroke="#b79a57" stroke-width="3"/>
  </g>
</svg>
