<svg id="_001-charla" data-name="001-charla" xmlns="http://www.w3.org/2000/svg" width="45.202" height="41.237" viewBox="0 0 45.202 41.237">
  <path id="Path_57756" data-name="Path 57756" d="M42.112,28.6H36.285v-3.05a3.093,3.093,0,0,0-3.09-3.09H3.09A3.093,3.093,0,0,0,0,25.546V54.458A3.09,3.09,0,0,0,5.874,55.8l3.042-6.319v2.672a3.093,3.093,0,0,0,3.09,3.09H36.1l3.225,6.7A3.09,3.09,0,0,0,45.2,60.6V31.686a3.093,3.093,0,0,0-3.09-3.09ZM8.267,46.451a1.324,1.324,0,0,0-1.193.75L3.487,54.649a.4.4,0,0,1-.5.239.4.4,0,0,1-.343-.43V25.546A.442.442,0,0,1,3.09,25.1H33.2a.442.442,0,0,1,.441.441V46.01a.442.442,0,0,1-.441.441ZM42.553,60.6a.441.441,0,0,1-.839.192l-3.587-7.449a1.324,1.324,0,0,0-1.193-.75H12.007a.442.442,0,0,1-.441-.441V49.1H33.2a3.093,3.093,0,0,0,3.09-3.09V31.245h5.827a.442.442,0,0,1,.441.441Z" transform="translate(0 -22.456)" fill="#c4ad76"/>
  <path id="Path_57757" data-name="Path 57757" d="M151.885,114.079h-2.958v-2.953a1.324,1.324,0,1,0-2.649,0v2.953H143.32a1.324,1.324,0,0,0,0,2.649h2.958v2.937a1.324,1.324,0,0,0,2.649,0v-2.937h2.958a1.324,1.324,0,1,0,0-2.649Z" transform="translate(-129.46 -102.09)" fill="#c4ad76"/>
</svg>
