<svg xmlns="http://www.w3.org/2000/svg" width="25.267" height="25.267" viewBox="0 0 25.267 25.267">
  <g id="buildings" transform="translate(0)">
    <path id="Path_57762" data-name="Path 57762" d="M197.415.74a.74.74,0,0,0-.74-.74H191.74a.74.74,0,0,0-.74.74V1.974h6.415Z" transform="translate(-181.574)" fill="#b79a57"/>
    <path id="Path_57763" data-name="Path 57763" d="M24.526,90.332h-.3V83.176a.74.74,0,0,0-.409-.662l-1.812-.906v8.723h-1.48v-11.1a.74.74,0,0,0-.33-.616l-4.441-2.961a.74.74,0,0,0-1.151.616V90.332h-1.48V76.267A2.221,2.221,0,0,1,16.58,74.42l.742.495V70.74a.74.74,0,0,0-.74-.74h-7.9a.74.74,0,0,0-.74.74v.839H9.179A2.223,2.223,0,0,1,11.4,73.8V90.332H9.919V73.8a.74.74,0,0,0-.74-.74H4.737A.74.74,0,0,0,4,73.8v9.87H5.724A2.223,2.223,0,0,1,7.945,85.89v4.441H6.465V85.89a.74.74,0,0,0-.74-.74H1.777a.74.74,0,0,0-.74.74v4.441H.74a.74.74,0,1,0,0,1.48H24.526a.74.74,0,1,0,0-1.48Zm-7.7-8.636a.74.74,0,1,1,1.48,0v1.48a.74.74,0,1,1-1.48,0Zm0,4.441a.74.74,0,1,1,1.48,0v1.48a.74.74,0,1,1-1.48,0ZM7.7,81.7a.74.74,0,0,1-1.48,0v-1.48a.74.74,0,1,1,1.48,0Zm0-4.441a.74.74,0,1,1-1.48,0v-1.48a.74.74,0,1,1,1.48,0ZM3.01,88.6a.74.74,0,1,1,1.48,0v1.727H3.01Z" transform="translate(0 -66.546)" fill="#b79a57"/>
  </g>
</svg>
