<svg id="calendar" xmlns="http://www.w3.org/2000/svg" width="24" height="24" viewBox="0 0 24 24">
  <g id="Grupo_5269" data-name="Grupo 5269">
    <g id="Grupo_5268" data-name="Grupo 5268">
      <path id="Trazado_5083" data-name="Trazado 5083" d="M21.187,1.875H20.063V0H18.187V1.875H5.813V0H3.937V1.875H2.813A2.815,2.815,0,0,0,0,4.687v16.5A2.815,2.815,0,0,0,2.813,24H21.187A2.815,2.815,0,0,0,24,21.187V4.687a2.815,2.815,0,0,0-2.813-2.813Zm.937,19.313a.939.939,0,0,1-.937.937H2.813a.939.939,0,0,1-.937-.937V8.813h20.25Zm0-14.25H1.875V4.687a.939.939,0,0,1,.937-.937H3.937V5.625H5.813V3.75H18.187V5.625h1.875V3.75h1.125a.939.939,0,0,1,.937.937Z" fill="#fff"/>
    </g>
  </g>
</svg>
