<svg xmlns="http://www.w3.org/2000/svg" width="18.322" height="18.322" viewBox="0 0 18.322 18.322">
  <g id="Group_8637" data-name="Group 8637" transform="translate(-292.999 -618.474)">
    <rect id="Rectangle_3473" data-name="Rectangle 3473" width="18.322" height="18.322" rx="3" transform="translate(292.999 618.474)" fill="#006cad"/>
    <g id="globe" transform="translate(296.901 622.328)">
      <g id="Group_8321" data-name="Group 8321">
        <path id="Path_57778" data-name="Path 57778" d="M5.307,0A5.282,5.282,0,0,0,0,5.307a5.274,5.274,0,0,0,5.307,5.307,5.257,5.257,0,0,0,5.307-5.307A5.264,5.264,0,0,0,5.307,0ZM4.076.5a4.739,4.739,0,0,0-1.31,2.223,4.93,4.93,0,0,1-1.051-.838A4.972,4.972,0,0,1,4.076.5ZM1.488,2.139a5.2,5.2,0,0,0,1.185.923A8.973,8.973,0,0,0,2.4,5.136H.347A4.943,4.943,0,0,1,1.488,2.139Zm0,6.335a4.93,4.93,0,0,1-1.141-3H2.4a8.958,8.958,0,0,0,.272,2.073A5.357,5.357,0,0,0,1.488,8.474Zm.228.257a4.93,4.93,0,0,1,1.051-.838,4.749,4.749,0,0,0,1.31,2.223A5.006,5.006,0,0,1,1.715,8.731Zm3.42,1.527c-.89-.113-1.657-1.107-2.071-2.532a4.994,4.994,0,0,1,2.071-.533Zm0-3.406a5.316,5.316,0,0,0-2.158.537,8.962,8.962,0,0,1-.236-1.912H5.136V6.853Zm0-1.717H2.741a8.962,8.962,0,0,1,.236-1.912,5.332,5.332,0,0,0,2.158.537Zm0-1.715a4.954,4.954,0,0,1-2.071-.533C3.479,1.46,4.246.468,5.136.355ZM9.126,2.139a4.943,4.943,0,0,1,1.141,3H8.215a8.958,8.958,0,0,0-.272-2.073A5.3,5.3,0,0,0,9.126,2.139ZM8.9,1.882a4.93,4.93,0,0,1-1.051.838A4.76,4.76,0,0,0,6.537.5,5.006,5.006,0,0,1,8.9,1.882ZM5.478.355c.89.113,1.657,1.107,2.071,2.532a4.986,4.986,0,0,1-2.071.533Zm0,3.406a5.316,5.316,0,0,0,2.158-.537,8.962,8.962,0,0,1,.236,1.912H5.478Zm0,1.717H7.873A8.962,8.962,0,0,1,7.636,7.39a5.249,5.249,0,0,0-2.158-.537Zm0,4.78V7.194a4.954,4.954,0,0,1,2.071.533C7.135,9.153,6.368,10.146,5.478,10.259Zm1.059-.144a4.739,4.739,0,0,0,1.31-2.223A4.93,4.93,0,0,1,8.9,8.729,4.972,4.972,0,0,1,6.537,10.114Zm2.589-1.64a5.3,5.3,0,0,0-1.183-.923,8.973,8.973,0,0,0,.272-2.073h2.052A4.943,4.943,0,0,1,9.126,8.474Z" fill="#fff" stroke="#fff" stroke-width="0.2"/>
      </g>
    </g>
  </g>
</svg>
