<svg id="Group_20" data-name="Group 20" xmlns="http://www.w3.org/2000/svg" width="67.379" height="72.454" viewBox="0 0 67.379 72.454">
  <ellipse id="Ellipse_9" data-name="Ellipse 9" cx="33.689" cy="6.189" rx="33.689" ry="6.189" transform="translate(0 60.075)" fill="#efefef"/>
  <g id="Group_19" data-name="Group 19" transform="translate(3.878 0)">
    <path id="Path_29" data-name="Path 29" d="M99.963,314.68l-8.518-9.232v-7.465c0,1.952-8.828,3.535-19.72,3.535s-19.72-1.584-19.72-3.535v7.469l-8.514,9.228a6.06,6.06,0,0,0-1.576,4.1v39.578c0,3.211,13.344,5.812,29.809,5.812s29.814-2.6,29.814-5.812V318.784A6.06,6.06,0,0,0,99.963,314.68Z" transform="translate(-41.916 -294.448)" fill="#d9efe8"/>
    <path id="Path_30" data-name="Path 30" d="M104.671,297.983c0,1.952-8.828,3.535-19.72,3.535s-19.72-1.584-19.72-3.535Z" transform="translate(-55.142 -294.448)" fill="#efefef"/>
    <path id="Path_31" data-name="Path 31" d="M102.18,427.422c0,2.989-12.425,5.41-27.752,5.41s-27.747-2.421-27.747-5.41,12.421-5.41,27.747-5.41S102.18,424.433,102.18,427.422Z" transform="translate(-44.619 -364.805)" fill="#bee8da"/>
    <ellipse id="Ellipse_10" data-name="Ellipse 10" cx="19.72" cy="3.535" rx="19.72" ry="3.535" transform="translate(10.089)" fill="#efefef"/>
    <g id="Group_16" data-name="Group 16" transform="translate(3.133 18.443)">
      <path id="Path_32" data-name="Path 32" d="M102.512,341.258V380.9c0,2.108-11.943,3.818-26.678,3.818S49.157,383,49.157,380.9V341.258Z" transform="translate(-49.157 -337.439)" fill="#82a4b4"/>
      <path id="Path_33" data-name="Path 33" d="M90.188,341.258c.656,8.818-2.549,17.115-9.9,23.972-8.377,6.992-19.692,9.078-31.132,8.791V380.9c0,2.108,11.947,3.818,26.678,3.818s26.678-1.71,26.678-3.818V341.258Z" transform="translate(-49.157 -337.439)" fill="#7298a8"/>
      <ellipse id="Ellipse_11" data-name="Ellipse 11" cx="26.677" cy="3.817" rx="26.677" ry="3.817" transform="translate(0.002)" fill="#97bed1"/>
      <path id="Path_34" data-name="Path 34" d="M107.733,339.4c0,.782-4.43,1.416-9.894,1.416s-9.894-.634-9.894-1.416,4.429-1.415,9.894-1.415S107.733,338.617,107.733,339.4Z" transform="translate(-71.16 -335.582)" fill="#82a4b4"/>
    </g>
    <g id="Group_18" data-name="Group 18" transform="translate(26.497 0.2)">
      <g id="Group_17" data-name="Group 17">
        <path id="Path_35" data-name="Path 35" d="M105.325,309.184a4.985,4.985,0,0,1-2.02-5.582c.852-3.984,4.2-7.895,3.036-13.327,0,0,3.35,5.541,3.435,11.407S105.325,309.184,105.325,309.184Z" transform="translate(-103.147 -290.275)" fill="#ef9178"/>
        <path id="Path_36" data-name="Path 36" d="M106.85,320.9a2.62,2.62,0,0,1-.838-3.006c.6-2.054,2.513-3.972,2.117-6.865a13.7,13.7,0,0,1,1.351,6.115A3.97,3.97,0,0,1,106.85,320.9Z" transform="translate(-104.688 -302.046)" fill="#efae78"/>
        <path id="Path_37" data-name="Path 37" d="M109.185,331.334a6.348,6.348,0,0,1-1-3.921c.136-1.234,1-2.289.983-3.554" transform="translate(-105.991 -309.327)" fill="none" stroke="#3f121f" stroke-linecap="round" stroke-linejoin="round" stroke-width="0.771"/>
      </g>
    </g>
    <path id="Path_38" data-name="Path 38" d="M84.951,300.086c-10.074,0-18.376-1.355-19.568-3.1a.773.773,0,0,0-.152.433c0,1.952,8.829,3.535,19.72,3.535s19.72-1.584,19.72-3.535a.77.77,0,0,0-.152-.433C103.327,298.731,95.025,300.086,84.951,300.086Z" transform="translate(-55.142 -293.88)" fill="#d9efe8" opacity="0.49" style="mix-blend-mode: screen;isolation: isolate"/>
    <path id="Path_39" data-name="Path 39" d="M65.231,315.243a83.365,83.365,0,0,0,39.44,0" transform="translate(-55.142 -304.239)" fill="none" stroke="#d9efe8" stroke-miterlimit="10" stroke-width="2" opacity="0.49" style="mix-blend-mode: screen;isolation: isolate"/>
  </g>
  <path id="Path_40" data-name="Path 40" d="M56.072,379.755h0a2.529,2.529,0,0,1-2.529-2.529V340.512a2.529,2.529,0,0,1,2.529-2.529h0a2.529,2.529,0,0,1,2.529,2.529v36.714A2.529,2.529,0,0,1,56.072,379.755Z" transform="translate(-44.634 -317.138)" fill="#d9efe8" opacity="0.49" style="mix-blend-mode: screen;isolation: isolate"/>
  <path id="Path_41" data-name="Path 41" d="M163.481,379.049h0a1.265,1.265,0,0,1-1.264-1.264V338.541a1.265,1.265,0,0,1,1.264-1.264h0a1.264,1.264,0,0,1,1.264,1.264v39.243A1.264,1.264,0,0,1,163.481,379.049Z" transform="translate(-106.281 -316.738)" fill="#d9efe8" opacity="0.24" style="mix-blend-mode: screen;isolation: isolate"/>
</svg>
