<svg xmlns="http://www.w3.org/2000/svg" width="42" height="42" viewBox="0 0 42 42">
  <g id="Group_8652" data-name="Group 8652" transform="translate(-930 -100)">
    <circle id="Ellipse_250" data-name="Ellipse 250" cx="21" cy="21" r="21" transform="translate(930 100)" fill="#006cad"/>
    <g id="_001-bouquet" data-name="001-bouquet" transform="translate(852.674 107.739)">
      <g id="Group_9" data-name="Group 9" transform="translate(89.255 0)">
        <g id="Group_8" data-name="Group 8" transform="translate(0 0)">
          <path id="Path_57760" data-name="Path 57760" d="M102.841,7.089a2.08,2.08,0,0,0,.325-.026,2.036,2.036,0,0,0,1.337-.82l1.952-2.688a.389.389,0,0,0-.251-.612A12.514,12.514,0,0,0,104.47,2.8,12.6,12.6,0,0,0,103.8,1.2a.389.389,0,0,0-.659-.049l-1.952,2.688a2.05,2.05,0,0,0,.141,2.583c-.3.351-.816.99-1.386,1.785v-.34a.389.389,0,0,0-.777,0V9.347c-.312.488-.615,1-.884,1.528V8.694h0V8.024l1.132-1.132a.388.388,0,0,0-.549-.549l-.583.583v-1.2A2.053,2.053,0,0,0,99.942,3.71V.388A.388.388,0,0,0,99.38.041a12.6,12.6,0,0,0-1.487.9,12.6,12.6,0,0,0-1.487-.9.389.389,0,0,0-.562.347V3.71A2.053,2.053,0,0,0,97.5,5.722V7.755l-1-1a.389.389,0,0,0-.549.549L97.5,8.854v2.021a25.99,25.99,0,0,0-3.047-4.458A2.05,2.05,0,0,0,94.6,3.834L92.645,1.147a.389.389,0,0,0-.659.049A12.566,12.566,0,0,0,91.315,2.8a12.547,12.547,0,0,0-1.735.142.389.389,0,0,0-.251.612l1.952,2.688a2.036,2.036,0,0,0,1.337.82,2.074,2.074,0,0,0,.325.026,2.026,2.026,0,0,0,.889-.205c.12.143.286.344.482.591h-.341a.389.389,0,0,0,0,.777h.938a23.052,23.052,0,0,1,1.76,2.715A13.215,13.215,0,0,0,90.06,7.479a.389.389,0,0,0-.446.384,11.688,11.688,0,0,0,.75,3.609,15.8,15.8,0,0,0,5.064,6.959v1.424l-1.648,6.18a.389.389,0,0,0,.375.489h7.475a.389.389,0,0,0,.375-.489l-1.648-6.18V18.431a15.8,15.8,0,0,0,5.064-6.959,11.686,11.686,0,0,0,.75-3.609.389.389,0,0,0-.446-.384,11.8,11.8,0,0,0-2.9.941,13.243,13.243,0,0,0-3.72,2.553,23.069,23.069,0,0,1,1.764-2.721h.938a.389.389,0,1,0,0-.777h-.341c.2-.247.362-.448.482-.591A2.027,2.027,0,0,0,102.841,7.089Zm2.6-3.456-.587.808a6.339,6.339,0,0,0-.153-.856C104.974,3.594,105.227,3.612,105.44,3.632ZM90.932,4.44l-.587-.808c.212-.02.466-.038.74-.048A6.336,6.336,0,0,0,90.932,4.44Zm2.755,1.628a1.273,1.273,0,0,1-1.777-.282c-.557-.767.034-2.58.494-3.651l1.565,2.155A1.274,1.274,0,0,1,93.687,6.068Zm5.478-5.021v1a6.366,6.366,0,0,0-.626-.6C98.765,1.291,98.981,1.157,99.165,1.048ZM96.62,3.71V1.047c1,.6,2.545,1.715,2.545,2.664a1.273,1.273,0,0,1-2.545,0Zm-5.513,7.532a12.339,12.339,0,0,1-.683-2.895,12.747,12.747,0,0,1,3.73,1.608A11.76,11.76,0,0,1,97.4,13a12.775,12.775,0,0,1,2.1,4.86h-.9a11.442,11.442,0,0,0-2.91-5.518.389.389,0,1,0-.558.54,10.63,10.63,0,0,1,2.67,4.978H95.953A15.044,15.044,0,0,1,91.107,11.243Zm8.473,7.39v.884H96.2v-.884Zm1.544,7.113H99.478l-.066-.493a.389.389,0,1,0-.77.1l.052.39H94.661l1.454-5.452h1.853l.453,3.4a.389.389,0,1,0,.77-.1l-.44-3.3h.919ZM103.13,9.137a12.388,12.388,0,0,1,2.231-.789,12.337,12.337,0,0,1-.683,2.894,14.957,14.957,0,0,1-4.458,6.294,13.674,13.674,0,0,0-1.858-4.5A12.144,12.144,0,0,1,103.13,9.137Zm-1.314-4.846,1.565-2.155c.461,1.07,1.052,2.882.494,3.651a1.273,1.273,0,0,1-2.059-1.5Z" transform="translate(-89.255 0)" fill="#fff" stroke="#fff" stroke-width="0.5"/>
        </g>
      </g>
    </g>
  </g>
</svg>
