<svg id="Group_8572" data-name="Group 8572" xmlns="http://www.w3.org/2000/svg" width="44.655" height="82.666" viewBox="0 0 44.655 82.666">
  <path id="Path_600" data-name="Path 600" d="M1665.884,980.53v.005l-.236,0-.239,0v-.005c-2.434-.05-4.43-.489-5.368-1.226a2.247,2.247,0,0,0,1.063,1.57,12.976,12.976,0,0,0,4.869.831c2.049,0,4.513-.475,5.226-1.01a2.768,2.768,0,0,0,.765-1.5c-.011.011-.023.026-.034.036C1671.035,980.012,1668.463,980.478,1665.884,980.53Z" transform="translate(-1642.426 -899.039)" fill="#efb575"/>
  <path id="Path_601" data-name="Path 601" d="M1860.156,249.442c.245-.752.464-1.514.647-2.287a22.3,22.3,0,0,0,.658-5.163,25.894,25.894,0,0,0-.968-5.578c-.1-.452-.5-.168-.436.2a23.116,23.116,0,0,1-1.376,12.051,15.2,15.2,0,0,1-.651,1.389,3.362,3.362,0,0,1,2.028-.618C1860.092,249.434,1860.124,249.44,1860.156,249.442Z" transform="translate(-1820.875 -229.36)" fill="#85ac63"/>
  <path id="Path_602" data-name="Path 602" d="M1807.4,487.544c.163-.217.325-.435.489-.652-.031-.007-.062-.016-.093-.026Z" transform="translate(-1775.24 -455.303)" fill="#85ac63"/>
  <path id="Path_603" data-name="Path 603" d="M1729.2,482.161a2.7,2.7,0,0,1,.192.829h1.78c.948-2.208,1.907-4.411,3.016-6.545.711-1.367,1.3-2.775,1.952-4.163a1.981,1.981,0,0,1-1.432-.446,31.456,31.456,0,0,0-3.908,5.934A22.426,22.426,0,0,0,1729.2,482.161Z" transform="translate(-1704.762 -441.757)" fill="#85ac63"/>
  <path id="Path_604" data-name="Path 604" d="M1755.641,577.4c.043-.224.094-.446.156-.664.015-.051.032-.1.047-.151q-.23.407-.458.816Z" transform="translate(-1728.361 -536.165)" fill="#85ac63"/>
  <path id="Path_605" data-name="Path 605" d="M1667.947,179.727a10.894,10.894,0,0,1,1.535,2.676c.341-2.442,1.266-4.941,2.917-5.578a95.872,95.872,0,0,1,4.243-9.059.907.907,0,0,0-.086-.617.167.167,0,0,0-.241-.062c-1.784.97-3.555,2.061-5.407,2.867a.8.8,0,0,0-.266,1.007,3.63,3.63,0,0,1-.66,4.307l-1.061-2.769c-.119-.31-.293-.279-.437-.1a.136.136,0,0,0-.049.026,43.161,43.161,0,0,0-4.539,4.687,3.777,3.777,0,0,0,.28,1.508C1665.391,177.5,1666.937,178.466,1667.947,179.727Z" transform="translate(-1645.875 -167.059)" fill="#89a082"/>
  <path id="Path_606" data-name="Path 606" d="M1754.556,168.587a95.841,95.841,0,0,0-4.243,9.059,2.355,2.355,0,0,1,1.206-.132,1.861,1.861,0,0,1,1.527,1.608,3.644,3.644,0,0,1,.236,1.992,17.178,17.178,0,0,1-.467,2.565,8.23,8.23,0,0,1,2.639-1.353,3.2,3.2,0,0,1,2.581.275,18.8,18.8,0,0,0-.823-6.546c-.083-.329-.357-.452-.587-.184l-1.433,1.672c-.193.225-.88,1.265-1.075,1.254-1.259-.075-.286-2.361-.053-2.719a8.926,8.926,0,0,1,1.651-1.708.805.805,0,0,0,.2-.768c-.426-1.668-.7-3.375-1.149-5.036a.555.555,0,0,0-.3-.6A.827.827,0,0,1,1754.556,168.587Z" transform="translate(-1723.789 -167.88)" fill="#6d776e"/>
  <path id="Path_607" data-name="Path 607" d="M1737.276,405.71a4.334,4.334,0,0,1-.416.23,16.881,16.881,0,0,1-.073,2.241c-.08,1.411-.124,2.827-.21,4.238a6.887,6.887,0,0,0,3.794-1.164,7.625,7.625,0,0,1-.756-1.182,7.367,7.367,0,0,1-.824-3.712,3.582,3.582,0,0,1-1.448-.521A.18.18,0,0,1,1737.276,405.71Z" transform="translate(-1711.409 -382.156)" fill="#6d776e"/>
  <path id="Path_608" data-name="Path 608" d="M1706.785,415.487c-.123-1.614-.211-3.212-.236-4.81a7.291,7.291,0,0,0,1.28.286,37.145,37.145,0,0,0-.437-4.491c-.1-.632-.233-1.233-.269-1.823a1.121,1.121,0,0,1-.4-.488,1.81,1.81,0,0,1-.438.011,24.2,24.2,0,0,0-.161,2.743c-.178,1.177-.3,2.367-.363,3.56a43.23,43.23,0,0,0,.021,5.036c.071,1.149.139,2.335.23,3.53.133.179.261.358.385.53a2.481,2.481,0,0,1,.78.458q.034-.3.071-.6C1707.063,418.11,1706.885,416.795,1706.785,415.487Z" transform="translate(-1683.578 -380.76)" fill="#6d776e"/>
  <path id="Path_609" data-name="Path 609" d="M1485.755,288.156h0a60.042,60.042,0,0,1,6.607,8.573,24.4,24.4,0,0,1-.44-4.061c-.072-.36-.151-.718-.252-1.073-.05-.175.165-.576.323-.3a14.582,14.582,0,0,0,3.573,3.836,6.614,6.614,0,0,1,.135-1.067,6.654,6.654,0,0,0-.008-1.945,29.216,29.216,0,0,0-3.77-2.3.091.091,0,0,0-.036-.009c-.124-.09-.244-.081-.269.143q-.113,1-.226,1.995a2.457,2.457,0,0,1-1.163-2.711.538.538,0,0,0-.345-.615c-1.35-.215-2.7-.629-4.03-.963a.113.113,0,0,0-.148.082A.613.613,0,0,0,1485.755,288.156Z" transform="translate(-1485.281 -275.748)" fill="#89a082"/>
  <path id="Path_610" data-name="Path 610" d="M1554.566,346.779l.008-.011-.022-.04Z" transform="translate(-1547.348 -328.997)" fill="#89a082"/>
  <path id="Path_611" data-name="Path 611" d="M1610.31,339.884c0-.068,0-.134-.006-.2-.047-.805.4-2.768,1.6-1.87,1.076.8.857,2.827.532,3.932l-.008.028a4.172,4.172,0,0,1,.154,1.109,16.34,16.34,0,0,1,.923,2.074c.589-.57.941-1.385,1.59-1.835,1.541-1.068,1.861,1.682,1.731,2.584a2.973,2.973,0,0,1-.394,1.131c.942.345,1.907.623,2.844.88.065-1.193.185-2.383.363-3.56a24.228,24.228,0,0,1,.161-2.743c-1.419-.13-3-1.771-3.8-2.621a7.265,7.265,0,0,1-1.419-2.139,27.745,27.745,0,0,1-2.388-2.015.278.278,0,0,0-.4-.038,6.065,6.065,0,0,0-1.883,4.519c-.056.079-.111.159-.168.236Q1610.033,339.614,1610.31,339.884Z" transform="translate(-1597.092 -318.001)" fill="#89a082"/>
  <path id="Path_612" data-name="Path 612" d="M1522.952,460.51a8.91,8.91,0,0,1-1.071-.557c-.181-.11-.376-.236-.571-.372a5.6,5.6,0,0,0,2.437,1.8A3.836,3.836,0,0,1,1522.952,460.51Z" transform="translate(-1517.387 -430.71)" fill="#6d776e"/>
  <path id="Path_613" data-name="Path 613" d="M1486.521,302.322a3.177,3.177,0,0,1-.123-2.376,1.887,1.887,0,0,1,2.516-1.187c-.1-.41-.192-.823-.273-1.237a60.03,60.03,0,0,0-6.606-8.573h0a.56.56,0,0,1-.048-.419.375.375,0,0,0-.094.441c-.011,1.164.1,2.33.1,3.5a.546.546,0,0,0,.263.469,6.044,6.044,0,0,1,1.372.839c.214.195,1.238,1.528.426,1.791-.126.041-.753-.525-.917-.64l-1.223-.853c-.2-.137-.355-.009-.353.22.012,1.84.051,3.858,1.094,5.479a4.653,4.653,0,0,0,1.772,1.659,1.043,1.043,0,0,1,.108-.042C1485.248,301.177,1485.957,301.774,1486.521,302.322Z" transform="translate(-1481.56 -276.541)" fill="#6d776e"/>
  <path id="Path_614" data-name="Path 614" d="M1585.851,460.4l.041.006-.02-.03C1585.865,460.381,1585.857,460.388,1585.851,460.4Z" transform="translate(-1575.558 -431.423)" fill="#6d776e"/>
  <path id="Path_615" data-name="Path 615" d="M1754.611,476.29a2.068,2.068,0,0,1-.134-.292c-.039-.054-.073-.11-.106-.167a1.528,1.528,0,0,1-.219.052c-.655,1.388-1.241,2.8-1.952,4.163-1.109,2.133-2.068,4.336-3.016,6.545h.612q.228-.408.458-.816c.823-1.454,1.66-2.9,2.472-4.369.678-1.226,1.384-2.425,2.1-3.628l.1-.179.4-.678A1.284,1.284,0,0,1,1754.611,476.29Z" transform="translate(-1722.771 -445.357)" fill="#534d42"/>
  <path id="Path_616" data-name="Path 616" d="M1656.215,584.847h-.547a.922.922,0,0,0-.594,1.188,5.551,5.551,0,0,0,.213.609,9.237,9.237,0,0,1,.683-1.42C1656.044,585.1,1656.127,584.975,1656.215,584.847Z" transform="translate(-1637.911 -543.613)" fill="#f9e99d"/>
  <path id="Path_617" data-name="Path 617" d="M1647.263,584.847h-1.78a5.313,5.313,0,0,1-1.809,3.856c-1.016.981-2.109,1.924-3.218,2.807l.052.107a118.725,118.725,0,0,0-4.157,17.1c-.95,7.245,1.069,14.252,2.019,15.083.029.026.064.05.1.075.938.737,2.934,1.176,5.368,1.226v.005l.239,0,.236,0V625.1c2.579-.051,5.151-.518,6.047-1.3.011-.01.022-.024.034-.035.963-.962,2.924-7.887,1.985-15.048a118.708,118.708,0,0,0-4.157-17.1s2.257-4.632,2.494-5.582a.922.922,0,0,0-.594-1.188h-2.854Zm-8.245,21.454c.193-2.46.928-4.409,1.642-4.353s1.134,2.1.941,4.556-.928,4.409-1.641,4.353S1638.825,608.761,1639.018,606.3Z" transform="translate(-1620.85 -543.613)" fill="#f9e99d"/>
  <path id="Path_618" data-name="Path 618" d="M1636.2,421.468a2.541,2.541,0,0,0,.29-.244,16.348,16.348,0,0,0-.923-2.074,11.857,11.857,0,0,1-.109,1.638,10.4,10.4,0,0,1-.214,1.215A6.231,6.231,0,0,0,1636.2,421.468Z" transform="translate(-1620.074 -394.27)" fill="#675840"/>
  <path id="Path_619" data-name="Path 619" d="M1651.4,487.864a1.55,1.55,0,0,1-.375.147q.7.877,1.437,1.727a1.372,1.372,0,0,0,.017-.579c-.16-.653-.311-1.317-.466-1.984A1.5,1.5,0,0,1,1651.4,487.864Z" transform="translate(-1634.296 -455.581)" fill="#675840"/>
  <path id="Path_620" data-name="Path 620" d="M1621.253,489.056c-.554-.706-1.1-1.421-1.631-2.148a3.358,3.358,0,0,1-1.414-.316,14.64,14.64,0,0,0-1.495-.7l-.045-.014q.361.686.7,1.381a14.455,14.455,0,0,0,3.43,1.877A.405.405,0,0,0,1621.253,489.056Z" transform="translate(-1603.334 -454.412)" fill="#675840"/>
  <path id="Path_621" data-name="Path 621" d="M1606.655,380.928a6.6,6.6,0,0,1,.526,1.956c.012-.026.023-.054.035-.079a11.4,11.4,0,0,0,.04-1.54q-.278-.269-.567-.529-.165-.148-.334-.294A2.594,2.594,0,0,1,1606.655,380.928Z" transform="translate(-1594.038 -359.382)" fill="#675840"/>
  <path id="Path_622" data-name="Path 622" d="M1546.549,323.718c-.158-.275-.373.126-.323.3.1.354.18.713.252,1.073a24.413,24.413,0,0,0,.44,4.061c.08.414.17.827.273,1.237a2.767,2.767,0,0,1,.584.275,3.885,3.885,0,0,1,1.06,1.02,4.483,4.483,0,0,1,0-1.924c.008-.035.022-.063.031-.1a16.535,16.535,0,0,1-2.057-5.135c-.016-.073.062-.128.087-.039a19.224,19.224,0,0,0,2.1,4.83,1.629,1.629,0,0,1,2.339-.776c-.4-.33-.809-.658-1.212-.989A14.577,14.577,0,0,1,1546.549,323.718Zm.506,2.237-.014-.05.022.04Z" transform="translate(-1539.838 -308.172)" fill="#675840"/>
  <path id="Path_623" data-name="Path 623" d="M1586.077,460.266l.015,0-.022-.047-.012.015Z" transform="translate(-1575.744 -431.287)" fill="#675840"/>
  <path id="Path_624" data-name="Path 624" d="M1685.239,545.908a2.672,2.672,0,0,0-1.768-.649c.4.525.824,1.042,1.264,1.512a2.6,2.6,0,0,1,1.221-.129A6.019,6.019,0,0,0,1685.239,545.908Z" transform="translate(-1663.543 -507.933)" fill="#715e57"/>
  <path id="Path_625" data-name="Path 625" d="M1648.805,497.762c-.113-.129-.223-.261-.335-.391q-.736-.85-1.436-1.727a1.91,1.91,0,0,1-.437.067c.531.727,1.077,1.442,1.631,2.148l.091.117c.456.58.935,1.252,1.441,1.933a2.427,2.427,0,0,1,1.1-.036c.017,0,.034.012.051.017C1650.182,499.179,1649.44,498.485,1648.805,497.762Z" transform="translate(-1630.309 -463.214)" fill="#715e57"/>
  <path id="Path_626" data-name="Path 626" d="M1554.4,336.8a19.23,19.23,0,0,1-2.1-4.829c-.025-.088-.1-.034-.087.039a16.537,16.537,0,0,0,2.057,5.135A2.51,2.51,0,0,1,1554.4,336.8Z" transform="translate(-1545.239 -315.657)" fill="#715e57"/>
  <path id="Path_627" data-name="Path 627" d="M1601.948,480.193q-.341-.694-.7-1.381a4.447,4.447,0,0,1-1.224-.493.39.39,0,0,1-.083-.079,1.641,1.641,0,0,1-.371-.2c0,.021-.007.04-.01.061l.026.054a.956.956,0,0,1,.215.122,1.245,1.245,0,0,1,.392.912l.018.027c.862,1.267,1.592,2.489,2.333,3.839q.417.759.877,1.491.312-.045.622-.087C1603.309,483.054,1602.648,481.616,1601.948,480.193Z" transform="translate(-1587.913 -447.346)" fill="#a6bb9f"/>
  <path id="Path_628" data-name="Path 628" d="M1647.373,554.512c-.142.061-.283.123-.423.188a32.874,32.874,0,0,0,2.075,2.674q.058-.079.119-.159A23.755,23.755,0,0,1,1647.373,554.512Z" transform="translate(-1630.627 -516.273)" fill="#a6bb9f"/>
  <path id="Path_629" data-name="Path 629" d="M1721.744,414.518c.086-1.411.13-2.827.209-4.238a16.88,16.88,0,0,0,.073-2.241,1.979,1.979,0,0,1-1.907.106c.036.59.166,1.191.269,1.823a37.143,37.143,0,0,1,.437,4.491c.018.439.033.88.041,1.325a51.383,51.383,0,0,1-.619,7.139q-.037.3-.071.6c.041.035.082.068.123.107a3.113,3.113,0,0,1,.464.559,63.655,63.655,0,0,0,.909-8.6C1721.7,415.232,1721.722,414.875,1721.744,414.518Z" transform="translate(-1696.575 -384.255)" fill="#534d42"/>
  <path id="Path_630" data-name="Path 630" d="M1524.321,477.8a.948.948,0,0,0-.215-.122l-.035-.011a.8.8,0,0,1-.531.674,6.55,6.55,0,0,1-4.329-.522c-.914-.078-1.825-.2-2.708-.3-.625-.075-.756,1.037-.66,1.405a2.7,2.7,0,0,0,1.753,2.029c.624.24,1.3.293,1.908.58.589.277,1.021.771,1.591,1.067,1.984,1.031,3.345-1.975,3.6-3.518a1.729,1.729,0,0,0,.016-.367A1.246,1.246,0,0,0,1524.321,477.8Zm-1.56,2.8c-.169.279-.47.9-.856.8-.085-.021-.081-.161-.065-.221.1-.358.472-.556.733-.8a3.6,3.6,0,0,0,.81-1.2c.02-.044.053,0,.042.036A7.359,7.359,0,0,1,1522.762,480.6Zm-5.068-.389c-.135-.032-.12-.312-.009-.362a4.785,4.785,0,0,1,1.431-.2,12.593,12.593,0,0,0,1.822-.319c.034-.009.043.06.014.07-.595.217-1.183.44-1.8.6A3.131,3.131,0,0,1,1517.693,480.207Z" transform="translate(-1512.435 -446.871)" fill="#ff8359"/>
  <path id="Path_631" data-name="Path 631" d="M1606.269,426.416a3.359,3.359,0,0,0,1.414.316,1.914,1.914,0,0,0,.437-.067,1.553,1.553,0,0,0,.375-.147,1.5,1.5,0,0,0,.612-.689c.005-.011.012-.022.018-.033a6.219,6.219,0,0,1,.825-1.69,8.21,8.21,0,0,0,.786-1.036,2.969,2.969,0,0,0,.395-1.131c.131-.9-.19-3.652-1.731-2.584-.65.45-1,1.265-1.59,1.835a2.513,2.513,0,0,1-.29.244,6.229,6.229,0,0,1-.956.535,3.965,3.965,0,0,1-.687,1.56c-.135.3-.391.523-.687.444-.018,0-.035.012-.055.015-.086.015-.142-.054-.176-.135a.918.918,0,0,1-.087-.079,2.385,2.385,0,0,1-.119.516,1.384,1.384,0,0,1-.361.634.865.865,0,0,1-.969.205.4.4,0,0,0,.083.079,4.448,4.448,0,0,0,1.224.493l.045.014A14.709,14.709,0,0,1,1606.269,426.416Zm-.323-1.573c-.046,0-.049-.1,0-.1a13.725,13.725,0,0,0,2.792-.586c.225-.064.284.4.094.457A8.364,8.364,0,0,1,1605.946,424.843Zm3.373-3.471c.146-.068.165.19.145.27a2.446,2.446,0,0,1-.9,1.062,8.568,8.568,0,0,1-1.212.765c-.041.023-.052-.073-.019-.094a5.712,5.712,0,0,0,1.151-1.026,7.881,7.881,0,0,0,.523-.648C1609.105,421.562,1609.162,421.446,1609.32,421.372Z" transform="translate(-1591.395 -394.236)" fill="#ff8359"/>
  <path id="Path_632" data-name="Path 632" d="M1660.782,270.027a8.353,8.353,0,0,1,.95,1.293,1.685,1.685,0,0,1,.588-.6,4.547,4.547,0,0,1,2.491-.212,2.474,2.474,0,0,1,1.582-.42,1.7,1.7,0,0,1,1.458,1.144,6.5,6.5,0,0,1,1.668.878,3.422,3.422,0,0,1,.417-.165c1.584-.5,3.407-.342,3.779,1.55a2.687,2.687,0,0,1,.044.342,3.5,3.5,0,0,0,1.056-2.48,2.146,2.146,0,0,0-.929-1.84,3.2,3.2,0,0,0-2.581-.275,8.224,8.224,0,0,0-2.639,1.353,17.16,17.16,0,0,0,.467-2.565,3.645,3.645,0,0,0-.235-1.992,1.861,1.861,0,0,0-1.527-1.608,2.356,2.356,0,0,0-1.207.132c-1.651.637-2.577,3.135-2.917,5.578a10.886,10.886,0,0,0-1.534-2.676c-1.01-1.261-2.556-2.222-3.772-1.111a2.947,2.947,0,0,0-.486.588,3.8,3.8,0,0,0-.347,3.032C1657.889,268.483,1659.69,268.826,1660.782,270.027Zm4.387-.93c0-.038-.008-.075-.013-.113-.023-.2.181-.193.159,0,0,.038-.009.076-.013.113C1665.29,269.186,1665.18,269.193,1665.169,269.1Zm.047-2.667c.347-.509,1.256-1.223,1.824-.621a.847.847,0,0,1,.145.926c-.163.367-.47.472-.81.637a3.272,3.272,0,0,0-1.517,1.617c-.1.266-.333.017-.288-.175A6.251,6.251,0,0,1,1665.216,266.43Z" transform="translate(-1639.639 -254.793)" fill="#f28aac"/>
  <path id="Path_633" data-name="Path 633" d="M1706.767,328a4.679,4.679,0,0,1,1.733-2.284,4.547,4.547,0,0,0-2.49.212,1.686,1.686,0,0,0-.588.6,12.665,12.665,0,0,1,1.1,2.391A6.379,6.379,0,0,1,1706.767,328Z" transform="translate(-1683.328 -310.003)" fill="#f9e99d"/>
  <path id="Path_634" data-name="Path 634" d="M1767.728,335.492a4.562,4.562,0,0,1,1.362-1.012,6.489,6.489,0,0,0-1.668-.878A4.952,4.952,0,0,1,1767.728,335.492Z" transform="translate(-1739.209 -317.165)" fill="#f9e99d"/>
  <path id="Path_635" data-name="Path 635" d="M1660.385,320.07a1.807,1.807,0,0,0,.438-.011,2.217,2.217,0,0,1-.164-.871,6.338,6.338,0,0,1,.115-1.189,8.242,8.242,0,0,1,.1-2.424,12.681,12.681,0,0,0-1.1-2.391,8.33,8.33,0,0,0-.95-1.292c-1.092-1.2-2.893-1.544-3.676-.057a2.675,2.675,0,0,0-.172.4,4.312,4.312,0,0,0,.194,3.078,7.267,7.267,0,0,0,1.419,2.139C1657.387,318.3,1658.966,319.941,1660.385,320.07Zm-.884-2.753c.016.047-.036.127-.062.058a15.843,15.843,0,0,1-1.226-3.037c-.018-.117.1-.413.229-.214a5.629,5.629,0,0,1,.54,1.472C1659.158,316.168,1659.3,316.752,1659.5,317.317Zm-3.448-3.624a13.994,13.994,0,0,0,3.089,4.665c.028.024.011.109-.028.079a8.563,8.563,0,0,1-3.349-4.549C1655.719,313.686,1655.922,313.436,1656.053,313.693Z" transform="translate(-1637.676 -296.659)" fill="#fb92c0"/>
  <path id="Path_636" data-name="Path 636" d="M1748.085,338.62a3.431,3.431,0,0,0-.417.165,4.557,4.557,0,0,0-1.362,1.012c0,.219-.011.429-.027.618a5.946,5.946,0,0,1-2.561,4.57l-.063.038a.179.179,0,0,0,.067.13,3.582,3.582,0,0,0,1.448.521,4.87,4.87,0,0,1,.261-1.312,1.91,1.91,0,0,1,1.631-1.429,2.293,2.293,0,0,1,.2-.457,2.532,2.532,0,0,1,.752-.769c.454-.376.852-.888,1.291-1.229a1.7,1.7,0,0,1,2.606.213c0-.06,0-.119,0-.179a2.686,2.686,0,0,0-.044-.342C1751.492,338.278,1749.669,338.125,1748.085,338.62Z" transform="translate(-1717.788 -321.471)" fill="#fb92c0"/>
  <path id="Path_637" data-name="Path 637" d="M1793.5,363.37a2.019,2.019,0,0,0-2.852-1.587,4.706,4.706,0,0,0,.276-2.306c-.191-1.449-1.11-3.227-2.74-3.349-.032,0-.064-.008-.1-.009a3.361,3.361,0,0,0-2.028.618,7.039,7.039,0,0,0-2.057,2.423,8.009,8.009,0,0,0-.109-1.923,4.452,4.452,0,0,0-.868-1.97,1.7,1.7,0,0,0-2.606-.213c-.44.341-.838.853-1.292,1.229a2.53,2.53,0,0,0-.751.769,2.293,2.293,0,0,0-.2.457,2,2,0,0,1,1.723,1.029,4.732,4.732,0,0,1,.717,2.3,2.038,2.038,0,0,1,.758-.774c-.052.145-.1.293-.151.429-.032.083.065.211.111.094.08-.206.181-.416.252-.631a2.424,2.424,0,0,1,.573-.169c-.009.02-.018.041-.025.058a1.383,1.383,0,0,0-.094.574c.005.133.141.129.142,0a1.052,1.052,0,0,1,.106-.456,2.078,2.078,0,0,1,.126-.2c.086-.007.174-.011.266-.011a3.509,3.509,0,0,1,.38.026c-.061.079-.116.158-.159.21s-.014.251.071.173a3.147,3.147,0,0,0,.355-.341,4.007,4.007,0,0,1,.553.144.778.778,0,0,0-.171.321c-.015.076.082.182.117.071a.391.391,0,0,1,.222-.246c.041-.018.081-.027.119-.04a4.56,4.56,0,0,1,.652.339c-.087.063-.17.13-.25.186-.052.037-.025.205.051.167.135-.068.282-.131.416-.21a4.894,4.894,0,0,1,.528.431,1.3,1.3,0,0,0-.309.313c-.043.064.018.276.1.183a1.013,1.013,0,0,1,.291-.238,1.175,1.175,0,0,1,.127-.052,4.732,4.732,0,0,1,.376.453,1.818,1.818,0,0,0-.326.353c-.029.039,0,.162.061.113a2.3,2.3,0,0,1,.421-.251,4.313,4.313,0,0,1,.318.6.81.81,0,0,0-.419.394c-.03.061.022.221.087.126a.736.736,0,0,1,.434-.287,3.789,3.789,0,0,1,.165.6,2.385,2.385,0,0,0-.41.292c-.029.025-.018.133.032.108a2.377,2.377,0,0,1,.418-.154,3.344,3.344,0,0,1,.023.423,7.756,7.756,0,0,1,4.011.187,1.725,1.725,0,0,1,.821,2.4,1.27,1.27,0,0,1-.213.271A3.027,3.027,0,0,0,1793.5,363.37Z" transform="translate(-1748.901 -336.046)" fill="#f56665"/>
  <path id="Path_638" data-name="Path 638" d="M1802.944,410.141a3.162,3.162,0,0,1,2.149-1.609,2.293,2.293,0,0,1,2.707,1.83,3.335,3.335,0,0,1,0,1.388,8.243,8.243,0,0,1,1.421-.391,3.392,3.392,0,0,0-.023-.423,2.385,2.385,0,0,0-.417.154c-.051.025-.061-.082-.033-.108a2.394,2.394,0,0,1,.41-.292,3.774,3.774,0,0,0-.165-.6.735.735,0,0,0-.434.287c-.065.1-.118-.065-.087-.126a.808.808,0,0,1,.419-.395,4.311,4.311,0,0,0-.318-.6,2.306,2.306,0,0,0-.421.251c-.06.049-.09-.074-.061-.113a1.806,1.806,0,0,1,.326-.353,4.764,4.764,0,0,0-.376-.453,1.16,1.16,0,0,0-.127.052,1.006,1.006,0,0,0-.291.238c-.081.092-.142-.12-.1-.183a1.3,1.3,0,0,1,.309-.313,4.862,4.862,0,0,0-.528-.431c-.134.079-.281.142-.416.21-.075.038-.1-.131-.051-.167.08-.057.164-.123.25-.186a4.557,4.557,0,0,0-.652-.339,1.242,1.242,0,0,0-.119.04.391.391,0,0,0-.221.246c-.035.111-.131.005-.117-.071a.778.778,0,0,1,.171-.321,3.99,3.99,0,0,0-.553-.144,3.141,3.141,0,0,1-.355.341c-.085.078-.118-.117-.071-.173s.1-.131.159-.21a3.5,3.5,0,0,0-.38-.026c-.092,0-.18,0-.266.011a2.123,2.123,0,0,0-.125.2,1.049,1.049,0,0,0-.106.456c0,.133-.137.136-.142,0a1.381,1.381,0,0,1,.094-.573c.007-.017.016-.038.025-.058a2.418,2.418,0,0,0-.573.169c-.072.214-.172.425-.252.631-.046.117-.143-.011-.111-.094.052-.136.1-.284.151-.429a2.032,2.032,0,0,0-.758.774C1802.942,408.869,1802.931,409.507,1802.944,410.141Z" transform="translate(-1771.176 -383.454)" fill="#f9e99d"/>
  <path id="Path_639" data-name="Path 639" d="M1773.572,391.145a7.754,7.754,0,0,0-4.011-.187,8.232,8.232,0,0,0-1.421.391,3.327,3.327,0,0,0,0-1.388,2.293,2.293,0,0,0-2.707-1.83,3.162,3.162,0,0,0-2.149,1.609c-.013-.634,0-1.273-.055-1.9a4.732,4.732,0,0,0-.717-2.3,2,2,0,0,0-1.722-1.029,1.909,1.909,0,0,0-1.63,1.429,4.856,4.856,0,0,0-.261,1.312,7.363,7.363,0,0,0,.824,3.712,7.619,7.619,0,0,0,.756,1.182,5.092,5.092,0,0,0,.986.982,1.981,1.981,0,0,0,1.432.446,1.532,1.532,0,0,0,.219-.052c.033.057.068.113.106.167a2.079,2.079,0,0,0,.134.292,1.284,1.284,0,0,0,.713.63c.031.01.062.019.093.027a1.942,1.942,0,0,0,1.264-.241c.082,1.817,3.363,2,4.851,1.309.911-.423,1.707-.942,2.662-1.288a3.2,3.2,0,0,0,1.24-.611,1.276,1.276,0,0,0,.213-.271A1.725,1.725,0,0,0,1773.572,391.145Zm-1.025,2.54a4.562,4.562,0,0,0-2.335.789,7.718,7.718,0,0,1-2.062.628c-.013,0-.014-.028,0-.031a7.766,7.766,0,0,0,2.754-1.357,1.68,1.68,0,0,1,1.668-.386C1772.684,393.379,1772.7,393.694,1772.547,393.686Zm-8.237-.107c0,.027-.026.049-.033.015-.256-1.224-.355-3.064.537-4.075.1-.107.137.125.124.178-.154.6-.45,1.151-.577,1.769A5.959,5.959,0,0,0,1764.31,393.579Zm-1.892-1.619a9.9,9.9,0,0,1-1.292-4.584c.012-.188.2-.165.242-.006.178.709.18,1.454.325,2.174a12.46,12.46,0,0,0,.755,2.388C1762.459,391.954,1762.434,391.993,1762.418,391.96Zm3.53-1.809c.153-.2.285.143.2.283a8.438,8.438,0,0,0-1.263,2.7c-.012.052-.058.022-.051-.02A6.517,6.517,0,0,1,1765.948,390.151Zm1.124,4.257c-.04.007-.047-.089-.011-.1a10.936,10.936,0,0,0,2.038-.841,6.889,6.889,0,0,1,1.708-.908c.109-.019.115.195.075.251C1770.1,393.892,1768.3,394.177,1767.073,394.409Zm-7.323-7.607c0-.158.165-.312.253-.112.658,1.5-.046,3.226,1.286,4.511.021.02.007.09-.022.064C1760.1,390.221,1759.768,388.3,1759.75,386.8Zm5.663,6.523a5.627,5.627,0,0,0,.907-1.111c.162-.246.335-.76.62-.871.067-.026.1.063.1.113a1.735,1.735,0,0,1-.52,1.017,6.037,6.037,0,0,1-1.073.941C1765.4,393.448,1765.382,393.352,1765.413,393.324Z" transform="translate(-1731.515 -363.053)" fill="#fda796"/>
  <path id="Path_640" data-name="Path 640" d="M1715,330.522a1.978,1.978,0,0,0,1.907-.106,4.25,4.25,0,0,0,.416-.23l.063-.038a5.946,5.946,0,0,0,2.561-4.57c.016-.189.026-.4.027-.618a4.959,4.959,0,0,0-.306-1.89,1.7,1.7,0,0,0-1.458-1.144,2.473,2.473,0,0,0-1.582.42,4.681,4.681,0,0,0-1.733,2.284,6.366,6.366,0,0,0-.243.919,8.226,8.226,0,0,0-.1,2.424,6.339,6.339,0,0,0-.115,1.189,2.211,2.211,0,0,0,.164.871A1.125,1.125,0,0,0,1715,330.522Zm2.407-7.048c.04,0,.042.09,0,.09S1717.362,323.474,1717.4,323.474Zm-1.275,4.786c.006.106-.1.106-.112,0a6.646,6.646,0,0,1,.386-3.589c.089-.17.212.069.2.166A15.822,15.822,0,0,0,1716.127,328.26Zm.965.171a36.852,36.852,0,0,0,1.364-3.464c.094-.206.232-.009.22.134a8.185,8.185,0,0,1-1.509,3.439C1717.116,328.621,1717.061,328.485,1717.093,328.431Z" transform="translate(-1691.451 -306.632)" fill="#ffa4d0"/>
  <path id="Path_641" data-name="Path 641" d="M1533.3,372.248a2.512,2.512,0,0,0-.126.344c-.009.033-.023.062-.031.1a4.479,4.479,0,0,0,0,1.924,3.887,3.887,0,0,0-1.061-1.02,2.757,2.757,0,0,0-.584-.275,1.887,1.887,0,0,0-2.516,1.187,3.178,3.178,0,0,0,.123,2.376c.187.182.358.358.508.5.195.181.384.369.569.559a4.346,4.346,0,0,1,2.62.9,7.718,7.718,0,0,1,1.5,1.217c.045,0,.09.013.136.019.006-.009.014-.016.02-.024l.012-.015c-.233-.488-.435-.992-.708-1.459-.509-.873-1.077-1.669-.588-2.716.9-1.94,2.836.084,3.607,1.3.02-.065.037-.129.056-.193a2.8,2.8,0,0,1,.09-.943,5.306,5.306,0,0,1,.361-1.422,6.6,6.6,0,0,0-.526-1.956,2.591,2.591,0,0,0-.3-.486,2.413,2.413,0,0,0-.819-.689A1.629,1.629,0,0,0,1533.3,372.248Zm-.883,4.133c.022.04-.01.151-.055.087a11.924,11.924,0,0,1-1.208-1.9c-.032-.071.028-.233.11-.136A11.381,11.381,0,0,1,1532.415,376.381Zm.311,1.588c.027.033-.005.119-.045.072a28.819,28.819,0,0,1-2.473-2.85c-.033-.051-.007-.243.079-.166A26.483,26.483,0,0,1,1532.726,377.968Zm-3-1.611c-.017-.034,0-.131.053-.111a1.339,1.339,0,0,1,.476.416c.164.182.321.369.486.55.029.031.013.143-.036.1A3.78,3.78,0,0,1,1529.724,376.357Zm4.931-1.693a7.139,7.139,0,0,1-.7-1.91c-.006-.059.055-.133.1-.069a2.913,2.913,0,0,1,.36.856c.117.343.222.689.33,1.034C1534.771,374.645,1534.7,374.771,1534.655,374.664Zm.924.087c.01.105-.107.141-.132.031a6.349,6.349,0,0,1-.3-1.834c.009-.1.109-.124.15-.034A6.094,6.094,0,0,1,1535.579,374.751Z" transform="translate(-1524.14 -351.101)" fill="#ff8359"/>
  <path id="Path_642" data-name="Path 642" d="M1616.72,365.68c-1.2-.9-1.648,1.065-1.6,1.87,0,.068,0,.134.006.2a11.42,11.42,0,0,1-.04,1.541c.317-.664.8-.98,1.47-.6a1.551,1.551,0,0,1,.688.951l.009-.028C1617.577,368.507,1617.8,366.483,1616.72,365.68Z" transform="translate(-1601.908 -345.87)" fill="#ff9173"/>
  <path id="Path_643" data-name="Path 643" d="M1609.652,420.543c-.019.065-.036.129-.056.193.024.038.046.074.068.11a9.835,9.835,0,0,1,.078-1.246A2.794,2.794,0,0,0,1609.652,420.543Z" transform="translate(-1596.959 -394.675)" fill="#ff9173"/>
  <path id="Path_644" data-name="Path 644" d="M1506.564,423.387a2.254,2.254,0,0,1-.244-2.463,1.071,1.071,0,0,1,.717-.5c-.186-.19-.374-.378-.569-.559-.15-.14-.321-.316-.508-.5-.564-.548-1.272-1.145-1.987-.93a1.063,1.063,0,0,0-.108.042c-.792.333-.871,1.484-.588,2.189a4.492,4.492,0,0,0,1.645,1.79c.2.136.389.262.571.372A8.922,8.922,0,0,0,1506.564,423.387Z" transform="translate(-1500.999 -393.587)" fill="#ff9173"/>
  <path id="Path_645" data-name="Path 645" d="M1538.8,405.448a.8.8,0,0,0,.531-.674c0-.014.006-.028.009-.043s.008-.04.01-.061a1.636,1.636,0,0,0,.371.2.865.865,0,0,0,.968-.205,1.38,1.38,0,0,0,.362-.634,2.393,2.393,0,0,0,.119-.516.888.888,0,0,0,.087.079c.035.081.09.149.176.135.019,0,.036-.011.055-.015.3.078.552-.139.687-.444a3.961,3.961,0,0,0,.686-1.56,10.368,10.368,0,0,0,.214-1.215,11.8,11.8,0,0,0,.109-1.638,4.182,4.182,0,0,0-.154-1.109,1.554,1.554,0,0,0-.688-.951c-.67-.377-1.153-.062-1.47.6-.012.025-.023.053-.035.079a5.291,5.291,0,0,0-.361,1.422,9.858,9.858,0,0,0-.078,1.246c-.021-.036-.044-.073-.068-.11-.771-1.217-2.7-3.241-3.607-1.3-.488,1.047.079,1.842.589,2.716.272.467.475.971.708,1.459l.022.047-.014,0-.041-.006c-.045-.006-.09-.014-.135-.019a7.715,7.715,0,0,0-1.5-1.217,4.346,4.346,0,0,0-2.62-.9,1.071,1.071,0,0,0-.717.5,2.254,2.254,0,0,0,.244,2.463,3.832,3.832,0,0,0,.794.868,3.027,3.027,0,0,0,.3.216c.036.022.076.043.114.064A6.55,6.55,0,0,0,1538.8,405.448Zm-4.3-2.45c-.038-.087-.012-.3.124-.261.441.117.834.625,1.217.884a5.453,5.453,0,0,0,1.672.8c.041.011.038.121-.007.113C1536.5,404.372,1534.953,404.043,1534.494,403Zm7.309-.927c-.027.052-.071-.027-.055-.062a5.259,5.259,0,0,0,.117-3.364c-.017-.1.1-.359.2-.183A4,4,0,0,1,1541.8,402.072Zm-3.168-2.251c-.027-.06.02-.284.115-.186a6.706,6.706,0,0,1,1.356,3.333c.014.073-.067.129-.087.039A16.436,16.436,0,0,0,1538.635,399.82Z" transform="translate(-1527.691 -373.979)" fill="#ffa77a"/>
  <path id="Path_646" data-name="Path 646" d="M1623.165,696.579c-.016,0-.015.036,0,.036S1623.181,696.579,1623.165,696.579Z" transform="translate(-1609.179 -644.318)" fill="#675840"/>
  <path id="Path_647" data-name="Path 647" d="M1623.161,694.512c-.066.085-.12.178-.177.268-.018.029.011.1.04.058.061-.088.124-.175.177-.268C1623.217,694.541,1623.193,694.47,1623.161,694.512Z" transform="translate(-1609.021 -642.443)" fill="#675840"/>
  <path id="Path_648" data-name="Path 648" d="M1555.414,539.973c1.14-.312,2.33-.52,3.48-.809.294-.074.649-.191,1.015-.289,0-.048-.018-.1-.059-.088-.9.166-1.9.284-2.922.422l-.622.087a14.081,14.081,0,0,0-5.054,1.469,5.409,5.409,0,0,0-1.972,2.142c-.679,1.212-.844,2.847-1.942,3.792a.208.208,0,0,0-.052.089C1549.9,544.246,1551.655,541,1555.414,539.973Z" transform="translate(-1540.799 -502.098)" fill="#85ac63"/>
  <path id="Path_649" data-name="Path 649" d="M1549.287,624.151c.009,0,.017,0,.027-.007l.1-.059Z" transform="translate(-1542.603 -578.979)" fill="#85ac63"/>
  <path id="Path_650" data-name="Path 650" d="M1566.137,601.7a.265.265,0,0,1,.041-.126c.009-.011.02-.019.029-.03q-.426.353-.844.721Q1565.752,601.983,1566.137,601.7Z" transform="translate(-1557.091 -558.659)" fill="#85ac63"/>
  <path id="Path_651" data-name="Path 651" d="M1556.445,539.046a5.485,5.485,0,0,1,1.708-.34,2.672,2.672,0,0,1,1.768.649,6.01,6.01,0,0,1,.718.733,2.21,2.21,0,0,1,.408.1c-.124-.172-.252-.351-.385-.53a4.087,4.087,0,0,0-1.834-1.606c-.017-.005-.033-.013-.051-.017a2.426,2.426,0,0,0-1.1.036c-.114.024-.228.051-.341.082-.366.1-.721.216-1.016.289-1.151.289-2.341.5-3.481.809-3.759,1.028-5.515,4.273-8.128,6.814-.075.073-.148.147-.224.219-.106.1-.068.532.128.423.1-.054.2-.105.293-.158l.123-.066a48.894,48.894,0,0,0,4.948-2.674c.428-.295.858-.61,1.284-.941a4.48,4.48,0,0,0,1.361-1.137,18.229,18.229,0,0,0,1.749-1.786.249.249,0,0,0,.04-.082l.134-.059c.14-.064.282-.126.423-.188C1555.449,539.413,1555.934,539.216,1556.445,539.046Zm-9.1,5.215c-.009.01-.019.019-.028.03a.259.259,0,0,0-.041.126q-.385.287-.775.565Q1546.915,544.615,1547.341,544.261Z" transform="translate(-1538.226 -501.38)" fill="#c5d392"/>
  <path id="Path_652" data-name="Path 652" d="M1638.324,565.426a5.312,5.312,0,0,0,1.809-3.856,2.724,2.724,0,0,0-.192-.829,2.771,2.771,0,0,0-.254-.468,3.092,3.092,0,0,0-.464-.559c-.041-.038-.082-.072-.123-.107a2.477,2.477,0,0,0-.78-.458,2.192,2.192,0,0,0-.408-.1,2.6,2.6,0,0,0-1.221.129,6.188,6.188,0,0,0-2.674,2.1q-.062.08-.119.159c-.032.044-.063.088-.093.132-.089.128-.171.254-.245.377a9.26,9.26,0,0,0-.683,1.42,17.577,17.577,0,0,0-.66,2.193,42.015,42.015,0,0,1-1.656,4.923,4.31,4.31,0,0,0-.361.661c-.132.3.161.948.479.536,1.054-1.361,2.749-2.129,4.088-3.176.114-.089.226-.181.339-.271C1636.216,567.35,1637.309,566.406,1638.324,565.426Z" transform="translate(-1615.501 -520.336)" fill="#675840"/>
  <path id="Path_653" data-name="Path 653" d="M1782.071,414.449c-.144-.719-.147-1.465-.325-2.174-.04-.159-.23-.182-.242.006a9.9,9.9,0,0,0,1.292,4.584c.016.033.041-.005.031-.029A12.434,12.434,0,0,1,1782.071,414.449Z" transform="translate(-1751.893 -387.959)" fill="#f56665"/>
  <path id="Path_654" data-name="Path 654" d="M1811.965,436.9c.127-.618.424-1.166.577-1.769.014-.053-.029-.285-.123-.178-.892,1.01-.794,2.851-.537,4.075.007.034.037.012.033-.015A5.962,5.962,0,0,1,1811.965,436.9Z" transform="translate(-1779.12 -408.492)" fill="#f56665"/>
  <path id="Path_655" data-name="Path 655" d="M1819.166,444.045a8.431,8.431,0,0,1,1.263-2.7c.089-.14-.043-.484-.2-.283a6.515,6.515,0,0,0-1.118,2.966C1819.109,444.067,1819.155,444.1,1819.166,444.045Z" transform="translate(-1785.799 -413.961)" fill="#f56665"/>
  <path id="Path_656" data-name="Path 656" d="M1826,454.78a1.737,1.737,0,0,0,.52-1.017c0-.051-.036-.139-.1-.113-.285.111-.458.625-.62.871a5.621,5.621,0,0,1-.907,1.111c-.031.028-.01.124.037.089A6.038,6.038,0,0,0,1826,454.78Z" transform="translate(-1790.994 -425.361)" fill="#f56665"/>
  <path id="Path_657" data-name="Path 657" d="M1845.335,466.272c.041-.056.034-.27-.075-.251a6.889,6.889,0,0,0-1.708.908,10.935,10.935,0,0,1-2.038.841c-.036.01-.029.106.011.1C1842.752,467.638,1844.554,467.353,1845.335,466.272Z" transform="translate(-1805.967 -436.515)" fill="#f56665"/>
  <path id="Path_658" data-name="Path 658" d="M1857.072,472.9a1.679,1.679,0,0,0-1.667.386,7.77,7.77,0,0,1-2.754,1.357c-.013,0-.013.034,0,.031a7.716,7.716,0,0,0,2.063-.628,4.561,4.561,0,0,1,2.335-.789C1857.207,473.262,1857.186,472.947,1857.072,472.9Z" transform="translate(-1816.017 -442.622)" fill="#f56665"/>
  <path id="Path_659" data-name="Path 659" d="M1769.163,410.258c.029.026.043-.044.022-.064-1.332-1.285-.628-3.014-1.286-4.511-.088-.2-.255-.047-.253.112C1767.664,407.289,1767.994,409.215,1769.163,410.258Z" transform="translate(-1739.412 -382.047)" fill="#f56665"/>
  <path id="Path_660" data-name="Path 660" d="M1740.236,309.6c0-.038.009-.076.013-.114.022-.189-.182-.194-.159,0,0,.038.009.075.013.113C1740.115,309.7,1740.225,309.692,1740.236,309.6Z" transform="translate(-1714.574 -295.299)" fill="#dd7299"/>
  <path id="Path_661" data-name="Path 661" d="M1664.787,338.85a8.564,8.564,0,0,0,3.349,4.549c.039.031.056-.055.028-.079a13.988,13.988,0,0,1-3.089-4.665C1664.944,338.4,1664.741,338.648,1664.787,338.85Z" transform="translate(-1646.698 -321.62)" fill="#dd7299"/>
  <path id="Path_662" data-name="Path 662" d="M1689.86,343.412c-.131-.2-.247.1-.23.214a15.869,15.869,0,0,0,1.226,3.037c.026.069.078-.011.062-.058-.2-.565-.343-1.149-.518-1.721A5.634,5.634,0,0,0,1689.86,343.412Z" transform="translate(-1669.093 -325.947)" fill="#dd7299"/>
  <path id="Path_663" data-name="Path 663" d="M1730.4,349.485c.015-.1-.108-.336-.2-.166a6.651,6.651,0,0,0-.385,3.589c.009.1.118.1.112,0A15.807,15.807,0,0,1,1730.4,349.485Z" transform="translate(-1705.255 -331.277)" fill="#dd7299"/>
  <path id="Path_664" data-name="Path 664" d="M1742.865,352.149c.012-.143-.127-.34-.22-.134a36.882,36.882,0,0,1-1.364,3.464c-.031.055.024.19.075.109A8.185,8.185,0,0,0,1742.865,352.149Z" transform="translate(-1715.64 -333.681)" fill="#dd7299"/>
  <path id="Path_665" data-name="Path 665" d="M1593.77,430.16c.02.09.1.034.087-.039a6.705,6.705,0,0,0-1.355-3.333c-.095-.1-.143.126-.115.186A16.442,16.442,0,0,1,1593.77,430.16Z" transform="translate(-1581.442 -401.132)" fill="#e56e4e"/>
  <path id="Path_666" data-name="Path 666" d="M1624.081,414.777a5.259,5.259,0,0,1-.117,3.364c-.015.035.029.114.056.062a4,4,0,0,0,.257-3.609C1624.178,414.418,1624.065,414.68,1624.081,414.777Z" transform="translate(-1609.907 -390.11)" fill="#e56e4e"/>
  <path id="Path_667" data-name="Path 667" d="M1553.354,460.215c.045.008.048-.1.007-.113a5.455,5.455,0,0,1-1.672-.8c-.383-.26-.776-.767-1.217-.884-.136-.036-.162.174-.124.261C1550.808,459.719,1552.352,460.048,1553.354,460.215Z" transform="translate(-1543.545 -429.654)" fill="#e56e4e"/>
  <path id="Path_668" data-name="Path 668" d="M1578.316,494.18a3.6,3.6,0,0,1-.81,1.2c-.261.244-.636.442-.733.8-.016.059-.021.2.065.221.386.1.688-.521.857-.8a7.354,7.354,0,0,0,.664-1.388C1578.369,494.185,1578.336,494.136,1578.316,494.18Z" transform="translate(-1567.368 -461.879)" fill="#ffa77a"/>
  <path id="Path_669" data-name="Path 669" d="M1537.21,495.992c.028-.01.02-.079-.015-.07a12.587,12.587,0,0,1-1.822.319,4.784,4.784,0,0,0-1.431.2c-.111.05-.126.331.009.362a3.13,3.13,0,0,0,1.463-.2C1536.027,496.433,1536.616,496.21,1537.21,495.992Z" transform="translate(-1528.694 -463.464)" fill="#ffa77a"/>
  <path id="Path_670" data-name="Path 670" d="M1631.461,470.132a13.721,13.721,0,0,1-2.792.586c-.047,0-.044.1,0,.1a8.364,8.364,0,0,0,2.884-.233C1631.745,470.534,1631.687,470.069,1631.461,470.132Z" transform="translate(-1614.12 -440.215)" fill="#ffa77a"/>
  <path id="Path_671" data-name="Path 671" d="M1644,442.885a5.706,5.706,0,0,1-1.151,1.026c-.033.021-.022.116.019.094a8.568,8.568,0,0,0,1.212-.765,2.446,2.446,0,0,0,.9-1.062c.02-.08,0-.338-.145-.27s-.214.19-.315.329A7.9,7.9,0,0,1,1644,442.885Z" transform="translate(-1626.914 -414.772)" fill="#ffa77a"/>
  <path id="Path_672" data-name="Path 672" d="M1542.994,409.3c-.086-.077-.112.115-.079.166a28.847,28.847,0,0,0,2.473,2.85c.04.047.072-.04.045-.072A26.492,26.492,0,0,0,1542.994,409.3Z" transform="translate(-1536.847 -385.378)" fill="#ffa77a"/>
  <path id="Path_673" data-name="Path 673" d="M1552.646,403.231c-.082-.1-.142.064-.11.136a11.922,11.922,0,0,0,1.208,1.9c.045.063.076-.047.055-.087A11.389,11.389,0,0,0,1552.646,403.231Z" transform="translate(-1545.524 -379.895)" fill="#ffa77a"/>
  <path id="Path_674" data-name="Path 674" d="M1581.48,386.389a2.917,2.917,0,0,0-.359-.856c-.049-.064-.11.01-.1.069a7.127,7.127,0,0,0,.7,1.91c.045.107.116-.019.094-.088C1581.7,387.078,1581.6,386.732,1581.48,386.389Z" transform="translate(-1571.201 -363.948)" fill="#ffa77a"/>
  <path id="Path_675" data-name="Path 675" d="M1593.173,387.57c-.041-.09-.141-.062-.15.034a6.371,6.371,0,0,0,.3,1.834c.025.111.142.075.132-.031A6.1,6.1,0,0,0,1593.173,387.57Z" transform="translate(-1582.015 -365.757)" fill="#ffa77a"/>
  <path id="Path_676" data-name="Path 676" d="M1539.057,422.879c.048.043.064-.069.036-.1-.165-.181-.323-.368-.486-.55a1.343,1.343,0,0,0-.477-.416c-.057-.02-.07.077-.053.111A3.772,3.772,0,0,0,1539.057,422.879Z" transform="translate(-1532.493 -396.668)" fill="#ffa77a"/>
  <path id="Path_677" data-name="Path 677" d="M1744.237,337.7c-.04,0-.038.09,0,.09S1744.277,337.7,1744.237,337.7Z" transform="translate(-1718.286 -320.857)" fill="#ffa77a"/>
  <path id="Path_678" data-name="Path 678" d="M1734.4,279.749a3.273,3.273,0,0,1,1.517-1.617c.34-.165.647-.27.81-.637a.847.847,0,0,0-.145-.926c-.568-.6-1.477.112-1.823.621a6.248,6.248,0,0,0-.647,2.384C1734.069,279.766,1734.3,280.015,1734.4,279.749Z" transform="translate(-1709.183 -265.554)" fill="#ffa4d0"/>
  <path id="Path_679" data-name="Path 679" d="M1666.161,767.018c.713.056,1.448-1.893,1.641-4.353s-.228-4.5-.941-4.556-1.448,1.893-1.641,4.353S1665.448,766.962,1666.161,767.018Z" transform="translate(-1647.051 -699.774)" fill="#fff7d4"/>
</svg>
