<svg xmlns="http://www.w3.org/2000/svg" width="42" height="42" viewBox="0 0 42 42">
  <g id="Group_8635" data-name="Group 8635" transform="translate(-1207 -493)">
    <rect id="Rectangle_1617" data-name="Rectangle 1617" width="42" height="42" rx="21" transform="translate(1207 493)" fill="#0069a2"/>
    <path id="print" d="M20.952,7.37H18.588V0H5.145V7.37H2.781A2.784,2.784,0,0,0,0,10.152v7.509a2.784,2.784,0,0,0,2.781,2.781H5.145v3.291H18.588V20.442h2.364a2.784,2.784,0,0,0,2.781-2.781V10.152A2.784,2.784,0,0,0,20.952,7.37ZM7,1.854h9.734V7.37H7ZM7,21.879V15.714h9.734v6.165Zm14.88-4.218a.928.928,0,0,1-.927.927H18.588V15.714h1.437V13.86H3.708v1.854H5.145v2.874H2.781a.928.928,0,0,1-.927-.927V10.152a.928.928,0,0,1,.927-.927H20.952a.928.928,0,0,1,.927.927Zm-7-13.953V5.563H8.854V3.708Zm0,0" transform="translate(1216 502)" fill="#fff"/>
  </g>
</svg>
