<svg xmlns="http://www.w3.org/2000/svg" width="41" height="41" viewBox="0 0 41 41">
  <g id="Group_8646" data-name="Group 8646" transform="translate(-287 -446.5)">
    <rect id="Rectangle_3244" data-name="Rectangle 3244" width="41" height="41" rx="6" transform="translate(287 446.5)" fill="#206b68"/>
    <path id="print" d="M24.755,8.708H21.962V0H6.079V8.708H3.286A3.29,3.29,0,0,0,0,11.994v8.872a3.29,3.29,0,0,0,3.286,3.286H6.079v3.888H21.962V24.152h2.793a3.29,3.29,0,0,0,3.286-3.286V11.994A3.29,3.29,0,0,0,24.755,8.708ZM8.27,2.191h11.5V8.708H8.27Zm0,23.659V18.566h11.5V25.85Zm17.58-4.984a1.1,1.1,0,0,1-1.1,1.1H21.962v-3.4h1.7V16.375H4.381v2.191h1.7v3.4H3.286a1.1,1.1,0,0,1-1.1-1.1V11.994a1.1,1.1,0,0,1,1.1-1.1H24.755a1.1,1.1,0,0,1,1.1,1.1ZM17.58,4.381V6.572h-7.12V4.381Zm0,0" transform="translate(293.484 453.363)" fill="#fff"/>
  </g>
</svg>
