<svg xmlns="http://www.w3.org/2000/svg" width="123.218" height="132.5" viewBox="0 0 123.218 132.5">
  <g id="Group_8693" data-name="Group 8693" transform="translate(-957.478 -542.5)">
    <g id="Group_8657" data-name="Group 8657" transform="translate(957.479 542.5)">
      <ellipse id="Ellipse_9" data-name="Ellipse 9" cx="61.609" cy="11.319" rx="61.609" ry="11.319" transform="translate(-0.001 109.862)" fill="#efefef"/>
      <g id="Group_19" data-name="Group 19" transform="translate(7.091)">
        <path id="Path_29" data-name="Path 29" d="M148.069,328.517l-15.577-16.883V297.983c0,3.569-16.144,6.465-36.063,6.465s-36.063-2.9-36.063-6.465v13.659L44.8,328.517a11.082,11.082,0,0,0-2.881,7.506V408.4c0,5.872,24.4,10.628,54.513,10.628s54.521-4.756,54.521-10.628V336.023A11.082,11.082,0,0,0,148.069,328.517Z" transform="translate(-41.916 -291.518)" fill="#d9efe8"/>
        <path id="Path_30" data-name="Path 30" d="M137.357,297.983c0,3.569-16.144,6.465-36.063,6.465s-36.063-2.9-36.063-6.465Z" transform="translate(-46.781 -291.518)" fill="#efefef"/>
        <path id="Path_31" data-name="Path 31" d="M148.174,431.9c0,5.466-22.722,9.893-50.75,9.893s-50.743-4.427-50.743-9.893,22.715-9.893,50.743-9.893S148.174,426.439,148.174,431.9Z" transform="translate(-42.91 -317.395)" fill="#bee8da"/>
        <ellipse id="Ellipse_10" data-name="Ellipse 10" cx="36.063" cy="6.465" rx="36.063" ry="6.465" transform="translate(18.45)" fill="#efefef"/>
        <g id="Group_16" data-name="Group 16" transform="translate(5.73 33.728)">
          <path id="Path_32" data-name="Path 32" d="M146.73,341.258v72.487c0,3.856-21.84,6.982-48.786,6.982s-48.786-3.127-48.786-6.982V341.258Z" transform="translate(-49.157 -334.275)" fill="#82a4b4"/>
          <path id="Path_33" data-name="Path 33" d="M124.193,341.258c1.2,16.126-4.661,31.3-18.1,43.84-15.32,12.788-36.011,16.6-56.932,16.076v12.571c0,3.856,21.849,6.982,48.786,6.982s48.786-3.127,48.786-6.982V341.258Z" transform="translate(-49.157 -334.275)" fill="#7298a8"/>
          <ellipse id="Ellipse_11" data-name="Ellipse 11" cx="48.785" cy="6.98" rx="48.785" ry="6.98" transform="translate(0.003)" fill="#97bed1"/>
          <path id="Path_34" data-name="Path 34" d="M124.132,340.572c0,1.43-8.1,2.589-18.094,2.589S87.945,342,87.945,340.572s8.1-2.589,18.094-2.589S124.132,339.142,124.132,340.572Z" transform="translate(-57.25 -333.591)" fill="#82a4b4"/>
        </g>
        <g id="Group_18" data-name="Group 18" transform="translate(48.456 0.366)">
          <g id="Group_17" data-name="Group 17">
            <path id="Path_35" data-name="Path 35" d="M107.129,324.855s-5.251-2.924-3.693-10.209,7.681-14.438,5.553-24.372c0,0,6.127,10.133,6.283,20.861S107.129,324.855,107.129,324.855Z" transform="translate(-103.147 -290.275)" fill="#ef9178"/>
            <path id="Path_36" data-name="Path 36" d="M107.667,329.077a4.792,4.792,0,0,1-1.533-5.5c1.1-3.757,4.6-7.264,3.872-12.555,0,0,2.812,5.553,2.47,11.182S107.667,329.077,107.667,329.077Z" transform="translate(-103.714 -294.604)" fill="#efae78"/>
            <path id="Path_37" data-name="Path 37" d="M110.035,337.528a11.609,11.609,0,0,1-1.822-7.17c.248-2.256,1.826-4.185,1.8-6.5" transform="translate(-104.193 -297.282)" fill="none" stroke="#3f121f" stroke-linecap="round" stroke-linejoin="round" stroke-width="0.771"/>
          </g>
        </g>
        <path id="Path_38" data-name="Path 38" d="M101.294,302.657c-18.422,0-33.6-2.478-35.784-5.674a1.414,1.414,0,0,0-.279.791c0,3.569,16.145,6.465,36.063,6.465s36.063-2.9,36.063-6.465a1.409,1.409,0,0,0-.279-.791C134.9,300.179,119.716,302.657,101.294,302.657Z" transform="translate(-46.781 -291.309)" fill="#d9efe8" opacity="0.49" style="mix-blend-mode: screen;isolation: isolate"/>
        <path id="Path_39" data-name="Path 39" d="M65.231,315.243s34.075,9.753,72.126,0" transform="translate(-46.781 -295.119)" fill="none" stroke="#d9efe8" stroke-miterlimit="10" stroke-width="2" opacity="0.49" style="mix-blend-mode: screen;isolation: isolate"/>
      </g>
      <path id="Path_40" data-name="Path 40" d="M58.168,414.373h0a4.624,4.624,0,0,1-4.625-4.625V342.608a4.624,4.624,0,0,1,4.625-4.625h0a4.625,4.625,0,0,1,4.625,4.625v67.141A4.625,4.625,0,0,1,58.168,414.373Z" transform="translate(-37.251 -299.863)" fill="#d9efe8" opacity="0.49" style="mix-blend-mode: screen;isolation: isolate"/>
      <path id="Path_41" data-name="Path 41" d="M164.529,413.667h0a2.313,2.313,0,0,1-2.312-2.312V339.589a2.313,2.313,0,0,1,2.312-2.312h0a2.312,2.312,0,0,1,2.312,2.312v71.765A2.312,2.312,0,0,1,164.529,413.667Z" transform="translate(-59.925 -299.716)" fill="#d9efe8" opacity="0.24" style="mix-blend-mode: screen;isolation: isolate"/>
    </g>
    <g id="Group_8658" data-name="Group 8658" transform="translate(961.199 616.332)">
      <g id="Group_8541" data-name="Group 8541" transform="translate(-0.001 0)">
        <g id="Group_41" data-name="Group 41" transform="translate(95.616 3.552)">
          <path id="Path_63" data-name="Path 63" d="M717.752,249.679H697.594V230.932h20.158l-6.451,9.674Z" transform="translate(-697.594 -230.932)" fill="#00578b"/>
          <path id="Path_64" data-name="Path 64" d="M697.666,315.8v3.542l6.568-3.542Z" transform="translate(-697.653 -300.612)" fill="#022f4a"/>
        </g>
        <g id="Group_42" data-name="Group 42" transform="translate(0 3.552)">
          <path id="Path_65" data-name="Path 65" d="M163.433,249.679h20.157V230.932H163.433l6.451,9.674Z" transform="translate(-163.433 -230.932)" fill="#00578b"/>
          <path id="Path_66" data-name="Path 66" d="M245.824,315.8v3.542l-6.573-3.542Z" transform="translate(-225.679 -300.612)" fill="#022f4a"/>
        </g>
        <rect id="Rectangle_6" data-name="Rectangle 6" width="88.482" height="18.745" transform="translate(13.695 0)" fill="#006cad"/>
      </g>
      <g id="logo-el-universal" transform="translate(17.084 5.112)">
        <g id="Group_8392" data-name="Group 8392" transform="translate(12.554 0.758)">
          <g id="Group_8391" data-name="Group 8391" transform="translate(0 0)">
            <g id="Group_8390" data-name="Group 8390">
              <path id="Path_57775" data-name="Path 57775" d="M119.812,17.827H114.69v-.5h.733V11.961h-.733v-.5h5.026v1.65H119.1v-.955H117.15v2.131h.819v-.675h.579v1.853h-.579v-.676h-.819v2.363h2.035v-1.09h.627Z" transform="translate(-114.69 -11.297)" fill="#fff"/>
              <path id="Path_57776" data-name="Path 57776" d="M170.505,17.827H165.47v-.5h.733V11.961h-.732v-.5H168.8v.5h-.868v5.19h1.949v-1.09h.626Z" transform="translate(-159.723 -11.297)" fill="#fff"/>
              <path id="Path_57777" data-name="Path 57777" d="M235.226,11.98h-.517v3.627c0,1.756-1.071,2.363-2.721,2.363-1.794,0-2.72-.763-2.72-2.093v-3.9h-.589v-.5h3.039v.5H231v3.6c0,1.389.55,1.717,1.563,1.717,1.06,0,1.446-.569,1.446-1.717V11.992h-.8V11.48h2.022Z" transform="translate(-215.779 -11.315)" fill="#fff"/>
              <path id="Path_57778" data-name="Path 57778" d="M294.016,17.325h.842v.5h-2.276v-.5h.73V12.241c0-.01-.2-.28-.2-.28h-.73v-.5h2.428l3.077,4.235V11.961h-.955v-.5h2.354v.5h-.695v5.971H297.48L294.016,13.2Z" transform="translate(-272.27 -11.297)" fill="#fff"/>
              <path id="Path_57779" data-name="Path 57779" d="M362.684,17.827H359.39v-.5h.779V11.962h-.779v-.5h3.294v.5h-.79v5.362h.79Z" transform="translate(-331.696 -11.297)" fill="#fff"/>
              <path id="Path_57780" data-name="Path 57780" d="M398.241,18h-1l-2.354-6.029h-.533v-.5h3.245v.5h-.946L398.26,16.2l1.63-4.225h-.714v-.5h1.931v.5h-.513Z" transform="translate(-362.7 -11.306)" fill="#fff"/>
              <path id="Path_57781" data-name="Path 57781" d="M465.124,17.836H460.09v-.5h.55V11.971h-.55v-.5h4.938v1.649h-.618v-.955h-2.043V14.3h.915V13.62h.578v1.853h-.578V14.8h-.915V17.16h2.13v-1.09h.627Z" transform="translate(-421 -11.306)" fill="#fff"/>
              <path id="Path_57782" data-name="Path 57782" d="M513.83,14.9c1.669-.154,2.007-.9,2.007-1.621,0-1.158-.732-1.813-2.325-1.813H510.3v.5h.81v5.363h-.81v.5h3.212v-.5h-.674v-2h.25l1.466,2.5h2.1v-.5h-.469l-.877-1.428c-.444-.713-.618-.9-1.476-.964Zm-.994-2.787h.077c.955,0,1.128.386,1.128,1.205s-.125,1.389-1.168,1.389h-.038Z" transform="translate(-465.527 -11.306)" fill="#fff"/>
              <path id="Path_57783" data-name="Path 57783" d="M572.934,16.779h-.664V14.927h.664v1.032a4.7,4.7,0,0,0,1.428.164c.8,0,1.1-.222,1.1-.781,0-.444-.386-.646-1.283-1.081-1.4-.676-1.871-1.128-1.871-2.286,0-1.2.9-1.766,2.094-1.766a3.543,3.543,0,0,1,1.525.356V10.18h.617v1.794h-.617v-.926a4.432,4.432,0,0,0-1.118-.117c-.656,0-.974.2-.974.685,0,.579.386.742,1.2,1.139,1.1.531,1.919.955,1.919,2.237,0,1.225-.945,1.823-2.218,1.823a4.053,4.053,0,0,1-1.794-.377Z" transform="translate(-520.484 -10.162)" fill="#fff"/>
              <path id="Path_57784" data-name="Path 57784" d="M617.444,14.776h2.305l.491,1.273h-.781v.5h3.052v-.5h-.554L619.6,10.02h-1l-2.354,6.029h-.6v.5h1.958v-.5h-.655Zm2.1-.541h-1.9c.01,0,.955-2.459.955-2.459Z" transform="translate(-558.955 -10.02)" fill="#fff"/>
              <path id="Path_57785" data-name="Path 57785" d="M686.971,17.836H682.14v-.5h.53V11.971h-.53v-.5h2.938v.5H684.4V17.16h1.949v-1.09h.627Z" transform="translate(-617.92 -11.306)" fill="#fff"/>
            </g>
          </g>
        </g>
        <g id="Group_8394" data-name="Group 8394" transform="translate(0 0)">
          <g id="Group_8393" data-name="Group 8393" transform="translate(0 0)">
            <path id="Path_57786" data-name="Path 57786" d="M18.331,48.237c.375.2.65.251,1.984.307.211-.027-.389-.1-.5-.135-.441-.135-.051-.2-.352-.182a4.249,4.249,0,0,1-.869-.058C18.314,48.128,18.034,48.015,18.331,48.237Z" transform="translate(-16.569 -43.035)" fill="#fff"/>
            <path id="Path_57787" data-name="Path 57787" d="M78.17,34.652c.018-.024.036-.048.052-.072C78.205,34.6,78.188,34.629,78.17,34.652Z" transform="translate(-69.749 -31.042)" fill="#fff"/>
            <path id="Path_57788" data-name="Path 57788" d="M40.025,58.323c.1.143.564.162.725.11.139.01.049-.069-.035-.079-.077.016-.164-.068-.179-.059C40.167,58.385,40,58.265,40.025,58.323Z" transform="translate(-35.919 -52.072)" fill="#fff"/>
            <path id="Path_57789" data-name="Path 57789" d="M15.441,7.428c-.6.1-2.193-.222-2.9.079a3.009,3.009,0,0,0,.156-1A3.168,3.168,0,1,0,6.537,7.549C4.067,7.735,3.8,7.3,3.76,7.513A1.361,1.361,0,0,0,4.948,8.54a1.824,1.824,0,0,0,1.236.6,1.187,1.187,0,0,0,.734.334.643.643,0,0,0,.625.289.352.352,0,0,0,.26.187s-.01.065.072.093a4.322,4.322,0,0,0-1.814.608c.043.207.461.34.572.321a.709.709,0,0,0,.584.392.833.833,0,0,0,.71.241.69.69,0,0,0,.793-.453c.034-.152.14-.372.352-.4a.326.326,0,0,1,.17.1.408.408,0,0,0,.043.558.779.779,0,0,0,.586.063c.119.115.222.026.283.06-.024.041.1.121.218.074s.135-.1.145-.137a.1.1,0,0,0,.031-.114.078.078,0,0,0,.042-.109c.077.02.151-.1.145-.169-.01-.146-.1-.167-.239-.167a1.28,1.28,0,0,1,.632-.17,1.637,1.637,0,0,0,.555-.165c.161-.049.3-.048.433-.077.093-.019.162-.012.217-.027.036.035.144.078.461.033a5.82,5.82,0,0,1,.74-.045c.2-.544-.267-.633-.267-.633-.071-.143-.121-.272-.344-.321s-.282-.042-.31-.148a.313.313,0,0,0-.158.006.478.478,0,0,1,.156-.077c.452-.117.549-.254.607-.323a1.49,1.49,0,0,0,.969-.334.766.766,0,0,0,.589-.345C15.6,8.26,15.712,7.383,15.441,7.428ZM10.489,9.294a.153.153,0,0,1-.063-.071,1.321,1.321,0,0,0,.393-.179c.249-.153,0,.033-.067.122C10.753,9.167,10.709,9.236,10.489,9.294ZM8.029,7.555s-.04-.136.023-.153c.106-.031.27-.2.383-.235,0,0,.081-.091-.439.119,0-.049,0-.052,0-.122a.65.65,0,0,1,.173-.071c.011-.063-.126-.023-.166-.046-.024-.027-.006-.086,0-.179a3.162,3.162,0,0,0,.636.1C8.671,7,8.88,7.112,8.8,7l0-.02c.051,0,.075,0,.127.006a.259.259,0,0,0,.034.085l.025.031,0,.4c-.048.023-.141.091-.229.13a.456.456,0,0,1-.182.027c.13-.085.182-.184.354-.286,0,0-.1-.091-.471.2a.512.512,0,0,1-.274.083V7.646c.157-.067.37-.325.536-.381C8.709,7.264,8.6,7.2,8.029,7.555ZM7.2,7.607l-.11,0c-.007-.046-.016-.112-.016-.112a.8.8,0,0,0,.4-.1c.1-.048.175-.169.329-.16.014,0,.019.07.024.115-.029.015-.1.029-.129.042C7.535,7.475,7.534,7.595,7.2,7.607Zm3.351-3.6a2.182,2.182,0,0,1,.619.248.453.453,0,0,1-.022.291,3.314,3.314,0,0,0-.626-.376C10.592,4.135,10.588,4.075,10.555,4.007Zm-.836-.178h0c.12.143-.052.335-.381.435a.768.768,0,0,1-.761-.111c-.119-.141,0-.3.333-.4A.884.884,0,0,1,9.719,3.829Zm-1.9.88c-.061.05-.041.121-.058.182-.008.028-.027.083-.05.139-.027.037-.054.075-.079.113a1.305,1.305,0,0,1-.14-.1.359.359,0,0,1-.061-.076A3.231,3.231,0,0,1,7.891,4.6.619.619,0,0,1,7.823,4.71ZM9.449,6.694a.494.494,0,0,1,.07-.128c.031-.046.141-.052.186-.048s.075.018.1.011.05-.032.088-.066.083-.017.121-.011a.291.291,0,0,1,.112.041.142.142,0,0,1,.062.048.206.206,0,0,1,.019.1,5.664,5.664,0,0,1-.8.123A.538.538,0,0,0,9.449,6.694ZM10.12,4.8c-.065.015-.131,0-.157.033s-.028.167-.174.1c-.087-.117-.12-.065-.174-.13a.083.083,0,0,1,.037-.138c.042-.016.035-.058.026-.105S9.609,4.5,9.635,4.42c.009-.031.022-.1.119-.051a3.257,3.257,0,0,1,.392.309C10.21,4.747,10.179,4.789,10.12,4.8ZM7.971,4.116a1.633,1.633,0,0,1,.416-.186c-.026.048-.1.147-.12.183a3.836,3.836,0,0,0-.9.758.453.453,0,0,1,.009-.282A2.243,2.243,0,0,1,7.971,4.116Zm-.589.994a.754.754,0,0,0,.164.157,3.814,3.814,0,0,0-.449,1,.611.611,0,0,1-.251-.316,2.575,2.575,0,0,1,.5-.9C7.357,5.066,7.371,5.095,7.383,5.109ZM7.168,6.474c.068.042.089.091.161.126a1.107,1.107,0,0,0-.2.033C7.139,6.582,7.153,6.525,7.168,6.474Zm-.161-.1c-.052.017-.164.057-.134.066a1.353,1.353,0,0,1,.183-.009c-.018.081-.041.172-.054.247-.068.023-.195.07-.213.13.05-.01.132-.038.194-.049a1.66,1.66,0,0,0-.017.224.558.558,0,0,0-.12.1c.027-.007.088-.026.121-.032,0,.017,0,.081,0,.1s-.019-.235,0,.091c-.024.036-.062.066-.075.091.014,0,.062-.016.077-.022a2.675,2.675,0,0,0,.048.294.489.489,0,0,1-.163-.111.608.608,0,0,1-.1-.137A3.121,3.121,0,0,1,6.8,6.076,1.133,1.133,0,0,0,7.007,6.375Zm-.332.745a2.936,2.936,0,0,1,.034-1.436,1.3,1.3,0,0,0,.041.309A4.023,4.023,0,0,0,6.675,7.119ZM7.257,7.1c-.062.033-.115.067-.195.111a1.7,1.7,0,0,1,.007-.195,1.238,1.238,0,0,0,.153-.058c.162-.055.173-.112.308-.147,0,0-.048-.062-.376.074-.02.008-.058.034-.078.042a.844.844,0,0,1,.032-.192c.108-.036.139-.092.244-.123a3.263,3.263,0,0,0,.466.2c.007.1.007.26-.059.278a1.494,1.494,0,0,0-.3.173,1.078,1.078,0,0,1-.384.188c-.01-.057-.012-.1-.018-.156a1.683,1.683,0,0,0,.264-.1c.162-.068.207-.181.377-.234C7.7,6.956,7.68,6.877,7.257,7.1Zm-.025-.747c.059-.034.224-.058.19-.084,0,0-.081,0-.175.012a2.614,2.614,0,0,1,.428-.841c.08.08.042.164.144.2.072.053.048.111.1.161l.044.026a8.07,8.07,0,0,0-.13.809A1.765,1.765,0,0,1,7.232,6.354Zm.959-.388a.111.111,0,0,1,.063.151.18.18,0,0,0,.006.2.477.477,0,0,1,.059.13.424.424,0,0,0,.11.121c.027.022.016.08.016.08a1.028,1.028,0,0,0,.105.094.148.148,0,0,1,.031.027,2.982,2.982,0,0,1-.564-.089A2.522,2.522,0,0,1,8.191,5.966Zm.363.573c-.048-.1-.014-.135.023-.14s.126.08.147.122.051.066.078.121.059.1.084.145c-.057,0-.14-.006-.195-.008-.018-.028-.009-.052-.023-.067A.551.551,0,0,1,8.554,6.539ZM9.867,8.21a2.5,2.5,0,0,1,.376-.4s.026-.126-.439.207c-.046.023-.093.043-.115.018.135-.106.194-.282.346-.351,0,0-.046-.075-.446.177a.107.107,0,0,1-.135,0c.113-.089.2-.221.325-.268,0,0-.017-.055-.4.152a.1.1,0,0,1-.109,0c.105-.083.192-.2.3-.242,0,0,0-.054-.381.088a.578.578,0,0,1,0-.075.634.634,0,0,1,.161-.1s-.033-.046-.165,0c0,0,0-.169.007-.247a.628.628,0,0,1,.1.085s.069.025.1.008A.334.334,0,0,1,9.6,7.219a1.39,1.39,0,0,1,.206.113.106.106,0,0,1,.079.066c.016.049-.01.072,0,.1s.022.042.123.078.117.036.144.059.077.014.1.012.042-.04.065-.046a.536.536,0,0,1,.1,0c.063.018.033.086.034.14,0,.094-.1.127-.156.207C10.088,8.112,9.925,8.411,9.867,8.21Zm.6-.756a.391.391,0,0,0-.206.043.114.114,0,0,1-.155-.041c-.023-.043-.015-.074,0-.164s-.117-.071-.174-.105.008-.114.028-.172-.112-.069-.148-.06-.053.132-.124.169-.087.009-.17-.038a.169.169,0,0,1-.1-.166,7.387,7.387,0,0,0,.763-.132c.065-.01.035.041.1.017a.145.145,0,0,0,.055-.042,1.857,1.857,0,0,1,.057.179c-.024-.008-.071-.019-.1-.031a.478.478,0,0,0-.226.051c-.024.022.045.026.077.037s.083.042.115.053.058.079.117.075c.016,0,.045,0,.054.027a2.322,2.322,0,0,1,.092.323A.128.128,0,0,0,10.464,7.454ZM10.38,6.6a.476.476,0,0,0,0-.139c-.015-.059.2-.158.2-.158s.087-.035.154-.069.069-.237.035-.312-.055-.169-.012-.218.173.084.243.058c.052-.019.048-.066.067-.1a4.453,4.453,0,0,1,.286.518,3.325,3.325,0,0,1-.944.418Zm.526-1.368.088.007c.068.006.166-.008.187-.085a.782.782,0,0,0-.017-.246c-.019-.061-.111-.068-.135-.1l-.007-.009a.817.817,0,0,0,.122-.161,3.053,3.053,0,0,1,.83.887,1.784,1.784,0,0,1-.536.613A4.583,4.583,0,0,0,10.906,5.229Zm.211-.613a.722.722,0,0,1-.124.154.162.162,0,0,0-.14-.027.115.115,0,0,1-.127-.063s.139-.106.075-.164a1.14,1.14,0,0,0-.4-.058c-.121-.034-.113.051-.131.092-.088-.074-.178-.144-.269-.207h.006c0-.13.147-.052.154-.109s-.16-.117-.1-.129A3.518,3.518,0,0,1,11.116,4.616Zm-1.3-.943c-.027-.006-.147-.059-.186-.063.028-.015.04-.023.048-.027a2.892,2.892,0,0,1,.615.1A2.075,2.075,0,0,0,9.818,3.673Zm-2.486.971a.6.6,0,0,0-.032.3,3.1,3.1,0,0,0-.508.94.731.731,0,0,1-.067-.242A2.887,2.887,0,0,1,7.332,4.644Zm.367,2.9c.076-.028.115-.036.123-.04s.02.033.035.12a1.447,1.447,0,0,1-.559.018A1.221,1.221,0,0,0,7.7,7.547Zm2.32.977a.234.234,0,0,1-.053-.1c.406-.1.828-.547.579-.261a.681.681,0,0,1-.344.285Zm.611-.17c.232-.177.212-.118.04.02a1.164,1.164,0,0,1-.527.369.15.15,0,0,1-.051-.1A3.362,3.362,0,0,0,10.63,8.354Zm.28.157c-.182.145-.119.191-.459.346-.1.038-.217.086-.222.089a.333.333,0,0,1-.05-.1C10.676,8.706,10.97,8.38,10.909,8.511Zm-.04.281c.167-.1-.044.041-.088.129a1.156,1.156,0,0,1-.422.22A.405.405,0,0,1,10.3,9.05,1.9,1.9,0,0,0,10.87,8.792Zm.95-.751c.071-.177.115-.273.094-.364-.008-.04.052-.063-.026-.13s-.386.277-.475.222c-.062-.034-.11.017-.178,0a.139.139,0,0,1-.068-.04,2.726,2.726,0,0,0,1.015-.8,2.543,2.543,0,0,1-1.107.739c-.042-.01-.051.019-.089-.02a.345.345,0,0,0-.259-.063.462.462,0,0,1-.126-.007.31.31,0,0,0-.07-.094c-.018-.137-.023-.213-.051-.361a.251.251,0,0,1,.066-.009c.066.008.068.043.109.053a.125.125,0,0,0,.118-.072c.01-.035-.049-.069-.1-.094a.675.675,0,0,1-.1-.065c-.032-.019-.1.011-.13.014-.016-.075-.025-.153-.042-.229l.035-.009a2.937,2.937,0,0,0,.947-.509,3.732,3.732,0,0,1,.359.907,3.919,3.919,0,0,0-.286-.953,1.591,1.591,0,0,0,.532-.628,2.6,2.6,0,0,1,.31.727,2.907,2.907,0,0,0-.3-.75c.012-.031.022-.061.031-.091-.011.026-.024.053-.036.079a3.137,3.137,0,0,0-.816-.939.465.465,0,0,0,0-.3,2.808,2.808,0,0,1,.865.848l-.011-.016a2.445,2.445,0,0,0-1.544-1.178L10.4,3.863l-.319-.06c-.009-.04-.088-.083-.1-.088a1.6,1.6,0,0,1,.515.026A2.927,2.927,0,0,1,12.44,6.5a3.328,3.328,0,0,1-.655,1.845A2.3,2.3,0,0,1,11.819,8.04Zm-4.3,3.213a2.081,2.081,0,0,0,.921-.5.254.254,0,0,0-.018.035A.754.754,0,0,1,7.521,11.254Zm.34.105a.8.8,0,0,0,.7-.415C8.4,11.526,7.967,11.4,7.86,11.359Zm1.556-.052a.274.274,0,0,1-.026-.385c.007-.077.045-.1.031.059-.028.3.2.309.273.35S9.528,11.381,9.416,11.307Zm.473-.172c-.015-.034-.011-.078.072-.149.367-.312-.038-.275.14-.412-.027.089.555.124-.092.446A.418.418,0,0,0,9.889,11.135Zm.574.129c-.008.009-.011-.012-.014-.02a.029.029,0,0,0-.053,0c.049.052.025.123,0,.07a.036.036,0,0,0-.055-.01.094.094,0,0,1-.009.126c-.031.037-.1.051-.105.026s.025-.007.043-.027a.071.071,0,0,0-.029-.1c-.049-.029-.126-.015-.106.04.019.025.044.051-.012.052a.244.244,0,0,1-.079-.009.108.108,0,0,1-.085-.069c0-.041.026.014.061.008.054,0,.078-.124.2-.11a.054.054,0,0,0,.046-.02c.006-.014,0-.026.022-.033a.079.079,0,0,1,.043,0c.033,0,.029-.012.036-.027s.032-.011.054,0C10.473,11.187,10.479,11.248,10.463,11.264Zm.061-.23a.062.062,0,0,1,.043.109c-.031.033-.014-.014-.031-.049a.094.094,0,0,0-.067-.034c-.02-.006-.029-.029-.02-.032A.2.2,0,0,0,10.524,11.034ZM12.463,9.5a.221.221,0,0,0,.191.145c.16.029.371.113.392.257.01.072.44.065.342.355a3.78,3.78,0,0,1-.474-.05c-.014.02.138.033.066.069-.106.061-.621.084-.512-.05.027-.031.139-.046.14-.062a.691.691,0,0,0-.2.015.238.238,0,0,1-.179,0c-.061-.033-.1-.085.054-.119s.062-.029-.076-.025c0,0-.258,0-.254-.049s.117-.058.289-.1c.141-.038-.007-.02-.1-.033,0,0-.225,0-.258-.043s.1-.066.055-.105c-.075.049-.282.029-.23.12a.436.436,0,0,0,.2.077c-.187.042-.138.151-.052.207a.472.472,0,0,0,.089.049c-.152.085-.294.1-.321.071s.085-.059.063-.1c-.673.1-.1-.113-.1-.113-.007-.06-.5.1-.458-.022.078-.042.186-.049.274-.088-.025-.055-.385.028-.436-.028s.114-.041.145-.065a1.134,1.134,0,0,0-.513-.051.584.584,0,0,0-.311-.154.374.374,0,0,0-.24-.209.473.473,0,0,0-.123-.177.512.512,0,0,0-.114-.072.67.67,0,0,0-.1-.2c-.041-.062-.08-.066-.121-.1A.312.312,0,0,0,9.517,8.7a.415.415,0,0,0-.094-.1.305.305,0,0,0-.059-.14C9.13,8.039,8.2,8.073,7.044,8.11a12.223,12.223,0,0,1-2.4-.1c.431.409,2.494.3,3.452.428a3.4,3.4,0,0,1-.9.084c-.063.077.62.2,1.273.241a6.776,6.776,0,0,0-.715.123A3.983,3.983,0,0,0,8.94,9.06c-.384.084-.826.088-.757.162a4.446,4.446,0,0,0,1.05.079c-.414.157-.773.045-.753.117a1.723,1.723,0,0,0,.44.079,3.5,3.5,0,0,1,.568.024c.025.034-.165.027-.316.055-.366.067-.491,0-.4.066a1.6,1.6,0,0,0,.457.052c.223,0,.461.009.5.077a1.533,1.533,0,0,0-.344.012c-.3.031-.448-.014-.387.041a1.455,1.455,0,0,0,.463.069c.336.027.407.069.469.12l-.086,0c-.239-.028-.493-.016-.719-.037-.044.063.248.062.281.148a3.03,3.03,0,0,1-.774.11c-.045,0-.151-.033-.14-.007s.111.04.161.052a1.573,1.573,0,0,0,.45.023c.066.111-.964.06-.853.162a3.074,3.074,0,0,1,.515.02c-.033.014.077.043-.277.1-.3.094-.759.672-1.316.553-.127-.051-.147-.093-.154-.1.427.115,1.221-.464,1.221-.464-.19-.089-1.011.472-1.357.369-.075-.058-.076-.048-.075-.075a4.424,4.424,0,0,0,1.16-.481c-.6.068-1.045.356-1.4.344-.074,0-.086,0-.112-.06a6.148,6.148,0,0,1,1.971-.54c-.151-.027-.351-.175-.356-.3-.195-.041-.354-.16-.37-.268a.629.629,0,0,1-.615-.359c-.6,0-.705-.337-.705-.337-1.1,0-1.2-.535-1.2-.535A1.3,1.3,0,0,1,4.129,7.76c.914.324,4.325-.1,5.1.247.685.31.787,1.737,1.879,1.553a1.585,1.585,0,0,1-.352-.127,3.224,3.224,0,0,0,.354-.181,6.782,6.782,0,0,0,1.252-1.28c.379-.5,2.355-.127,2.883-.265-.034.183-.264.321-.744.4-.2.032-.054.237-.423.319-.263.059-.275.27-.959.3a2.407,2.407,0,0,1-.792.358l-.154.036c-.118-.029-.165-.05-.2-.091.144.006.266.015.3-.028-.054-.008-.19-.037-.186-.07.225,0,.476-.012.441-.05a.36.36,0,0,1-.263-.1,1.05,1.05,0,0,0,.559-.057c.023-.033-.3.015-.462-.114l-.008,0c.187-.007,1.239.009,1.168-.12a4.165,4.165,0,0,1-1.029-.058,3.518,3.518,0,0,1,.431-.057c.48-.015,1.223-.031,1.161-.206a6.06,6.06,0,0,1-1.326.019l.034-.023a4.349,4.349,0,0,1,1-.127c.164-.02,1.041-.06,1.071-.189a6.02,6.02,0,0,1-1.056.031,2.046,2.046,0,0,0-1.223.182,1.65,1.65,0,0,0-.215.2c-.041.052-.18.23-.215.268a3.447,3.447,0,0,1-.787.763c-.084.046-.172.036-.187.068h0l.055.006a2.264,2.264,0,0,1,.908.246c-.031-.051-.02-.1.046-.134a.307.307,0,0,0,.241.177C12.383,9.534,12.463,9.5,12.463,9.5Z" transform="translate(-3.76 -3.32)" fill="#fff"/>
            <path id="Path_57790" data-name="Path 57790" d="M42.847,60.34c.087.1.274.179.671.076.162.022-.111-.132-.188-.127C42.989,60.405,42.814,60.271,42.847,60.34Z" transform="translate(-38.42 -53.841)" fill="#fff"/>
            <path id="Path_57791" data-name="Path 57791" d="M80.333,61.032c.131.041.172.3.407.117C80.882,61.036,80.025,60.937,80.333,61.032Z" transform="translate(-71.607 -54.466)" fill="#fff"/>
            <path id="Path_57792" data-name="Path 57792" d="M45.668,62.2a1.624,1.624,0,0,1-.41.041c.061.1.364.13.617.071.13.006,0-.043-.037-.049C45.718,62.252,45.714,62.185,45.668,62.2Z" transform="translate(-40.557 -55.535)" fill="#fff"/>
            <path id="Path_57793" data-name="Path 57793" d="M29.129,52.514c-.088-.007-.283-.063-.23-.014.1.139.316.3,1.4.22,0-.02-.081-.036-.175-.066-.369-.034-.147-.1-.413-.11A5,5,0,0,1,29.129,52.514Z" transform="translate(-26.046 -46.917)" fill="#fff"/>
            <path id="Path_57794" data-name="Path 57794" d="M35.083,55.587c-.162-.015-.22-.057-.211-.027.108.26.827.241,1.09.179,0-.022-.085-.038-.129-.058-.312-.054-.123-.077-.287-.1S35.211,55.6,35.083,55.587Z" transform="translate(-31.351 -49.638)" fill="#fff"/>
          </g>
        </g>
      </g>
    </g>
  </g>
</svg>
