<svg xmlns="http://www.w3.org/2000/svg" width="18.322" height="18.322" viewBox="0 0 18.322 18.322">
  <g id="Group_8639" data-name="Group 8639" transform="translate(-293 -690.474)">
    <rect id="Rectangle_3470" data-name="Rectangle 3470" width="18.322" height="18.322" rx="3" transform="translate(293 690.474)" fill="#47c7fa"/>
    <path id="_002-twitter" data-name="002-twitter" d="M10.1,48.97a4.317,4.317,0,0,1-1.193.327,2.06,2.06,0,0,0,.913-1.146,4.139,4.139,0,0,1-1.313.5,2.071,2.071,0,0,0-3.582,1.416,2.132,2.132,0,0,0,.046.474A5.862,5.862,0,0,1,.7,48.377a2.072,2.072,0,0,0,.637,2.768A2.045,2.045,0,0,1,.4,50.89v.023a2.08,2.08,0,0,0,1.659,2.036,2.067,2.067,0,0,1-.543.068,1.832,1.832,0,0,1-.392-.035,2.091,2.091,0,0,0,1.934,1.443A4.161,4.161,0,0,1,.5,55.305a3.88,3.88,0,0,1-.5-.03,5.83,5.83,0,0,0,3.177.929,5.852,5.852,0,0,0,5.894-5.893c0-.092,0-.18-.008-.268A4.132,4.132,0,0,0,10.1,48.97Z" transform="translate(296.902 647.734)" fill="#fff"/>
  </g>
</svg>
