<svg xmlns="http://www.w3.org/2000/svg" width="42" height="42" viewBox="0 0 42 42">
  <g id="Group_8633" data-name="Group 8633" transform="translate(-1095 -493)">
    <rect id="Rectangle_1615" data-name="Rectangle 1615" width="42" height="42" rx="21" transform="translate(1095 493)" fill="#0069a2"/>
    <g id="whatsapp" transform="translate(1103.807 500.549)">
      <g id="Group_3926" data-name="Group 3926" transform="translate(0 0)">
        <path id="Path_57766" data-name="Path 57766" d="M68.494,92.733,70.2,86.668a12.172,12.172,0,1,1,4.548,4.455Zm6.575-3.826.373.228a10.109,10.109,0,1,0-3.254-3.181l.251.391-.983,3.493Z" transform="translate(-68.494 -68.321)" fill="#fff"/>
        <path id="Path_57767" data-name="Path 57767" d="M150.334,152.87l-.79-.043a.955.955,0,0,0-.679.232,3.6,3.6,0,0,0-1.184,1.814,5.5,5.5,0,0,0,1.275,4.31,12.822,12.822,0,0,0,6.911,5.024,3.368,3.368,0,0,0,2.852-.353,2.551,2.551,0,0,0,1.11-1.619l.126-.589a.409.409,0,0,0-.229-.458l-2.67-1.231a.409.409,0,0,0-.5.122l-1.048,1.359a.3.3,0,0,1-.337.1,8.21,8.21,0,0,1-4.442-3.8.3.3,0,0,1,.038-.338l1-1.159a.409.409,0,0,0,.067-.429l-1.151-2.693A.409.409,0,0,0,150.334,152.87Z" transform="translate(-141.546 -146.36)" fill="#fff"/>
      </g>
    </g>
  </g>
</svg>
