<svg xmlns="http://www.w3.org/2000/svg" width="154.543" height="115.947" viewBox="0 0 154.543 115.947">
  <g id="Group_8589" data-name="Group 8589" transform="translate(-46.491 -60.074)">
    <path id="Path_60466" data-name="Path 60466" d="M132.457,86.369A71.035,71.035,0,0,0,69.743,190.732H195.171A71.035,71.035,0,0,0,132.457,86.369Z" transform="translate(-8.695 -16.391)" fill="#ecf1f7"/>
    <g id="Group_8589-2" data-name="Group 8589" transform="translate(47.491 175.021)">
      <line id="Line_365" data-name="Line 365" x2="8.458" transform="translate(133.451)" fill="none" stroke="#000" stroke-linecap="round" stroke-linejoin="round" stroke-width="2"/>
      <line id="Line_366" data-name="Line 366" x2="6.548" transform="translate(145.995)" fill="none" stroke="#000" stroke-linecap="round" stroke-linejoin="round" stroke-width="2"/>
      <line id="Line_367" data-name="Line 367" x1="119.922" transform="translate(8.697)" fill="none" stroke="#000" stroke-linecap="round" stroke-linejoin="round" stroke-width="2"/>
      <line id="Line_368" data-name="Line 368" x1="4.435" fill="none" stroke="#000" stroke-linecap="round" stroke-linejoin="round" stroke-width="2"/>
    </g>
    <g id="Group_8596" data-name="Group 8596" transform="translate(89.864 60.074)">
      <path id="Path_60467" data-name="Path 60467" d="M168.286,175.377a1.874,1.874,0,0,1-.267-.019,9.42,9.42,0,0,1-8.023-9.07V68.671a8.606,8.606,0,0,1,8.6-8.6h50.172a8.606,8.606,0,0,1,8.6,8.6v97.617c0,4.642-3.649,8.458-8.676,9.075a1.823,1.823,0,0,1-.227.014Z" transform="translate(-159.995 -60.074)"/>
      <path id="Path_60468" data-name="Path 60468" d="M171.374,176.6a7.529,7.529,0,0,1-6.425-7.223V71.759a6.739,6.739,0,0,1,6.731-6.732h50.172a6.739,6.739,0,0,1,6.731,6.732v97.617c0,3.711-3.019,6.73-7.037,7.223Z" transform="translate(-163.083 -63.162)" fill="#266193"/>
      <path id="Path_60469" data-name="Path 60469" d="M226.212,72.022H213.937v1.329a2.253,2.253,0,0,1-2.253,2.253H191.709a2.252,2.252,0,0,1-2.253-2.253V72.022H176.04a4.1,4.1,0,0,0-4.1,4.1v97.617a4.1,4.1,0,0,0,4.1,4.1h50.172a4.1,4.1,0,0,0,4.1-4.1V76.119A4.1,4.1,0,0,0,226.212,72.022Z" transform="translate(-167.443 -67.522)" fill="#fff"/>
      <g id="Group_8594" data-name="Group 8594" transform="translate(8.51 27.217)">
        <g id="Group_8591" data-name="Group 8591" transform="translate(0 29.401)">
          <g id="Group_8590" data-name="Group 8590" transform="translate(0 6.798)">
            <rect id="Rectangle_3294" data-name="Rectangle 3294" width="50.346" height="1.487" fill="#dee1ef"/>
            <rect id="Rectangle_3295" data-name="Rectangle 3295" width="50.346" height="1.487" transform="translate(0 3.354)" fill="#dee1ef"/>
            <rect id="Rectangle_3296" data-name="Rectangle 3296" width="50.346" height="1.487" transform="translate(0 6.707)" fill="#dee1ef"/>
            <rect id="Rectangle_3297" data-name="Rectangle 3297" width="50.346" height="1.487" transform="translate(0 10.06)" fill="#dee1ef"/>
            <rect id="Rectangle_3298" data-name="Rectangle 3298" width="50.346" height="1.487" transform="translate(0 13.414)" fill="#dee1ef"/>
            <rect id="Rectangle_3299" data-name="Rectangle 3299" width="50.346" height="1.487" transform="translate(0 16.767)" fill="#dee1ef"/>
            <rect id="Rectangle_3300" data-name="Rectangle 3300" width="50.346" height="1.487" transform="translate(0 20.121)" fill="#dee1ef"/>
            <rect id="Rectangle_3301" data-name="Rectangle 3301" width="50.346" height="1.487" transform="translate(0 23.474)" fill="#dee1ef"/>
            <rect id="Rectangle_3302" data-name="Rectangle 3302" width="50.346" height="1.487" transform="translate(0 26.828)" fill="#dee1ef"/>
            <rect id="Rectangle_3303" data-name="Rectangle 3303" width="50.346" height="1.487" transform="translate(0 30.181)" fill="#dee1ef"/>
            <rect id="Rectangle_3304" data-name="Rectangle 3304" width="50.346" height="1.487" transform="translate(0 33.535)" fill="#dee1ef"/>
          </g>
          <rect id="Rectangle_3305" data-name="Rectangle 3305" width="50.346" height="3.757" fill="#dee1ef"/>
        </g>
        <g id="Group_8593" data-name="Group 8593">
          <rect id="Rectangle_3306" data-name="Rectangle 3306" width="20.571" height="25.204" fill="#c4ad76"/>
          <g id="Group_8592" data-name="Group 8592" transform="translate(23.83 0.121)">
            <rect id="Rectangle_3307" data-name="Rectangle 3307" width="26.515" height="1.487" fill="#dee1ef"/>
            <rect id="Rectangle_3308" data-name="Rectangle 3308" width="26.515" height="1.487" transform="translate(0 3.353)" fill="#dee1ef"/>
            <rect id="Rectangle_3309" data-name="Rectangle 3309" width="26.515" height="1.487" transform="translate(0 6.707)" fill="#dee1ef"/>
            <rect id="Rectangle_3310" data-name="Rectangle 3310" width="26.515" height="1.487" transform="translate(0 10.06)" fill="#dee1ef"/>
            <rect id="Rectangle_3311" data-name="Rectangle 3311" width="26.515" height="1.487" transform="translate(0 13.414)" fill="#dee1ef"/>
            <rect id="Rectangle_3312" data-name="Rectangle 3312" width="26.515" height="1.487" transform="translate(0 16.767)" fill="#dee1ef"/>
            <rect id="Rectangle_3313" data-name="Rectangle 3313" width="26.515" height="1.487" transform="translate(0 20.121)" fill="#dee1ef"/>
            <rect id="Rectangle_3314" data-name="Rectangle 3314" width="26.515" height="1.487" transform="translate(0 23.474)" fill="#dee1ef"/>
          </g>
        </g>
      </g>
      <g id="Group_8595" data-name="Group 8595" transform="translate(24.853 4.5)">
        <path id="Path_60470" data-name="Path 60470" d="M240.751,73.338H226.641a.66.66,0,0,1-.658-.658h0a.66.66,0,0,1,.658-.658h14.111a.66.66,0,0,1,.658.658h0A.66.66,0,0,1,240.751,73.338Z" transform="translate(-225.983 -72.022)" fill="#4a83b4"/>
        <path id="Path_60471" data-name="Path 60471" d="M273.7,72.687a.665.665,0,1,1-.665-.665A.665.665,0,0,1,273.7,72.687Z" transform="translate(-254.9 -72.022)" fill="#4a83b4"/>
      </g>
    </g>
    <g id="logo-el-universal" transform="translate(98.482 76.821)">
      <g id="Group_8392" data-name="Group 8392" transform="translate(7.559 0.444)">
        <g id="Group_8391" data-name="Group 8391">
          <g id="Group_8390" data-name="Group 8390">
            <path id="Path_57775" data-name="Path 57775" d="M206.032,109.814h-3.083v-.3h.441v-3.23h-.441v-.3h3.026v.994H205.6V106.4h-1.173v1.283h.493v-.406h.349v1.116h-.35v-.407h-.493v1.422h1.225v-.655h.377Z" transform="translate(-202.949 -105.882)" fill="#0069a2"/>
            <path id="Path_57776" data-name="Path 57776" d="M215.169,109.814h-3.032v-.3h.441v-3.23h-.441v-.3h2v.3h-.522v3.125h1.173v-.656h.377Z" transform="translate(-208.677 -105.882)" fill="#0069a2"/>
            <path id="Path_57777" data-name="Path 57777" d="M227.515,106.284H227.2v2.184c0,1.058-.645,1.422-1.638,1.422-1.079,0-1.638-.459-1.638-1.26v-2.346h-.354v-.3h1.83v.3h-.436v2.167c0,.836.331,1.034.941,1.034.638,0,.871-.342.871-1.034v-2.161H226.3v-.308h1.218Z" transform="translate(-215.805 -105.884)" fill="#0069a2"/>
            <path id="Path_57778" data-name="Path 57778" d="M236.084,109.511h.507v.3h-1.369v-.3h.44V106.45c0-.006-.122-.168-.122-.168H235.1v-.3h1.462l1.853,2.55v-2.248h-.575v-.3h1.417v.3h-.418v3.6h-.668l-2.085-2.852Z" transform="translate(-222.99 -105.882)" fill="#0069a2"/>
            <path id="Path_57779" data-name="Path 57779" d="M249.208,109.814h-1.984v-.3h.469v-3.229h-.469v-.3h1.984v.3h-.476v3.229h.476Z" transform="translate(-230.549 -105.882)" fill="#0069a2"/>
            <path id="Path_57780" data-name="Path 57780" d="M255.892,109.912h-.606l-1.417-3.63h-.32v-.3H255.5v.3h-.57l.97,2.544.981-2.544h-.43v-.3h1.162v.3h-.309Z" transform="translate(-234.491 -105.882)" fill="#0069a2"/>
            <path id="Path_57781" data-name="Path 57781" d="M268.475,109.814h-3.031v-.3h.331v-3.229h-.331v-.3h2.973v.993h-.372V106.4h-1.229v1.284h.551v-.407h.348v1.116h-.348v-.407h-.551v1.422H268.1v-.655h.377Z" transform="translate(-241.906 -105.882)" fill="#0069a2"/>
            <path id="Path_57782" data-name="Path 57782" d="M276.653,108.049c1.005-.093,1.209-.54,1.209-.976,0-.7-.441-1.092-1.4-1.092h-1.934v.3h.488v3.229h-.488v.3h1.934v-.3h-.407v-1.2h.151l.882,1.5h1.264v-.3h-.282l-.528-.86c-.267-.429-.372-.54-.888-.579v-.023Zm-.6-1.678h.046c.575,0,.679.232.679.725s-.075.836-.7.836h-.022Z" transform="translate(-247.569 -105.882)" fill="#0069a2"/>
            <path id="Path_57783" data-name="Path 57783" d="M286.141,109.721h-.4v-1.116h.4v.621a2.819,2.819,0,0,0,.86.1c.482,0,.662-.133.662-.47,0-.267-.232-.389-.773-.651-.842-.407-1.126-.679-1.126-1.377,0-.72.54-1.063,1.261-1.063a2.131,2.131,0,0,1,.918.215v-.232h.371v1.079h-.371v-.557a2.665,2.665,0,0,0-.673-.07c-.4,0-.587.122-.587.412,0,.349.233.447.72.684.663.32,1.156.575,1.156,1.347,0,.737-.569,1.1-1.336,1.1a2.444,2.444,0,0,1-1.08-.227Z" transform="translate(-254.559 -105.737)" fill="#0069a2"/>
            <path id="Path_57784" data-name="Path 57784" d="M294.67,108.583h1.388l.3.766h-.47v.3h1.838v-.3h-.333l-1.418-3.63h-.6l-1.417,3.63h-.36v.3h1.179v-.3h-.4Zm1.266-.326h-1.144c.006,0,.575-1.481.575-1.481Z" transform="translate(-259.452 -105.719)" fill="#0069a2"/>
            <path id="Path_57785" data-name="Path 57785" d="M308.529,109.814H305.62v-.3h.319v-3.229h-.319v-.3h1.769v.3h-.411v3.124h1.174v-.656h.378Z" transform="translate(-266.951 -105.882)" fill="#0069a2"/>
          </g>
        </g>
      </g>
      <g id="Group_8394" data-name="Group 8394" transform="translate(0 0)">
        <g id="Group_8393" data-name="Group 8393">
          <path id="Path_57786" data-name="Path 57786" d="M185.57,112.689c.226.122.391.151,1.195.185.127-.017-.234-.06-.3-.081-.266-.081-.031-.12-.211-.11a2.564,2.564,0,0,1-.524-.035C185.558,112.624,185.389,112.556,185.57,112.689Z" transform="translate(-184.508 -109.57)" fill="#0069a2"/>
          <path id="Path_57787" data-name="Path 57787" d="M196.341,110.207c.011-.014.022-.029.031-.044Z" transform="translate(-191.27 -108.045)" fill="#0069a2"/>
          <path id="Path_57788" data-name="Path 57788" d="M189.441,114.47c.062.086.339.1.437.066.084.006.029-.041-.021-.048-.046.01-.1-.041-.107-.035C189.526,114.507,189.428,114.436,189.441,114.47Z" transform="translate(-186.968 -110.719)" fill="#0069a2"/>
          <path id="Path_57789" data-name="Path 57789" d="M189.911,107a8.573,8.573,0,0,0-1.745.048,1.811,1.811,0,0,0,.094-.6,1.908,1.908,0,1,0-3.71.629c-1.488.111-1.649-.152-1.672-.022a.82.82,0,0,0,.715.618,1.1,1.1,0,0,0,.743.364.715.715,0,0,0,.442.2.388.388,0,0,0,.376.174.211.211,0,0,0,.158.112s-.006.039.044.056a2.606,2.606,0,0,0-1.093.366c.026.125.278.2.344.194a.427.427,0,0,0,.351.237.5.5,0,0,0,.428.145.415.415,0,0,0,.476-.273c.02-.091.084-.224.211-.241a.2.2,0,0,1,.1.063.247.247,0,0,0,.026.336.471.471,0,0,0,.353.038c.072.069.133.016.17.036-.014.024.063.073.132.044s.081-.061.087-.083a.059.059,0,0,0,.018-.069.047.047,0,0,0,.029-.06l0-.006c.046.012.091-.057.087-.1-.006-.088-.061-.1-.144-.1a.769.769,0,0,1,.38-.1.99.99,0,0,0,.334-.1c.1-.029.183-.029.261-.046.056-.012.1-.007.131-.016.022.021.087.047.277.02a3.606,3.606,0,0,1,.446-.026c.118-.328-.161-.381-.161-.381-.043-.086-.073-.163-.207-.194s-.17-.026-.187-.089a.186.186,0,0,0-.1,0,.288.288,0,0,1,.094-.047c.272-.07.331-.153.365-.194a.9.9,0,0,0,.583-.2.461.461,0,0,0,.354-.208C190.008,107.5,190.075,106.974,189.911,107Zm-2.981,1.124a.092.092,0,0,1-.039-.043.79.79,0,0,0,.237-.108c.15-.092,0,.02-.04.074C187.088,108.048,187.062,108.089,186.93,108.125Zm-1.481-1.049s-.024-.082.014-.092c.064-.018.163-.122.23-.142,0,0,.049-.054-.263.072,0-.029,0-.031,0-.073a.379.379,0,0,1,.105-.043c.007-.038-.076-.014-.1-.028s0-.053,0-.108a1.938,1.938,0,0,0,.383.062c.022.018.148.086.1.02l0-.012.076,0a.156.156,0,0,0,.02.051l.015.018,0,.238c-.029.014-.085.055-.138.079a.279.279,0,0,1-.11.017c.079-.051.11-.111.214-.173,0,0-.059-.055-.284.12a.313.313,0,0,1-.165.05v0c.095-.04.223-.2.323-.229C185.858,106.9,185.794,106.864,185.449,107.076Zm-.5.032-.066,0c0-.028-.009-.067-.009-.067a.484.484,0,0,0,.241-.059c.06-.029.105-.1.2-.1.008,0,.012.042.014.07-.018.009-.061.017-.079.026-.1.049-.1.121-.3.128Zm2.018-2.167a1.307,1.307,0,0,1,.373.15.273.273,0,0,1-.013.175,2,2,0,0,0-.377-.226C186.992,105.018,186.989,104.982,186.97,104.941Zm-.5-.107h0c.072.086-.031.2-.23.262a.462.462,0,0,1-.458-.067c-.072-.085,0-.183.2-.241a.533.533,0,0,1,.487.046Zm-1.142.531c-.037.03-.024.073-.035.11,0,.017-.016.05-.03.084s-.032.045-.048.068a.761.761,0,0,1-.085-.061.215.215,0,0,1-.037-.046,1.95,1.95,0,0,1,.275-.219A.375.375,0,0,1,185.324,105.365Zm.979,1.195a.3.3,0,0,1,.042-.077c.018-.028.085-.031.112-.029a.23.23,0,0,0,.059.007.17.17,0,0,0,.053-.04c.023-.021.05-.01.073-.007a.171.171,0,0,1,.067.024.086.086,0,0,1,.038.029.123.123,0,0,1,.011.06,3.42,3.42,0,0,1-.479.075.344.344,0,0,0,.024-.043Zm.4-1.139c-.039.009-.079,0-.095.02s-.017.1-.105.059c-.053-.07-.072-.039-.105-.079a.05.05,0,0,1,0-.071.051.051,0,0,1,.021-.012c.026-.01.021-.035.016-.064s-.041-.035-.026-.084c.005-.018.013-.058.072-.031a1.948,1.948,0,0,1,.237.186C186.761,105.387,186.743,105.412,186.706,105.42Zm-1.293-.414a.973.973,0,0,1,.251-.112c-.016.029-.061.089-.072.11a2.314,2.314,0,0,0-.54.456.274.274,0,0,1,.005-.169A1.346,1.346,0,0,1,185.413,105.007Zm-.354.6a.46.46,0,0,0,.1.095,2.326,2.326,0,0,0-.27.6.371.371,0,0,1-.151-.19,1.553,1.553,0,0,1,.3-.54C185.044,105.579,185.052,105.6,185.059,105.605Zm-.13.822c.041.026.053.054.1.075a.656.656,0,0,0-.121.02C184.913,106.492,184.921,106.457,184.93,106.427Zm-.1-.06c-.031.011-.1.034-.08.04a.9.9,0,0,1,.11-.006c-.011.049-.024.1-.032.149-.041.014-.117.042-.128.079.03-.006.079-.023.117-.029a1,1,0,0,0-.01.135.331.331,0,0,0-.072.059c.017,0,.053-.016.073-.019,0,.011,0,.049,0,.059s-.012-.142,0,.054c-.014.022-.037.04-.045.055l.046-.013a1.558,1.558,0,0,0,.029.177.291.291,0,0,1-.1-.067.373.373,0,0,1-.059-.082,1.88,1.88,0,0,1,.026-.769.676.676,0,0,0,.123.178Zm-.2.448a1.766,1.766,0,0,1,.019-.864.775.775,0,0,0,.025.186,2.429,2.429,0,0,0-.044.679Zm.35-.011c-.038.02-.07.04-.117.067a.94.94,0,0,1,0-.117.787.787,0,0,0,.092-.035c.1-.033.105-.067.184-.089,0,0-.029-.037-.226.044-.012,0-.035.02-.047.026a.506.506,0,0,1,.019-.116c.065-.022.084-.055.147-.074a1.94,1.94,0,0,0,.281.12c0,.063,0,.158-.036.168a.922.922,0,0,0-.179.105.651.651,0,0,1-.231.113c-.006-.034-.007-.06-.011-.094a1.036,1.036,0,0,0,.158-.063c.1-.041.125-.109.227-.141,0,0-.011-.049-.265.085Zm-.015-.449c.035-.02.135-.035.114-.05a.9.9,0,0,0-.105.008,1.576,1.576,0,0,1,.258-.507c.049.049.026.1.087.119.044.032.029.067.06.1l.026.016c-.034.161-.061.324-.079.487A1.061,1.061,0,0,1,184.969,106.354Zm.577-.234a.067.067,0,0,1,.04.085l0,0a.108.108,0,0,0,0,.122.288.288,0,0,1,.035.079.254.254,0,0,0,.066.073c.016.013.009.049.009.049a.6.6,0,0,0,.063.057.086.086,0,0,1,.018.016,1.781,1.781,0,0,1-.339-.052,1.533,1.533,0,0,1,.1-.433Zm.219.345c-.029-.061-.008-.081.014-.084s.075.049.089.074.03.04.047.073.035.059.05.087c-.034,0-.085,0-.117,0-.011-.017-.006-.031-.014-.04A.333.333,0,0,1,185.765,106.465Zm.79,1.007a1.494,1.494,0,0,1,.226-.239s.016-.076-.263.125c-.028.014-.056.026-.069.011.081-.064.116-.169.208-.211,0,0-.028-.045-.269.105a.064.064,0,0,1-.081,0c.068-.053.123-.131.2-.161,0,0-.01-.033-.24.091a.06.06,0,0,1-.065,0c.063-.05.116-.122.182-.146,0,0,0-.033-.23.053a.447.447,0,0,1,0-.045.391.391,0,0,1,.1-.059s-.02-.028-.1,0c0,0,0-.1,0-.148a.378.378,0,0,1,.059.051s.041.015.058,0a.2.2,0,0,1,.127-.026.842.842,0,0,1,.124.068.065.065,0,0,1,.048.04c.009.029-.006.044,0,.059s.013.026.074.047.07.022.087.036.046.008.059.007.026-.024.039-.028a.334.334,0,0,1,.061,0c.038.011.02.052.02.084,0,.057-.058.076-.094.125-.123.1-.221.282-.255.16Zm.36-.455a.238.238,0,0,0-.124.026.069.069,0,0,1-.093-.024c-.014-.026-.009-.044,0-.1s-.07-.043-.105-.063,0-.069.017-.1-.067-.041-.089-.036-.032.079-.075.1-.053.006-.1-.023a.1.1,0,0,1-.06-.1,4.4,4.4,0,0,0,.459-.079c.039-.006.021.024.059.011a.089.089,0,0,0,.034-.026,1.046,1.046,0,0,1,.034.108c-.014,0-.043-.012-.058-.018a.286.286,0,0,0-.136.031c-.014.013.026.016.046.022s.05.026.07.032.035.047.07.045a.03.03,0,0,1,.032.016,1.351,1.351,0,0,1,.055.194.079.079,0,0,0-.032-.013Zm-.05-.516a.287.287,0,0,0,0-.084c-.009-.035.123-.1.123-.1s.053-.021.093-.041.042-.142.021-.188-.033-.1-.007-.132.105.05.146.035.029-.039.04-.063a2.676,2.676,0,0,1,.172.312,2,2,0,0,1-.568.251Zm.316-.824c.015,0,.034,0,.053,0,.041,0,.1,0,.113-.051a.476.476,0,0,0-.01-.148c-.012-.037-.067-.041-.081-.063l0-.005a.486.486,0,0,0,.074-.1,1.84,1.84,0,0,1,.5.534,1.074,1.074,0,0,1-.323.369A2.748,2.748,0,0,0,187.18,105.677Zm.127-.369a.445.445,0,0,1-.075.093.1.1,0,0,0-.085-.017.07.07,0,0,1-.076-.038s.084-.064.045-.1a.683.683,0,0,0-.24-.035c-.073-.02-.068.03-.079.055-.053-.044-.107-.087-.162-.125h0c0-.079.089-.031.093-.066s-.1-.07-.062-.079a2.107,2.107,0,0,1,.638.308Zm-.781-.568c-.017,0-.089-.035-.112-.038l.029-.017a1.735,1.735,0,0,1,.37.06A1.261,1.261,0,0,0,186.526,104.74Zm-1.5.585a.36.36,0,0,0-.019.181,1.856,1.856,0,0,0-.306.566.438.438,0,0,1-.04-.146,1.734,1.734,0,0,1,.365-.6Zm.221,1.748c.046-.017.07-.022.074-.024s.012.02.021.072a.879.879,0,0,1-.336.011.743.743,0,0,0,.241-.059Zm1.4.588a.142.142,0,0,1-.032-.063c.244-.061.5-.329.349-.158a.41.41,0,0,1-.207.172Zm.369-.1c.14-.105.127-.071.024.012a.7.7,0,0,1-.317.222.091.091,0,0,1-.031-.058,2.054,2.054,0,0,0,.324-.176Zm.168.095c-.11.087-.072.115-.276.208l-.134.053a.193.193,0,0,1-.03-.062c.3-.082.476-.278.44-.2Zm-.024.169c.1-.061-.026.025-.053.079a.7.7,0,0,1-.254.132.256.256,0,0,1-.037-.055,1.145,1.145,0,0,0,.344-.156Zm.572-.452c.043-.105.069-.164.056-.219,0-.024.031-.038-.016-.079s-.232.167-.286.134c-.037-.021-.066.01-.107,0a.081.081,0,0,1-.041-.024,1.645,1.645,0,0,0,.611-.479,1.534,1.534,0,0,1-.667.445c-.026-.006-.031.012-.053-.012a.208.208,0,0,0-.156-.038.283.283,0,0,1-.076,0,.183.183,0,0,0-.042-.057c-.011-.082-.014-.128-.031-.217a.154.154,0,0,1,.04-.006c.04,0,.041.026.065.032a.076.076,0,0,0,.071-.044c.006-.021-.029-.042-.063-.057a.413.413,0,0,1-.059-.039c-.019-.012-.059.007-.079.008-.009-.045-.015-.092-.026-.137l.021-.006a1.767,1.767,0,0,0,.57-.307,2.235,2.235,0,0,1,.216.548,2.357,2.357,0,0,0-.173-.574.956.956,0,0,0,.32-.378,1.562,1.562,0,0,1,.187.438,1.759,1.759,0,0,0-.181-.452c.008-.018.013-.037.018-.055-.007.016-.014.032-.022.048a1.888,1.888,0,0,0-.491-.566.279.279,0,0,0,0-.181,1.69,1.69,0,0,1,.523.51l-.007-.009a1.473,1.473,0,0,0-.93-.71l-.055-.026-.192-.036c-.006-.024-.053-.05-.061-.053a.955.955,0,0,1,.31.016,1.762,1.762,0,0,1,1.174,1.662,2.005,2.005,0,0,1-.395,1.111,1.379,1.379,0,0,1,.02-.185Zm-2.589,1.935a1.249,1.249,0,0,0,.555-.3.154.154,0,0,0-.011.021A.454.454,0,0,1,185.142,109.3Zm.2.064a.479.479,0,0,0,.423-.25c-.1.351-.359.276-.423.249Zm.937-.031a.165.165,0,0,1-.016-.232c0-.047.026-.059.018.035-.017.184.119.186.165.211s-.1.031-.167-.015Zm.285-.1c-.009-.021-.007-.047.044-.09.221-.188-.023-.166.084-.248-.016.053.334.075-.055.269a.261.261,0,0,0-.073.069Zm.345.079c0,.005-.007-.008-.008-.012a.017.017,0,0,0-.023-.009.018.018,0,0,0-.009.009c.029.031.015.074,0,.042a.022.022,0,0,0-.029-.009l0,0a.057.057,0,0,1-.006.075c-.018.023-.058.031-.063.016s.015,0,.026-.016a.043.043,0,0,0-.013-.059l0,0c-.029-.018-.076-.009-.064.024.012.015.026.031-.008.031a.145.145,0,0,1-.047-.006.065.065,0,0,1-.051-.041c0-.024.016.008.037,0s.047-.075.121-.066a.033.033,0,0,0,.028-.012c0-.008,0-.016.013-.02a.05.05,0,0,1,.026,0c.02,0,.018-.007.022-.016s.019-.007.033,0a.046.046,0,0,1,.023.061Zm.037-.138a.037.037,0,0,1,.039.036.038.038,0,0,1-.012.029c-.018.02-.008-.008-.018-.029a.056.056,0,0,0-.04-.02c-.012,0-.018-.018-.012-.019a.12.12,0,0,0,.045,0Zm1.167-.922a.132.132,0,0,0,.115.087c.1.018.223.068.237.155.006.044.265.039.206.214a2.264,2.264,0,0,1-.285-.03c-.008.012.083.02.04.042-.064.037-.374.05-.308-.03.016-.018.084-.028.084-.037a.41.41,0,0,0-.119.009.142.142,0,0,1-.108,0c-.037-.02-.061-.051.033-.072s.037-.018-.046-.015c0,0-.155,0-.153-.029s.07-.035.174-.06c.085-.023,0-.012-.059-.02,0,0-.136,0-.156-.026s.06-.04.034-.064c-.045.029-.169.018-.138.072a.266.266,0,0,0,.12.046c-.112.026-.083.09-.031.125a.278.278,0,0,0,.053.029c-.092.051-.177.062-.194.043s.051-.036.038-.061c-.405.059-.063-.068-.063-.068,0-.036-.3.061-.276-.013.047-.026.112-.029.165-.052-.015-.034-.232.017-.263-.017s.069-.024.087-.039a.675.675,0,0,0-.308-.031.349.349,0,0,0-.188-.093.224.224,0,0,0-.145-.126.285.285,0,0,0-.074-.105.292.292,0,0,0-.069-.044.4.4,0,0,0-.063-.119c-.024-.037-.049-.04-.073-.059a.187.187,0,0,0-.041-.1.248.248,0,0,0-.056-.057.183.183,0,0,0-.036-.084c-.141-.254-.7-.233-1.4-.211a7.34,7.34,0,0,1-1.443-.062c.26.246,1.5.179,2.079.258a2.045,2.045,0,0,1-.543.05c-.038.046.374.119.767.145a4.05,4.05,0,0,0-.431.074,2.392,2.392,0,0,0,.713.108c-.231.051-.5.053-.456.1a2.7,2.7,0,0,0,.632.048c-.249.095-.465.026-.453.07a1.04,1.04,0,0,0,.265.048,2.123,2.123,0,0,1,.342.014c.015.021-.1.017-.19.034-.22.04-.3,0-.243.04a.958.958,0,0,0,.275.031c.134,0,.278.006.3.046a.93.93,0,0,0-.207.008c-.18.018-.27-.008-.233.024a.874.874,0,0,0,.278.041c.2.017.246.042.282.072l-.053,0c-.144-.017-.3-.01-.432-.023-.026.038.149.037.169.089a1.827,1.827,0,0,1-.466.066c-.026,0-.09-.02-.084,0s.067.024.1.032a.95.95,0,0,0,.271.014c.04.067-.579.036-.514.1a1.858,1.858,0,0,1,.31.012c-.02.008.046.026-.167.062-.181.056-.458.4-.793.333-.076-.031-.089-.056-.093-.062.257.069.735-.279.735-.279-.115-.053-.608.284-.816.222-.045-.035-.046-.029-.045-.045a2.64,2.64,0,0,0,.7-.29c-.358.041-.629.215-.843.208-.044,0-.053,0-.067-.036a3.708,3.708,0,0,1,1.188-.329c-.09-.016-.211-.105-.214-.178-.117-.024-.214-.1-.223-.161a.379.379,0,0,1-.37-.216c-.36,0-.424-.2-.424-.2-.666,0-.72-.321-.72-.321a.782.782,0,0,1-.637-.35c.551.195,2.6-.063,3.07.148.412.187.474,1.046,1.132.935a.94.94,0,0,1-.211-.076,1.865,1.865,0,0,0,.213-.109,4.069,4.069,0,0,0,.754-.771c.228-.3,1.418-.076,1.736-.159-.021.11-.158.194-.448.238-.123.019-.032.142-.255.192-.158.035-.166.163-.577.18a1.446,1.446,0,0,1-.477.215l-.093.022c-.071-.018-.1-.03-.12-.055.087,0,.16.009.18-.017-.033,0-.115-.023-.112-.042.136,0,.287-.008.266-.03a.218.218,0,0,1-.158-.057.634.634,0,0,0,.337-.034c.014-.02-.185.009-.278-.069l0,0c.112,0,.746.006.7-.072a2.5,2.5,0,0,1-.621-.035,2.074,2.074,0,0,1,.26-.034c.29-.009.737-.018.7-.124a3.654,3.654,0,0,1-.8.012l.02-.014a2.607,2.607,0,0,1,.6-.076c.1-.012.627-.036.645-.114a3.631,3.631,0,0,1-.636.018,1.233,1.233,0,0,0-.737.11,1.01,1.01,0,0,0-.13.121c-.025.031-.108.138-.13.161a2.07,2.07,0,0,1-.474.459c-.05.028-.1.022-.112.041h0a.243.243,0,0,1,.034,0,1.364,1.364,0,0,1,.546.148c-.018-.031-.012-.06.028-.081a.184.184,0,0,0,.145.105c-.027-.07.022-.089.022-.089Z" transform="translate(-182.878 -104.54)" fill="#0069a2"/>
          <path id="Path_57790" data-name="Path 57790" d="M189.952,114.845c.053.059.165.108.4.046.1.013-.067-.079-.113-.076C190.037,114.884,189.931,114.8,189.952,114.845Z" transform="translate(-187.286 -110.944)" fill="#0069a2"/>
          <path id="Path_57791" data-name="Path 57791" d="M196.76,114.965c.079.024.1.182.246.07C197.091,114.967,196.575,114.907,196.76,114.965Z" transform="translate(-191.507 -111.024)" fill="#0069a2"/>
          <path id="Path_57792" data-name="Path 57792" d="M190.639,115.159a.989.989,0,0,1-.247.024c.037.057.219.079.371.043.079,0,0-.026-.023-.029C190.669,115.191,190.667,115.15,190.639,115.159Z" transform="translate(-187.562 -111.159)" fill="#0069a2"/>
          <path id="Path_57793" data-name="Path 57793" d="M187.569,113.422c-.053,0-.171-.038-.138-.008.063.084.19.179.841.132,0-.012-.049-.022-.105-.04-.222-.021-.089-.062-.249-.066A3.075,3.075,0,0,1,187.569,113.422Z" transform="translate(-185.713 -110.064)" fill="#0069a2"/>
          <path id="Path_57794" data-name="Path 57794" d="M188.635,113.979c-.1-.009-.132-.034-.127-.016.064.158.5.145.656.108,0-.013-.051-.023-.079-.035-.188-.033-.074-.046-.173-.061S188.712,113.986,188.635,113.979Z" transform="translate(-186.387 -110.41)" fill="#0069a2"/>
        </g>
      </g>
    </g>
  </g>
</svg>
