<svg id="Group_8570" data-name="Group 8570" xmlns="http://www.w3.org/2000/svg" width="46.744" height="85.293" viewBox="0 0 46.744 85.293">
  <path id="Path_490" data-name="Path 490" d="M304.512,1830.758c-7.236,0-8.011-2.584-8.011-2.584a5.48,5.48,0,0,0,1.17,2.464s1.746,2.154,6.978,1.987c4.555-.146,5.4-.616,6.735-1.89a4.306,4.306,0,0,0,1.166-2.561s-.775,2.584-8.011,2.584Z" transform="translate(-280.282 -1747.34)" fill="#afa5a3"/>
  <path id="Path_491" data-name="Path 491" d="M216.539,1212.685c.24.409.473.824.695,1.246-.087-.425-.159-.862-.216-1.3q-.029-.126-.056-.252a.465.465,0,0,1-.113.11C216.745,1212.555,216.643,1212.62,216.539,1212.685Z" transform="translate(-208.906 -1197.67)" fill="#ffd689"/>
  <path id="Path_492" data-name="Path 492" d="M157.547,1185.439a6.8,6.8,0,0,1,4,2.19l-.036-.1a4.055,4.055,0,0,1-.657-1.522,7.683,7.683,0,0,1-.541-1.474c-.3-.657-.629-1.306-1-1.948a2.224,2.224,0,0,1-.507.226c-.31.087-.409-.438-.257-.627a5.253,5.253,0,0,1,.9-.83.267.267,0,0,1,.236-.063q-.075-.482-.119-.965c-.148-.13-.3-.257-.447-.377-1.56-1.242-4.479-2.2-5.953-.294-1.416,1.835-.063,4.355,1.214,5.822a8,8,0,0,0,3.587,2.429,2.857,2.857,0,0,1-.751-1.942C157.221,1185.814,157.306,1185.4,157.547,1185.439Z" transform="translate(-151.803 -1167.495)" fill="#ffd689"/>
  <path id="Path_493" data-name="Path 493" d="M225.248,1235.521a4.053,4.053,0,0,0,.657,1.522c-.365-1.021-.751-2.018-1.2-3A7.682,7.682,0,0,0,225.248,1235.521Z" transform="translate(-216.197 -1217.011)" fill="#ffcc69"/>
  <path id="Path_494" data-name="Path 494" d="M217.7,1148.749a.667.667,0,0,1-.094.611q.027.126.056.252c.057.436.129.873.216,1.3.292.555.564,1.121.812,1.7,0-.309.2-.809.535-.529a6.037,6.037,0,0,1,1.064,1.167,5.26,5.26,0,0,1,.186-.639c-.129-.253-.264-.507-.411-.76-.123-.212-.067-.969.323-.679.138.1.271.212.4.325a12.037,12.037,0,0,1-.008-2.54,3.708,3.708,0,0,1-.763-.1c-.289-.076-.321-.782-.021-.861a5.483,5.483,0,0,1,1.238-.124c.5-.017.512,1.122.027,1.1l-.337-.011a14.273,14.273,0,0,0,.1,2.5c.078-.127.157-.249.239-.361a16.821,16.821,0,0,1,2.227-2.487,10.065,10.065,0,0,0-.519-4.769c-.5-1.326-1.553-2.42-3.075-1.962a2.757,2.757,0,0,0-.541.227c-1.644.525-2.154,3.388-2.085,4.786.01.194.032.388.05.582q.044.484.119.965A.432.432,0,0,1,217.7,1148.749Z" transform="translate(-209.553 -1134.65)" fill="#ffcc69"/>
  <path id="Path_495" data-name="Path 495" d="M245.459,1243.268c.114.161.224.324.324.494a7.2,7.2,0,0,1,1.1,1.805,26.432,26.432,0,0,0-1.238-2.938A5.262,5.262,0,0,0,245.459,1243.268Z" transform="translate(-234.72 -1224.671)" fill="#ffcb77"/>
  <path id="Path_496" data-name="Path 496" d="M252.522,1177.682c-.082.112-.161.235-.239.361.012.093.023.186.036.278a6.524,6.524,0,0,1,1.076,1.376,1.889,1.889,0,0,1,.96-1.475.683.683,0,0,1,.3-.052,15.047,15.047,0,0,1,.423-1.515q-.238.057-.478.1c-.183.036-.276-.246-.292-.374a.486.486,0,0,1,.195-.487,5.207,5.207,0,0,1,1.269-.666c.549-.172.634.882.227,1.1a3.566,3.566,0,0,1-.706.271c-.145.542-.263,1.085-.365,1.629a2.89,2.89,0,0,1,1.364,1.428,3.6,3.6,0,0,1,1.693-1.741c.213-.108.363.168.4.33a13.5,13.5,0,0,1,.328,1.905,3.237,3.237,0,0,1,1.733-1.279.275.275,0,0,1,.237.025c1.616-1.98,2.441-4.332,1.307-6.13-1.574-2.5-4.541-.617-5.982.944-.386.418-.773.884-1.147,1.38-.038.033-.074.068-.111.1A16.825,16.825,0,0,0,252.522,1177.682Z" transform="translate(-240.812 -1161.229)" fill="#ffcb77"/>
  <path id="Path_497" data-name="Path 497" d="M242,1202.075a14.286,14.286,0,0,1-.1-2.5l.337.011c.484.017.469-1.122-.027-1.1a5.47,5.47,0,0,0-1.238.124c-.3.079-.267.785.021.861a3.666,3.666,0,0,0,.763.1,12.044,12.044,0,0,0,.008,2.54q.138.12.27.248C242.025,1202.261,242.014,1202.168,242,1202.075Z" transform="translate(-230.531 -1185.261)" fill="#6c6e4a"/>
  <path id="Path_498" data-name="Path 498" d="M208.59,1205.022c.1-.064.206-.13.309-.195a.464.464,0,0,0,.113-.11.667.667,0,0,0,.094-.611.432.432,0,0,0-.264-.3.267.267,0,0,0-.236.063,5.282,5.282,0,0,0-.9.83c-.151.188-.052.714.257.627a2.213,2.213,0,0,0,.507-.226c.37.642.7,1.291,1,1.948.447.978.833,1.975,1.2,3l.036.1.02.023a15.237,15.237,0,0,1-.615-2.082.523.523,0,0,1-.01-.117c-.248-.577-.52-1.143-.812-1.7C209.063,1205.845,208.83,1205.431,208.59,1205.022Z" transform="translate(-200.957 -1190.007)" fill="#6c6e4a"/>
  <path id="Path_499" data-name="Path 499" d="M272.072,1207.029a3.557,3.557,0,0,0,.706-.271c.408-.214.323-1.268-.227-1.1a5.2,5.2,0,0,0-1.269.666.486.486,0,0,0-.195.487c.016.127.109.41.292.374q.241-.048.478-.105a15.1,15.1,0,0,0-.423,1.516.94.94,0,0,1,.272.059C271.809,1208.114,271.927,1207.571,272.072,1207.029Z" transform="translate(-257.592 -1191.656)" fill="#6c6e4a"/>
  <path id="Path_500" data-name="Path 500" d="M370.556,1337.512a1.94,1.94,0,0,0-.557-.517c.323.293.425,1.422-.217,1.421a19.417,19.417,0,0,1-2.249-.137,22.122,22.122,0,0,0-1.787,3.252c-.279.568-.575,1.18-.854,1.817,0,1.26-.005,2.519-.025,3.777H366.3q.978-2.884,2.2-5.675c.073-.165.2.017.158.133-.679,1.837-1.318,3.685-1.934,5.542h2.484q.319-.674.6-1.379C370.639,1343.628,372.154,1339.606,370.556,1337.512Z" transform="translate(-341.306 -1308.904)" fill="#bfca8c"/>
  <path id="Path_501" data-name="Path 501" d="M380.42,1377.927q-1.226,2.79-2.2,5.675h.425c.616-1.857,1.256-3.7,1.934-5.542C380.621,1377.944,380.492,1377.762,380.42,1377.927Z" transform="translate(-353.224 -1345.382)" fill="#809e83"/>
  <path id="Path_502" data-name="Path 502" d="M418.744,1137.493c0-.049,0-.1,0-.147.1-1.306,1.013-4.416,2.826-3.875a2.764,2.764,0,0,1,1.51,1.264,21.368,21.368,0,0,0,.559-2.337c.275-1.553.943-4.922-.707-6.012-1.67-1.1-3.425,1.575-4.069,2.729a17.776,17.776,0,0,0-2.33,8.136C417.334,1136.312,418.087,1136.623,418.744,1137.493Z" transform="translate(-387.429 -1120.679)" fill="#bad6ad"/>
  <path id="Path_503" data-name="Path 503" d="M434.165,1265.068a13.582,13.582,0,0,1-2.116,2.877l.666-.048c.888-.065,1,1.406.794,1.961a4.855,4.855,0,0,1-4.251,3.256,6.11,6.11,0,0,1-2.978-.646,6.375,6.375,0,0,0-1.332,1.791,3.269,3.269,0,0,0-.359,1.77,4.289,4.289,0,0,1-1.669,1.566c-.748.249-1.449.025-2.141.468.35-.956.676-1.92.966-2.9a1.672,1.672,0,0,1-.576.055c-.468,1.295-.933,2.591-1.449,3.869-.467,1.156-1.006,2.285-1.535,3.419h.866c.418-1,.8-2.008,1.178-2.988l.018-.046a2.459,2.459,0,0,1,1.852-1.143,2.705,2.705,0,0,0,1.589-.488,6.068,6.068,0,0,0,1.089-1.178c.012-.015.025-.028.037-.043a1.128,1.128,0,0,0,.838.444c.866.094,2.216-.8,2.994-1.169a16.537,16.537,0,0,0,2.968-1.764c2.482-1.613,3.807-5.022,4.026-7.823C435.693,1265.64,434.866,1263.746,434.165,1265.068Z" transform="translate(-388.899 -1244.292)" fill="#6c6e4a"/>
  <path id="Path_504" data-name="Path 504" d="M480.584,1298.3a2.678,2.678,0,0,0,1.4,1.478,6.105,6.105,0,0,0,2.978.646,4.854,4.854,0,0,0,4.251-3.256c.209-.555.094-2.026-.794-1.961l-.666.048-1.252.09C485.37,1296.993,482.782,1297.945,480.584,1298.3Z" transform="translate(-444.598 -1271.604)" fill="#ffcce8"/>
  <path id="Path_505" data-name="Path 505" d="M484.792,1232.411c1.134-1.462,2.483-2.726,3.676-2.785.167-1.125.058-2.448-1.214-2.426a2.856,2.856,0,0,0-2.15,1.664c.013.2.022.394.022.565A12.489,12.489,0,0,1,484.792,1232.411Z" transform="translate(-448.354 -1210.899)" fill="#ffcce8"/>
  <path id="Path_506" data-name="Path 506" d="M385.7,1229.624a3.263,3.263,0,0,0,.079.507c.206-.032.413-.058.619-.086.128-.042.256-.083.383-.131a.322.322,0,0,1,.286.011,2.983,2.983,0,0,0,.764-.279c.341-.188.412.527.289.7a6.488,6.488,0,0,1-1.441,1.492,4.951,4.951,0,0,0,.577.575c.26.02.521.044.784.079.292.039.474.361.508.693,1.116.4,2.322.273,3.467.633a1,1,0,0,0,.162.033c-.376.127-.751.267-1.131.406-1.07.392-1.731,1.014-1.545,2.246a3.459,3.459,0,0,0,2.671,2.817,1.669,1.669,0,0,0,.576-.055,1.907,1.907,0,0,0,.838-.495,7.566,7.566,0,0,0,1.664-2.59,5.757,5.757,0,0,0,.28-1.04,11.026,11.026,0,0,1-1.682.11c-.635-.013-.943-.777-.9-1.477-.012-.048-.023-.1-.032-.145-.054.014-.108.027-.162.042a.87.87,0,0,0,.143-.2,1.281,1.281,0,0,1,.029-.424c.01-.036.017-.072.026-.108-.139-2.641-1.875-5.007-1.731-7.736-.657-.87-1.411-1.182-2.206-.241-.011.014-.023.023-.034.037-.905,1.11-.485,2.84.17,3.95.016.027.036.051.053.078a11.89,11.89,0,0,0-1.229-1.022,1.5,1.5,0,0,0-1.3-.314,1.057,1.057,0,0,1-.088.45A10.408,10.408,0,0,1,385.7,1229.624Z" transform="translate(-359.899 -1208.391)" fill="#ffcce8"/>
  <path id="Path_507" data-name="Path 507" d="M291.1,1384.534c-.927-1.523-1.993-2.9-3.044-4.4a4.887,4.887,0,0,1-.588-1.139l-.193-.089a2.768,2.768,0,0,0-.926,2.879,6.152,6.152,0,0,0,1.753,2.84.732.732,0,0,1,.044-.09Z" transform="translate(-271.15 -1346.313)" fill="#5d714e"/>
  <path id="Path_508" data-name="Path 508" d="M318.3,1302.059c-.1.043-.2.082-.3.12a1.057,1.057,0,0,1,.127.046Q318.211,1302.14,318.3,1302.059Z" transform="translate(-299.472 -1277.719)" fill="#5d714e"/>
  <path id="Path_509" data-name="Path 509" d="M315.406,1324.159l.1,0a.446.446,0,0,1-.048-.041C315.444,1324.13,315.424,1324.144,315.406,1324.159Z" transform="translate(-297.157 -1297.407)" fill="#5d714e"/>
  <path id="Path_510" data-name="Path 510" d="M339.335,1340.6c-.25-.064-.5-.127-.75-.195-.379.215-.742.452-1.117.654a12.045,12.045,0,0,1,1.079,1.415,5.647,5.647,0,0,1,.912,2.146q.056-1.372.154-2.745c-.063-.3-.129-.6-.2-.906C339.392,1340.881,339.366,1340.754,339.335,1340.6Z" transform="translate(-316.85 -1311.952)" fill="#5d714e"/>
  <path id="Path_511" data-name="Path 511" d="M315.214,1353.908a1.405,1.405,0,0,1-.106.287c-.58,1.125-1.312-.445-1.543-.894a11.492,11.492,0,0,0-2.29-3.3c-.3-.02-.615-.052-.935-.1.06.3.121.59.179.862a22.41,22.41,0,0,0,.9,3.088,4.333,4.333,0,0,0-.944-.821,16.05,16.05,0,0,0,1.406,2.052,28.963,28.963,0,0,1,2.141,3.562h1.192Q315.135,1356.29,315.214,1353.908Z" transform="translate(-292.634 -1320.427)" fill="#5d714e"/>
  <path id="Path_512" data-name="Path 512" d="M356.482,1343.293c-.267-.059-.535-.117-.8-.183-.032.393-.06.786-.088,1.18q-.1,1.373-.154,2.745a2.046,2.046,0,0,1-.03.808q-.075,2.38,0,4.74h.982c.02-1.259.023-2.518.025-3.777C356.417,1346.969,356.422,1345.131,356.482,1343.293Z" transform="translate(-332.829 -1314.363)" fill="#6c7d43"/>
  <path id="Path_513" data-name="Path 513" d="M355.414,1094.357a21.2,21.2,0,0,0,1.94-3.553c.136-.317-.022-1.442-.479-1.532q.852-1.426,1.741-2.831c.324-.511-.114-2.282-.815-1.515-.354.388-.706.765-1.071,1.123q.789-1.654,1.651-3.276c.333-.625-.232-2.228-.881-1.273l-.7,1.037c.381-.929.815-1.841,1.265-2.755.29-.587-.192-2.138-.843-1.218-.164.231-.315.468-.469.7.142-1.066.242-2.14.3-3.228.025-.5-.659-1-.833-.32-.014.054-.026.109-.039.163h0v.009q-.32,1.274-.551,2.555c-.038-.269-.07-.539-.114-.807-.134-.816-.932-.49-.922.214q.02,1.317.039,2.635l-.587-.826c-.359-.506-.822.092-.781.52l.245,2.6a3.815,3.815,0,0,0,.008.459c.024.3.068.579.116.856l.037.393a.7.7,0,0,0-.1.149c-.133-.225-.262-.453-.382-.691-.358-.709-.819.008-.754.511.193,1.493.438,2.974.724,4.448q-.015.187-.029.374c-.283-.176-.57.193-.533.53.119,1.061.194,2.124.243,3.189q-.1,1.253-.2,2.505a2.1,2.1,0,0,0,.165.794c.256-.224.509-.454.759-.694A5.348,5.348,0,0,1,355.414,1094.357Z" transform="translate(-330.194 -1075.39)" fill="#809e83"/>
  <path id="Path_514" data-name="Path 514" d="M284.249,1348.238c1.051,1.5,2.117,2.878,3.044,4.4h1.438a29,29,0,0,0-2.14-3.562,16.049,16.049,0,0,1-1.406-2.052,4.625,4.625,0,0,1-.281-.687,10.233,10.233,0,0,1-.4-2.53,17.716,17.716,0,0,1-2.5-.635,11.522,11.522,0,0,1,.017,2.987,8.276,8.276,0,0,0,1.443.849l.193.089A4.89,4.89,0,0,0,284.249,1348.238Z" transform="translate(-267.345 -1314.42)" fill="#848571"/>
  <path id="Path_515" data-name="Path 515" d="M316.456,1276.161c-.062.054-.12.109-.176.166a.809.809,0,0,1,.309.2c.487.539.028,1.332-.375,1.744-.089.091-.185.178-.284.261a.538.538,0,0,0,.048.042c1.337-.049,2.712.084,3.967.1.533.006.586,1.074.142,1.251a6.008,6.008,0,0,0-.728.359c.249.068.5.131.75.195.122.032.244.065.367.1.266.066.533.124.8.183a25.884,25.884,0,0,0,2.574.445,19.553,19.553,0,0,0,2.249.137c.643,0,.54-1.128.217-1.421h0a6.728,6.728,0,0,0-3.757-1.5,34.415,34.415,0,0,0,3.366-1.043.677.677,0,0,0,.345-.748c-.034-.332-.216-.654-.508-.693-.264-.035-.525-.06-.784-.079a13.311,13.311,0,0,0-1.463-.032,5.773,5.773,0,0,0,.886-.543,6.49,6.49,0,0,0,1.441-1.492c.123-.176.053-.891-.289-.7a2.982,2.982,0,0,1-.764.278.322.322,0,0,0-.286-.011c-.127.048-.255.089-.383.131-.206.028-.414.054-.619.086a5.3,5.3,0,0,0-.617.129,4.552,4.552,0,0,1-1.042.807,10.015,10.015,0,0,1-3.924.936.314.314,0,0,1-.11-.01c-.166.117-.342.223-.511.322A7.312,7.312,0,0,1,316.456,1276.161Z" transform="translate(-297.625 -1251.822)" fill="#f63e3b"/>
  <path id="Path_516" data-name="Path 516" d="M321.024,1346.5a3.311,3.311,0,0,1-1.78.478c-.064,0-.133-.011-.2-.015a11.492,11.492,0,0,1,2.29,3.3c.231.449.963,2.02,1.543.895a1.4,1.4,0,0,0,.106-.287,2.048,2.048,0,0,0,.03-.809,5.649,5.649,0,0,0-.912-2.145A12.085,12.085,0,0,0,321.024,1346.5Z" transform="translate(-300.406 -1317.39)" fill="#f63e3b"/>
  <path id="Path_517" data-name="Path 517" d="M169.342,1334.565l-.165-.056a9.212,9.212,0,0,1-1.235.786c-.56.351-1.133.681-1.713,1-.427.234-.515-.6-.443-.827.08-.257.172-.51.271-.759a27.84,27.84,0,0,1-6.438-1.177,9.1,9.1,0,0,0-1.031.266c-.3.045-.6.095-.9.159-.846.179-1.54.4-1.857,1.248-.078.21-.049.64.214.729,1.772.6,4.16.012,6.2-.715a20.006,20.006,0,0,0-5.974,4.928c-.23.274-.234,1.112.3.982,3-.729,5.7-2.982,8.232-4.857-.662.662-1.307,1.342-1.948,2.019a8.258,8.258,0,0,0-2.145,3.341c-.113.388-.008,1.43.636,1.186,1.174-.445,1.736-1.769,2.427-2.73.017-.023.035-.045.051-.069a9.641,9.641,0,0,0-.209,1.323c-.029.333.267,1.366.764.851a15.731,15.731,0,0,0,1.9-2.3,4.513,4.513,0,0,0,1.2,2.206c1.129,1.1,1.555-.155,1.681-1.221.121-1.023.161-2.065.2-3.094,0-.073.008-.15.012-.226A11.523,11.523,0,0,0,169.342,1334.565Zm-11.107,4.783.112-.1c.007.013.014.024.022.036C158.323,1339.3,158.279,1339.327,158.235,1339.349Z" transform="translate(-154.679 -1305.811)" fill="#f63e3b"/>
  <path id="Path_518" data-name="Path 518" d="M190.829,1270.6c.4.063.793.1,1.19.165-.023-.028-.047-.055-.07-.082,0-.006,0-.011,0-.017a32.071,32.071,0,0,0-3.343-2.589c-.045-.029-.086-.06-.13-.09a10.351,10.351,0,0,0-2.493-.617c-.451-.055-.388.883-.066,1.025q1.492.658,2.95,1.39a12.934,12.934,0,0,1,1.818.825A.329.329,0,0,1,190.829,1270.6Z" transform="translate(-181.341 -1246.753)" fill="#f63e3b"/>
  <path id="Path_519" data-name="Path 519" d="M245.316,1234.1c-.164-.687-.234-1.415-.37-2.071a3.782,3.782,0,0,1,.006-1.392,6.529,6.529,0,0,0-1.076-1.377q-.131-.128-.27-.248c-.13-.113-.263-.224-.4-.326-.391-.29-.447.468-.323.679.148.253.282.507.411.76a26.443,26.443,0,0,1,1.238,2.938c.175.388.332.784.48,1.17a1.179,1.179,0,0,1,.123-.071A1.3,1.3,0,0,1,245.316,1234.1Z" transform="translate(-232.368 -1212.165)" fill="#f63e3b"/>
  <path id="Path_520" data-name="Path 520" d="M286.19,1234.716c-.1.509-.21,1.014-.331,1.517a.972.972,0,0,1,1.186.34,1.812,1.812,0,0,1,.212.358c.021-.018.039-.037.06-.056A3.436,3.436,0,0,1,288,1235.6a4.213,4.213,0,0,1,.683-2.757,13.5,13.5,0,0,0-.328-1.906c-.038-.161-.187-.437-.4-.33a3.6,3.6,0,0,0-1.693,1.741,1.54,1.54,0,0,1,.065.172A4.808,4.808,0,0,1,286.19,1234.716Z" transform="translate(-270.782 -1213.916)" fill="#f63e3b"/>
  <path id="Path_521" data-name="Path 521" d="M327.448,1235.905a.654.654,0,0,1,1.01.434c.067-.026.132-.056.2-.083a5.237,5.237,0,0,0,.6-.93,11.132,11.132,0,0,0,.941-3.789c.03-.258-.257-.88-.52-.438-.636,1.07-1.29,2.129-1.906,3.208a4.974,4.974,0,0,1-.668,1.807A3.819,3.819,0,0,1,327.448,1235.905Zm1.42-1.967a6.342,6.342,0,0,1-.532.964c-.091.134-.189.263-.291.387Q328.469,1234.623,328.867,1233.938Z" transform="translate(-307.597 -1214.241)" fill="#f63e3b"/>
  <path id="Path_522" data-name="Path 522" d="M262.076,1236.082c.136.657.206,1.385.37,2.071.635-.17,1.066.268,1.358.907.016-.016.031-.035.047-.051a2.161,2.161,0,0,1,.723-.471c.121-.5.234-1.008.331-1.517a4.807,4.807,0,0,0,.136-2.2,1.546,1.546,0,0,0-.065-.172,2.89,2.89,0,0,0-1.364-1.428.94.94,0,0,0-.272-.059.682.682,0,0,0-.3.052,1.889,1.889,0,0,0-.96,1.475A3.781,3.781,0,0,0,262.076,1236.082Z" transform="translate(-249.498 -1216.221)" fill="#f95353"/>
  <path id="Path_523" data-name="Path 523" d="M308.061,1239.583a3.236,3.236,0,0,0-1.733,1.279,4.212,4.212,0,0,0-.683,2.757,3.985,3.985,0,0,1,1.221-.97c.264-.137.383.278.4.442a3.422,3.422,0,0,1-.118,1.3c.258-.191.516-.4.784-.576A4.976,4.976,0,0,0,308.6,1242a5.035,5.035,0,0,0-.093-2.053.567.567,0,0,0-.21-.342A.276.276,0,0,0,308.061,1239.583Z" transform="translate(-288.427 -1221.938)" fill="#f95353"/>
  <path id="Path_524" data-name="Path 524" d="M334.143,1253.693a1.376,1.376,0,0,1-.728,1.245.314.314,0,0,0,.11.01,10.017,10.017,0,0,0,3.924-.936,4.547,4.547,0,0,0,1.042-.807,5.825,5.825,0,0,0,.538-.637,10.4,10.4,0,0,0,.883-1.479,1.056,1.056,0,0,0,.088-.45c0-.273-.1-.544-.384-.544a3.4,3.4,0,0,0-1.163.208,5.348,5.348,0,0,0-1.857,1.246c-.25.24-.5.47-.759.694-.361.316-.727.62-1.1.92-.148.066-.3.127-.447.188-.066.027-.131.057-.2.083A1.258,1.258,0,0,1,334.143,1253.693Z" transform="translate(-313.232 -1231.335)" fill="#f95353"/>
  <path id="Path_525" data-name="Path 525" d="M201.1,1243.506l.121.1a1.29,1.29,0,0,1,.4-.517c-.224-.37-.156-1.323.373-1.1a6.786,6.786,0,0,1,.61.3,1.132,1.132,0,0,1,.529-.637c-.148-.385-.3-.781-.48-1.17a7.193,7.193,0,0,0-1.1-1.805c-.1-.169-.21-.333-.324-.494a6.033,6.033,0,0,0-1.064-1.167c-.336-.281-.532.22-.535.529a.525.525,0,0,0,.01.117,15.227,15.227,0,0,0,.615,2.082l-.02-.023a6.8,6.8,0,0,0-4-2.19c-.241-.04-.326.375-.326.524a2.857,2.857,0,0,0,.751,1.942,4.946,4.946,0,0,0,.964.824c.044.03.085.061.13.09A32.056,32.056,0,0,1,201.1,1243.506Z" transform="translate(-190.493 -1219.594)" fill="#f95353"/>
  <path id="Path_526" data-name="Path 526" d="M248.995,1284.6a1.833,1.833,0,0,1,.093-.587,6.754,6.754,0,0,0-.61-.3c-.529-.226-.6.727-.373,1.1A1.111,1.111,0,0,1,248.995,1284.6Z" transform="translate(-236.974 -1261.314)" fill="#f63e3b"/>
  <path id="Path_527" data-name="Path 527" d="M150.278,1303.844a6.037,6.037,0,0,1,3.7-.446.338.338,0,0,0-.212-.216c-.973-.252-1.953-.446-2.94-.6-.263-.122-.525-.245-.79-.362a8.749,8.749,0,0,0-1.614-.565,3.036,3.036,0,0,0-2.8,1.039.625.625,0,0,0,.1.927,8.611,8.611,0,0,0,3.205,1.379,4.866,4.866,0,0,0,1.3-.053A.731.731,0,0,1,150.278,1303.844Z" transform="translate(-145.452 -1277.301)" fill="#f63e3b"/>
  <path id="Path_528" data-name="Path 528" d="M179.893,1285.4a4.556,4.556,0,0,1-1.535-.987,4.48,4.48,0,0,1-.409-.458l-.049-.028.033.008c-.336-.446-.573-1-.143-1.456a.849.849,0,0,1,.967-.085,1.826,1.826,0,0,1,.063-.923c.013-.041.033-.078.05-.116l-.014,0-.034,0c-.4-.067-.792-.1-1.19-.165a.327.327,0,0,0-.146.01,12.892,12.892,0,0,0-1.818-.825,30.413,30.413,0,0,0-4.3-1.135c-.455-.1-.589.586-.428.9a5.65,5.65,0,0,0,1.785,2.122c.265.117.527.24.79.362.987.153,1.967.348,2.94.6a.337.337,0,0,1,.212.216,6.034,6.034,0,0,0-3.7.446.731.731,0,0,0-.052,1.1.332.332,0,0,0,.081.048l.085.025a27.834,27.834,0,0,0,6.438,1.177Q179.69,1285.8,179.893,1285.4Z" transform="translate(-168.145 -1257.331)" fill="#f95353"/>
  <path id="Path_529" data-name="Path 529" d="M246,1284.072a1,1,0,0,1,.374-.251,1.321,1.321,0,0,1,1.349.557,3.057,3.057,0,0,1,2.169-2.268,1.1,1.1,0,0,1-.079-.848,3.4,3.4,0,0,1,.095-.769c-.01-.024-.016-.05-.027-.073a1.816,1.816,0,0,0-.212-.358.971.971,0,0,0-1.186-.34,2.158,2.158,0,0,0-.723.471c-.017.016-.031.034-.047.051-.292-.638-.723-1.076-1.358-.906a1.29,1.29,0,0,0-.183.062,1.194,1.194,0,0,0-.123.071,1.131,1.131,0,0,0-.529.636,1.836,1.836,0,0,0-.093.587,1.113,1.113,0,0,0-.891.208,1.289,1.289,0,0,0-.4.517l0,.005c-.017.039-.037.075-.05.116a1.825,1.825,0,0,0-.063.923,5.036,5.036,0,0,1,1,.578A3.651,3.651,0,0,1,246,1284.072Z" transform="translate(-233.4 -1257.405)" fill="#ffd141"/>
  <path id="Path_530" data-name="Path 530" d="M236.3,1309.483a3.648,3.648,0,0,0-.979-1.03,5.038,5.038,0,0,0-1-.578.85.85,0,0,0-.967.085c-.43.453-.193,1.01.143,1.456l.015.021a4.486,4.486,0,0,0,.409.458,4.555,4.555,0,0,0,1.535.988c.052-.1.1-.21.159-.312A4.731,4.731,0,0,1,236.3,1309.483Z" transform="translate(-223.704 -1282.815)" fill="#f63e3b"/>
  <path id="Path_531" data-name="Path 531" d="M283.059,1305.162c.4-.412.862-1.2.375-1.743a.811.811,0,0,0-.309-.2,1.1,1.1,0,0,0-.127-.046,8.2,8.2,0,0,1-1.682.433.352.352,0,0,1-.359-.188,3.058,3.058,0,0,0-2.169,2.268,2.867,2.867,0,0,1,.292.4.883.883,0,0,1,.3.5.61.61,0,0,1,.286-.454,7.8,7.8,0,0,1,3.059-.668c.018-.015.038-.029.056-.044C282.874,1305.34,282.97,1305.254,283.059,1305.162Z" transform="translate(-264.47 -1278.716)" fill="#f95353"/>
  <path id="Path_532" data-name="Path 532" d="M297.939,1270.414a3.409,3.409,0,0,0-.095.769,1.1,1.1,0,0,0,.079.848.352.352,0,0,0,.359.188,8.2,8.2,0,0,0,1.682-.433c.1-.038.2-.077.3-.12a7.231,7.231,0,0,0,.841-.416c.169-.1.345-.2.511-.322a1.375,1.375,0,0,0,.728-1.245,1.265,1.265,0,0,0-.05-.259.654.654,0,0,0-1.01-.434,3.789,3.789,0,0,0-.346.207c-.268.179-.526.385-.784.576a3.422,3.422,0,0,0,.118-1.3c-.017-.164-.136-.579-.4-.442a3.983,3.983,0,0,0-1.222.97,3.438,3.438,0,0,0-.683,1.279C297.96,1270.327,297.95,1270.37,297.939,1270.414Z" transform="translate(-281.437 -1247.325)" fill="#ea2f2f"/>
  <path id="Path_533" data-name="Path 533" d="M256.244,1324.174c.066,0,.134.012.2.015a3.307,3.307,0,0,0,1.78-.478c.374-.2.738-.439,1.117-.654a6.029,6.029,0,0,1,.728-.359c.444-.177.391-1.245-.142-1.251-1.255-.014-2.629-.147-3.967-.1l-.1,0a7.794,7.794,0,0,0-3.059.668.609.609,0,0,0-.286.454.883.883,0,0,0-.3-.5,2.885,2.885,0,0,0-.292-.4,1.321,1.321,0,0,0-1.349-.557,1.006,1.006,0,0,0-.374.251,4.734,4.734,0,0,0-.688,1.085c-.056.1-.107.208-.159.313q-.2.407-.369.83c-.1.25-.19.5-.27.759-.071.228.016,1.061.443.827.58-.317,1.152-.647,1.713-1a9.271,9.271,0,0,0,1.235-.786l.165.056a17.714,17.714,0,0,0,2.5.635c.182.032.363.062.543.088C255.629,1324.122,255.941,1324.154,256.244,1324.174Zm-3.939-1.322c-.009,0-.009-.019,0-.019S252.313,1322.852,252.3,1322.852Z" transform="translate(-237.603 -1294.6)" fill="#ea2f2f"/>
  <path id="Path_534" data-name="Path 534" d="M282.307,1338.332c.009,0,.008-.019,0-.019S282.3,1338.332,282.307,1338.332Z" transform="translate(-267.606 -1310.081)" fill="#f63e3b"/>
  <path id="Path_535" data-name="Path 535" d="M439.846,1194.009c-1.813-.541-2.725,2.569-2.826,3.875,0,.05,0,.1,0,.147-.144,2.729,1.592,5.094,1.731,7.736-.009.036-.016.072-.026.108a1.283,1.283,0,0,0-.029.424c0,.054.01.107.019.16s.019.1.032.145c-.04.7.269,1.464.9,1.477a11.046,11.046,0,0,0,1.682-.111c.118-.016.238-.034.358-.054,2.2-.358,4.786-1.31,5.912-2.955a3.336,3.336,0,0,0,.167-3.479c-.528-1.148-1.209-1.574-1.951-1.538-1.192.059-2.542,1.323-3.676,2.785a12.492,12.492,0,0,0,.334-2.98c0-.172-.009-.364-.022-.566a8.974,8.974,0,0,0-1.094-3.909A2.763,2.763,0,0,0,439.846,1194.009Zm1.72,12.154a1.009,1.009,0,0,1-1.573.305,1.761,1.761,0,0,1-.309-1.936,1.1,1.1,0,0,1,.577-.793.748.748,0,0,1,.588.008A1.77,1.77,0,0,1,441.566,1206.163Z" transform="translate(-405.7 -1181.216)" fill="#ffe9ec"/>
  <path id="Path_536" data-name="Path 536" d="M304.539,1476.526c7.236,0,8.011-2.584,8.011-2.584s-4.264-32.95-3.877-35.018,1.163-2.714,2.455-4.652.646-2.943.646-2.943h-14.5a.751.751,0,0,0-.044.09c-.121.283-.381,1.246.69,2.853,1.292,1.938,2.068,2.584,2.455,4.652s-3.876,35.018-3.876,35.018.775,2.584,8.011,2.584Zm-3.058-5.94a.581.581,0,1,1-1.16-.085l2.071-28.223a.581.581,0,0,1,1.16.085Z" transform="translate(-280.282 -1393.109)" fill="#cebfe0"/>
  <path id="Path_537" data-name="Path 537" d="M461.152,1284.676a1.1,1.1,0,0,0-.577.793,1.762,1.762,0,0,0,.309,1.936,1.009,1.009,0,0,0,1.573-.306,1.77,1.77,0,0,0-.717-2.416A.749.749,0,0,0,461.152,1284.676Z" transform="translate(-426.591 -1262.153)" fill="#c1b8bd"/>
  <path id="Path_538" data-name="Path 538" d="M334.762,1528.278a.583.583,0,0,0-.623.537l-2.071,28.222a.581.581,0,1,0,1.16.085L335.3,1528.9A.583.583,0,0,0,334.762,1528.278Z" transform="translate(-312.028 -1479.646)" fill="#d9ecca"/>
</svg>
