<svg xmlns="http://www.w3.org/2000/svg" width="127.691" height="135.565" viewBox="0 0 127.691 135.565">
  <g id="Group_8676" data-name="Group 8676" transform="translate(-956.424 -539.435)">
    <g id="Group_8675" data-name="Group 8675" transform="translate(-20582.404 168)">
      <path id="Path_264" data-name="Path 264" d="M1115.41,1389.386a22.408,22.408,0,0,1,.577,2.349,1.033,1.033,0,0,1,1.832.22c.059.167.11.338.163.507a.813.813,0,0,1,.184-.154,1.943,1.943,0,0,1-.3-.392,2.934,2.934,0,0,1-.155-.34,1.606,1.606,0,0,1-.211-.522,5.222,5.222,0,0,1-.111-.986c-.345-.129-.692-.255-1.049-.367C1116.008,1389.6,1115.706,1389.486,1115.41,1389.386Z" transform="translate(20496.875 -985.626)" fill="#476036"/>
      <path id="Path_265" data-name="Path 265" d="M1094.729,1389.5l-.194.055c0,.073.017.146.02.219C1094.613,1389.686,1094.672,1389.595,1094.729,1389.5Z" transform="translate(20513.959 -985.722)" fill="#476036"/>
      <path id="Path_266" data-name="Path 266" d="M1040.053,1390.149c-.061.176-.118.353-.185.53a19.251,19.251,0,0,0-.649,2.052c.815-1.576,2.117-2.647,2.91-3.983A4.094,4.094,0,0,0,1040.053,1390.149Z" transform="translate(20559.227 -985.103)" fill="#476036"/>
      <path id="Path_267" data-name="Path 267" d="M1075.816,1389.988c-.115-.016-.227-.035-.34-.054a7.619,7.619,0,0,1-.094,1.22h0A9.129,9.129,0,0,0,1075.816,1389.988Z" transform="translate(20529.631 -986.075)" fill="#476036"/>
      <path id="Path_268" data-name="Path 268" d="M1025.733,1315.022c.215-.111.433-.218.656-.319.071-.044.145-.082.212-.132a.636.636,0,0,1,.413-.151q.364-.161.715-.335a4.006,4.006,0,0,1-2.642-.992,9.522,9.522,0,0,1,.625,1.938Z" transform="translate(20570.789 -923.194)" fill="#476036"/>
      <path id="Path_269" data-name="Path 269" d="M962.2,1327.967a6.2,6.2,0,0,1-.268-.669,1.312,1.312,0,0,1-.194.234,1.1,1.1,0,0,1-.314.2c.052.018.1.041.154.058C961.788,1327.862,962,1327.918,962.2,1327.967Z" transform="translate(20622.883 -934.818)" fill="#476036"/>
      <path id="Path_270" data-name="Path 270" d="M996.313,1617.675c-.025.386-.043.773-.047,1.161a26.6,26.6,0,0,1,.029,2.912c-.048.4-.423.489-.609.136a6.142,6.142,0,0,1-.28-4.23c-1.155-.029-2.313-.052-3.486-.052-2.811,0-5.572.084-8.267.246a17.66,17.66,0,0,1,.4,3.733c0,6.937-9.071,17.342-9.6,26.681a13.322,13.322,0,0,0,5.569,11.453c3.831.336,7.81.52,11.9.52q1.653,0,3.28-.039c3.254-.078,6.43-.269,9.506-.561a13.73,13.73,0,0,0,4.679-11.372c-.534-9.338-9.6-19.744-9.6-26.681a17.653,17.653,0,0,1,.4-3.734h0Q998.271,1617.735,996.313,1617.675Zm-17.307,30.334a3.091,3.091,0,0,1-.282-.257c-1.072-.754-1.324-3.3-1.243-4.459a17.986,17.986,0,0,1,3.952-9.323c1.7-2.127,4.359-2.956,5.046.44C987.011,1637.047,983.156,1651.2,979.006,1648.009Zm26.08,1.062c-.151.6-.813.345-.879-.153a24.5,24.5,0,0,0-1.392-6.543,49.411,49.411,0,0,0-2.947-5.583,26,26,0,0,1-3.47-8.855c-.057-.326.289-.582.392-.176C998.557,1634.749,1007.056,1641.3,1005.086,1649.071Z" transform="translate(20612.242 -1172.381)" fill="#b9cbcb"/>
      <path id="Path_271" data-name="Path 271" d="M1009.972,1574.617c0,.018.006.04.007.058,0-.018,0-.036,0-.054Z" transform="translate(20583.158 -1137.204)" fill="#b9cbcb"/>
      <path id="Path_272" data-name="Path 272" d="M1120.674,1856.654a15.652,15.652,0,0,1-2.234,1.177A15.613,15.613,0,0,0,1120.674,1856.654Z" transform="translate(20494.396 -1368)" fill="#b9cbcb"/>
      <path id="Path_273" data-name="Path 273" d="M995.114,1699.34a17.984,17.984,0,0,0-3.952,9.323c-.081,1.154.171,3.7,1.243,4.458a3.006,3.006,0,0,0,.282.257c4.15,3.192,8.006-10.962,7.473-13.6C999.473,1696.385,996.812,1697.213,995.114,1699.34Z" transform="translate(20598.563 -1237.751)" fill="#d9ecca"/>
      <path id="Path_274" data-name="Path 274" d="M1095.317,1672.751a26,26,0,0,0,3.47,8.855,49.579,49.579,0,0,1,2.947,5.583,24.5,24.5,0,0,1,1.392,6.543c.067.5.728.75.879.152,1.971-7.771-6.528-14.322-8.3-21.309C1095.606,1672.169,1095.26,1672.425,1095.317,1672.751Z" transform="translate(20513.324 -1217.194)" fill="#d9ecca"/>
      <path id="Path_275" data-name="Path 275" d="M1028.6,1567.413c-.189-.384-.377-.757-.569-1.12.338,1.2.523,2.457.75,3.722a.993.993,0,0,1-1.644.958c-1.735-1.592-3.932-2.63-5.553-4.351a8.047,8.047,0,0,1-.876-1.143c.024.136.056.267.072.408a18.361,18.361,0,0,1-.771,6.4.932.932,0,0,1-1.436.549.987.987,0,0,1-.5-.388c-.842-1.227-1.893-2.5-2.7-3.867a23.007,23.007,0,0,1-1.139-2.134,3.014,3.014,0,0,1-.371-1.906l-.1.012c-.358.537-.729,1.058-1.125,1.543a1.693,1.693,0,0,1-2.623.282c0,.018,0,.035,0,.054a5,5,0,0,0,.381,1.432h0a36.959,36.959,0,0,1,2.378,6.564c2.7-.162,5.456-.246,8.267-.246,1.173,0,2.332.023,3.486.052a10.763,10.763,0,0,1,.977-2.575c.1-.188.242.074.221.187a21.531,21.531,0,0,0-.291,2.409q1.955.061,3.87.173h0a24.22,24.22,0,0,1,1.493-4.49A5.746,5.746,0,0,1,1028.6,1567.413Z" transform="translate(20583.133 -1128.953)" fill="#e2b3c6"/>
      <path id="Path_276" data-name="Path 276" d="M1005.137,1849.036a18.428,18.428,0,0,0,9.317,3.692h6.537a15.7,15.7,0,0,0,8.843-3.771h0c-3.076.292-6.251.484-9.506.561q-1.627.038-3.28.039C1012.791,1849.557,1008.461,1849.343,1005.137,1849.036Z" transform="translate(20587.115 -1361.702)" fill="#d1b4b4"/>
      <path id="Path_277" data-name="Path 277" d="M1089.1,1610.221c.187.353.562.264.609-.136a26.664,26.664,0,0,0-.029-2.913c0-.388.021-.774.046-1.161a21.275,21.275,0,0,1,.291-2.408c.02-.114-.121-.376-.222-.187a10.765,10.765,0,0,0-.977,2.576A6.144,6.144,0,0,0,1089.1,1610.221Z" transform="translate(20518.834 -1160.716)" fill="#d9ecca"/>
      <path id="Path_285" data-name="Path 285" d="M1183.486,1276.842c.763,2.32.234,4.47-.223,6.668.026.168.05.336.076.505a6.363,6.363,0,0,1,4.232-1.291,7.006,7.006,0,0,0,.7-3.794,15.39,15.39,0,0,1,.449-5.365,15.467,15.467,0,0,0,.618-2.124,7.126,7.126,0,0,0,.024-1.34,17.68,17.68,0,0,0-.593-3.12c-.142-.555-.615-.928-1.043-.39-.955,1.2-2.711,1.3-3.881,2.271a8.217,8.217,0,0,0-2.359,3.538,5.121,5.121,0,0,0-.22,1.025A7.786,7.786,0,0,1,1183.486,1276.842Zm1.738-1.938c.24-2.088,2.523-3.305,2.66-5.322,0-.063.072-.04.071.013a4.047,4.047,0,0,1-.493,2.081c-.323.577-.921,1-1.252,1.564-1.074,1.843-.617,2.77.077,4.569.612,1.584.624,2.58-.548,3.956-.138.161-.21-.2-.16-.3a3.873,3.873,0,0,0,.12-3.775,6.2,6.2,0,0,1-.292-.711A5.118,5.118,0,0,1,1185.224,1274.9Z" transform="translate(20442.984 -884.927)" fill="#ffd176"/>
      <path id="Path_294" data-name="Path 294" d="M1175.907,1477.643a14.683,14.683,0,0,1,1.186-5.5,1.648,1.648,0,0,0,.051-.987c-.01-.045-.02-.09-.032-.135-.177-.1-.347-.228-.517-.347-1.288,1.537-2.324,3.512-4.343,4.167-.1.078-.2.159-.309.23,1.19.648,2.468,1.144,3.25.489a.5.5,0,0,1,.84.348,3.181,3.181,0,0,1-3,3.421,4.078,4.078,0,0,1-1.453-.18c.839.73,1.621,1.548,2.406,2.33a.972.972,0,0,1,.2,1.054,1.858,1.858,0,0,0,1.307-.964,2.335,2.335,0,0,0,.2-.422A13.712,13.712,0,0,0,1175.907,1477.643Z" transform="translate(20450.908 -1052.147)" fill="#eaa654"/>
      <path id="Path_295" data-name="Path 295" d="M1130.135,1409.452l.012.032a8.6,8.6,0,0,0,.485-3.7c-.026-.7,1.074-1.053,1.375-.372,1.021,2.3,2.222,5.47,1.255,7.994a27.025,27.025,0,0,0,5.387-.916,17.636,17.636,0,0,1-2.062-7.308.681.681,0,0,1-.384-.048.86.86,0,0,1-.328-.14c-1.851-.12-3.772.014-5.54-.207a.864.864,0,0,0-.585.117.81.81,0,0,0-.183.154A10.942,10.942,0,0,1,1130.135,1409.452Z" transform="translate(20485.293 -998.219)" fill="#cd9826"/>
      <path id="Path_296" data-name="Path 296" d="M1168.328,1457.643c.162,0,.324.013.487.01.648-.014,1.647-.351,2.551-.446.118-.027.236-.054.354-.082.378-.09.76-.2,1.145-.271l.033-.048a12.18,12.18,0,0,1-1.713-2.064A5.026,5.026,0,0,1,1168.328,1457.643Z" transform="translate(20453.572 -1039.107)" fill="#cd9826"/>
      <path id="Path_297" data-name="Path 297" d="M1185.368,1480.915q.184-.172.356-.361c-.008,0-.015.009-.023.011C1185.581,1480.679,1185.476,1480.8,1185.368,1480.915Z" transform="translate(20439.629 -1060.23)" fill="#cd9826"/>
      <path id="Path_298" data-name="Path 298" d="M939.182,1319.375a2.759,2.759,0,0,1-.584-1.214,4.4,4.4,0,0,1-.752.167,8.712,8.712,0,0,0,.233,1.117A4.241,4.241,0,0,1,939.182,1319.375Z" transform="translate(20642.182 -927.342)" fill="#393a3a"/>
      <path id="Path_299" data-name="Path 299" d="M1025.707,1333.47a5.982,5.982,0,0,1,5.778-2.981,14.817,14.817,0,0,1,7.524,3.232c.741.535,1.511,1.086,2.269,1.664a5.874,5.874,0,0,1,.235-.755.862.862,0,0,1,.51-.513c-3.272-3.732-5.585-6.15-11.146-4.937-4.214.919-10,5.34-8.5,9.856.769-1.74,1.822-3.349,2.7-5.093A.817.817,0,0,1,1025.707,1333.47Z" transform="translate(20573.205 -936.099)" fill="#7ca36d"/>
      <path id="Path_300" data-name="Path 300" d="M1044.243,1346.986a4.612,4.612,0,0,0,.554-3.538.988.988,0,0,1,1.8-.758,8.1,8.1,0,0,1,1.4,4.511c.113.018.226.038.34.054a9.9,9.9,0,0,0,.419-2.674c.018-.9,1.415-1.434,1.833-.5a9.146,9.146,0,0,1,.793,3.092c.065-.017.129-.036.194-.055a12.456,12.456,0,0,0,1.513-3.3.806.806,0,0,1,.987-.5.611.611,0,0,1,.738.689,7.976,7.976,0,0,0,.36,3.084c.3.1.6.21.93.314.357.113.7.239,1.049.367a2.627,2.627,0,0,1,.447-1.665,5.867,5.867,0,0,1-.227-3.491c-.758-.578-1.528-1.128-2.27-1.663a14.814,14.814,0,0,0-7.524-3.232,5.981,5.981,0,0,0-5.779,2.981,1.107,1.107,0,0,1,1.2.968,15.633,15.633,0,0,1-.838,6.707A4.1,4.1,0,0,1,1044.243,1346.986Z" transform="translate(20557.113 -943.342)" fill="#4b6949"/>
      <path id="Path_301" data-name="Path 301" d="M765.708,1647.82a19.846,19.846,0,0,0-3.133-3.526,20.428,20.428,0,0,0-3.051-1.769,1.188,1.188,0,0,0,.181.378,17.71,17.71,0,0,1,2.935,4.572c.668,1.951-.324,3.364-.2,5.218a4.314,4.314,0,0,0,.776,2.385c.973,1.245,2.813.919,3.573,2.4.439.854,1.48,1.068,1.8-.044a5.56,5.56,0,0,0-.184-4.26c-.393-.774-1.31-1.177-1.668-1.822-.406-.731-.1-1.488-.1-2.3a7.5,7.5,0,0,0-.81-3.629,5.382,5.382,0,0,1,.532,1.8C766.4,1647.577,766.127,1648.337,765.708,1647.82Z" transform="translate(20788.104 -1192.774)" fill="#7ca36d"/>
      <path id="Path_302" data-name="Path 302" d="M716.385,1494.491c1.016-1.371,2.127-2.225,2.867-3.878a30.852,30.852,0,0,0,1.157-4.072c.536-1.842,1.2-3.862,2.823-5.047a6.584,6.584,0,0,1,3-1.087s-.007,0-.011,0c-6.1.562-11.315,2.67-13.862,8.666-2.053,4.835-1.854,12.486,2.347,16.179a.192.192,0,0,0,.025.014,3.5,3.5,0,0,0,1.387,1.419,9.114,9.114,0,0,1-.929-1.711A10.958,10.958,0,0,1,716.385,1494.491Z" transform="translate(20827.744 -1060.108)" fill="#7ca36d"/>
      <path id="Path_303" data-name="Path 303" d="M747.164,1482.029c-1.048.25-2.778.134-3.559.932a.676.676,0,0,1-.94.057.992.992,0,0,1-.621-1.426,15.792,15.792,0,0,1,1.127-1.981,17.528,17.528,0,0,0-2.125.146,6.574,6.574,0,0,0-3,1.087c-1.623,1.185-2.287,3.205-2.823,5.047a30.935,30.935,0,0,1-1.157,4.073c-.74,1.653-1.85,2.507-2.867,3.878a10.957,10.957,0,0,0-1.2,10.48,9.091,9.091,0,0,0,.929,1.711,9.2,9.2,0,0,0,2.65,2.531c.363.234.74.444,1.121.646a20.391,20.391,0,0,1,3.051,1.769,19.82,19.82,0,0,1,3.133,3.526c.419.516.69-.243.649-.6a5.373,5.373,0,0,0-.532-1.8,6.351,6.351,0,0,0-.772-1.181c-1.184-2.266-2.866-4.263-3.893-6.665-2.6-6.093,4.061-5.173,5.867-9.192,1.529-3.4-1.019-8.4,2.39-10.708a13.182,13.182,0,0,1,4.45-1.661,5.323,5.323,0,0,1,.628-1.641A10.7,10.7,0,0,1,747.164,1482.029Zm-11.988,27.31c-.015,0-.016-.034,0-.034S735.19,1509.339,735.176,1509.339Z" transform="translate(20812.924 -1059.459)" fill="#476036"/>
      <path id="Path_305" data-name="Path 305" d="M975.309,1491.6l-.011-.008,0,.005Z" transform="translate(20611.533 -1069.26)" fill="#4b6949"/>
      <path id="Path_306" data-name="Path 306" d="M927.474,1478.878a.5.5,0,0,1,.249-.917,10.035,10.035,0,0,1,2.21.148c-1.127-1.479-2.234-3.2-4.059-3.059a.465.465,0,0,1-.178-.02,4.034,4.034,0,0,0-.329.238,9.557,9.557,0,0,0-1.346,2.709c2.272.725,4.693,2.14,4.871,4.776.115,1.7-.9,3.052-1.634,4.477q-1.742,2.072,1.291,3.432a8.027,8.027,0,0,1,.957-.181,6.5,6.5,0,0,1,1.314.154c1.735.677,2.043,2.314,1.755,3.93a17.7,17.7,0,0,0-.756,2.239c-.115.232-.236.453-.36.651a21.188,21.188,0,0,0-2.261,4.1c.021.013.038.037.059.052a6.2,6.2,0,0,0-.13,3.291c.76,2.98,3.538,5,5.668,7,.669.63,1.307-.077,1.554-.728,1.41-2.273,1.242-8.017.768-9.567-.87-2.848-1.93-4.793-.789-7.71.532-1.362,1.061-2.628,1.459-3.89a2.207,2.207,0,0,1,.266-.981c-1.484.769-3.209,1.172-4.012-.451-.588-1.187.17-2.382,1.2-3.323a7.356,7.356,0,0,1-3.455-1.5C930.077,1482.434,929.369,1479.821,927.474,1478.878Z" transform="translate(20653.494 -1055.71)" fill="#476036"/>
      <path id="Path_307" data-name="Path 307" d="M921.082,1476.06c-.4,1.262-.927,2.527-1.459,3.889-1.141,2.918-.081,4.862.789,7.71.474,1.55.641,7.293-.769,9.567-.246.651-.885,1.359-1.554.728-2.13-2-4.907-4.023-5.667-7a6.205,6.205,0,0,1,.13-3.292c-.02-.015-.038-.038-.058-.052a21.2,21.2,0,0,1,2.261-4.1c.124-.2.244-.419.36-.651a17.694,17.694,0,0,1,.756-2.239c.289-1.615-.02-3.254-1.755-3.93a6.5,6.5,0,0,0-1.314-.154,8.026,8.026,0,0,0-.958.18q-3.032-1.36-1.291-3.432c.736-1.425,1.749-2.776,1.634-4.477-.178-2.635-2.6-4.051-4.871-4.776a9.571,9.571,0,0,1,1.346-2.708q.113-.151.233-.29a.518.518,0,0,1-.068-.744c0-.005.009-.01.013-.016a161.394,161.394,0,0,1,.135-.144c1.409-1,2.77-1.513,4.235-.662-.044-.035-.09-.065-.134-.1a4.965,4.965,0,0,1-1.158-1.372,6.122,6.122,0,0,0-3.442.922.342.342,0,0,1-.071.042,6.829,6.829,0,0,0-1.9,1.758c-2.811,3.848-1.471,8.744-1.853,13.122-.232,2.658-1.355,5.183-.962,7.883a13.178,13.178,0,0,0,2.318,5.328c2.865,4.293,6.486,9.236,10.319,12.708,2.684,2.43,4.5-.467,5.584-3.07a13.961,13.961,0,0,0,1.034-6.276c-.159-2.326-1.358-4.187-1.778-6.406-.347-1.832.355-3.619,1.1-5.407-.029-.029-.058-.057-.087-.087A3.481,3.481,0,0,1,921.082,1476.06Zm-10.939,13.924a.752.752,0,0,1-.113-.045c-3.393-1.984-4.941-5.57-5.155-9.4a37.916,37.916,0,0,1,.789-7.887c.2-1.289.271-2.664.481-4a16.614,16.614,0,0,1,.177-2.012,4.789,4.789,0,0,1,.188-.8,5.932,5.932,0,0,1,3.025,1.592c1.689,2.126-.352,3.963-1.09,5.625a5.174,5.174,0,0,0-.549,3.264,3.2,3.2,0,0,0,2.049,2.4c.919.3,2.185-.228,3.041.064a1.148,1.148,0,0,1,.691.625,3.194,3.194,0,0,1,.249,1.341c.028,1.855-2.727,3.908-3.393,5.676A7.56,7.56,0,0,0,910.143,1489.984Z" transform="translate(20670.199 -1041.761)" fill="#4b6949"/>
      <path id="Path_308" data-name="Path 308" d="M959.746,1468.474l0,0-.041-.026Z" transform="translate(20624.289 -1050.32)" fill="#526833"/>
      <path id="Path_309" data-name="Path 309" d="M919.521,1516.122a3.2,3.2,0,0,0-.249-1.341c-.018-.021-.032-.042-.051-.063a3.557,3.557,0,0,0-.641-.562c-.857-.29-2.122.24-3.041-.063a3.2,3.2,0,0,1-2.049-2.4,5.177,5.177,0,0,1,.549-3.264c.738-1.662,2.779-3.5,1.09-5.626a5.929,5.929,0,0,0-3.025-1.591,4.791,4.791,0,0,0-.187.8,16.71,16.71,0,0,0-.177,2.012c-.209,1.332-.281,2.707-.48,4a37.857,37.857,0,0,0-.79,7.887c.214,3.832,1.762,7.417,5.155,9.4a.713.713,0,0,0,.114.045,7.557,7.557,0,0,1,.388-3.564C916.794,1520.03,919.549,1517.977,919.521,1516.122Z" transform="translate(20664.604 -1077.139)" fill="#7ca36d"/>
      <path id="Path_310" data-name="Path 310" d="M1056.07,1373.873c0-.073-.015-.146-.019-.219a9.144,9.144,0,0,0-.793-3.093c-.419-.938-1.816-.406-1.833.5a9.942,9.942,0,0,1-.418,2.674,9.3,9.3,0,0,1-.434,1.166h0a7.758,7.758,0,0,1-.161.765,7.43,7.43,0,0,1-1.528,2.914c-.926,1.089-2.7,2.056-3.376,3.466a12.615,12.615,0,0,1,3.359.424,5.846,5.846,0,0,1,.927.328,13.041,13.041,0,0,1,.423-2.2C1052.94,1378.056,1054.675,1376.057,1056.07,1373.873Z" transform="translate(20552.441 -969.818)" fill="#ffcb4a"/>
      <path id="Path_311" data-name="Path 311" d="M948.6,1425.009l.041.026a9.824,9.824,0,0,0,6.383,1.068c.351,0,.7-.021,1.049-.052a.178.178,0,0,0,.1,0c.534-.053.665-.94.412-1.457.045-.12.081-.243.13-.36-1.258-.2-2.564-.468-3.745-.784a6.177,6.177,0,0,1-3.291-2.112c-1.6-1.988-1.288-3.9-1.017-5.961a.914.914,0,0,0-.941.453c-.047.077-.086.155-.129.232a.786.786,0,0,0-.34.377c-.829,1.9-1.466,3.966-.917,5.787a4.4,4.4,0,0,0,.38.889,4.976,4.976,0,0,0,1.158,1.372c.044.037.09.067.134.1a4.125,4.125,0,0,1,.391.255C948.469,1424.9,948.533,1424.953,948.6,1425.009Z" transform="translate(20635.4 -1006.886)" fill="#ffc239"/>
      <path id="Path_312" data-name="Path 312" d="M1020.266,1366.29c.3,1.211.705,2.407,1.093,3.6a7.529,7.529,0,0,1,.732-.273c.153-.068.314-.117.472-.172a10.769,10.769,0,0,1,.888-4.9c.018-.037.039-.072.058-.108a19.167,19.167,0,0,1,.649-2.052c.067-.178.125-.353.185-.53a15.642,15.642,0,0,0,.838-6.707,1.107,1.107,0,0,0-1.2-.969.815.815,0,0,0-.63.472c-.878,1.744-1.931,3.353-2.7,5.093q-.221.5-.406,1.016c0,.158-.007.315-.017.475A14.946,14.946,0,0,0,1020.266,1366.29Z" transform="translate(20574.934 -956.807)" fill="#f9e65d"/>
      <path id="Path_313" data-name="Path 313" d="M1039.836,1372.419a7.444,7.444,0,0,0,1.528-2.915c.068-.255.118-.509.16-.764h0a7.566,7.566,0,0,0,.095-1.22,8.1,8.1,0,0,0-1.4-4.511.988.988,0,0,0-1.8.758,4.607,4.607,0,0,1-.555,3.537c-.794,1.337-2.1,2.408-2.911,3.984-.019.036-.04.071-.058.107a10.773,10.773,0,0,0-.888,4.9,7.935,7.935,0,0,1,2.452-.413C1037.139,1374.474,1038.909,1373.507,1039.836,1372.419Z" transform="translate(20563.49 -963.659)" fill="#ffcb77"/>
      <path id="Path_314" data-name="Path 314" d="M970.53,1364.138a5.156,5.156,0,0,1,.175,2.618c-.325,1.87-1.389,3.538-1.056,5.625a8.224,8.224,0,0,0,.783,2.3c-1.381-1.888-.952-3.934-1.554-6.086a5.7,5.7,0,0,0-4.747-4.035.5.5,0,0,0-.555.723,7.879,7.879,0,0,1,1.052,3.377c.242,2.195,0,4.436,1.195,6.467,1.455,2.482,4.059,2.9,6.314,4.217a8.018,8.018,0,0,1,2.971-2.276c-.387-1.193-.794-2.389-1.092-3.6a14.945,14.945,0,0,1-.042-5.057c.011-.161.013-.317.017-.475a6.352,6.352,0,0,0-.8-3.543,5.009,5.009,0,0,0-1.02-1.208C971.488,1362.588,970.193,1363.136,970.53,1364.138Zm3.205,11.793c.069.1.063.5-.145.411-1.283-.572-1.723-2.179-2.012-3.452a13.748,13.748,0,0,1,.116-6.13c.035-.154.171-.066.152.059A12.236,12.236,0,0,0,973.735,1375.932Z" transform="translate(20621.186 -963.982)" fill="#f9e99d"/>
      <path id="Path_315" data-name="Path 315" d="M960.089,1403.337a6.177,6.177,0,0,0,3.291,2.113c1.18.317,2.487.581,3.745.785a8.32,8.32,0,0,1,1.206-1.989c-2.255-1.319-4.859-1.735-6.314-4.217-1.191-2.032-.952-4.273-1.195-6.467a.931.931,0,0,0-.589-.191.894.894,0,0,0-.816.456.844.844,0,0,0-.189.639,11.688,11.688,0,0,1-.078,2.287q-.037.314-.078.624C958.8,1399.434,958.485,1401.35,960.089,1403.337Z" transform="translate(20624.992 -988.887)" fill="#f9e65d"/>
      <path id="Path_316" data-name="Path 316" d="M932.117,1465.826c1.824-.139,2.932,1.579,4.059,3.058a5.237,5.237,0,0,1,1.805.738c0-.039.019-.089.054-.061a8.227,8.227,0,0,0,3.178,1.564,5.524,5.524,0,0,0,1.88.154,13.31,13.31,0,0,1,1.461-.294c.195,0,.232.343.138.461-.039.05-.085.085-.126.13l.277-.05c.013,0,.023,0,.036,0a.407.407,0,0,1,.068-.043l.272-.1a11.646,11.646,0,0,1-.876-2.667c-.02-.1-.039-.207-.054-.3a8.442,8.442,0,0,1,.032-2.759.441.441,0,0,1-.049.007.471.471,0,0,1-.053-.007c-.348.031-.7.051-1.048.052a9.827,9.827,0,0,1-6.383-1.067l0,0-.037-.031c-.066-.056-.129-.113-.2-.166a4.341,4.341,0,0,0-.391-.255c-1.465-.851-2.826-.341-4.235.662a.5.5,0,0,0-.087.093.462.462,0,0,0-.048.051c0,.006-.009.01-.013.016a.518.518,0,0,0,.068.743.368.368,0,0,0,.1.052A.468.468,0,0,0,932.117,1465.826Z" transform="translate(20647.25 -1046.486)" fill="#f9e65d"/>
      <path id="Path_317" data-name="Path 317" d="M976.311,1504.487c.046.027.093.044.139.068-.114-.07-.227-.14-.337-.214C976.18,1504.39,976.241,1504.446,976.311,1504.487Z" transform="translate(20610.865 -1079.697)" fill="#f9e65d"/>
      <path id="Path_318" data-name="Path 318" d="M953.168,1493.893a.432.432,0,0,0-.069.043c-.012,0-.023,0-.036,0-.091.018-.185.033-.277.05-1.134,1.235-2.98.7-4.5-.233-.046-.025-.093-.041-.14-.068-.07-.041-.131-.1-.2-.146a9.309,9.309,0,0,1-1.736-1.477.053.053,0,0,1-.01-.031,5.225,5.225,0,0,0-1.806-.737,10.055,10.055,0,0,0-2.211-.149c-.462.01-.7.691-.248.917,1.895.943,2.6,3.557,4.311,4.877a7.357,7.357,0,0,0,3.454,1.5,10.481,10.481,0,0,1,2.319-1.57,12.819,12.819,0,0,1,2.791-.961,8.3,8.3,0,0,1-1.372-2.117Z" transform="translate(20639.033 -1068.894)" fill="#ffcb77"/>
      <path id="Path_319" data-name="Path 319" d="M1017.11,1525.784c-.158.028-.316.055-.473.089a.594.594,0,0,1,.068.157C1016.838,1525.946,1016.974,1525.863,1017.11,1525.784Z" transform="translate(20577.705 -1097.244)" fill="#cab01f"/>
      <path id="Path_320" data-name="Path 320" d="M1030.076,1524.351c-.209.006-.419.015-.634.029a.4.4,0,0,1-.017.25C1029.626,1524.54,1029.849,1524.445,1030.076,1524.351Z" transform="translate(20567.238 -1096.07)" fill="#cab01f"/>
      <path id="Path_321" data-name="Path 321" d="M1034.8,1538.141l-.011-.006a2.233,2.233,0,0,1-.948-1.027c-.734,1.293-1.465,2.64-2.25,3.926a2.468,2.468,0,0,0-.51.823,1.874,1.874,0,0,0-.055.234,3.021,3.021,0,0,0,.371,1.906,23.233,23.233,0,0,0,1.14,2.135c.8,1.366,1.855,2.639,2.7,3.865a.987.987,0,0,0,.5.389.933.933,0,0,0,1.436-.549,18.357,18.357,0,0,0,.771-6.4c-.016-.14-.048-.271-.072-.407-1.049-1.6-1.673-3.476-3.042-4.855C1034.817,1538.167,1034.81,1538.153,1034.8,1538.141Zm1.112,10.1a20.651,20.651,0,0,0-2.3-8.634c-.015-.027.018-.091.042-.052a16.459,16.459,0,0,1,2.46,8.681C1036.1,1548.417,1035.922,1548.421,1035.91,1548.236Z" transform="translate(20565.963 -1106.509)" fill="#ffc239"/>
      <path id="Path_322" data-name="Path 322" d="M1051.98,1542.787a.475.475,0,0,0,.031.038c1.37,1.379,1.994,3.252,3.042,4.856a8.1,8.1,0,0,0,.876,1.143c1.622,1.721,3.818,2.759,5.553,4.351a.993.993,0,0,0,1.645-.958c-.228-1.265-.412-2.521-.75-3.721a15.831,15.831,0,0,0-2.674-3.844c-.216-.175-.433-.35-.655-.515l-.2-.15a5.678,5.678,0,0,1-1.84-1.2C1055.2,1543.367,1053.3,1543.636,1051.98,1542.787Z" transform="translate(20548.781 -1111.157)" fill="#f9e99d"/>
      <path id="Path_323" data-name="Path 323" d="M1096.942,1529.895a7.336,7.336,0,0,1-1.288.788c-.286.139-.619.3-.969.459a8.034,8.034,0,0,1,1.912.825c.4.253.813.536,1.222.846a6.248,6.248,0,0,1,3.227,2.742,10.047,10.047,0,0,0,1.382.753c2.646,1.154,5.585.447,8.253-.234a.5.5,0,0,0,.294-.722,9.094,9.094,0,0,0-3.6-3.823c-.909-.248-1.809-.63-2.816-.951C1102.08,1529.789,1099.475,1530.274,1096.942,1529.895Zm9.792,6.062.113.008h.008l-.134.011Z" transform="translate(20513.836 -1100.607)" fill="#f9e65d"/>
      <path id="Path_324" data-name="Path 324" d="M1121.227,1511.716c-.785-.784-1.567-1.6-2.406-2.332a24.182,24.182,0,0,1-2.476-1.049,7.583,7.583,0,0,0-7.295.473,5.268,5.268,0,0,1-1.943,2.861c2.533.379,5.138-.105,7.616.684,1.008.322,1.907.7,2.816.952a5.835,5.835,0,0,0,3.254.055,1,1,0,0,0,.434-1.644Z" transform="translate(20503.67 -1082.382)" fill="#ffcb77"/>
      <path id="Path_325" data-name="Path 325" d="M1149.428,1489.591a5.948,5.948,0,0,0-1.2-.313,7.624,7.624,0,0,1,.905.3C1149.232,1489.581,1149.334,1489.581,1149.428,1489.591Z" transform="translate(20470.018 -1067.369)" fill="#f9e99d"/>
      <path id="Path_326" data-name="Path 326" d="M1105.171,1418.619a9.607,9.607,0,0,1,4.082-3.282,11.821,11.821,0,0,1,2.924-.727c.967-2.524-.234-5.693-1.254-7.994-.3-.68-1.4-.324-1.375.372a8.611,8.611,0,0,1-.485,3.7c-.009.023-.016.047-.026.07a6.951,6.951,0,0,1-.708,2.407,6.11,6.11,0,0,1-2.059,2.244,7.767,7.767,0,0,1-.945.72c-.5.33-.963.763-1.476,1.062a.083.083,0,0,0-.013.006c-.01.033-.025.065-.035.1a13.181,13.181,0,0,1,1.082,1.608.821.821,0,0,1,.081-.144A.477.477,0,0,1,1105.171,1418.619Z" transform="translate(20506.375 -999.427)" fill="#ffd176"/>
      <path id="Path_327" data-name="Path 327" d="M1079.814,1375.422a7.485,7.485,0,0,0-.085-.813,22.433,22.433,0,0,0-.577-2.349,7.97,7.97,0,0,1-.36-3.083.611.611,0,0,0-.738-.69.807.807,0,0,0-.988.5,12.461,12.461,0,0,1-1.512,3.3c-.057.092-.116.182-.175.273-1.4,2.184-3.131,4.183-3.853,6.725a12.989,12.989,0,0,0-.423,2.2,8.569,8.569,0,0,1,2.589,1.891,14.208,14.208,0,0,1,1.7,1.282,17.518,17.518,0,0,0,3.293-5.078A8.918,8.918,0,0,0,1079.814,1375.422Zm-5.959,7.276c-.21.223-.33-.294-.237-.442a18.936,18.936,0,0,0,2.912-6.249c.45-2.026.78-4.089,1.161-6.129.024-.13.141-.054.127.05C1077.209,1374.409,1077.128,1379.217,1073.855,1382.7Z" transform="translate(20533.133 -968.501)" fill="#f9e99d"/>
      <path id="Path_328" data-name="Path 328" d="M1113.564,1448.86a9.61,9.61,0,0,0-4.082,3.282.477.477,0,0,0-.207.144.81.81,0,0,0-.081.144,1.116,1.116,0,0,0-.036.95,2.041,2.041,0,0,0,.23.359.952.952,0,0,0,.241.385,1.012,1.012,0,0,0,.484.238c.009.024.021.047.03.071,1.039.109,2.69-1.089,3.758-1.384,1.622-.446,3.323-.58,4.914-1.141a10.5,10.5,0,0,0,1.02-.421,5.031,5.031,0,0,0,2.857-2.9c-.292-.437-.566-.894-.818-1.367a27.04,27.04,0,0,1-5.386.916A11.816,11.816,0,0,0,1113.564,1448.86Z" transform="translate(20502.064 -1032.951)" fill="#ffc239"/>
      <path id="Path_329" data-name="Path 329" d="M1122.088,1483.555c-1.828.227-3.082,1.518-4.178,2.912a6.352,6.352,0,0,1-.1,2.62,7.584,7.584,0,0,1,7.295-.474,24.351,24.351,0,0,0,2.475,1.05,4.072,4.072,0,0,0,1.453.18,3.181,3.181,0,0,0,3-3.421.5.5,0,0,0-.839-.348c-.782.655-2.061.16-3.251-.489-.889-.484-1.729-1.054-2.275-1.293A6.954,6.954,0,0,0,1122.088,1483.555Zm2.445,1.327c-.095-.009-.2-.01-.294-.015a7.62,7.62,0,0,0-.9-.3A5.989,5.989,0,0,1,1124.533,1484.882Zm6.41,2.142c.124-.062.148.2.079.261a4.587,4.587,0,0,1-3.945.883c-1.03-.15-2.012-.507-3.021-.747a9.091,9.091,0,0,0-4.933.165c-.031.008-.038-.052-.013-.062a8.585,8.585,0,0,1,5.013-.535C1126.6,1487.468,1128.529,1488.239,1130.943,1487.025Z" transform="translate(20494.914 -1062.66)" fill="#f9e65d"/>
      <path id="Path_330" data-name="Path 330" d="M1083.421,1541.3v-.011a.13.13,0,0,0-.056.031Z" transform="translate(20523.098 -1109.935)" fill="#675840"/>
      <path id="Path_331" data-name="Path 331" d="M1022.066,1447.554c0-.024-.005-.046-.009-.07a12.267,12.267,0,0,0-.606-2.256c-.009-.024-.021-.047-.03-.071a1.013,1.013,0,0,1-.484-.238.955.955,0,0,1-.242-.385,2.088,2.088,0,0,1-.23-.359,1.115,1.115,0,0,1,.035-.95,13.143,13.143,0,0,0-1.082-1.607c-.017-.021-.035-.039-.052-.06a.8.8,0,0,1-1.207-.412.839.839,0,0,1-.538-.691.9.9,0,0,1,.173-.536l-.024-.023a14.121,14.121,0,0,0-1.7-1.282,8.562,8.562,0,0,0-2.589-1.892,5.977,5.977,0,0,0-.927-.329,12.669,12.669,0,0,0-3.36-.424,7.928,7.928,0,0,0-2.452.413c-.159.054-.319.1-.472.171a7.54,7.54,0,0,0-.732.274,8.015,8.015,0,0,0-2.971,2.276,8.333,8.333,0,0,0-1.206,1.988c-.05.117-.086.24-.131.36.253.518.122,1.4-.413,1.457a8.435,8.435,0,0,0-.032,2.759c.015.1.035.2.054.3a11.65,11.65,0,0,0,.876,2.667,8.3,8.3,0,0,0,1.373,2.116,10.353,10.353,0,0,1,6.006.262.49.49,0,0,1,.13.09c.315-.21.641-.4.961-.6.21-.132.435.1.526.257a1.078,1.078,0,0,1,.059.834,4.543,4.543,0,0,1-1.316,2.052c-.136.232-.273.459-.407.7a2.229,2.229,0,0,0,.947,1.027.071.071,0,0,1,.011.006c1.318.848,3.223.579,5.024,0,0,0-.009-.008-.012-.011a.484.484,0,0,1-.047-.432,1.393,1.393,0,0,1,1.415-.858.406.406,0,0,1,.126-.015.381.381,0,0,1,.269.014,1.643,1.643,0,0,1,.441.074c.181.035.363.081.544.133.35-.162.683-.32.969-.459a7.335,7.335,0,0,0,1.289-.788,5.27,5.27,0,0,0,1.944-2.86A6.358,6.358,0,0,0,1022.066,1447.554Zm-12.706-7.784a20.093,20.093,0,0,1,6.85,5.827c.057.078-.011.354-.114.239a31.5,31.5,0,0,0-6.779-5.9C1009.261,1439.906,1009.287,1439.731,1009.36,1439.77Zm2.815,7.75a38.153,38.153,0,0,0-5.705-5.414c-.033-.025-.016-.12.032-.089a20.885,20.885,0,0,1,5.771,5.348C1012.323,1447.437,1012.264,1447.622,1012.174,1447.52Zm4.067,1.234a64.212,64.212,0,0,0-9.536-8.627c-.058-.041-.025-.2.054-.151a37.7,37.7,0,0,1,9.567,8.6C1016.369,1448.633,1016.322,1448.838,1016.241,1448.754Z" transform="translate(20590.76 -1023.748)" fill="#675840"/>
      <path id="Path_332" data-name="Path 332" d="M986.468,1526.071c.4-.485.767-1.006,1.125-1.543.054-.081.106-.164.159-.246a2.467,2.467,0,0,1,.51-.823c.786-1.287,1.517-2.632,2.251-3.926.134-.236.271-.464.407-.7a4.55,4.55,0,0,0,1.316-2.052,1.08,1.08,0,0,0-.059-.834c-.091-.159-.316-.389-.526-.257-.319.2-.646.4-.96.6a.5.5,0,0,0-.131-.089,10.35,10.35,0,0,0-6.006-.263,12.787,12.787,0,0,0-2.791.961,10.469,10.469,0,0,0-2.319,1.57c-1.031.941-1.788,2.136-1.2,3.323.8,1.623,2.528,1.22,4.013.451a2.2,2.2,0,0,0-.266.982,3.481,3.481,0,0,0,1.1,2.445c.029.03.058.058.087.087a5.8,5.8,0,0,0,.663.581l.006.005A1.692,1.692,0,0,0,986.468,1526.071Zm.923-8.826c.216-.015.426-.023.634-.03-.228.094-.45.189-.651.279A.4.4,0,0,0,987.39,1517.245Zm-1.867.231c-.136.079-.272.162-.405.246a.6.6,0,0,0-.068-.158C985.207,1517.531,985.365,1517.5,985.523,1517.476Zm-2.735,4.954c-.151.167-.246-.2-.206-.3.556-1.413,2.238-2.246,3.481-2.987a14.34,14.34,0,0,1,1.709-.836,6.817,6.817,0,0,1,1.113-.5c.027-.009.056-.014.083-.022l-.131.068a8.043,8.043,0,0,0,2.976-1.916c.053-.062.089.079.064.119-.814,1.354-2.335,1.973-3.68,2.683A18.976,18.976,0,0,0,982.787,1522.43Z" transform="translate(20609.291 -1088.935)" fill="#f9e65d"/>
      <path id="Path_333" data-name="Path 333" d="M864.96,1291.41c.259.6.5,1.214.71,1.878a9.139,9.139,0,0,1,3.388-1.9,8.625,8.625,0,0,0,.42-1.1,9.832,9.832,0,0,1-.953-5.677,5.08,5.08,0,0,0-.736-.774c-1.865-1.553-2.754-2.379-3.311-4.98a.745.745,0,0,0-1.348-.176,11.937,11.937,0,0,0-.919,7.329,6.588,6.588,0,0,0,1.215,2.662,14.168,14.168,0,0,1,1.2,1.976l0,.005A7.873,7.873,0,0,1,864.96,1291.41Zm-.674-6.53c-.016-.025-.057-.033-.074-.063a9.863,9.863,0,0,1-.8-5.231c0-.071.072-.073.076,0a12.666,12.666,0,0,0,.419,3.415,4.525,4.525,0,0,0,1.358,1.766c.3.3.54.4.768.795.9,1.559.687,4.382.651,6.077,0,.157-.175.237-.209.049-.236-1.306-.1-2.72-.4-4C865.8,1286.491,864.869,1285.784,864.286,1284.881Z" transform="translate(20704.262 -894.735)" fill="#ffcb4a"/>
      <path id="Path_334" data-name="Path 334" d="M792.154,1422.213a6.379,6.379,0,0,1-.64-1.921,9.709,9.709,0,0,1-.125-2.061c-2.386.479-4.774.952-7.158,1.44a17.308,17.308,0,0,0-3.1.785c-1.073.436-1.79,1.15-3,1.294-.667.08-1.078.989-.372,1.376,2.829,1.55,5.783,2.914,9.063,1.991.093-.026.2-.059.3-.094a15.2,15.2,0,0,1,3.2-1.476A10.457,10.457,0,0,0,792.154,1422.213Z" transform="translate(20773.484 -1009.23)" fill="#f9e65d"/>
      <path id="Path_335" data-name="Path 335" d="M924.258,1268.1a.826.826,0,0,0-.584-.771.8.8,0,0,1,.294.675C924.062,1268.04,924.16,1268.072,924.258,1268.1Z" transform="translate(20653.777 -885.747)" fill="#a8622d"/>
      <path id="Path_336" data-name="Path 336" d="M904.415,1285.343a4.473,4.473,0,0,1-.86-.949,11.382,11.382,0,0,1-.972-1.748,17.985,17.985,0,0,0-.848,2.208c.1.059.2.117.3.173A10.215,10.215,0,0,0,904.415,1285.343Z" transform="translate(20671.73 -898.279)" fill="#cd9826"/>
      <path id="Path_337" data-name="Path 337" d="M898.674,1312.428c.007.014.017.027.025.041a2.023,2.023,0,0,0-.008.389,2.814,2.814,0,0,0,.1.535,1.572,1.572,0,0,0,.981,1.15,1.416,1.416,0,0,0,1.583-.795c.011.009.024.016.035.025a.62.62,0,0,0,.463-.672,2.919,2.919,0,0,1,.273-1.374,4.237,4.237,0,0,1,.862-1.493,4.474,4.474,0,0,0,.783-1.948,3.326,3.326,0,0,0,.011-.393,11.862,11.862,0,0,1-4.614-1.669,9.036,9.036,0,0,1-1.243-.846c-.086.457-.159.915-.2,1.373A9.831,9.831,0,0,0,898.674,1312.428Z" transform="translate(20675.068 -916.88)" fill="#eaa654"/>
      <path id="Path_338" data-name="Path 338" d="M918.08,1266.061a1.124,1.124,0,0,0-1.242-.163,4.854,4.854,0,0,0,1.536.838A.8.8,0,0,0,918.08,1266.061Z" transform="translate(20659.373 -884.476)" fill="#cd9826"/>
      <path id="Path_339" data-name="Path 339" d="M835.189,1335.222c.066.045.13.094.2.138a3.868,3.868,0,0,0,.941.462,3.948,3.948,0,0,0,.5.049,18.7,18.7,0,0,1,2.079-2.53,10.678,10.678,0,0,0-.549-2.039,7.823,7.823,0,0,0-.337-.762l0,0a7,7,0,0,0-1.008-1.471c-1.733-1.937-4.119-2.106-6.565-1.959a1,1,0,0,0-.85,1.48,19.6,19.6,0,0,0,3.146,4.45A7.326,7.326,0,0,1,835.189,1335.222Z" transform="translate(20730.861 -934.627)" fill="#f9e65d"/>
      <path id="Path_340" data-name="Path 340" d="M800.046,1454.1a.675.675,0,0,0,.94-.057c.781-.8,2.512-.682,3.559-.931a10.7,10.7,0,0,0,2.511-.972c.047-.078.091-.158.144-.233a3.822,3.822,0,0,1,.273-.344c.19-.464.421-.9.591-1.229.866-1.683,1.886-3.741,3.559-4.762.09-.055.182-.093.273-.138a.993.993,0,0,0,.009-.186,3.486,3.486,0,0,1-1.321-.974,16.733,16.733,0,0,0-2.321.584,15.216,15.216,0,0,0-3.2,1.476,14.5,14.5,0,0,0-4.514,4.36,15.783,15.783,0,0,0-1.128,1.982A.992.992,0,0,0,800.046,1454.1Zm.043-.714a19.36,19.36,0,0,1,9.345-7.766c.095-.039.123.167.042.2a22.33,22.33,0,0,0-9.224,7.8C800.13,1453.793,800.019,1453.5,800.089,1453.386Z" transform="translate(20755.543 -1030.541)" fill="#ffcb4a"/>
      <path id="Path_341" data-name="Path 341" d="M865.027,1451.16a5.019,5.019,0,0,1,.637-1.794,7.561,7.561,0,0,1-1.493.328c-.028.1-.057.205-.087.307a1.974,1.974,0,0,1,.146.92,2.86,2.86,0,0,1-.193.782,24.668,24.668,0,0,1-2.638,9.386,11.071,11.071,0,0,1-.953,2.58.744.744,0,0,0,1.01,1.009c2.086-1.183,5.05-3.318,5.482-5.89a2.8,2.8,0,0,0,.02-.915.9.9,0,0,1-.342-.537C866.111,1455.245,864.686,1453.406,865.027,1451.16Z" transform="translate(20705.59 -1034.709)" fill="#eaa654"/>
      <path id="Path_342" data-name="Path 342" d="M796.181,1389.69a14.235,14.235,0,0,1-4.648-1.933c-2.519-.236-5.3.244-7.708.253-.581,0-1.05.848-.522,1.26,1.841,1.434,3.636,3.182,5.971,3.722a24.718,24.718,0,0,0,6.768.172,12.375,12.375,0,0,1,.541-3.041Q796.388,1389.894,796.181,1389.69Zm-1.217,1.319c-1.649-1-3.137-.8-4.983-.843a11.016,11.016,0,0,1-4.218-.968c-.051-.022-.041-.152.02-.13a12.934,12.934,0,0,0,5.83.491,3.9,3.9,0,0,1,3.475.954C795.182,1390.618,795.2,1391.15,794.964,1391.009Z" transform="translate(20768.834 -984.24)" fill="#f9e65d"/>
      <path id="Path_343" data-name="Path 343" d="M813.584,1362.2a16.921,16.921,0,0,1,1.54-3.326,13.75,13.75,0,0,0-1.015-1.632,7.3,7.3,0,0,0-2.444-2.186c-.131-.071-.254-.148-.392-.211A14.841,14.841,0,0,0,804.7,1354a.993.993,0,0,0-.849,1.481,14.722,14.722,0,0,0,4.57,4.688,14.235,14.235,0,0,0,4.648,1.933Q813.327,1362.153,813.584,1362.2Zm-.758-1.883c-1.239.186-2.266-.789-3.046-1.645a14.163,14.163,0,0,0-2.319-2.329,24.574,24.574,0,0,0-2.776-1.47c-.045-.023-.042-.143.02-.124a11.17,11.17,0,0,1,3.946,2c.7.586,1.283,1.306,1.989,1.887a8.409,8.409,0,0,0,2.219,1.188C813.034,1359.9,813.034,1360.284,812.826,1360.316Z" transform="translate(20751.943 -956.646)" fill="#ffcb77"/>
      <path id="Path_344" data-name="Path 344" d="M855.164,1365.969a4.3,4.3,0,0,0,.491.749,3.487,3.487,0,0,0,1.32.974c.068.029.137.052.206.077a1.555,1.555,0,0,1,1.839.221c.089-.006.176-.008.266-.018a7.565,7.565,0,0,0,1.493-.328,5.5,5.5,0,0,1,2.243-2.083,4.235,4.235,0,0,1-1.578-4.42,3.007,3.007,0,0,1,.638-1.133,3.349,3.349,0,0,1,.147-.338,2.806,2.806,0,0,1,.1-.282c.021-.051.055-.02.063.017a2.539,2.539,0,0,1,.508-.6,2.038,2.038,0,0,1,1.989-.4c.029-.03.066-.057.094-.087a2.365,2.365,0,0,1-.028-1.335,3.017,3.017,0,0,1,.808-1.261,2.576,2.576,0,0,1,.034-.318c0-.018.008-.032.011-.05a3.033,3.033,0,0,1,.156-2.063,10.809,10.809,0,0,0,.409-2.991,2.048,2.048,0,0,0-.393-.424c-.011-.009-.024-.016-.035-.025a1.417,1.417,0,0,1-1.583.794,1.572,1.572,0,0,1-.981-1.15c-.177.038-.356.083-.535.136a9.143,9.143,0,0,0-3.388,1.9c-.033.031-.067.063-.1.094s-.042.045-.063.067a18.658,18.658,0,0,0-2.08,2.53c-.219.319-.426.649-.626.984a16.866,16.866,0,0,0-1.54,3.326c-.037.11-.075.22-.109.331a12.372,12.372,0,0,0-.541,3.041c0,.025,0,.05,0,.075a9.694,9.694,0,0,0,.125,2.061A6.38,6.38,0,0,0,855.164,1365.969Z" transform="translate(20710.475 -952.986)" fill="#956777"/>
      <path id="Path_345" data-name="Path 345" d="M890.407,1438.836a.473.473,0,0,1-.435-.025,7.812,7.812,0,0,1-1.262-.912,5.488,5.488,0,0,0-2.243,2.083,5.017,5.017,0,0,0-.637,1.794c-.34,2.246,1.085,4.085,1.59,6.177a.9.9,0,0,0,.342.537,1.079,1.079,0,0,0,1.555-.537,19.437,19.437,0,0,0,1.344-6.865c.008-.556,0-1.113-.038-1.675A1.144,1.144,0,0,0,890.407,1438.836Z" transform="translate(20684.789 -1025.326)" fill="#f9e99d"/>
      <path id="Path_346" data-name="Path 346" d="M968.8,1314.854a.638.638,0,0,0-.414.152c-.067.05-.141.088-.212.132-.223.1-.441.208-.656.319l-.02.009a4.529,4.529,0,0,1,.072,1.372.382.382,0,0,1-.036.12,2.3,2.3,0,0,1,.041.3c.01.275-.177.634-.482.444a14.3,14.3,0,0,0-1.624-1.148,9.485,9.485,0,0,0-2.026-.546c-.329-.068-.655-.143-.974-.234.732,1.156.98,2.747-.046,3.742a.213.213,0,0,1-.125.062.11.11,0,0,1-.154.013c-1.813-1.256-4.262-.188-5.727-2.224a3.847,3.847,0,0,1-.333-.588c-.209-.049-.417-.105-.622-.174-.052-.017-.1-.039-.154-.057a1.738,1.738,0,0,1-.843.107.833.833,0,0,1-.047.3,3.565,3.565,0,0,1-.114.537,4.318,4.318,0,0,1-.354.815,3.392,3.392,0,0,1,.813-.515c.36-.16.433.529.3.721a5.648,5.648,0,0,0-.713,1.376,5.931,5.931,0,0,0,.559.3c1.593.693,3.454.435,5.025,1.159,1.276.587,1.8,1.8,2.567,2.818a4.284,4.284,0,0,0,.392,2.235,5.154,5.154,0,0,0-.174-2.618c-.338-1,.958-1.551,1.645-.957a5.023,5.023,0,0,1,1.021,1.208,8.13,8.13,0,0,1,2.519-4.77c1.572-1.539,3.594-2.5,4.8-4.405a1.7,1.7,0,0,0,.115-1.237,7.528,7.528,0,0,1-3.3.9Q969.166,1314.693,968.8,1314.854Z" transform="translate(20629.002 -923.628)" fill="#4b6949"/>
      <path id="Path_347" data-name="Path 347" d="M1059.979,1254.571c.744.2,1.481.432,2.226.58a11.719,11.719,0,0,0,2.328-2,17.96,17.96,0,0,0,3.318-4.742c.484-.188.988-.362,1.519-.572.1-.04.108-.258.02-.317-1.543-1.011-3.241-.227-4.525.894-.945,1.135-1.769,2.433-2.663,3.521Q1061.108,1253.269,1059.979,1254.571Z" transform="translate(20542.236 -869.154)" fill="#ffcb77"/>
      <path id="Path_348" data-name="Path 348" d="M930.752,1229.292c.127.205.252.421.379.657a.614.614,0,0,1-.047.561,2.246,2.246,0,0,1,.207.246,3.626,3.626,0,0,1,.732-1.3,7.7,7.7,0,0,0,.046-1.689,5.974,5.974,0,0,1,.329,1.29,8.025,8.025,0,0,1,1.661-1.2c.006-.035.016-.07.022-.1-.025-.064-.044-.13-.068-.194-.9-.316-1.211-1.9-1.441-2.693a14.345,14.345,0,0,1-.523-4.386c.006-.267.173-.442.33-.428a4.453,4.453,0,0,0-.362-.733.993.993,0,0,1,.016-.723,5.139,5.139,0,0,1-.005-1.321c.021-.167-.131-.653-.368-.41a3.115,3.115,0,0,0-.528.739,6.121,6.121,0,0,0-1.55,4.85,5.646,5.646,0,0,0,.229.9c-1.384-1.006-3.1-1.613-3.6-3.39-.008-.383,0-.764.022-1.128.006-.107-.134-.206-.174-.067-.549,1.865-1.2,3.873-.159,5.7a6.362,6.362,0,0,0,2.343,2.063,5.249,5.249,0,0,1,1.641,1.66,4.616,4.616,0,0,1,.611.7A.866.866,0,0,1,930.752,1229.292Z" transform="translate(20652.41 -844.398)" fill="#ffcb4a"/>
      <path id="Path_349" data-name="Path 349" d="M1010.036,1227.168a7.339,7.339,0,0,1,1.719.308,7.082,7.082,0,0,1,.5-5.048c-.122.018-.236-.254-.223-.372.071-.646.265-1.266.378-1.906a17.623,17.623,0,0,0,.149-2.067c0-.058.069-.18.127-.085a2.336,2.336,0,0,1,.12.264c.014-.263-.232-.56-.388-.217a17.59,17.59,0,0,1-2.621,3.472c.015.6,0,1.189.023,1.734C1009.878,1224.552,1009.968,1225.861,1010.036,1227.168Z" transform="translate(20583.297 -845.288)" fill="#ffcb77"/>
      <path id="Path_350" data-name="Path 350" d="M887.146,1256.214c1.463,3.457,6.093,5.664,9.771,5.17a2.063,2.063,0,0,1,.578-1.324,3.594,3.594,0,0,1,2.227-.9,4.508,4.508,0,0,1,.122-1.23c.014-.057.036-.113.053-.17a2.261,2.261,0,0,0-.207-.246.615.615,0,0,0,.047-.561c-.126-.236-.251-.451-.378-.657a.868.868,0,0,0-.257-.394,4.578,4.578,0,0,0-.611-.7,4,4,0,0,0-2.243-1.013,14.578,14.578,0,0,1-2.016-.433q-.147-.046-.29-.1a4.884,4.884,0,0,1-1.536-.838,3.835,3.835,0,0,1-1.305-2.422c-.109-.649-.807-.86-1.068-.185a7.4,7.4,0,0,0,.477,5.552,11.447,11.447,0,0,0,.972,1.748,4.494,4.494,0,0,0,.861.949,10.236,10.236,0,0,1-2.376-.316c-.1-.057-.2-.115-.3-.174a16.417,16.417,0,0,1-2.522-1.809c-.15-.133-.191.2-.136.285.017.026.034.049.051.075-.016-.074-.039-.143-.053-.218C886.986,1256.216,887.088,1256.075,887.146,1256.214Z" transform="translate(20683.803 -871.403)" fill="#f9e65d"/>
      <path id="Path_351" data-name="Path 351" d="M1050.915,1229.595a21.147,21.147,0,0,0-6.91,2.675,5.613,5.613,0,0,0-1.939,2.66,10.414,10.414,0,0,0-.408,3.7,6.358,6.358,0,0,0,.151.765c.006.022.01.048.014.073a5.471,5.471,0,0,1,.731-.039,6.238,6.238,0,0,1,.975-4.174,5.307,5.307,0,0,1,1.682-2.682c1.778-1.513,4.44-1.386,6.032-3.106.1-.1.093-.5-.127-.418-.14.05-.279.1-.418.153l.174.018C1051.018,1229.235,1051.066,1229.557,1050.915,1229.595Z" transform="translate(20557.252 -854.409)" fill="#ffcb77"/>
      <path id="Path_352" data-name="Path 352" d="M1046.4,1245.854a9.636,9.636,0,0,1,2.411.4q1.126-1.305,2.224-2.634c.894-1.088,1.718-2.386,2.663-3.522a11.257,11.257,0,0,1,1.179-1.234,5.446,5.446,0,0,0,1.952-1.339c.107-.121.166-.695-.128-.629-2.62.582-6.118,1.25-8.093,3.195a8.108,8.108,0,0,0-1.232,1.588A6.236,6.236,0,0,0,1046.4,1245.854Z" transform="translate(20553.408 -860.837)" fill="#f9e65d"/>
      <path id="Path_353" data-name="Path 353" d="M1034.2,1235.431c-.339,1.135-.171,2.369-.417,3.525,0,.009-.007.017-.01.026a3.62,3.62,0,0,1,.154,1.058,7.634,7.634,0,0,1,.986-.294c.161-.034.32-.058.479-.077a.6.6,0,0,0-.014-.073,6.423,6.423,0,0,1-.151-.765,7.708,7.708,0,0,1,.408-3.7,5.609,5.609,0,0,1,1.939-2.661,21.153,21.153,0,0,1,6.91-2.675c.151-.037.1-.359-.043-.376l-.174-.018c-2.7-.292-5.947-.153-8.074,1.633-.149.4-.308.8-.474,1.188A31.363,31.363,0,0,0,1034.2,1235.431Z" transform="translate(20563.682 -854.612)" fill="#f9e65d"/>
      <path id="Path_354" data-name="Path 354" d="M972.07,1227.768c.012.059.023.121.035.181.279-.078.56-.145.843-.206a9.974,9.974,0,0,1-.271-6.275,4.6,4.6,0,0,0-.827-1.285c-.857-.914-2.134-1.18-3.133-1.89-.19-.134-.248.2-.2.321.012.03.03.057.043.086a3.887,3.887,0,0,0,1.168,2.944c.029.1.06.191.086.287a7.335,7.335,0,0,1,1.213,2.366C971.373,1225.432,971.821,1226.607,972.07,1227.768Z" transform="translate(20617.094 -845.592)" fill="#ffcb4a"/>
      <path id="Path_355" data-name="Path 355" d="M961.791,1226.6a4.436,4.436,0,0,1,.362.733c.1.009.2.1.246.294a25.826,25.826,0,0,0,1.227,3.766c.408,1.006,1.007,1.883.849,3-.027.193-.172.523-.417.509a.982.982,0,0,1-.27-.058c.024.064.043.13.068.193l.031.077a12.792,12.792,0,0,1,2.679-1.079c-.012-.06-.022-.121-.035-.18-.249-1.162-.7-2.336-1.043-3.472a7.329,7.329,0,0,0-1.213-2.366,20.938,20.938,0,0,0-2.094-2.227c-.177-.172-.3-.081-.372.091A1,1,0,0,0,961.791,1226.6Z" transform="translate(20622.635 -851.67)" fill="#ffcb77"/>
      <path id="Path_356" data-name="Path 356" d="M1024.972,1286.224a5.5,5.5,0,0,0-.732.038c-.158.019-.318.042-.479.077a7.507,7.507,0,0,0-.986.293c0,.033.005.063,0,.1a1.841,1.841,0,0,1-.191.763c0,.022.007.045.009.066a9.779,9.779,0,0,0-2.1,1.119.936.936,0,0,0-.329.64,1.551,1.551,0,0,0,.224,1.125,5.488,5.488,0,0,0,.654.663,4.01,4.01,0,0,0,2.642.993,7.537,7.537,0,0,0,3.3-.9,38.188,38.188,0,0,0,3.9-2.374c.1-.064.193-.126.289-.187.083-.022.165-.05.247-.081a3.06,3.06,0,0,0,1.016-.648c.2-.185.144-.786-.212-.7a5.886,5.886,0,0,1-2.615-.01c-.744-.149-1.481-.379-2.226-.58A9.586,9.586,0,0,0,1024.972,1286.224Zm5.389,1.777c.137-.052.179.246.06.289a7.1,7.1,0,0,1-3.517.542c-1.341-.231-2.41-.9-3.824-.748-.117.013-.134-.251-.032-.282a3.98,3.98,0,0,1,2.63.316A6.1,6.1,0,0,0,1030.361,1288Z" transform="translate(20574.834 -901.207)" fill="#f9e99d"/>
      <path id="Path_357" data-name="Path 357" d="M1019.879,1217.169a7.083,7.083,0,0,0-.5,5.048,3.394,3.394,0,0,1,2.4,2.182c0-.009.008-.018.01-.027.247-1.156.078-2.389.417-3.525a31.481,31.481,0,0,1,1.52-3.206c.165-.386.325-.784.474-1.188a11.7,11.7,0,0,0,.8-3.573,4.856,4.856,0,0,0,.423-.9c.046-.134-.014-.635-.264-.492a13.552,13.552,0,0,0-4.877,4.9,6.438,6.438,0,0,1-.293.687C1019.949,1217.138,1019.913,1217.164,1019.879,1217.169Z" transform="translate(20575.68 -840.03)" fill="#ffc239"/>
      <path id="Path_358" data-name="Path 358" d="M990.01,1227.555a12.063,12.063,0,0,1,3.291-.271c-.068-1.308-.158-2.616-.211-3.917-.022-.545-.009-1.138-.023-1.734a6.522,6.522,0,0,0-.4-2.36,1.6,1.6,0,0,0-.4-1.113c-.108-.126-.24-.179-.379-.065a6.713,6.713,0,0,0-2.142,3.185A9.974,9.974,0,0,0,990.01,1227.555Z" transform="translate(20600.033 -845.403)" fill="#ffd176"/>
      <path id="Path_359" data-name="Path 359" d="M962.676,1274.215a2.83,2.83,0,0,1,3.876-1.137,5.211,5.211,0,0,1,2,2.014.936.936,0,0,1,.329-.64,9.78,9.78,0,0,1,2.1-1.119c0-.022-.006-.044-.009-.066a1.843,1.843,0,0,0,.191-.763c0-.034,0-.063,0-.1a3.6,3.6,0,0,0-.154-1.058,3.394,3.394,0,0,0-2.4-2.182,7.3,7.3,0,0,0-1.719-.307,12.079,12.079,0,0,0-3.291.271c-.283.061-.565.128-.843.206a12.806,12.806,0,0,0-2.678,1.079l-.054.029a8.036,8.036,0,0,0-1.661,1.2,5.283,5.283,0,0,0-.375.4,3.626,3.626,0,0,0-.732,1.3c-.017.057-.04.113-.054.17a4.516,4.516,0,0,0-.122,1.23l.068,0a5.03,5.03,0,0,1,.675-.53c.63-.408,1.082.77,1.058,1.168q-.026.433-.052.867c.013-.007.023-.017.036-.023.736-.356,2,.3,2.683.551.29.1.579.221.866.345a2.6,2.6,0,0,1-.162-.309A2.423,2.423,0,0,1,962.676,1274.215Zm-2.445-2.107c-.1.113-.177-.15-.123-.229a3.2,3.2,0,0,1,1.516-1.243,3.293,3.293,0,0,1,1.157-.2,2.539,2.539,0,0,0,1.681-.267c1.051-.506,2.137-.658,2.921.4.072.1.02.431-.146.305a2.19,2.19,0,0,0-2.345-.409c-.29.146-.51.451-.83.549-.637.194-1.328-.143-2,0A3.41,3.41,0,0,0,960.231,1272.108Z" transform="translate(20626.441 -886.981)" fill="#655d5b"/>
      <path id="Path_360" data-name="Path 360" d="M990.467,1297.429a14.24,14.24,0,0,1,1.624,1.148c.305.191.493-.169.483-.443a2.429,2.429,0,0,0-.042-.3.38.38,0,0,0,.036-.12,4.549,4.549,0,0,0-.071-1.372,9.474,9.474,0,0,0-.626-1.937,5.6,5.6,0,0,1-.655-.663,1.555,1.555,0,0,1-.223-1.125,5.208,5.208,0,0,0-2-2.014,2.831,2.831,0,0,0-3.876,1.137,2.423,2.423,0,0,0-.421,2.591,2.6,2.6,0,0,0,.162.309,6.777,6.777,0,0,1,1.995,1.247,3.984,3.984,0,0,1,.618.762c.319.091.645.166.974.234A9.43,9.43,0,0,1,990.467,1297.429Zm-2.755-5.335a10.1,10.1,0,0,1,4.717,6.2c.052.2-.206.474-.291.2a11.892,11.892,0,0,0-4.457-6.273C987.644,1292.192,987.659,1292.065,987.711,1292.095Z" transform="translate(20604.006 -904.508)" fill="#f9e65d"/>
      <path id="Path_361" data-name="Path 361" d="M1157.981,1301.781a10.421,10.421,0,0,0,.849,1.648c.015.025.031.048.045.073.172.281.346.56.518.841.02-.017.042-.031.062-.047.005.006.008.015.014.021a.881.881,0,0,0,1.378-.32,4.049,4.049,0,0,0,.376-1.413c.086-.069.172-.14.26-.205-.026-.168-.05-.337-.076-.5.458-2.2.987-4.348.223-6.669a7.78,7.78,0,0,0-2.22-3.416c-1.057-.981-2.317-1.768-3.616-2.827-.915-.746-1.329.882-1.22,1.5a17.925,17.925,0,0,0,1.123,3.157,4.524,4.524,0,0,1,.266,1.5,9.046,9.046,0,0,1,.406,1.133C1156.894,1298.09,1157.295,1300,1157.981,1301.781Zm.308-7.309c-.03-.108-.061-.216-.094-.321.055.077.107.156.161.234C1158.334,1294.414,1158.31,1294.44,1158.29,1294.472Zm-.57-2.272a11.942,11.942,0,0,1,2.973,9.441c-.04.248-.282.164-.282-.05a14.321,14.321,0,0,0-2.8-9.216C1157.549,1292.294,1157.622,1292.086,1157.72,1292.2Z" transform="translate(20464.84 -903.29)" fill="#f9e65d"/>
      <path id="Path_362" data-name="Path 362" d="M1138.925,1326.712a3.961,3.961,0,0,0,.338.343c.056-.154.128-.3.193-.447a1.188,1.188,0,0,0,1.463-.835,1.778,1.778,0,0,0,0-1.06c0-.068,0-.139,0-.211.091-.086.174-.181.27-.262-.171-.281-.346-.56-.517-.841-.014-.026-.03-.049-.045-.073a10.439,10.439,0,0,1-.849-1.648c-.686-1.78-1.087-3.69-1.611-5.523a9.059,9.059,0,0,0-.406-1.134c-.546-1.246-1.346-2.12-2.375-1.9a.174.174,0,0,1,.03.13c-.81,3.162-.947,5.825.838,8.754a26.484,26.484,0,0,0,3.3,4.112c.083.09.052.413-.1.3a14.879,14.879,0,0,1-4.771-6.507c-.768-2.247-.148-4.61.605-6.765l0,0a3.5,3.5,0,0,0-1.641,1.245,6.383,6.383,0,0,0-.762,6.578,6.554,6.554,0,0,0,.508.949A13.526,13.526,0,0,0,1138.925,1326.712Z" transform="translate(20483.045 -923.187)" fill="#ffcb4a"/>
      <path id="Path_363" data-name="Path 363" d="M1181.449,1359.119a1.843,1.843,0,0,1-1.5-.289,1.713,1.713,0,0,1-.626-1.557c-.071-.041-.141-.089-.212-.127a5.753,5.753,0,0,0-2.232-.652,6.359,6.359,0,0,0-4.232,1.29c-.089.065-.174.137-.261.205a4.048,4.048,0,0,1-.375,1.413.881.881,0,0,1-1.378.32c-.006-.006-.009-.015-.015-.021-.02.016-.042.031-.062.048-.1.081-.179.175-.271.262,0,.072,0,.143,0,.211a1.779,1.779,0,0,1,0,1.06,1.187,1.187,0,0,1-1.463.835c-.065.149-.137.293-.192.448-.011.032-.019.066-.03.1a1.827,1.827,0,0,1,.43.821q.056.512.032.273c-.01-.087-.007-.068.009.056a2.527,2.527,0,0,1,.023.543,1.836,1.836,0,0,1-.264.867.947.947,0,0,1-.629.432,17.641,17.641,0,0,0,2.062,7.308,15.738,15.738,0,0,0,.818,1.366,12.2,12.2,0,0,0,1.713,2.065c.014.013.029.023.044.037a3.492,3.492,0,0,1,1.015-.042c.036-.014.068-.035.106-.046.286-.084.294.4.164.54-.1.111-.2.225-.3.341.171.12.341.244.518.348l.079.043c.081.047.167.081.249.124,0-.017-.008-.033-.011-.05-.054-.224,0-.693.27-.783a2.421,2.421,0,0,1,2.728,1.137,3.672,3.672,0,0,1,.169.342,6.186,6.186,0,0,0,1.864-.467,8.032,8.032,0,0,0,1.814-1.051,7.6,7.6,0,0,0,.864-.791c0-.023.015-.044.037-.044,0,0,0,0,0,0,.02-.021.043-.041.062-.063.055-.061.1-.124.157-.186.072-.085.147-.167.215-.254a8.411,8.411,0,0,0,1.235-2.231,11.269,11.269,0,0,0,.656-3.053,15.828,15.828,0,0,0-.286-4.376c-.028-.137-.058-.275-.089-.411a17.72,17.72,0,0,0-1.191-3.517c-.167-.36-.343-.711-.531-1.046a13.083,13.083,0,0,0-1.018-1.564C1181.568,1359.259,1181.508,1359.189,1181.449,1359.119Zm-7.075,10.011c-.581-1.348-1-2.785-1.482-4.171-.047-.134.1-.356.174-.162.5,1.393,1.084,2.784,1.494,4.208C1174.6,1369.132,1174.446,1369.3,1174.374,1369.13Zm2.235,1.476a81.8,81.8,0,0,0-2.393-8.737c-.025-.07.051-.189.092-.086a37.156,37.156,0,0,1,2.45,8.756C1176.773,1370.66,1176.646,1370.762,1176.609,1370.605Zm2.6.221a97.509,97.509,0,0,0-3.354-9.789c-.026-.063.042-.165.082-.077a55.2,55.2,0,0,1,3.42,9.8C1179.39,1370.885,1179.257,1370.975,1179.213,1370.826Zm1.4-.232a33.7,33.7,0,0,0-3.2-9.995c-.028-.056.038-.19.087-.107a24.328,24.328,0,0,1,3.237,10.074C1180.745,1370.66,1180.635,1370.7,1180.618,1370.594Z" transform="translate(20453.672 -958.697)" fill="#655d5b"/>
      <path id="Path_366" data-name="Path 366" d="M1126.749,1357.181a5.926,5.926,0,0,0-.008,4.246,2.629,2.629,0,0,0-.447,1.665,5.291,5.291,0,0,0,.111.986,1.6,1.6,0,0,0,.211.521,2.88,2.88,0,0,0,.155.34,1.919,1.919,0,0,0,.3.392.861.861,0,0,1,.584-.117c1.768.221,3.69.087,5.54.206a.857.857,0,0,0,.328.14.681.681,0,0,0,.384.049.949.949,0,0,0,.63-.432,1.835,1.835,0,0,0,.264-.867,2.562,2.562,0,0,0-.022-.542c-.015-.125-.019-.144-.009-.056q.025.24-.031-.274a1.824,1.824,0,0,0-.431-.82c.011-.032.019-.067.031-.1a4.03,4.03,0,0,1-.338-.343,13.535,13.535,0,0,1-5.535-4.805,6.494,6.494,0,0,1-.508-.949h-.005a1.655,1.655,0,0,0-.617.233.416.416,0,0,0-.078.013A.862.862,0,0,0,1126.749,1357.181Z" transform="translate(20487.971 -958.651)" fill="#eaa654"/>
      <path id="Path_371" data-name="Path 371" d="M1032.484,1469.215c-.048-.03-.065.064-.032.09a38.117,38.117,0,0,1,5.705,5.414c.089.1.149-.083.1-.156A20.891,20.891,0,0,0,1032.484,1469.215Z" transform="translate(20564.775 -1050.947)" fill="#956777"/>
      <path id="Path_372" data-name="Path 372" d="M1033.751,1457.969c-.079-.052-.112.11-.054.151a64.209,64.209,0,0,1,9.535,8.627c.081.084.128-.121.085-.178A37.72,37.72,0,0,0,1033.751,1457.969Z" transform="translate(20563.768 -1041.74)" fill="#956777"/>
      <path id="Path_373" data-name="Path 373" d="M1054.847,1462.92c.1.115.17-.161.114-.239a20.1,20.1,0,0,0-6.85-5.827c-.073-.039-.1.136-.043.171A31.489,31.489,0,0,1,1054.847,1462.92Z" transform="translate(20552.008 -1040.831)" fill="#956777"/>
      <path id="Path_374" data-name="Path 374" d="M977.626,1275.237c.32-.1.541-.4.83-.549a2.191,2.191,0,0,1,2.346.409c.166.126.218-.207.145-.306-.784-1.062-1.87-.91-2.922-.4a2.541,2.541,0,0,1-1.681.267,3.27,3.27,0,0,0-1.156.2,3.2,3.2,0,0,0-1.516,1.243c-.054.078.018.342.123.229a3.407,3.407,0,0,1,1.835-1.095C976.3,1275.094,976.989,1275.432,977.626,1275.237Z" transform="translate(20612.877 -891.202)" fill="#956777"/>
      <path id="Path_375" data-name="Path 375" d="M914.8,1358.408c-.2-.22-.4-.439-.593-.659-.019-.021-.037-.043-.056-.066a3.71,3.71,0,0,1-.261-1.583,7.085,7.085,0,0,0,3.913,1.532c-.548-1.821.088-3.887.917-5.787a.791.791,0,0,1,.34-.377c.043-.077.082-.155.129-.231a.913.913,0,0,1,.941-.453q.04-.31.077-.624a6.467,6.467,0,0,1-.5-.432,3.356,3.356,0,0,1-1.068-2.74,6.13,6.13,0,0,1,1.194-2.135.833.833,0,0,0,.173-.389,3.642,3.642,0,0,0,.469-2.486c-.011-.174-.178-.167-.185.005-.02.448-.562.736-.841,1.034s-.569.581-.829.894a.364.364,0,0,0-.12-.052c.419-1.775.3-3.625.914-5.3a5.63,5.63,0,0,1,.714-1.376c.138-.193.065-.881-.3-.721a3.371,3.371,0,0,0-.813.515c-.095.178-.193.354-.287.535a3.977,3.977,0,0,0-.165.374,16.709,16.709,0,0,1-.274,1.943,7.125,7.125,0,0,1-1.162,2.485,8.609,8.609,0,0,1-1.362,1.446c2.073.866-.411,7.149-.848,8.275a.5.5,0,0,1-.966-.131,2.179,2.179,0,0,0-.3-.925c-.35-.507-.846-1.089-1.283-1.713a.561.561,0,0,1-.136.237c.952,1.48-.294,4.793-.688,5.987a.528.528,0,0,1-.287.319,1.135,1.135,0,0,1,.214.577c.038.562.047,1.12.038,1.675a3.262,3.262,0,0,0,1.17.742,3.2,3.2,0,0,0,.807.457.389.389,0,0,0,.311.114,6.007,6.007,0,0,0,.6.162.361.361,0,0,0,.267-.045.393.393,0,0,0,.071-.041A.859.859,0,0,0,914.8,1358.408Z" transform="translate(20663.936 -942.293)" fill="#476036"/>
      <path id="Path_376" data-name="Path 376" d="M845.366,1450.637a1.975,1.975,0,0,0-.146-.92c.029-.1.058-.2.086-.307-.09.01-.177.012-.266.018a1.555,1.555,0,0,0-1.839-.221c-.072.029-.144.074-.216.11-.091.045-.183.083-.273.138-1.674,1.021-2.694,3.08-3.559,4.762-.169.329-.4.765-.591,1.228a3.868,3.868,0,0,0-.273.345c-.052.074-.1.155-.144.233a5.325,5.325,0,0,0-.628,1.641c-.425,1.968-.087,4.342-.049,6.1a.993.993,0,0,0,1.48.85,10.843,10.843,0,0,0,3.588-3.808,24.661,24.661,0,0,0,2.638-9.386A2.847,2.847,0,0,0,845.366,1450.637Z" transform="translate(20724.457 -1034.424)" fill="#f9e65d"/>
      <path id="Path_377" data-name="Path 377" d="M964.873,1241.767c.158-1.112-.441-1.99-.848-3a25.823,25.823,0,0,1-1.227-3.766c-.047-.2-.144-.285-.246-.294-.157-.014-.323.16-.33.428a14.335,14.335,0,0,0,.523,4.386c.23.793.538,2.377,1.441,2.693a.98.98,0,0,0,.27.057C964.7,1242.29,964.846,1241.96,964.873,1241.767Z" transform="translate(20622.236 -859.052)" fill="#f9e65d"/>
      <path id="Path_378" data-name="Path 378" d="M904.012,1322.172a.822.822,0,0,0,.048-.3.731.731,0,0,0-.024-.117c0-.046,0-.091,0-.137a2.829,2.829,0,0,0-.133-1.529c-.02-.06-.109-.127-.165-.061a2.554,2.554,0,0,1-.419.4.3.3,0,0,0-.138.065l-.156.123a3.273,3.273,0,0,1-1,.348c-.022-.027-.046-.053-.069-.081a4.248,4.248,0,0,0-1.1.072,3.98,3.98,0,0,0-2.2,1.249,4.237,4.237,0,0,0-.862,1.494,4.644,4.644,0,0,0-.184.712,14.5,14.5,0,0,0-.16,1.759,10.8,10.8,0,0,1-.409,2.991,3.038,3.038,0,0,0-.156,2.063,1.844,1.844,0,0,0,.1.225c-.052.047-.1.095-.151.143a3.018,3.018,0,0,0-.807,1.261,2.364,2.364,0,0,0,.028,1.335c.014.049.035.1.052.145-.048-.023-.1-.039-.146-.057a2.038,2.038,0,0,0-1.989.4,2.523,2.523,0,0,0-.508.6.066.066,0,0,1,0,.024c-.281,1.923,1.254,2.437,2.049,3.835a4.086,4.086,0,0,1,.523,2.494c-.015.15-.193.159-.211.005a5.251,5.251,0,0,0-1.023-2.784c-.356-.446-.819-.8-1.143-1.276a2.332,2.332,0,0,1-.359-2.034,3.344,3.344,0,0,0-.147.338,3,3,0,0,0-.638,1.133,4.235,4.235,0,0,0,1.578,4.42,7.836,7.836,0,0,0,1.262.912.475.475,0,0,0,.435.025.528.528,0,0,0,.287-.319c.393-1.194,1.64-4.507.688-5.987a.555.555,0,0,0,.136-.238c.438.624.933,1.206,1.283,1.713a2.18,2.18,0,0,1,.3.925.494.494,0,0,0,.966.131c.436-1.126,2.921-7.409.848-8.275a8.606,8.606,0,0,0,1.362-1.446,7.121,7.121,0,0,0,1.162-2.485,16.758,16.758,0,0,0,.274-1.943,3.913,3.913,0,0,1,.165-.375c.094-.181.192-.358.287-.535a4.29,4.29,0,0,0,.354-.814A3.526,3.526,0,0,0,904.012,1322.172Zm-5.036,14.282c-.061.145-.182.011-.16-.1.292-1.426.305-4.381-1.658-4.7-.084-.014-.1-.2,0-.2C899.354,1331.458,899.6,1334.979,898.976,1336.455Zm2.333-11.591a7.657,7.657,0,0,0-1.909.589,3.457,3.457,0,0,0-1.463,1.81c-.028.078-.084-.009-.07-.06a3.64,3.64,0,0,1,1.559-2.211,7.1,7.1,0,0,1,1.642-.593c.89-.3,1.08-.934,1.334-1.745.044-.138.17-.036.17.066A1.936,1.936,0,0,1,901.308,1324.864Z" transform="translate(20679.408 -928.846)" fill="#f9e65d"/>
      <path id="Path_379" data-name="Path 379" d="M1022.625,1218.409a17.624,17.624,0,0,1-.149,2.067c-.113.639-.307,1.259-.378,1.906-.013.119.1.391.223.372.035-.005.07-.031.1-.1a6.429,6.429,0,0,0,.293-.687,4.8,4.8,0,0,0,.155-3.382,2.458,2.458,0,0,0-.121-.264C1022.695,1218.229,1022.629,1218.352,1022.625,1218.409Z" transform="translate(20573.236 -845.615)" fill="#ffcb4a"/>
      <path id="Path_380" data-name="Path 380" d="M895.131,1291.025a5.416,5.416,0,0,0,1.178-.026,4.405,4.405,0,0,0,.752-.167,2.759,2.759,0,0,0,.584,1.214c.023.026.047.052.069.08a3.291,3.291,0,0,0,1-.348l.156-.123a.3.3,0,0,1,.138-.065,2.589,2.589,0,0,0,.419-.4c.056-.066.145,0,.165.061a2.827,2.827,0,0,1,.133,1.528c0,.046,0,.092,0,.137a.731.731,0,0,1,.024.117,1.735,1.735,0,0,0,.843-.108,1.1,1.1,0,0,0,.314-.2,1.311,1.311,0,0,0,.194-.234,6.223,6.223,0,0,0,.269.669,3.858,3.858,0,0,0,.333.588c1.465,2.036,3.915.967,5.727,2.224a.11.11,0,0,0,.154-.014.208.208,0,0,0,.125-.062c1.027-1,.778-2.586.046-3.742a4.027,4.027,0,0,0-.618-.763,6.784,6.784,0,0,0-1.995-1.246q-.431-.187-.867-.346c-.688-.249-1.948-.907-2.683-.55-.014.006-.023.016-.036.023q.025-.434.052-.867c.024-.4-.428-1.577-1.058-1.168a5.089,5.089,0,0,0-.675.53l-.067,0a3.589,3.589,0,0,0-2.227.9,2.063,2.063,0,0,0-.578,1.324c-3.678.494-8.307-1.714-9.77-5.17-.058-.139-.16,0-.143.1.013.075.037.144.053.218a5.888,5.888,0,0,0,2.133,3.372,9.068,9.068,0,0,0,1.243.846A11.87,11.87,0,0,0,895.131,1291.025Z" transform="translate(20683.717 -900.013)" fill="#ffcb4a"/>
      <path id="Path_381" data-name="Path 381" d="M1006.389,1306.746c.085.277.344,0,.291-.2a10.1,10.1,0,0,0-4.717-6.2c-.053-.03-.068.1-.031.124A11.9,11.9,0,0,1,1006.389,1306.746Z" transform="translate(20589.754 -912.762)" fill="#ffcb4a"/>
      <path id="Path_382" data-name="Path 382" d="M1035.821,1294.382c-.1.031-.085.295.032.282,1.414-.152,2.482.516,3.824.748a7.1,7.1,0,0,0,3.517-.542c.119-.043.078-.341-.059-.289a6.093,6.093,0,0,1-4.683.117A3.98,3.98,0,0,0,1035.821,1294.382Z" transform="translate(20562.061 -907.786)" fill="#ffcb4a"/>
      <path id="Path_383" data-name="Path 383" d="M1085.1,1537.353c-.41-.31-.824-.594-1.223-.846a8.04,8.04,0,0,0-1.912-.825c-.18-.052-.363-.1-.544-.133a1.625,1.625,0,0,0-.441-.074.379.379,0,0,0-.269-.014.4.4,0,0,0-.126.015,1.394,1.394,0,0,0-1.415.857.488.488,0,0,0,.047.433s.009.007.013.011a5.668,5.668,0,0,0,1.841,1.2l.2.15c.222.165.439.34.656.515a15.834,15.834,0,0,1,2.674,3.844q.287.544.569,1.119a5.741,5.741,0,0,0,2.192,2.518,4.446,4.446,0,0,0,2.642.575.5.5,0,0,0,.348-.839c-1.11-1.158-1.012-3.076-1.616-4.506a4.174,4.174,0,0,0-.412-1.259A6.244,6.244,0,0,0,1085.1,1537.353Zm-5.136-.837-.056.021a.145.145,0,0,1,.056-.031A.1.1,0,0,1,1079.965,1536.516Zm8.088,7.78a22.341,22.341,0,0,0-2.018-4.028,11.461,11.461,0,0,0-3.757-3.272c-.064-.035-.049-.212.027-.174,2.742,1.377,5.6,4.116,5.964,7.328C1088.284,1544.288,1088.152,1544.5,1088.053,1544.3Z" transform="translate(20526.555 -1105.146)" fill="#ffc239"/>
      <path id="Path_384" data-name="Path 384" d="M1012.3,1517.36c.024-.04-.011-.181-.064-.119a8.041,8.041,0,0,1-2.976,1.916c-.355.154-.711.306-1.065.458a14.431,14.431,0,0,0-1.709.835c-1.242.742-2.925,1.575-3.48,2.988-.04.1.055.464.206.3a18.964,18.964,0,0,1,5.409-3.692C1009.969,1519.334,1011.489,1518.715,1012.3,1517.36Z" transform="translate(20588.863 -1090.24)" fill="#ffc239"/>
      <path id="Path_385" data-name="Path 385" d="M1124.909,1502.407c-.025.01-.018.07.013.061a9.1,9.1,0,0,1,4.933-.165c1.009.241,1.992.6,3.022.748a4.59,4.59,0,0,0,3.946-.883c.069-.061.045-.324-.08-.261-2.413,1.215-4.345.443-6.819-.035A8.581,8.581,0,0,0,1124.909,1502.407Z" transform="translate(20489.115 -1077.542)" fill="#ffc239"/>
      <path id="Path_386" data-name="Path 386" d="M1095.754,1411.883c.513-.3.974-.731,1.476-1.062a7.779,7.779,0,0,0,.945-.72,6.1,6.1,0,0,0,2.06-2.244,6.95,6.95,0,0,0,.708-2.406c0-.034.01-.068.014-.1a10.94,10.94,0,0,0-.568-4.4c-.054-.169-.1-.339-.163-.507a1.034,1.034,0,0,0-1.832-.22,7.157,7.157,0,0,1,.085.813,8.91,8.91,0,0,1-1.125,4.151,17.512,17.512,0,0,1-3.293,5.079l.024.023a.9.9,0,0,0-.172.536.838.838,0,0,0,.538.691.8.8,0,0,0,1.207.411c.029-.014.057-.021.086-.039Zm1.154-2.231a9.708,9.708,0,0,0,2.254-7.585c-.029-.194.2-.349.233-.105a9.143,9.143,0,0,1-2.366,7.915C1096.92,1409.98,1096.85,1409.729,1096.908,1409.652Z" transform="translate(20514.473 -994.116)" fill="#ffc239"/>
      <path id="Path_387" data-name="Path 387" d="M1130.413,1465.78c-.038.011-.07.032-.106.046a3.521,3.521,0,0,0-1.016.042c-.025,0-.05.006-.075.011-.385.073-.767.182-1.146.272l-.354.082c-.9.094-1.9.432-2.551.446-.162,0-.325,0-.487-.009a10.352,10.352,0,0,1-1.019.42c-1.59.561-3.293.7-4.915,1.142-1.067.294-2.717,1.492-3.757,1.383a12.28,12.28,0,0,1,.607,2.255c0,.024,0,.047.009.07,1.1-1.394,2.349-2.685,4.178-2.912a6.961,6.961,0,0,1,3.574.737c.546.24,1.386.809,2.275,1.293a3.814,3.814,0,0,0,.309-.23c2.019-.654,3.055-2.63,4.343-4.167.1-.116.2-.23.3-.341C1130.707,1466.177,1130.7,1465.7,1130.413,1465.78Zm-8.036,2.3a.5.5,0,0,0-.02-.126l.128,0Zm5.4.732c.107-.117.213-.235.333-.349.008,0,.015-.009.023-.012C1128.015,1468.582,1127.9,1468.7,1127.774,1468.817Z" transform="translate(20497.221 -1048.133)" fill="#f9e99d"/>
      <path id="Path_388" data-name="Path 388" d="M1045.4,1550.552a20.66,20.66,0,0,1,2.3,8.633c.012.184.194.181.2,0a16.456,16.456,0,0,0-2.46-8.68C1045.416,1550.461,1045.384,1550.525,1045.4,1550.552Z" transform="translate(20554.17 -1117.459)" fill="#f9e99d"/>
      <path id="Path_389" data-name="Path 389" d="M1096.246,1543.014c-.076-.039-.092.138-.027.173a11.47,11.47,0,0,1,3.758,3.272,22.373,22.373,0,0,1,2.018,4.029c.1.209.232-.008.216-.146C1101.843,1547.13,1098.987,1544.39,1096.246,1543.014Z" transform="translate(20512.613 -1111.338)" fill="#f9e99d"/>
      <path id="Path_390" data-name="Path 390" d="M1110.444,1419.227a9.143,9.143,0,0,0,2.366-7.915c-.037-.244-.261-.089-.233.1a9.707,9.707,0,0,1-2.254,7.586C1110.265,1419.08,1110.335,1419.331,1110.444,1419.227Z" transform="translate(20501.057 -1003.467)" fill="#f9e99d"/>
      <path id="Path_391" data-name="Path 391" d="M1088.88,1375.96c-.381,2.04-.711,4.1-1.162,6.129a18.941,18.941,0,0,1-2.912,6.249c-.092.148.028.665.237.442,3.273-3.481,3.354-8.289,3.964-12.77C1089.021,1375.906,1088.9,1375.829,1088.88,1375.96Z" transform="translate(20521.945 -974.583)" fill="#ffcb4a"/>
      <path id="Path_392" data-name="Path 392" d="M973.074,1497.092a13.478,13.478,0,0,0-1.461.294,5.51,5.51,0,0,1-1.88-.154,8.222,8.222,0,0,1-3.178-1.564c-.036-.027-.057.022-.054.061a.056.056,0,0,0,.01.032,9.327,9.327,0,0,0,1.736,1.477c.11.074.223.144.337.214,1.522.932,3.368,1.469,4.5.233.041-.045.087-.08.126-.13C973.306,1497.435,973.269,1497.091,973.074,1497.092Z" transform="translate(20618.732 -1072.592)" fill="#ffcb4a"/>
      <path id="Path_393" data-name="Path 393" d="M1006.9,1383.678c.019-.125-.117-.213-.152-.059a13.75,13.75,0,0,0-.116,6.13c.289,1.273.728,2.88,2.012,3.452.209.093.214-.312.145-.411A12.236,12.236,0,0,1,1006.9,1383.678Z" transform="translate(20586.131 -980.84)" fill="#ffcb4a"/>
      <path id="Path_398" data-name="Path 398" d="M1174.063,1316.886c0,.215.242.3.282.051a11.945,11.945,0,0,0-2.973-9.442c-.1-.113-.17.095-.109.175A14.318,14.318,0,0,1,1174.063,1316.886Z" transform="translate(20451.189 -918.587)" fill="#ffcb4a"/>
      <path id="Path_401" data-name="Path 401" d="M1143.757,1319.893a14.879,14.879,0,0,0,4.771,6.507c.157.117.188-.206.105-.3a26.407,26.407,0,0,1-3.3-4.112c-1.784-2.93-1.647-5.592-.838-8.754a.172.172,0,0,0-.03-.13c-.029-.043-.071-.057-.1.018,0,0,0,0,0,0C1143.61,1315.283,1142.989,1317.646,1143.757,1319.893Z" transform="translate(20473.967 -923.178)" fill="#f9e99d"/>
      <path id="Path_404" data-name="Path 404" d="M814.868,1362.123c-.706-.581-1.286-1.3-1.988-1.887a11.182,11.182,0,0,0-3.947-2c-.062-.019-.064.1-.019.124a24.6,24.6,0,0,1,2.776,1.47,14.167,14.167,0,0,1,2.319,2.328c.781.855,1.807,1.831,3.046,1.645.208-.032.208-.416.032-.492A8.419,8.419,0,0,1,814.868,1362.123Z" transform="translate(20747.713 -960.133)" fill="#f9e99d"/>
      <path id="Path_405" data-name="Path 405" d="M872.788,1297.17c.034.188.206.109.209-.048.037-1.7.252-4.519-.651-6.077-.228-.393-.47-.49-.768-.794a4.538,4.538,0,0,1-1.358-1.766,12.682,12.682,0,0,1-.419-3.415c0-.072-.073-.068-.076,0a9.865,9.865,0,0,0,.8,5.231c.017.03.058.038.074.063.583.9,1.518,1.611,1.791,2.806C872.685,1294.449,872.552,1295.863,872.788,1297.17Z" transform="translate(20697.949 -900.218)" fill="#f9e99d"/>
      <path id="Path_406" data-name="Path 406" d="M803.65,1459.664a22.326,22.326,0,0,1,9.224-7.8c.08-.035.053-.242-.042-.2a19.36,19.36,0,0,0-9.345,7.766C803.417,1459.545,803.528,1459.836,803.65,1459.664Z" transform="translate(20752.146 -1036.584)" fill="#f9e99d"/>
      <path id="Path_407" data-name="Path 407" d="M803.584,1395.747a12.934,12.934,0,0,1-5.829-.491c-.062-.022-.071.108-.02.13a11.035,11.035,0,0,0,4.218.968c1.845.043,3.333-.155,4.983.841.234.142.218-.389.124-.494A3.9,3.9,0,0,0,803.584,1395.747Z" transform="translate(20756.863 -990.428)" fill="#ffcb4a"/>
      <path id="Path_408" data-name="Path 408" d="M897.483,1406.114c.324.475.787.829,1.143,1.276a5.252,5.252,0,0,1,1.023,2.784c.018.154.2.145.211-.006a4.086,4.086,0,0,0-.523-2.494c-.8-1.4-2.33-1.912-2.049-3.836a.063.063,0,0,0,0-.023c-.008-.036-.042-.068-.063-.017a2.763,2.763,0,0,0-.1.282A2.334,2.334,0,0,0,897.483,1406.114Z" transform="translate(20675.58 -997.397)" fill="#ffcb4a"/>
      <path id="Path_409" data-name="Path 409" d="M918.49,1383.059c-.091,0-.079.185,0,.2,1.963.322,1.95,3.277,1.658,4.7-.022.108.1.242.16.1C920.937,1386.582,920.69,1383.061,918.49,1383.059Z" transform="translate(20658.07 -980.448)" fill="#ffcb4a"/>
      <path id="Path_410" data-name="Path 410" d="M927.227,1334.3c-.255.811-.444,1.446-1.334,1.745a7.039,7.039,0,0,0-1.642.594,3.639,3.639,0,0,0-1.559,2.21c-.013.051.042.137.07.06a3.459,3.459,0,0,1,1.463-1.81,7.659,7.659,0,0,1,1.909-.589,1.936,1.936,0,0,0,1.264-2.144C927.4,1334.267,927.27,1334.165,927.227,1334.3Z" transform="translate(20654.584 -940.496)" fill="#ffcb4a"/>
      <g id="Group_8535" data-name="Group 8535" transform="translate(21539.592 482.553)">
        <g id="Group_41" data-name="Group 41" transform="translate(104.828 3.894)">
          <path id="Path_63" data-name="Path 63" d="M719.694,251.485h-22.1V230.932h22.1l-7.072,10.606Z" transform="translate(-697.594 -230.932)" fill="#00578b"/>
          <path id="Path_64" data-name="Path 64" d="M697.665,315.8v3.883l7.2-3.883Z" transform="translate(-697.651 -299.148)" fill="#022f4a"/>
        </g>
        <g id="Group_42" data-name="Group 42" transform="translate(0 3.894)">
          <path id="Path_65" data-name="Path 65" d="M163.433,251.485h22.1V230.932h-22.1l7.072,10.606Z" transform="translate(-163.433 -230.932)" fill="#00578b"/>
          <path id="Path_66" data-name="Path 66" d="M246.457,315.8v3.883l-7.206-3.883Z" transform="translate(-224.372 -299.148)" fill="#022f4a"/>
        </g>
        <rect id="Rectangle_6" data-name="Rectangle 6" width="97.006" height="20.551" transform="translate(15.014 0)" fill="#006cad"/>
      </g>
      <g id="logo-el-universal" transform="translate(21558.322 488.157)">
        <g id="Group_8392" data-name="Group 8392" transform="translate(13.764 0.831)">
          <g id="Group_8391" data-name="Group 8391" transform="translate(0 0)">
            <g id="Group_8390" data-name="Group 8390">
              <path id="Path_57775" data-name="Path 57775" d="M120.306,18.441H114.69V17.89h.8V12.01h-.8v-.55h5.51v1.809h-.676V12.222h-2.137v2.336h.9v-.74h.635V15.85h-.635v-.741h-.9V17.7h2.231V16.505h.687Z" transform="translate(-114.69 -11.281)" fill="#fff"/>
              <path id="Path_57776" data-name="Path 57776" d="M170.99,18.441h-5.52V17.89h.8V12.01h-.8v-.55h3.648v.55h-.952V17.7H170.3V16.505h.686Z" transform="translate(-159.169 -11.281)" fill="#fff"/>
              <path id="Path_57777" data-name="Path 57777" d="M235.857,12.028h-.567v3.977c0,1.926-1.174,2.591-2.983,2.591-1.967,0-2.982-.836-2.982-2.294V12.03h-.645v-.55h3.331v.55h-.793v3.946c0,1.522.6,1.882,1.714,1.882,1.163,0,1.586-.624,1.586-1.882V12.041h-.877V11.48h2.217Z" transform="translate(-214.536 -11.299)" fill="#fff"/>
              <path id="Path_57778" data-name="Path 57778" d="M294.174,17.89h.923v.55h-2.5v-.55h.8V12.316c0-.011-.222-.306-.222-.306h-.8v-.55h2.661l3.374,4.643V12.01h-1.047v-.55h2.581v.55h-.762v6.546h-1.216l-3.8-5.193Z" transform="translate(-270.333 -11.281)" fill="#fff"/>
              <path id="Path_57779" data-name="Path 57779" d="M363,18.441H359.39V17.89h.854V12.011h-.854V11.46H363v.551h-.866V17.89H363Z" transform="translate(-329.028 -11.281)" fill="#fff"/>
              <path id="Path_57780" data-name="Path 57780" d="M398.616,18.629h-1.1l-2.581-6.61h-.584v-.55h3.557v.55H396.87l1.767,4.632,1.787-4.632h-.783v-.55h2.117v.55H401.2Z" transform="translate(-359.651 -11.29)" fill="#fff"/>
              <path id="Path_57781" data-name="Path 57781" d="M465.609,18.449H460.09V17.9h.6V12.02h-.6v-.55H465.5v1.808h-.677V12.231h-2.24v2.338h1v-.741h.634v2.031h-.634v-.741h-1v2.591h2.335V16.514h.687Z" transform="translate(-417.234 -11.29)" fill="#fff"/>
              <path id="Path_57782" data-name="Path 57782" d="M514.17,15.235c1.83-.169,2.2-.983,2.2-1.777,0-1.269-.8-1.988-2.549-1.988H510.3v.55h.888V17.9H510.3v.55h3.521V17.9h-.74V15.711h.274l1.607,2.738h2.3V17.9h-.514l-.962-1.566c-.486-.782-.677-.984-1.618-1.057Zm-1.089-3.056h.084c1.047,0,1.237.423,1.237,1.321s-.136,1.522-1.28,1.522h-.042Z" transform="translate(-461.214 -11.29)" fill="#fff"/>
              <path id="Path_57783" data-name="Path 57783" d="M573,17.415h-.728V15.384H573v1.132a5.149,5.149,0,0,0,1.566.18c.877,0,1.2-.243,1.2-.856,0-.486-.423-.708-1.407-1.185-1.534-.741-2.051-1.237-2.051-2.506,0-1.312.984-1.936,2.3-1.936a3.884,3.884,0,0,1,1.671.391V10.18h.676v1.967h-.676V11.132A4.859,4.859,0,0,0,575.052,11c-.72,0-1.068.222-1.068.751,0,.635.423.814,1.312,1.248,1.206.582,2.1,1.047,2.1,2.453,0,1.343-1.036,2-2.432,2A4.443,4.443,0,0,1,573,17.042Z" transform="translate(-515.495 -10.16)" fill="#fff"/>
              <path id="Path_57784" data-name="Path 57784" d="M617.616,15.234h2.528l.538,1.4h-.856v.55h3.346v-.55h-.607l-2.581-6.61h-1.1L616.3,16.63h-.655v.55H617.8v-.55h-.718Zm2.305-.593h-2.083c.011,0,1.047-2.7,1.047-2.7Z" transform="translate(-553.492 -10.02)" fill="#fff"/>
              <path id="Path_57785" data-name="Path 57785" d="M687.437,18.449h-5.3V17.9h.581V12.02h-.581v-.55h3.221v.55h-.748v5.689h2.137V16.514h.687Z" transform="translate(-611.732 -11.29)" fill="#fff"/>
            </g>
          </g>
        </g>
        <g id="Group_8394" data-name="Group 8394" transform="translate(0 0)">
          <g id="Group_8393" data-name="Group 8393" transform="translate(0 0)">
            <path id="Path_57786" data-name="Path 57786" d="M18.344,48.25c.411.222.712.275,2.175.336.231-.03-.427-.109-.551-.148-.484-.148-.056-.22-.386-.2a4.658,4.658,0,0,1-.953-.063C18.325,48.131,18.017,48.007,18.344,48.25Z" transform="translate(-16.412 -42.547)" fill="#fff"/>
            <path id="Path_57787" data-name="Path 57787" d="M78.17,34.659c.02-.026.04-.052.057-.079C78.208,34.607,78.19,34.633,78.17,34.659Z" transform="translate(-68.937 -30.701)" fill="#fff"/>
            <path id="Path_57788" data-name="Path 57788" d="M40.025,58.326c.113.156.618.177.8.12.153.011.053-.076-.038-.087-.084.017-.18-.074-.2-.065C40.181,58.394,40,58.262,40.025,58.326Z" transform="translate(-35.524 -51.473)" fill="#fff"/>
            <path id="Path_57789" data-name="Path 57789" d="M16.566,7.824c-.656.11-2.4-.243-3.178.087a3.3,3.3,0,0,0,.171-1.1A3.474,3.474,0,1,0,6.8,7.957c-2.709.2-3-.277-3.045-.04a1.492,1.492,0,0,0,1.3,1.125A2,2,0,0,0,6.418,9.7a1.3,1.3,0,0,0,.805.366.705.705,0,0,0,.685.316.385.385,0,0,0,.285.2s-.011.071.079.1a4.738,4.738,0,0,0-1.989.666c.047.227.5.372.627.352a.777.777,0,0,0,.64.429.914.914,0,0,0,.778.264.756.756,0,0,0,.87-.5c.037-.166.154-.408.386-.438a.357.357,0,0,1,.186.114.448.448,0,0,0,.047.612.854.854,0,0,0,.643.069c.13.127.243.029.31.066-.026.045.114.133.239.081s.148-.11.159-.15a.108.108,0,0,0,.034-.125.085.085,0,0,0,.046-.119c.084.022.165-.1.159-.185-.011-.16-.112-.184-.262-.184a1.4,1.4,0,0,1,.692-.186,1.794,1.794,0,0,0,.608-.181c.176-.053.333-.052.475-.084.1-.021.177-.014.238-.03.04.038.158.086.5.036a6.381,6.381,0,0,1,.811-.05c.215-.6-.293-.694-.293-.694-.078-.156-.133-.3-.377-.352s-.309-.046-.34-.163a.343.343,0,0,0-.174.006.525.525,0,0,1,.171-.084c.5-.128.6-.278.665-.354a1.634,1.634,0,0,0,1.062-.366.84.84,0,0,0,.645-.378C16.742,8.736,16.864,7.774,16.566,7.824ZM11.138,9.87a.168.168,0,0,1-.069-.078,1.448,1.448,0,0,0,.431-.2c.273-.168,0,.036-.073.134C11.427,9.73,11.378,9.806,11.138,9.87ZM8.44,7.963S8.4,7.814,8.465,7.8c.117-.034.3-.222.419-.258,0,0,.089-.1-.481.13,0-.053,0-.057,0-.134a.713.713,0,0,1,.19-.078c.012-.069-.138-.025-.182-.051-.026-.03-.006-.094,0-.2a3.467,3.467,0,0,0,.7.113c.04.032.269.156.176.037l0-.022c.056,0,.082,0,.139.006a.284.284,0,0,0,.037.093l.027.034,0,.434c-.052.025-.155.1-.251.143a.5.5,0,0,1-.2.03c.143-.093.2-.2.388-.314,0,0-.107-.1-.516.218a.562.562,0,0,1-.3.091V8.062c.172-.073.406-.356.588-.418C9.186,7.644,9.069,7.573,8.44,7.963Zm-.9.057-.12,0c-.007-.051-.017-.123-.017-.123a.881.881,0,0,0,.438-.107c.109-.052.192-.185.361-.175.015,0,.021.077.026.127-.032.016-.112.032-.141.046C7.9,7.875,7.9,8.006,7.536,8.02ZM11.21,4.073a2.392,2.392,0,0,1,.679.272.5.5,0,0,1-.024.319,3.633,3.633,0,0,0-.686-.412C11.251,4.213,11.246,4.148,11.21,4.073Zm-.917-.195h0c.132.156-.057.367-.418.476a.842.842,0,0,1-.834-.122c-.13-.155,0-.333.365-.439A.969.969,0,0,1,10.293,3.878Zm-2.078.965c-.067.055-.045.133-.063.2-.009.031-.03.091-.055.153-.03.041-.06.082-.087.124a1.431,1.431,0,0,1-.154-.112.394.394,0,0,1-.067-.083,3.543,3.543,0,0,1,.5-.4A.678.678,0,0,1,8.214,4.844ZM10,7.019a.541.541,0,0,1,.077-.14c.034-.051.155-.057.2-.052s.082.02.108.012.055-.035.1-.072.091-.019.133-.012a.32.32,0,0,1,.123.045.155.155,0,0,1,.068.052.226.226,0,0,1,.021.109,6.21,6.21,0,0,1-.872.135A.59.59,0,0,0,10,7.019Zm.736-2.073c-.071.016-.144,0-.172.036s-.031.184-.191.107c-.1-.128-.132-.071-.191-.143a.091.091,0,0,1,.041-.151c.046-.017.038-.063.029-.115s-.076-.065-.047-.153c.01-.034.024-.105.13-.056a3.571,3.571,0,0,1,.429.339C10.831,4.885,10.8,4.931,10.733,4.945ZM8.377,4.192a1.79,1.79,0,0,1,.457-.2c-.029.052-.112.161-.132.2a4.205,4.205,0,0,0-.984.831.5.5,0,0,1,.01-.309A2.459,2.459,0,0,1,8.377,4.192ZM7.732,5.282a.826.826,0,0,0,.18.172,4.181,4.181,0,0,0-.493,1.1A.67.67,0,0,1,7.144,6.2a2.823,2.823,0,0,1,.55-.984C7.7,5.235,7.719,5.266,7.732,5.282ZM7.5,6.778c.074.046.1.1.176.138a1.214,1.214,0,0,0-.22.036C7.465,6.9,7.48,6.834,7.5,6.778ZM7.32,6.669c-.057.019-.18.062-.146.072a1.483,1.483,0,0,1,.2-.01c-.02.089-.045.189-.06.27-.074.025-.213.077-.233.143.055-.011.145-.042.212-.053a1.82,1.82,0,0,0-.019.246.612.612,0,0,0-.132.107c.03-.007.1-.029.133-.035,0,.019,0,.089,0,.108,0,.035-.021-.258,0,.1-.026.04-.068.072-.082.1.015,0,.068-.017.084-.024a2.933,2.933,0,0,0,.052.323.536.536,0,0,1-.179-.122.667.667,0,0,1-.107-.15,3.422,3.422,0,0,1,.05-1.4A1.242,1.242,0,0,0,7.32,6.669Zm-.364.816a3.219,3.219,0,0,1,.037-1.575,1.428,1.428,0,0,0,.045.339A4.41,4.41,0,0,0,6.956,7.485Zm.638-.02c-.068.036-.127.073-.213.122a1.862,1.862,0,0,1,.007-.213,1.357,1.357,0,0,0,.168-.063c.177-.061.19-.123.337-.161,0,0-.052-.068-.412.081-.022.009-.063.037-.086.046a.925.925,0,0,1,.035-.211c.118-.04.153-.1.268-.135a3.577,3.577,0,0,0,.511.218c.007.114.007.285-.065.305a1.637,1.637,0,0,0-.326.19,1.181,1.181,0,0,1-.421.206c-.011-.062-.014-.109-.02-.171a1.845,1.845,0,0,0,.289-.114c.177-.074.227-.2.413-.257C8.082,7.307,8.058,7.22,7.594,7.465Zm-.027-.819c.065-.037.246-.063.208-.092,0,0-.089,0-.192.014a2.866,2.866,0,0,1,.469-.922c.088.088.046.18.158.217.079.058.052.122.109.176l.048.029a8.848,8.848,0,0,0-.143.887A1.935,1.935,0,0,1,7.567,6.647Zm1.051-.426a.122.122,0,0,1,.069.165.2.2,0,0,0,.006.222.523.523,0,0,1,.065.143.465.465,0,0,0,.12.133c.03.024.017.088.017.088a1.127,1.127,0,0,0,.115.1.162.162,0,0,1,.033.03,3.269,3.269,0,0,1-.618-.1A2.765,2.765,0,0,1,8.618,6.221Zm.4.628C8.964,6.737,9,6.7,9.041,6.695s.138.088.161.134.056.072.086.133.065.107.092.159c-.062,0-.154-.006-.213-.009-.02-.031-.01-.057-.025-.073A.6.6,0,0,1,9.016,6.849Zm1.439,1.833a2.739,2.739,0,0,1,.412-.436s.029-.138-.481.227c-.051.025-.1.047-.127.02.148-.117.212-.309.38-.385,0,0-.051-.082-.489.194A.118.118,0,0,1,10,8.3c.124-.1.225-.242.356-.294,0,0-.019-.061-.437.166a.111.111,0,0,1-.119,0c.115-.091.211-.222.331-.266,0,0,0-.06-.418.1a.634.634,0,0,1,0-.082.7.7,0,0,1,.176-.107s-.036-.051-.181,0c0,0,0-.185.007-.27a.689.689,0,0,1,.107.093s.076.027.105.009a.366.366,0,0,1,.231-.05,1.524,1.524,0,0,1,.226.124.116.116,0,0,1,.087.072c.017.053-.011.079,0,.107s.024.046.135.086.128.04.158.065.084.015.108.014.046-.043.071-.051a.588.588,0,0,1,.112,0c.069.02.036.094.037.154,0,.1-.105.139-.171.227C10.7,8.573,10.518,8.9,10.455,8.681Zm.655-.829a.429.429,0,0,0-.226.047.125.125,0,0,1-.17-.045c-.025-.047-.016-.081,0-.18s-.128-.078-.191-.115.009-.125.031-.189-.123-.076-.163-.066-.058.145-.136.185-.1.01-.186-.042a.185.185,0,0,1-.109-.182,8.1,8.1,0,0,0,.836-.145c.071-.011.038.045.107.019a.159.159,0,0,0,.061-.046,2.036,2.036,0,0,1,.062.2c-.026-.009-.078-.021-.105-.034a.525.525,0,0,0-.248.056c-.026.024.05.029.084.041s.091.046.127.058.063.087.128.082c.017,0,.05,0,.06.03a2.545,2.545,0,0,1,.1.354A.14.14,0,0,0,11.11,7.853Zm-.093-.939a.521.521,0,0,0,0-.153c-.016-.065.225-.174.225-.174s.1-.038.169-.076.076-.259.038-.342-.061-.185-.014-.239.19.092.267.063c.057-.021.052-.072.073-.114a4.882,4.882,0,0,1,.314.568,3.646,3.646,0,0,1-1.035.458Zm.577-1.5.1.007c.074.006.182-.009.2-.093a.858.858,0,0,0-.019-.269c-.021-.067-.122-.074-.148-.114l-.007-.01a.9.9,0,0,0,.134-.176,3.347,3.347,0,0,1,.909.973,1.956,1.956,0,0,1-.588.673A5.025,5.025,0,0,0,11.594,5.413Zm.231-.673a.792.792,0,0,1-.136.169.178.178,0,0,0-.154-.03A.126.126,0,0,1,11.4,4.81s.153-.117.082-.18a1.25,1.25,0,0,0-.437-.063c-.133-.037-.124.056-.144.1-.1-.081-.195-.158-.3-.227h.006c0-.143.161-.057.169-.119s-.175-.128-.113-.141A3.857,3.857,0,0,1,11.825,4.741ZM10.4,3.707c-.03-.006-.161-.065-.2-.069.031-.016.043-.025.052-.03a3.17,3.17,0,0,1,.674.109A2.275,2.275,0,0,0,10.4,3.707ZM7.676,4.772a.663.663,0,0,0-.035.329,3.4,3.4,0,0,0-.557,1.031.8.8,0,0,1-.073-.266A3.165,3.165,0,0,1,7.676,4.772Zm.4,3.183c.083-.031.127-.04.135-.043s.022.036.038.132a1.586,1.586,0,0,1-.613.02A1.338,1.338,0,0,0,8.078,7.954Zm2.544,1.071a.257.257,0,0,1-.058-.114c.445-.112.908-.6.635-.287a.747.747,0,0,1-.377.313Zm.67-.186c.254-.194.232-.129.043.022a1.276,1.276,0,0,1-.578.4A.164.164,0,0,1,10.7,9.16,3.686,3.686,0,0,0,11.291,8.839Zm.306.172c-.2.159-.13.21-.5.38-.105.042-.238.094-.243.1a.366.366,0,0,1-.055-.113C11.342,9.225,11.665,8.868,11.6,9.011Zm-.043.308c.184-.112-.048.045-.1.141a1.268,1.268,0,0,1-.463.241.444.444,0,0,1-.068-.1A2.086,2.086,0,0,0,11.555,9.319ZM12.6,8.5c.078-.194.127-.3.1-.4-.009-.043.057-.069-.029-.143s-.423.3-.521.243c-.068-.037-.12.019-.195,0a.153.153,0,0,1-.074-.043,2.989,2.989,0,0,0,1.113-.872,2.788,2.788,0,0,1-1.213.81c-.046-.011-.056.021-.1-.022A.379.379,0,0,0,11.4,8a.506.506,0,0,1-.138-.007.339.339,0,0,0-.077-.1c-.02-.15-.025-.233-.056-.4a.276.276,0,0,1,.072-.01c.072.009.074.047.119.058a.137.137,0,0,0,.129-.079c.011-.038-.053-.076-.114-.1a.74.74,0,0,1-.108-.071c-.035-.021-.108.012-.143.015-.017-.082-.027-.168-.046-.251l.038-.01a3.22,3.22,0,0,0,1.039-.558,4.092,4.092,0,0,1,.393.994,4.3,4.3,0,0,0-.314-1.045,1.745,1.745,0,0,0,.583-.689,2.845,2.845,0,0,1,.34.8,3.187,3.187,0,0,0-.329-.823c.014-.034.024-.067.033-.1-.012.029-.026.058-.04.087a3.44,3.44,0,0,0-.895-1.03.51.51,0,0,0,0-.33,3.078,3.078,0,0,1,.948.929l-.012-.017a2.68,2.68,0,0,0-1.692-1.292l-.1-.047-.35-.066c-.01-.043-.1-.091-.11-.1a1.751,1.751,0,0,1,.565.029,3.209,3.209,0,0,1,2.138,3.026,3.649,3.649,0,0,1-.718,2.022A2.524,2.524,0,0,1,12.6,8.5ZM7.883,12.018a2.282,2.282,0,0,0,1.01-.546.279.279,0,0,0-.02.038A.826.826,0,0,1,7.883,12.018Zm.372.115a.873.873,0,0,0,.771-.455C8.843,12.317,8.372,12.179,8.255,12.133Zm1.706-.057a.3.3,0,0,1-.029-.422c.007-.084.05-.107.033.065-.031.334.216.339.3.383S10.084,12.158,9.961,12.076Zm.519-.189c-.016-.037-.012-.086.079-.164.4-.342-.042-.3.154-.452-.03.1.608.136-.1.489A.458.458,0,0,0,10.48,11.888Zm.629.141c-.009.01-.012-.014-.015-.022a.032.032,0,0,0-.058,0c.053.057.027.135,0,.077a.039.039,0,0,0-.061-.011.1.1,0,0,1-.01.138c-.034.041-.105.056-.115.029s.027-.007.047-.03a.077.077,0,0,0-.032-.112c-.053-.032-.138-.016-.117.043.021.027.048.056-.014.057a.268.268,0,0,1-.087-.01.118.118,0,0,1-.093-.076c0-.045.029.015.067.009.06,0,.086-.136.22-.12a.059.059,0,0,0,.051-.022c.006-.015,0-.029.024-.036a.087.087,0,0,1,.047,0c.036,0,.032-.014.04-.03s.035-.012.06,0C11.12,11.945,11.126,12.012,11.109,12.029Zm.067-.252a.068.068,0,0,1,.047.119c-.033.036-.015-.015-.033-.053a.1.1,0,0,0-.073-.037c-.022-.006-.032-.032-.022-.035A.215.215,0,0,0,11.176,11.777ZM13.3,10.1a.242.242,0,0,0,.21.159c.175.032.407.124.429.282.011.079.483.071.375.39a4.145,4.145,0,0,1-.52-.055c-.015.022.151.036.072.076-.117.067-.681.092-.561-.055.03-.033.153-.051.154-.068a.758.758,0,0,0-.217.016.261.261,0,0,1-.2,0c-.067-.036-.112-.093.06-.13s.068-.032-.083-.027c0,0-.283,0-.278-.053s.128-.063.316-.109c.155-.042-.007-.022-.108-.036,0,0-.247,0-.283-.047s.108-.072.061-.115c-.082.053-.309.032-.252.132a.477.477,0,0,0,.218.084c-.2.046-.151.165-.057.227a.517.517,0,0,0,.1.053c-.166.093-.323.113-.352.078s.093-.065.069-.11c-.738.108-.114-.124-.114-.124-.007-.066-.546.112-.5-.024.086-.046.2-.053.3-.1-.027-.061-.422.031-.478-.031s.125-.045.159-.071a1.243,1.243,0,0,0-.562-.056.641.641,0,0,0-.341-.169.41.41,0,0,0-.263-.23.519.519,0,0,0-.135-.194.561.561,0,0,0-.125-.079A.735.735,0,0,0,10.28,9.5c-.045-.068-.088-.072-.133-.107a.342.342,0,0,0-.076-.176.455.455,0,0,0-.1-.1A.335.335,0,0,0,9.9,8.956c-.257-.462-1.278-.424-2.544-.385a13.4,13.4,0,0,1-2.628-.114c.473.448,2.735.325,3.784.469a3.729,3.729,0,0,1-.989.092c-.069.084.68.216,1.4.264a7.429,7.429,0,0,0-.784.135,4.367,4.367,0,0,0,1.3.2c-.421.092-.906.1-.83.177a4.874,4.874,0,0,0,1.151.087c-.454.172-.847.05-.825.128a1.889,1.889,0,0,0,.483.087,3.832,3.832,0,0,1,.623.026c.027.037-.181.03-.346.061-.4.073-.538,0-.442.072a1.751,1.751,0,0,0,.5.057c.244,0,.5.01.551.084a1.681,1.681,0,0,0-.377.014c-.328.034-.491-.015-.424.045a1.6,1.6,0,0,0,.507.076c.369.03.447.076.514.132l-.094,0c-.262-.031-.541-.017-.788-.041-.048.069.272.068.308.163a3.322,3.322,0,0,1-.849.12c-.05,0-.165-.036-.154-.007s.122.043.176.057a1.724,1.724,0,0,0,.494.025c.072.122-1.057.066-.936.177a3.37,3.37,0,0,1,.565.022c-.036.015.084.047-.3.113-.329.1-.833.737-1.443.607-.139-.056-.161-.1-.169-.113.468.127,1.339-.509,1.339-.509-.208-.1-1.108.517-1.488.4C7.1,11.617,7.1,11.628,7.1,11.6a4.851,4.851,0,0,0,1.272-.527c-.653.074-1.145.391-1.535.377-.081,0-.094,0-.123-.066a6.74,6.74,0,0,1,2.161-.592c-.165-.03-.385-.192-.391-.324-.213-.045-.388-.175-.406-.294a.689.689,0,0,1-.674-.393c-.656,0-.773-.37-.773-.37-1.211,0-1.31-.587-1.31-.587a1.425,1.425,0,0,1-1.158-.635c1,.355,4.742-.114,5.59.27.751.34.862,1.9,2.06,1.7a1.738,1.738,0,0,1-.386-.139,3.535,3.535,0,0,0,.388-.2,7.436,7.436,0,0,0,1.372-1.4c.416-.551,2.582-.139,3.16-.29-.037.2-.289.352-.815.434-.225.035-.06.259-.464.35-.288.065-.3.3-1.051.328a2.639,2.639,0,0,1-.869.392c-.057.012-.113.026-.169.04-.129-.032-.181-.055-.218-.1.158.006.292.016.328-.031-.06-.009-.208-.041-.2-.077.247,0,.522-.014.484-.055a.4.4,0,0,1-.288-.1,1.151,1.151,0,0,0,.613-.062c.025-.036-.334.016-.506-.125l-.009,0c.2-.007,1.359.01,1.28-.132a4.566,4.566,0,0,1-1.128-.063,3.857,3.857,0,0,1,.473-.062c.526-.016,1.341-.033,1.273-.226a6.644,6.644,0,0,1-1.454.021l.037-.025a4.769,4.769,0,0,1,1.1-.139c.18-.022,1.142-.066,1.174-.207a6.6,6.6,0,0,1-1.158.034,2.244,2.244,0,0,0-1.341.2,1.809,1.809,0,0,0-.236.22c-.045.057-.2.252-.236.294a3.779,3.779,0,0,1-.862.836c-.092.051-.189.04-.2.074h0l.061.006a2.482,2.482,0,0,1,1,.269c-.034-.056-.022-.108.051-.146a.337.337,0,0,0,.264.194C13.213,10.133,13.3,10.1,13.3,10.1Z" transform="translate(-3.76 -3.32)" fill="#fff"/>
            <path id="Path_57790" data-name="Path 57790" d="M42.848,60.345c.1.108.3.2.736.083.177.024-.122-.145-.206-.139C43,60.417,42.811,60.269,42.848,60.345Z" transform="translate(-37.994 -53.22)" fill="#fff"/>
            <path id="Path_57791" data-name="Path 57791" d="M80.339,61.035c.144.045.189.331.447.128C80.941,61.04,80,60.931,80.339,61.035Z" transform="translate(-70.773 -53.838)" fill="#fff"/>
            <path id="Path_57792" data-name="Path 57792" d="M45.708,62.2a1.78,1.78,0,0,1-.449.045c.067.1.4.143.676.078.143.006,0-.047-.041-.053C45.763,62.257,45.758,62.184,45.708,62.2Z" transform="translate(-40.105 -54.893)" fill="#fff"/>
            <path id="Path_57793" data-name="Path 57793" d="M29.152,52.518c-.1-.007-.31-.069-.252-.015.114.153.346.326,1.531.241,0-.022-.089-.04-.192-.072-.4-.037-.161-.113-.453-.12A5.479,5.479,0,0,1,29.152,52.518Z" transform="translate(-25.772 -46.381)" fill="#fff"/>
            <path id="Path_57794" data-name="Path 57794" d="M35.1,55.591c-.177-.016-.241-.062-.231-.03.118.285.907.264,1.195.2,0-.024-.093-.042-.141-.063-.342-.06-.135-.084-.315-.11S35.244,55.6,35.1,55.591Z" transform="translate(-31.012 -49.069)" fill="#fff"/>
          </g>
        </g>
      </g>
    </g>
    <path id="Path_278" data-name="Path 278" d="M1203.293,1555.918c-2.341-6.976-2.712-14.866-6.482-21.305a.946.946,0,0,1-.094-.252,30.517,30.517,0,0,0-1.452,3.656.706.706,0,0,1-1.1.473,9.1,9.1,0,0,1-3.367-4.521,1.279,1.279,0,0,0-.437.888c-.7,6.666.977,13.809,3.276,20.057a16.964,16.964,0,0,0,4.311,6.719c2.371,2.2,5.23,3.719,6.917,6.578a.979.979,0,0,0,.5.475q.1-.348.215-.7C1206.99,1563.449,1204.692,1560.086,1203.293,1555.918Z" transform="translate(-147.24 -938.289)" fill="#618854"/>
    <path id="Path_279" data-name="Path 279" d="M1257.1,1529.688l.018.014c0-.039,0-.077,0-.116C1257.108,1529.62,1257.105,1529.654,1257.1,1529.688Z" transform="translate(-203.512 -934.604)" fill="#4b6949"/>
    <path id="Path_280" data-name="Path 280" d="M1250.589,1533.449a.511.511,0,0,1-.411-.125,12.95,12.95,0,0,0-1.312-.909c2.778,5.488,3.785,11.452,5.7,17.4,1.091,3.386,3.09,6.616,3.412,10.21.341,3.8-2.429,6.856-2.278,10.533a.955.955,0,0,0,.319-.205c6.5-6.095,7.485-14.342,5.011-22.56-.667-2.216-1.411-4.408-2.019-6.642-.591-2.171-.716-4.53-1.535-6.631a8.914,8.914,0,0,0-5.421-4.966,10.565,10.565,0,0,0-.767,3.1C1251.283,1533.209,1250.908,1533.548,1250.589,1533.449Z" transform="translate(-196.59 -934.576)" fill="#4b6949"/>
    <path id="Path_281" data-name="Path 281" d="M1243.149,1563.08c-.323-3.595-2.322-6.824-3.412-10.21-1.914-5.946-2.921-11.909-5.7-17.4a6.323,6.323,0,0,1-2.608-2.285q-.091.261-.193.517a.934.934,0,0,0,.094.252c3.771,6.44,4.141,14.33,6.483,21.305,1.4,4.168,3.7,7.531,2.282,12.064q-.111.356-.215.7c-.647,2.158-1.031,4.118.176,6.214.34.59.837-.145.816-.543,0-.029,0-.058,0-.087C1240.721,1569.936,1243.49,1566.881,1243.149,1563.08Z" transform="translate(-181.76 -937.633)" fill="#7ca36d"/>
    <path id="Path_282" data-name="Path 282" d="M1217.515,1274.224a13.559,13.559,0,0,1-.541,1.857,13.466,13.466,0,0,0-.392,4.692,6.129,6.129,0,0,1-.614,3.318,5.028,5.028,0,0,1,1.952.571c.1-.119.2-.239.3-.358a.833.833,0,0,1,.378-.457,22.244,22.244,0,0,0,3.573-6.292,2.478,2.478,0,0,1,.4-.7,8.848,8.848,0,0,0,.078-2.044,2.09,2.09,0,0,0-.056-.328,8,8,0,0,1,.576-2.86c.14-.322.047-1.291-.494-1.22a9.707,9.707,0,0,0-5.132,2.648A6.254,6.254,0,0,1,1217.515,1274.224Z" transform="translate(-168.918 -716.601)" fill="#ffcb4a"/>
    <path id="Path_283" data-name="Path 283" d="M1246.317,1329.393a13.144,13.144,0,0,1-3,2.012q-.287.163-.59.32a6.236,6.236,0,0,1-1.634.669c.052.061.1.122.155.189a11.368,11.368,0,0,1,.891,1.368c.275-.1.615-.193,1.056-.372,1.73-.7,3.144-1.886,4.8-2.722a4.142,4.142,0,0,1,1.785-.464,5.943,5.943,0,0,1,3.447-1.83c.563-.076.6-1.065.208-1.361a8.383,8.383,0,0,0-3.883-2.082c-.15-.018-.283-.019-.417-.022A10.775,10.775,0,0,1,1246.317,1329.393Z" transform="translate(-190.051 -762.607)" fill="#f9e99d"/>
    <path id="Path_284" data-name="Path 284" d="M1257.647,1396.469a13.86,13.86,0,0,1,.25,3.827,6.1,6.1,0,0,1,3.314-1.042c2.27-.076,4.188,1.156,6.331,1.708a3.76,3.76,0,0,0,1.184.071c2.213-.277,2.14-3.885,1.81-5.523a1.692,1.692,0,0,0-.9-1.256,8.819,8.819,0,0,1-4.514,1.612C1262.59,1395.969,1259.873,1395.23,1257.647,1396.469Z" transform="translate(-203.975 -820.774)" fill="#ffcb77"/>
    <path id="Path_286" data-name="Path 286" d="M1228.925,1310.9a.837.837,0,0,0-.378.457c-.1.12-.194.239-.3.358.062.033.123.074.185.11a1.5,1.5,0,0,0,.548,1.362,1.612,1.612,0,0,0,1.307.253,6.212,6.212,0,0,0,1.634-.668c.2-.105.4-.211.591-.32a13.141,13.141,0,0,0,3-2.013,10.763,10.763,0,0,0,2.817-4.294,19.835,19.835,0,0,0,.772-2.62c.068-.3-.08-.989-.509-.959-1.831.125-4.512-.132-5.7,1.345a2.488,2.488,0,0,0-.4.7A22.228,22.228,0,0,1,1228.925,1310.9Zm5.54-2.48a44.332,44.332,0,0,0,3.229-4.1c0-.073,0-.147,0-.22h.1c-.026.069-.054.137-.082.206.034-.044.068-.089.1-.133.093-.117.18.067.139.156-1.492,3.212-4.681,5.929-7.723,7.616-.057.031-.072-.1-.027-.129A25.362,25.362,0,0,0,1234.464,1308.424Z" transform="translate(-179.25 -743.657)" fill="#f9e65d"/>
    <path id="Path_287" data-name="Path 287" d="M1262.354,1361.884c-2.259-1.294-4.539-3.534-7.036-3.468a4.142,4.142,0,0,0-1.786.463c-1.652.836-3.066,2.018-4.8,2.722-.442.18-.781.269-1.056.373.164.293.318.6.464.915a15.461,15.461,0,0,1,1.042,3.076c.027.12.054.24.078.36,2.226-1.239,4.943-.5,7.475-.6a8.821,8.821,0,0,0,4.513-1.612c.364-.219.737-.447,1.139-.682A.957.957,0,0,0,1262.354,1361.884Zm-2.929-.142-.049.009-.859-.483c0-.019,0-.038-.007-.056C1258.818,1361.38,1259.124,1361.558,1259.425,1361.742Zm.84,1.08c-2.051-1.707-4.17-.6-6.44-.118a14.546,14.546,0,0,1-4.868.251c-.043-.005-.049-.1,0-.1a55.244,55.244,0,0,0,7.825-1.3,3.5,3.5,0,0,1,3.594,1.042C1260.433,1362.667,1260.381,1362.918,1260.265,1362.822Z" transform="translate(-195.592 -790.63)" fill="#f9e65d"/>
    <path id="Path_288" data-name="Path 288" d="M1256.18,1426.747a9.866,9.866,0,0,1-.574,2.671c2.16-.585,5.735.808,7.284,2.064a8.163,8.163,0,0,1,1.774,2.115c.117.011.233.025.352.029,2.943.107,3.289-2.2,3.095-4.655-.043-.553-.256-1.266-.913-1.318a8.082,8.082,0,0,1-1.374-.24c-2.142-.552-4.06-1.783-6.331-1.708A6.094,6.094,0,0,0,1256.18,1426.747Zm.689,1.142c-.038,0-.039-.084,0-.084S1256.907,1427.889,1256.87,1427.889Zm10.517,1.554c.154-.1.177.26.1.34-1.031,1.122-2.344.661-3.542.013a12.634,12.634,0,0,0-6.876-1.76c-.05,0-.052-.106,0-.112a10.74,10.74,0,0,1,4.9.428C1263.807,1429,1265.4,1430.742,1267.387,1429.444Z" transform="translate(-202.258 -847.226)" fill="#ffd176"/>
    <path id="Path_289" data-name="Path 289" d="M1196.639,1483.325a.706.706,0,0,0,1.1-.472,30.562,30.562,0,0,1,1.452-3.656c.069-.17.133-.343.194-.517a5.485,5.485,0,0,1-.479-1.2,23.043,23.043,0,0,1-.4-4.207,12.9,12.9,0,0,0-.631-2.815c-.02-.019-.042-.037-.062-.055a4.466,4.466,0,0,0-.219-.643,3.209,3.209,0,0,0-.148-.3,2.117,2.117,0,0,0-2.385-.994c-.24.079-.284.489-.237.685,0,.014.007.028.01.043-.072-.037-.146-.067-.218-.108-.015.026-.026.054-.041.08a1.437,1.437,0,0,1-.044.863,12.847,12.847,0,0,0-1.038,4.809,11.984,11.984,0,0,1-.18,3.067,2.05,2.05,0,0,1-.176.369c.039.18.08.357.13.528A9.094,9.094,0,0,0,1196.639,1483.325Zm-1.19-14.55c1.349.561,1.56,2.232,1.673,3.546a6.666,6.666,0,0,1-.244,2.258.153.153,0,0,1-.043.168c-.015.055-.029.11-.045.165,0-.005,0-.011.007-.011s.013.029,0,.029-.009-.007-.009-.013c-.486,1.739-1.2,3.375-.2,5.32.033.065-.024.2-.1.122a3.823,3.823,0,0,1-.84-3.292,12.526,12.526,0,0,1,.8-2.391c.53-1.393.758-4.818-1.031-5.737C1195.364,1468.907,1195.373,1468.743,1195.449,1468.775Z" transform="translate(-149.719 -883.125)" fill="#ffc239"/>
    <path id="Path_290" data-name="Path 290" d="M1242.82,1464c-.176-.078-.358-.143-.538-.211l-.055.055c.046.006.047.11,0,.11-.031,0-.041-.041-.035-.074a6.7,6.7,0,0,1-.756.691,8.907,8.907,0,0,1,4.15,4.089,8.361,8.361,0,0,1,.6,2.694c1.386,1.483,3.746,2.958,5.6,2.008.764-.393.734-1.589.329-2.219a3.7,3.7,0,0,0-.806-.908,22.193,22.193,0,0,1-3.623-1.385C1245.635,1467.718,1244.454,1465.605,1242.82,1464Z" transform="translate(-190.34 -879.263)" fill="#ffcb77"/>
    <path id="Path_291" data-name="Path 291" d="M1224.408,1468.715a7.041,7.041,0,0,1-1.587.92,5.41,5.41,0,0,1-1.63.407,4.508,4.508,0,0,1,.219.642c.02.019.042.037.062.056a12.9,12.9,0,0,1,.631,2.815,23.075,23.075,0,0,0,.4,4.207,5.516,5.516,0,0,0,.479,1.2,6.321,6.321,0,0,0,2.608,2.285,12.908,12.908,0,0,1,1.312.909.514.514,0,0,0,.411.125c.319.1.694-.24.7-.793a10.545,10.545,0,0,1,.768-3.1,7.275,7.275,0,0,0,.387-1.768,8.736,8.736,0,0,0-.005-1.116,8.365,8.365,0,0,0-.6-2.694A8.913,8.913,0,0,0,1224.408,1468.715Zm-.1,6.819c.064.261.121.525.173.789A4.086,4.086,0,0,1,1224.308,1475.534Zm3.093,5.476a5.355,5.355,0,0,1-.486-2.507l-.019-.014c.007-.034.01-.068.017-.1,0-.573.028-1.156,0-1.746a8.3,8.3,0,0,0-3.163-6.329c-.04-.032-.031-.184.037-.15,4.3,2.157,3.064,6.865,3.878,10.669C1227.705,1481.016,1227.522,1481.249,1227.4,1481.01Z" transform="translate(-173.311 -883.405)" fill="#f9e65d"/>
    <path id="Path_292" data-name="Path 292" d="M1256.177,1450.426c-1.548-1.256-5.124-2.649-7.284-2.064a7.373,7.373,0,0,1-1.08,1.951c-.06.076-.125.148-.188.222q.206.182.4.374c1.633,1.6,2.815,3.716,4.863,4.85a22.111,22.111,0,0,0,3.624,1.386,7.688,7.688,0,0,1,3.556,2.153c.466.54.731-.356.595-.735a5.929,5.929,0,0,0-1.073-1.86,14.1,14.1,0,0,0-1.64-4.161A8.167,8.167,0,0,0,1256.177,1450.426Z" transform="translate(-195.545 -866.17)" fill="#f9e65d"/>
    <path id="Path_293" data-name="Path 293" d="M1193.372,1466.137c-.012-.012-.025-.021-.037-.032l-.029.042Z" transform="translate(-149.855 -881.209)" fill="#eaa654"/>
    <path id="Path_364" data-name="Path 364" d="M1216.434,1507.379c-.015.056-.028.113-.043.169A.155.155,0,0,0,1216.434,1507.379Z" transform="translate(-169.273 -915.925)" fill="#eaa654"/>
    <path id="Path_365" data-name="Path 365" d="M1216.113,1509.434c.012,0,.012-.029,0-.029s-.006.006-.007.011a.016.016,0,0,0,0,0C1216.1,1509.427,1216.107,1509.434,1216.113,1509.434Z" transform="translate(-169.031 -917.629)" fill="#eaa654"/>
    <path id="Path_367" data-name="Path 367" d="M1218.853,1378.548a29.462,29.462,0,0,1,2.8,8.741c.015.089.112.057.1-.025a21.276,21.276,0,0,0-2.831-8.81C1218.886,1378.381,1218.828,1378.5,1218.853,1378.548Z" transform="translate(-171.34 -807.466)" fill="#956777"/>
    <path id="Path_368" data-name="Path 368" d="M1210.3,1381.058a85.247,85.247,0,0,1,2.933,8.562c.039.13.155.051.13-.059a48.231,48.231,0,0,0-2.992-8.57C1210.338,1380.914,1210.277,1381,1210.3,1381.058Z" transform="translate(-164.146 -809.595)" fill="#956777"/>
    <path id="Path_369" data-name="Path 369" d="M1201.259,1385.566a71.59,71.59,0,0,1,2.093,7.641c.033.137.144.047.13-.058a32.463,32.463,0,0,0-2.143-7.657C1201.3,1385.4,1201.237,1385.5,1201.259,1385.566Z" transform="translate(-156.543 -813.375)" fill="#956777"/>
    <path id="Path_370" data-name="Path 370" d="M1193.951,1402.052c.422,1.212.789,2.469,1.3,3.648.064.149.195,0,.162-.11-.358-1.246-.865-2.462-1.307-3.68C1194.041,1401.74,1193.91,1401.935,1193.951,1402.052Z" transform="translate(-150.393 -827.158)" fill="#956777"/>
    <path id="Path_394" data-name="Path 394" d="M1263.4,1439.025c.037,0,.035-.084,0-.084S1263.367,1439.025,1263.4,1439.025Z" transform="translate(-208.793 -858.362)" fill="#ffcb4a"/>
    <path id="Path_395" data-name="Path 395" d="M1264.63,1439.148c-.049.005-.047.114,0,.112a12.633,12.633,0,0,1,6.875,1.76c1.2.648,2.511,1.109,3.542-.013.074-.08.05-.441-.1-.34-1.985,1.3-3.58-.447-5.417-1.091A10.718,10.718,0,0,0,1264.63,1439.148Z" transform="translate(-209.816 -858.449)" fill="#ffcb4a"/>
    <path id="Path_396" data-name="Path 396" d="M1246.184,1464.161c-.007.032,0,.073.035.073.048,0,.046-.1,0-.11,0,0,0,0,0,0C1246.2,1464.123,1246.187,1464.141,1246.184,1464.161Z" transform="translate(-194.33 -879.542)" fill="#ffcb4a"/>
    <path id="Path_397" data-name="Path 397" d="M1237.206,1477.8c-.069-.034-.077.117-.037.15a8.3,8.3,0,0,1,3.163,6.329c.028.59,0,1.173,0,1.746,0,.039,0,.077,0,.116a5.358,5.358,0,0,0,.486,2.508c.121.238.3.005.265-.179C1240.27,1484.663,1241.5,1479.954,1237.206,1477.8Z" transform="translate(-186.73 -891.04)" fill="#ffcb4a"/>
    <path id="Path_399" data-name="Path 399" d="M1240.387,1320.281c3.042-1.686,6.23-4.4,7.723-7.616.042-.089-.046-.273-.139-.156-.035.043-.068.089-.1.132l-.012.015a44.305,44.305,0,0,1-3.229,4.1,25.327,25.327,0,0,1-4.267,3.4C1240.315,1320.181,1240.33,1320.312,1240.387,1320.281Z" transform="translate(-189.412 -751.987)" fill="#ffcb4a"/>
    <path id="Path_400" data-name="Path 400" d="M1263.347,1377.647a55.226,55.226,0,0,1-7.824,1.3c-.046,0-.041.095,0,.1a14.565,14.565,0,0,0,4.869-.251c2.269-.484,4.389-1.59,6.439.118.116.1.169-.155.108-.227A3.5,3.5,0,0,0,1263.347,1377.647Z" transform="translate(-202.16 -806.724)" fill="#ffcb4a"/>
    <path id="Path_402" data-name="Path 402" d="M1208.325,1476.729a12.549,12.549,0,0,0-.8,2.392,3.82,3.82,0,0,0,.841,3.292c.073.083.132-.056.1-.122-1-1.945-.288-3.58.2-5.32v0c.015-.055.03-.11.045-.165s.029-.112.043-.168a6.674,6.674,0,0,0,.243-2.258c-.113-1.313-.324-2.985-1.674-3.546-.075-.032-.085.132-.025.162C1209.083,1471.911,1208.854,1475.336,1208.325,1476.729Z" transform="translate(-161.59 -885.18)" fill="#f9e99d"/>
    <path id="Path_403" data-name="Path 403" d="M1203.307,1291.142a3.386,3.386,0,0,1-.1,3.3c-.043.082.02.4.14.26a2.883,2.883,0,0,0,.479-3.459c-.608-1.574-1.007-2.384-.068-4,.29-.5.813-.864,1.094-1.368a3.539,3.539,0,0,0,.432-1.82c0-.047-.058-.066-.062-.011-.12,1.764-2.117,2.829-2.326,4.655a4.47,4.47,0,0,0,.159,1.817A5.46,5.46,0,0,0,1203.307,1291.142Z" transform="translate(-157.895 -728.053)" fill="#f9e99d"/>
  </g>
</svg>
