<svg xmlns="http://www.w3.org/2000/svg" width="155.326" height="116.788" viewBox="0 0 155.326 116.788">
  <g id="Group_8630" data-name="Group 8630" transform="translate(-19025.443 -4267.082)">
    <path id="Path_60466" data-name="Path 60466" d="M132.822,86.369a71.4,71.4,0,0,0-63.036,104.9H195.858a71.4,71.4,0,0,0-63.036-104.9Z" transform="translate(18970.283 4190.918)" fill="#ecf1f7"/>
    <g id="Group_8589" data-name="Group 8589" transform="translate(19026.443 4382.87)">
      <line id="Line_365" data-name="Line 365" x2="8.502" transform="translate(134.136)" fill="none" stroke="#000" stroke-linecap="round" stroke-linejoin="round" stroke-width="2"/>
      <line id="Line_366" data-name="Line 366" x2="6.581" transform="translate(146.745)" fill="none" stroke="#000" stroke-linecap="round" stroke-linejoin="round" stroke-width="2"/>
      <line id="Line_367" data-name="Line 367" x1="120.538" transform="translate(8.741)" fill="none" stroke="#000" stroke-linecap="round" stroke-linejoin="round" stroke-width="2"/>
      <line id="Line_368" data-name="Line 368" x1="4.457" fill="none" stroke="#000" stroke-linecap="round" stroke-linejoin="round" stroke-width="2"/>
    </g>
    <g id="Group_8610" data-name="Group 8610" transform="translate(19055.756 4267.332)">
      <g id="Group_8604" data-name="Group 8604" transform="translate(0 0)">
        <g id="Group_8603" data-name="Group 8603" transform="translate(0 0)">
          <rect id="Rectangle_3315" data-name="Rectangle 3315" width="82.435" height="114.613" transform="translate(0 0)" fill="#fff" stroke="#000" stroke-linecap="round" stroke-linejoin="round" stroke-width="0.5"/>
          <g id="Group_8600" data-name="Group 8600" transform="translate(4.58 19.695)">
            <g id="Group_8597" data-name="Group 8597" transform="translate(34.013)">
              <rect id="Rectangle_3316" data-name="Rectangle 3316" width="18.569" height="1.405" transform="translate(0 4.185)" fill="#dee1ef"/>
              <rect id="Rectangle_3317" data-name="Rectangle 3317" width="18.569" height="1.405" transform="translate(0 6.293)" fill="#dee1ef"/>
              <rect id="Rectangle_3318" data-name="Rectangle 3318" width="18.569" height="1.405" transform="translate(0 8.401)" fill="#dee1ef"/>
              <rect id="Rectangle_3319" data-name="Rectangle 3319" width="18.569" height="1.405" transform="translate(0 10.508)" fill="#dee1ef"/>
              <rect id="Rectangle_3320" data-name="Rectangle 3320" width="18.569" height="1.405" transform="translate(0 12.616)" fill="#dee1ef"/>
              <rect id="Rectangle_3321" data-name="Rectangle 3321" width="11.205" height="1.405" transform="translate(0 14.724)" fill="#dee1ef"/>
              <rect id="Rectangle_3322" data-name="Rectangle 3322" width="18.569" height="1.405" transform="translate(0 16.831)" fill="#dee1ef"/>
              <rect id="Rectangle_3323" data-name="Rectangle 3323" width="18.569" height="1.405" transform="translate(0 18.939)" fill="#dee1ef"/>
              <rect id="Rectangle_3324" data-name="Rectangle 3324" width="18.569" height="1.405" transform="translate(0 21.046)" fill="#dee1ef"/>
              <rect id="Rectangle_3325" data-name="Rectangle 3325" width="18.569" height="1.405" transform="translate(0 23.154)" fill="#dee1ef"/>
              <rect id="Rectangle_3326" data-name="Rectangle 3326" width="18.569" height="1.405" transform="translate(0 25.262)" fill="#dee1ef"/>
              <rect id="Rectangle_3327" data-name="Rectangle 3327" width="18.569" height="1.405" transform="translate(0 27.369)" fill="#dee1ef"/>
              <rect id="Rectangle_3328" data-name="Rectangle 3328" width="7.523" height="1.405" transform="translate(0 29.448)" fill="#dee1ef"/>
              <rect id="Rectangle_3329" data-name="Rectangle 3329" width="18.569" height="1.405" transform="translate(0 2.093)" fill="#dee1ef"/>
              <rect id="Rectangle_3330" data-name="Rectangle 3330" width="18.569" height="1.405" fill="#dee1ef"/>
            </g>
            <g id="Group_8598" data-name="Group 8598" transform="translate(54.49)">
              <rect id="Rectangle_3331" data-name="Rectangle 3331" width="18.571" height="1.405" transform="translate(0 4.185)" fill="#dee1ef"/>
              <rect id="Rectangle_3332" data-name="Rectangle 3332" width="18.571" height="1.405" transform="translate(0 2.093)" fill="#dee1ef"/>
              <rect id="Rectangle_3333" data-name="Rectangle 3333" width="18.571" height="1.405" fill="#dee1ef"/>
              <rect id="Rectangle_3334" data-name="Rectangle 3334" width="18.571" height="1.405" transform="translate(0 6.293)" fill="#dee1ef"/>
              <rect id="Rectangle_3335" data-name="Rectangle 3335" width="18.571" height="1.405" transform="translate(0 8.401)" fill="#dee1ef"/>
              <rect id="Rectangle_3336" data-name="Rectangle 3336" width="18.571" height="1.405" transform="translate(0 10.508)" fill="#dee1ef"/>
              <rect id="Rectangle_3337" data-name="Rectangle 3337" width="18.571" height="1.405" transform="translate(0 12.616)" fill="#dee1ef"/>
              <rect id="Rectangle_3338" data-name="Rectangle 3338" width="18.571" height="1.405" transform="translate(0 14.724)" fill="#dee1ef"/>
              <rect id="Rectangle_3339" data-name="Rectangle 3339" width="18.571" height="1.405" transform="translate(0 16.831)" fill="#dee1ef"/>
              <rect id="Rectangle_3340" data-name="Rectangle 3340" width="14.889" height="1.405" transform="translate(0 18.939)" fill="#dee1ef"/>
              <rect id="Rectangle_3341" data-name="Rectangle 3341" width="18.571" height="1.405" transform="translate(0 21.046)" fill="#dee1ef"/>
              <rect id="Rectangle_3342" data-name="Rectangle 3342" width="18.571" height="1.405" transform="translate(0 23.154)" fill="#dee1ef"/>
              <rect id="Rectangle_3343" data-name="Rectangle 3343" width="18.571" height="1.405" transform="translate(0 25.262)" fill="#dee1ef"/>
              <rect id="Rectangle_3344" data-name="Rectangle 3344" width="18.571" height="1.405" transform="translate(0 27.369)" fill="#dee1ef"/>
              <rect id="Rectangle_3345" data-name="Rectangle 3345" width="11.206" height="1.405" transform="translate(0 29.448)" fill="#dee1ef"/>
            </g>
            <rect id="Rectangle_3346" data-name="Rectangle 3346" width="73.061" height="1.224" transform="translate(0 42.403)" fill="#dee1ef"/>
            <rect id="Rectangle_3347" data-name="Rectangle 3347" width="23.568" height="7.347" transform="translate(49.493 33.016)" fill="#4dc7b8"/>
            <rect id="Rectangle_3348" data-name="Rectangle 3348" width="48.208" height="7.347" transform="translate(0 33.016)" fill="#4dc7b8"/>
            <g id="Group_8599" data-name="Group 8599" transform="translate(25.154 69.455)">
              <rect id="Rectangle_3349" data-name="Rectangle 3349" width="22.987" height="1.715" fill="#dee1ef"/>
              <rect id="Rectangle_3350" data-name="Rectangle 3350" width="22.987" height="1.715" transform="translate(0 2.572)" fill="#dee1ef"/>
              <rect id="Rectangle_3351" data-name="Rectangle 3351" width="22.987" height="1.715" transform="translate(0 5.144)" fill="#dee1ef"/>
              <rect id="Rectangle_3352" data-name="Rectangle 3352" width="22.987" height="1.715" transform="translate(0 7.716)" fill="#dee1ef"/>
              <rect id="Rectangle_3353" data-name="Rectangle 3353" width="22.987" height="1.715" transform="translate(0 10.287)" fill="#dee1ef"/>
              <rect id="Rectangle_3354" data-name="Rectangle 3354" width="22.987" height="1.714" transform="translate(0 12.86)" fill="#dee1ef"/>
              <rect id="Rectangle_3355" data-name="Rectangle 3355" width="22.987" height="1.714" transform="translate(0 15.432)" fill="#dee1ef"/>
              <rect id="Rectangle_3356" data-name="Rectangle 3356" width="22.987" height="1.715" transform="translate(0 18.003)" fill="#dee1ef"/>
              <rect id="Rectangle_3357" data-name="Rectangle 3357" width="8.67" height="1.715" transform="translate(0 20.575)" fill="#dee1ef"/>
              <rect id="Rectangle_3358" data-name="Rectangle 3358" width="23.353" height="1.715" transform="translate(24.285)" fill="#dee1ef"/>
              <rect id="Rectangle_3359" data-name="Rectangle 3359" width="23.353" height="1.715" transform="translate(24.285 2.572)" fill="#dee1ef"/>
              <rect id="Rectangle_3360" data-name="Rectangle 3360" width="23.353" height="1.715" transform="translate(24.285 5.144)" fill="#dee1ef"/>
              <rect id="Rectangle_3361" data-name="Rectangle 3361" width="23.353" height="1.715" transform="translate(24.285 7.716)" fill="#dee1ef"/>
              <rect id="Rectangle_3362" data-name="Rectangle 3362" width="23.353" height="1.715" transform="translate(24.285 10.287)" fill="#dee1ef"/>
              <rect id="Rectangle_3363" data-name="Rectangle 3363" width="23.353" height="1.714" transform="translate(24.285 12.86)" fill="#dee1ef"/>
              <rect id="Rectangle_3364" data-name="Rectangle 3364" width="23.353" height="1.714" transform="translate(24.285 15.432)" fill="#dee1ef"/>
              <rect id="Rectangle_3365" data-name="Rectangle 3365" width="23.353" height="1.715" transform="translate(24.285 18.003)" fill="#dee1ef"/>
              <rect id="Rectangle_3366" data-name="Rectangle 3366" width="15.116" height="1.715" transform="translate(24.285 20.575)" fill="#dee1ef"/>
            </g>
          </g>
          <line id="Line_370" data-name="Line 370" x2="73.061" transform="translate(4.58 4.569)" fill="none" stroke="#1f2f6d" stroke-linecap="round" stroke-linejoin="round" stroke-width="1"/>
          <line id="Line_371" data-name="Line 371" x2="73.061" transform="translate(4.58 3.132)" fill="none" stroke="#1f2f6d" stroke-linecap="round" stroke-linejoin="round" stroke-width="1"/>
          <line id="Line_372" data-name="Line 372" x2="73.061" transform="translate(4.58 14.529)" fill="none" stroke="#1f2f6d" stroke-linecap="round" stroke-linejoin="round" stroke-width="1"/>
          <line id="Line_373" data-name="Line 373" x2="73.061" transform="translate(4.58 16.066)" fill="none" stroke="#1f2f6d" stroke-linecap="round" stroke-linejoin="round" stroke-width="1"/>
          <rect id="Rectangle_3367" data-name="Rectangle 3367" width="6.476" height="1.802" transform="translate(71.164 11.047)" fill="#dee1ef"/>
          <rect id="Rectangle_3368" data-name="Rectangle 3368" width="31.372" height="31.333" transform="translate(4.58 19.695)" fill="#c4ad76"/>
          <rect id="Rectangle_3369" data-name="Rectangle 3369" width="23.568" height="22.29" transform="translate(4.657 89.15)" fill="#006cad"/>
          <g id="Group_8602" data-name="Group 8602" transform="translate(4.657 64.864)">
            <rect id="Rectangle_3370" data-name="Rectangle 3370" width="23.568" height="22.29" transform="translate(49.146)" fill="#006cad"/>
            <g id="Group_8601" data-name="Group 8601">
              <rect id="Rectangle_3371" data-name="Rectangle 3371" width="22.987" height="1.715" transform="translate(24.651)" fill="#dee1ef"/>
              <rect id="Rectangle_3372" data-name="Rectangle 3372" width="22.987" height="1.715" transform="translate(24.651 2.572)" fill="#dee1ef"/>
              <rect id="Rectangle_3373" data-name="Rectangle 3373" width="22.987" height="1.714" transform="translate(24.651 5.144)" fill="#dee1ef"/>
              <rect id="Rectangle_3374" data-name="Rectangle 3374" width="22.987" height="1.714" transform="translate(24.651 7.716)" fill="#dee1ef"/>
              <rect id="Rectangle_3375" data-name="Rectangle 3375" width="22.987" height="1.715" transform="translate(24.651 10.287)" fill="#dee1ef"/>
              <rect id="Rectangle_3376" data-name="Rectangle 3376" width="22.987" height="1.714" transform="translate(24.651 12.86)" fill="#dee1ef"/>
              <rect id="Rectangle_3377" data-name="Rectangle 3377" width="22.987" height="1.714" transform="translate(24.651 15.432)" fill="#dee1ef"/>
              <rect id="Rectangle_3378" data-name="Rectangle 3378" width="22.987" height="1.715" transform="translate(24.651 18.003)" fill="#dee1ef"/>
              <rect id="Rectangle_3379" data-name="Rectangle 3379" width="12.52" height="1.715" transform="translate(24.651 20.575)" fill="#dee1ef"/>
              <rect id="Rectangle_3380" data-name="Rectangle 3380" width="23.353" height="1.715" fill="#dee1ef"/>
              <rect id="Rectangle_3381" data-name="Rectangle 3381" width="23.353" height="1.715" transform="translate(0 2.572)" fill="#dee1ef"/>
              <rect id="Rectangle_3382" data-name="Rectangle 3382" width="23.353" height="1.714" transform="translate(0 5.144)" fill="#dee1ef"/>
              <rect id="Rectangle_3383" data-name="Rectangle 3383" width="23.353" height="1.714" transform="translate(0 7.716)" fill="#dee1ef"/>
              <rect id="Rectangle_3384" data-name="Rectangle 3384" width="23.353" height="1.715" transform="translate(0 10.287)" fill="#dee1ef"/>
              <rect id="Rectangle_3385" data-name="Rectangle 3385" width="23.353" height="1.714" transform="translate(0 12.86)" fill="#dee1ef"/>
              <rect id="Rectangle_3386" data-name="Rectangle 3386" width="23.353" height="1.714" transform="translate(0 15.432)" fill="#dee1ef"/>
              <rect id="Rectangle_3387" data-name="Rectangle 3387" width="23.353" height="1.715" transform="translate(0 18.003)" fill="#dee1ef"/>
              <rect id="Rectangle_3388" data-name="Rectangle 3388" width="11.616" height="1.715" transform="translate(0 20.575)" fill="#dee1ef"/>
            </g>
          </g>
        </g>
        <g id="logo-el-universal" transform="translate(12.914 6.654)">
          <g id="Group_8392" data-name="Group 8392" transform="translate(8.622 0.507)">
            <g id="Group_8391" data-name="Group 8391">
              <g id="Group_8390" data-name="Group 8390">
                <path id="Path_57775" data-name="Path 57775" d="M1031.157,103.169h-3.516v-.345h.5V99.14h-.5V98.8h3.451v1.133h-.423v-.656h-1.338v1.463h.563v-.463h.4v1.272h-.4v-.464h-.563V102.7h1.4v-.747h.43Z" transform="translate(-1027.64 -98.684)" fill="#0069a2"/>
                <path id="Path_57776" data-name="Path 57776" d="M1041.534,103.169h-3.458v-.345h.5V99.14h-.5V98.8h2.285v.344h-.6V102.7h1.338v-.748h.43Z" transform="translate(-1034.13 -98.684)" fill="#0069a2"/>
                <path id="Path_57777" data-name="Path 57777" d="M1055.563,99.144h-.355v2.491c0,1.206-.735,1.622-1.868,1.622-1.231,0-1.868-.524-1.868-1.437V99.143h-.4V98.8h2.087v.344h-.5v2.472c0,.954.378,1.179,1.073,1.179.729,0,.993-.39.993-1.179V99.151h-.55V98.8h1.389Z" transform="translate(-1042.208 -98.687)" fill="#0069a2"/>
                <path id="Path_57778" data-name="Path 57778" d="M1065.283,102.824h.579v.344H1064.3v-.344h.5V99.333c0-.007-.139-.192-.139-.192h-.5V98.8h1.667l2.113,2.908V99.14h-.656V98.8h1.617v.344h-.477v4.1h-.762l-2.379-3.252Z" transform="translate(-1050.349 -98.684)" fill="#0069a2"/>
                <path id="Path_57779" data-name="Path 57779" d="M1080.195,103.169h-2.262v-.345h.535V99.141h-.535V98.8h2.262v.345h-.542v3.682h.542Z" transform="translate(-1058.914 -98.684)" fill="#0069a2"/>
                <path id="Path_57780" data-name="Path 57780" d="M1087.789,103.281h-.691l-1.617-4.14h-.365V98.8h2.228v.344h-.65l1.106,2.9,1.119-2.9h-.49V98.8h1.326v.344h-.352Z" transform="translate(-1063.382 -98.685)" fill="#0069a2"/>
                <path id="Path_57781" data-name="Path 57781" d="M1102.085,103.169h-3.457v-.345h.378V99.142h-.378V98.8h3.391v1.133h-.424v-.656h-1.4v1.465h.628v-.464h.4v1.272h-.4v-.464h-.628V102.7h1.463v-.748h.429Z" transform="translate(-1071.784 -98.685)" fill="#0069a2"/>
                <path id="Path_57782" data-name="Path 57782" d="M1111.371,101.156c1.146-.105,1.378-.616,1.378-1.113,0-.8-.5-1.245-1.6-1.245h-2.206v.344h.557v3.683h-.557v.344h2.206v-.344h-.464v-1.371h.172l1.006,1.715h1.442v-.345h-.322l-.6-.981c-.3-.489-.424-.616-1.014-.661v-.028Zm-.682-1.914h.053c.656,0,.775.265.775.827s-.085.954-.8.954h-.026Z" transform="translate(-1078.201 -98.685)" fill="#0069a2"/>
                <path id="Path_57783" data-name="Path 57783" d="M1122.14,103.065h-.456v-1.272h.456v.709a3.217,3.217,0,0,0,.981.113c.549,0,.754-.152.754-.536,0-.3-.265-.444-.881-.742-.961-.464-1.285-.775-1.285-1.57,0-.822.616-1.212,1.438-1.212a2.438,2.438,0,0,1,1.047.245v-.264h.424v1.231h-.424v-.635a3.032,3.032,0,0,0-.768-.08c-.45,0-.669.139-.669.47,0,.4.265.511.822.781.755.365,1.318.656,1.318,1.536,0,.841-.649,1.252-1.523,1.252a2.784,2.784,0,0,1-1.231-.259Z" transform="translate(-1086.121 -98.521)" fill="#0069a2"/>
                <path id="Path_57784" data-name="Path 57784" d="M1131.832,101.766h1.583l.337.874h-.537v.344h2.1v-.344h-.38l-1.617-4.14h-.688l-1.617,4.14h-.41v.344h1.344v-.344h-.45Zm1.444-.371h-1.3c.007,0,.656-1.689.656-1.689Z" transform="translate(-1091.666 -98.5)" fill="#0069a2"/>
                <path id="Path_57785" data-name="Path 57785" d="M1147.583,103.169h-3.318v-.344h.363V99.142h-.363V98.8h2.017v.344h-.468v3.563h1.339v-.748h.431Z" transform="translate(-1100.163 -98.685)" fill="#0069a2"/>
              </g>
            </g>
          </g>
          <g id="Group_8394" data-name="Group 8394" transform="translate(0)">
            <g id="Group_8393" data-name="Group 8393">
              <path id="Path_57786" data-name="Path 57786" d="M1007.9,106.418c.257.139.446.172,1.362.21.144-.019-.267-.068-.345-.092-.3-.093-.035-.138-.241-.125a2.921,2.921,0,0,1-.6-.04C1007.885,106.344,1007.693,106.266,1007.9,106.418Z" transform="translate(-1006.687 -102.86)" fill="#0069a2"/>
              <path id="Path_57787" data-name="Path 57787" d="M1020.133,103.6c.013-.016.025-.033.036-.05C1020.157,103.565,1020.146,103.581,1020.133,103.6Z" transform="translate(-1014.35 -101.132)" fill="#0069a2"/>
              <path id="Path_57788" data-name="Path 57788" d="M1012.3,108.441c.071.1.387.111.5.075.1.007.033-.047-.024-.054-.053.011-.112-.047-.123-.04C1012.392,108.483,1012.281,108.4,1012.3,108.441Z" transform="translate(-1009.475 -104.163)" fill="#0069a2"/>
              <path id="Path_57789" data-name="Path 57789" d="M1012.862,99.967a9.792,9.792,0,0,0-1.991.054,2.075,2.075,0,0,0,.107-.689,2.176,2.176,0,1,0-4.231.718c-1.7.127-1.881-.174-1.907-.025a.935.935,0,0,0,.816.7,1.252,1.252,0,0,0,.848.415.814.814,0,0,0,.5.229.442.442,0,0,0,.429.2.24.24,0,0,0,.18.128s-.007.045.05.064a2.969,2.969,0,0,0-1.246.417c.03.143.317.233.393.221a.488.488,0,0,0,.4.27.571.571,0,0,0,.487.165.473.473,0,0,0,.544-.312c.023-.1.1-.255.24-.275a.226.226,0,0,1,.117.072.28.28,0,0,0,.03.383.535.535,0,0,0,.4.043c.082.079.152.018.194.041-.016.028.072.083.15.05s.092-.069.1-.094a.068.068,0,0,0,.021-.079.053.053,0,0,0,.033-.068l0-.006c.053.014.1-.065.1-.116-.007-.1-.07-.115-.164-.115a.873.873,0,0,1,.434-.116,1.134,1.134,0,0,0,.381-.114c.11-.033.208-.033.3-.053.064-.013.111-.009.15-.019.025.024.1.054.316.023a3.936,3.936,0,0,1,.508-.03c.135-.374-.183-.435-.183-.435-.049-.1-.083-.186-.236-.22s-.193-.03-.213-.1a.215.215,0,0,0-.109,0,.316.316,0,0,1,.107-.054c.31-.08.377-.174.416-.222a1.026,1.026,0,0,0,.666-.229.526.526,0,0,0,.4-.237C1012.972,100.538,1013.048,99.936,1012.862,99.967Zm-3.4,1.282a.107.107,0,0,1-.045-.049.9.9,0,0,0,.27-.123c.171-.1,0,.023-.046.084C1009.643,101.161,1009.612,101.208,1009.461,101.249Zm-1.69-1.2s-.027-.093.016-.1c.073-.021.186-.139.263-.161,0,0,.056-.062-.3.082,0-.033,0-.036,0-.084a.447.447,0,0,1,.12-.049c.008-.043-.086-.015-.114-.032s0-.06,0-.123a2.164,2.164,0,0,0,.437.071c.025.02.169.1.111.023l0-.014.087,0a.172.172,0,0,0,.023.059l.017.021,0,.272c-.033.016-.1.062-.157.09a.312.312,0,0,1-.125.019c.091-.058.125-.127.244-.2,0,0-.067-.062-.324.137a.348.348,0,0,1-.188.057v-.005c.108-.046.254-.223.369-.262C1008.239,99.854,1008.166,99.81,1007.772,100.053Zm-.567.036-.075,0c-.005-.032-.011-.077-.011-.077a.555.555,0,0,0,.275-.067c.068-.033.12-.116.226-.109.01,0,.013.048.016.079-.02.01-.07.02-.09.03-.113.056-.113.138-.341.147Zm2.3-2.471a1.5,1.5,0,0,1,.425.17.31.31,0,0,1-.015.2,2.269,2.269,0,0,0-.43-.258C1009.532,97.705,1009.529,97.664,1009.507,97.618Zm-.575-.122h0c.082.1-.036.23-.262.3a.528.528,0,0,1-.522-.076c-.082-.1,0-.208.228-.275a.608.608,0,0,1,.555.053Zm-1.3.605c-.042.034-.028.083-.04.126-.005.019-.019.057-.034.1s-.038.051-.055.078a.915.915,0,0,1-.1-.07.239.239,0,0,1-.042-.052,2.185,2.185,0,0,1,.313-.25A.417.417,0,0,1,1007.63,98.1Zm1.117,1.362a.343.343,0,0,1,.048-.087c.021-.032.1-.036.128-.033a.255.255,0,0,0,.068.008.2.2,0,0,0,.06-.045c.026-.023.057-.011.083-.008a.2.2,0,0,1,.077.028.094.094,0,0,1,.043.033.147.147,0,0,1,.013.068,3.869,3.869,0,0,1-.546.085.327.327,0,0,0,.027-.049Zm.459-1.3c-.044.01-.09,0-.108.023s-.019.115-.12.067c-.06-.08-.082-.045-.12-.09a.058.058,0,0,1,0-.081.055.055,0,0,1,.024-.014c.03-.011.024-.04.018-.073s-.047-.04-.03-.1c.006-.021.015-.066.082-.035a2.231,2.231,0,0,1,.27.212C1009.269,98.126,1009.249,98.155,1009.207,98.164Zm-1.474-.472a1.107,1.107,0,0,1,.286-.127c-.018.033-.07.1-.082.126a2.626,2.626,0,0,0-.616.521.311.311,0,0,1,.006-.194A1.537,1.537,0,0,1,1007.732,97.692Zm-.4.683a.529.529,0,0,0,.113.108,2.618,2.618,0,0,0-.309.686.421.421,0,0,1-.172-.217,1.769,1.769,0,0,1,.344-.616C1007.31,98.345,1007.32,98.365,1007.328,98.375Zm-.148.937c.047.03.06.062.111.086a.77.77,0,0,0-.138.023C1007.161,99.386,1007.17,99.347,1007.18,99.312Zm-.11-.068c-.036.012-.113.039-.092.045a.932.932,0,0,1,.126-.006c-.012.056-.028.118-.037.169-.047.016-.133.048-.146.09.034-.007.09-.026.133-.033a1.151,1.151,0,0,0-.012.154.378.378,0,0,0-.082.067c.018,0,.06-.018.083-.022,0,.012,0,.056,0,.068s-.013-.162,0,.062c-.016.025-.042.045-.051.062l.053-.015a1.8,1.8,0,0,0,.033.2.333.333,0,0,1-.112-.076.421.421,0,0,1-.067-.094,2.148,2.148,0,0,1,.03-.878.778.778,0,0,0,.14.2Zm-.228.51a2.017,2.017,0,0,1,.022-.985.891.891,0,0,0,.028.212,2.777,2.777,0,0,0-.05.774Zm.4-.012c-.043.022-.079.046-.133.076a1.082,1.082,0,0,1,.005-.133.884.884,0,0,0,.1-.04c.111-.038.12-.077.21-.1,0,0-.033-.043-.258.051-.014.005-.039.023-.054.03a.6.6,0,0,1,.021-.132c.074-.025.1-.063.168-.085a2.254,2.254,0,0,0,.32.137c0,.071,0,.18-.041.191a1.015,1.015,0,0,0-.2.12.739.739,0,0,1-.264.129c-.007-.039-.008-.068-.012-.107a1.174,1.174,0,0,0,.18-.071c.111-.047.143-.124.259-.161,0,0-.012-.056-.3.1Zm-.017-.512c.04-.023.154-.04.13-.058a1,1,0,0,0-.12.009,1.8,1.8,0,0,1,.293-.578c.056.055.03.113.1.136.05.037.033.076.068.11l.03.018a5.565,5.565,0,0,0-.09.555A1.21,1.21,0,0,1,1007.225,99.23Zm.658-.267a.076.076,0,0,1,.046.1l0,.006a.122.122,0,0,0,0,.139.32.32,0,0,1,.04.09.3.3,0,0,0,.076.083c.019.015.011.055.011.055a.737.737,0,0,0,.073.065.1.1,0,0,1,.021.019,2.061,2.061,0,0,1-.387-.06,1.728,1.728,0,0,1,.12-.494Zm.25.393c-.033-.07-.009-.093.015-.1s.086.055.1.084.035.045.054.083.04.067.057.1c-.039,0-.1,0-.133-.005-.012-.02-.006-.036-.015-.046A.366.366,0,0,1,1008.133,99.356Zm.9,1.148a1.726,1.726,0,0,1,.258-.273s.018-.086-.3.142c-.032.016-.064.03-.079.012.092-.073.133-.193.238-.24,0,0-.032-.051-.306.12a.073.073,0,0,1-.092,0c.078-.06.14-.15.223-.184,0,0-.012-.038-.274.1a.07.07,0,0,1-.075,0c.073-.057.132-.139.208-.166,0,0,0-.037-.262.06a.381.381,0,0,1,0-.051.438.438,0,0,1,.11-.067s-.022-.032-.113,0c0,0,0-.116.005-.169a.447.447,0,0,1,.067.058s.047.017.066.006a.229.229,0,0,1,.144-.03.96.96,0,0,1,.142.078.072.072,0,0,1,.054.045c.011.033-.007.05,0,.067s.015.03.085.054.08.025.1.04.053.009.067.009.03-.028.045-.032a.331.331,0,0,1,.07,0c.043.012.022.06.024.1,0,.065-.066.087-.107.143-.14.116-.251.321-.291.183Zm.41-.519a.273.273,0,0,0-.141.03.079.079,0,0,1-.107-.028c-.015-.03-.01-.051,0-.113s-.08-.049-.12-.073.006-.078.02-.118-.077-.047-.1-.041-.037.09-.086.116-.06.006-.116-.026a.116.116,0,0,1-.068-.114,5,5,0,0,0,.524-.09c.045-.007.024.028.067.012a.1.1,0,0,0,.038-.03,1.258,1.258,0,0,1,.039.123c-.016-.006-.049-.013-.066-.021a.327.327,0,0,0-.156.035c-.016.015.03.018.053.026s.057.03.079.036.04.054.08.051a.034.034,0,0,1,.037.019,1.545,1.545,0,0,1,.063.222.081.081,0,0,0-.037-.015Zm-.057-.588a.32.32,0,0,0,0-.1c-.01-.041.141-.109.141-.109s.06-.024.106-.047.047-.163.024-.214-.038-.116-.008-.15.12.057.167.039.033-.045.046-.071a3.07,3.07,0,0,1,.2.356,2.274,2.274,0,0,1-.648.287Zm.36-.94c.017,0,.039,0,.06,0,.047,0,.114-.005.128-.058a.536.536,0,0,0-.012-.169c-.013-.042-.076-.047-.093-.071l0-.006a.568.568,0,0,0,.084-.11,2.1,2.1,0,0,1,.571.61,1.233,1.233,0,0,1-.369.421A3.132,3.132,0,0,0,1009.747,98.457Zm.144-.421a.478.478,0,0,1-.086.106.11.11,0,0,0-.1-.019.08.08,0,0,1-.087-.043s.1-.073.052-.113a.781.781,0,0,0-.273-.04c-.083-.023-.078.035-.09.063-.06-.051-.122-.1-.185-.143h0c0-.09.1-.036.106-.075s-.11-.08-.071-.09a2.42,2.42,0,0,1,.728.352Zm-.891-.648c-.018,0-.1-.04-.127-.043.02-.01.027-.016.033-.019a1.965,1.965,0,0,1,.422.069A1.412,1.412,0,0,0,1009,97.388Zm-1.708.667a.418.418,0,0,0-.021.206,2.132,2.132,0,0,0-.349.646.516.516,0,0,1-.046-.166,1.98,1.98,0,0,1,.417-.685Zm.252,1.993c.052-.019.079-.025.084-.027s.014.023.024.082a.993.993,0,0,1-.384.012.835.835,0,0,0,.275-.067Zm1.593.671a.159.159,0,0,1-.036-.071c.279-.07.569-.376.4-.18a.468.468,0,0,1-.236.2Zm.421-.116c.16-.12.146-.081.028.014a.8.8,0,0,1-.362.253.1.1,0,0,1-.035-.066,2.3,2.3,0,0,0,.369-.2Zm.192.108c-.125.1-.082.131-.316.237l-.152.06a.234.234,0,0,1-.034-.071c.341-.093.543-.317.5-.227Zm-.027.192c.115-.07-.03.028-.06.09a.8.8,0,0,1-.29.15.277.277,0,0,1-.042-.062,1.306,1.306,0,0,0,.392-.178Zm.652-.516c.049-.12.079-.188.064-.25-.005-.027.036-.043-.018-.09s-.265.191-.327.152c-.043-.023-.075.012-.122,0a.094.094,0,0,1-.047-.028,1.871,1.871,0,0,0,.7-.546,1.746,1.746,0,0,1-.76.507c-.03-.007-.035.013-.06-.014a.239.239,0,0,0-.178-.043.332.332,0,0,1-.086,0,.208.208,0,0,0-.048-.065c-.012-.094-.016-.146-.035-.248a.184.184,0,0,1,.045-.006c.045.006.047.03.074.037a.086.086,0,0,0,.081-.05c.007-.024-.033-.047-.071-.064a.472.472,0,0,1-.068-.045c-.022-.013-.067.008-.09.009-.011-.051-.017-.105-.03-.157l.024-.006a2.011,2.011,0,0,0,.65-.35,2.567,2.567,0,0,1,.246.625,2.686,2.686,0,0,0-.2-.654,1.091,1.091,0,0,0,.365-.431,1.781,1.781,0,0,1,.213.5,1.979,1.979,0,0,0-.206-.515c.009-.021.015-.042.021-.062-.008.018-.016.037-.025.054a2.152,2.152,0,0,0-.56-.645.319.319,0,0,0,0-.206,1.924,1.924,0,0,1,.6.582l-.008-.011a1.68,1.68,0,0,0-1.06-.809l-.062-.03-.219-.041c-.006-.028-.06-.057-.069-.06a1.089,1.089,0,0,1,.354.018,2.009,2.009,0,0,1,1.339,1.9,2.285,2.285,0,0,1-.45,1.267,1.618,1.618,0,0,1,.023-.21Zm-2.952,2.207a1.427,1.427,0,0,0,.633-.342.174.174,0,0,0-.012.024A.517.517,0,0,1,1007.423,102.594Zm.233.073a.548.548,0,0,0,.483-.285c-.114.4-.409.315-.483.284Zm1.069-.036a.188.188,0,0,1-.018-.264c0-.053.03-.067.021.041-.02.21.135.212.187.24s-.113.034-.19-.017Zm.325-.118c-.01-.023-.008-.054.05-.1.252-.214-.026-.189.1-.283-.018.06.381.085-.063.306a.285.285,0,0,0-.083.079Zm.394.09c-.005.006-.008-.008-.009-.014a.02.02,0,0,0-.027-.01.017.017,0,0,0-.01.01c.033.036.017.085,0,.048a.024.024,0,0,0-.033-.01l-.005,0a.065.065,0,0,1-.006.086c-.021.025-.066.035-.072.018s.017,0,.03-.019a.048.048,0,0,0-.014-.067l-.006,0c-.033-.02-.086-.01-.073.027.013.017.03.035-.008.036a.168.168,0,0,1-.055-.006.074.074,0,0,1-.058-.047c0-.028.018.009.042.005s.054-.085.138-.075a.037.037,0,0,0,.032-.014c0-.009,0-.018.015-.022a.052.052,0,0,1,.03,0c.022,0,.02-.008.025-.019s.022-.008.037,0a.052.052,0,0,1,.027.069Zm.042-.157a.042.042,0,0,1,.044.041.041.041,0,0,1-.014.033c-.021.023-.009-.009-.021-.033a.066.066,0,0,0-.046-.023c-.014,0-.02-.02-.014-.022a.129.129,0,0,0,.051,0Zm1.332-1.051a.15.15,0,0,0,.131.1c.11.02.255.078.271.176.007.05.3.045.235.244a2.613,2.613,0,0,1-.326-.034c-.01.014.1.023.045.048-.073.042-.427.057-.351-.034.019-.021.1-.032.1-.043a.484.484,0,0,0-.136.01.164.164,0,0,1-.123,0c-.042-.023-.07-.058.037-.082s.042-.02-.052-.017c0,0-.177,0-.174-.033s.08-.04.2-.069c.1-.026,0-.014-.068-.022,0,0-.155,0-.177-.03s.068-.045.038-.072c-.051.033-.193.02-.158.082a.3.3,0,0,0,.137.053c-.128.03-.1.1-.036.143a.338.338,0,0,0,.06.033c-.1.058-.2.071-.221.049s.058-.04.044-.069c-.462.068-.072-.078-.072-.078,0-.041-.342.07-.315-.015.054-.03.128-.033.188-.06-.017-.038-.264.02-.3-.019s.078-.028.1-.045a.782.782,0,0,0-.352-.035.4.4,0,0,0-.214-.106.256.256,0,0,0-.165-.144.327.327,0,0,0-.085-.12.352.352,0,0,0-.078-.05.473.473,0,0,0-.071-.135c-.028-.042-.055-.045-.083-.067a.212.212,0,0,0-.048-.11.286.286,0,0,0-.065-.065.2.2,0,0,0-.04-.1c-.161-.289-.8-.266-1.593-.241a8.378,8.378,0,0,1-1.646-.071c.3.281,1.712.2,2.37.294a2.322,2.322,0,0,1-.62.057c-.043.053.426.135.874.166a4.6,4.6,0,0,0-.491.085,2.739,2.739,0,0,0,.814.123c-.263.057-.567.06-.52.111a3.054,3.054,0,0,0,.721.054c-.284.108-.531.03-.516.08a1.173,1.173,0,0,0,.3.054,2.408,2.408,0,0,1,.391.016c.017.023-.114.019-.217.038-.251.046-.337,0-.276.045a1.1,1.1,0,0,0,.314.036c.153,0,.316.006.345.053a1.075,1.075,0,0,0-.236.008c-.205.021-.308-.009-.266.028a1,1,0,0,0,.318.048c.231.019.28.047.321.082l-.06,0c-.164-.02-.339-.011-.493-.026-.03.044.17.043.193.1a2.084,2.084,0,0,1-.531.076c-.03,0-.1-.023-.1,0s.076.027.11.036a1.088,1.088,0,0,0,.309.015c.045.076-.661.041-.586.111a2.084,2.084,0,0,1,.354.014c-.022.009.053.03-.19.071-.206.065-.522.462-.9.38-.087-.035-.1-.064-.105-.071.293.079.838-.318.838-.318-.13-.06-.694.324-.931.253-.052-.04-.052-.033-.052-.051a3.023,3.023,0,0,0,.8-.33c-.408.047-.717.245-.961.236-.05,0-.06,0-.077-.041a4.226,4.226,0,0,1,1.355-.375c-.1-.019-.24-.12-.245-.2-.134-.028-.243-.11-.254-.184a.432.432,0,0,1-.422-.246c-.411,0-.484-.232-.484-.232-.759,0-.821-.366-.821-.366a.892.892,0,0,1-.726-.4c.628.222,2.97-.071,3.5.169.47.213.541,1.193,1.291,1.066a1.108,1.108,0,0,1-.24-.087,2.233,2.233,0,0,0,.243-.124,4.655,4.655,0,0,0,.86-.879c.261-.345,1.617-.087,1.98-.182-.023.126-.18.221-.51.272-.141.022-.037.162-.291.219-.18.041-.189.186-.658.205a1.651,1.651,0,0,1-.544.245l-.106.025c-.081-.02-.113-.034-.137-.062.1,0,.183.01.2-.02-.037-.005-.131-.025-.128-.048.155,0,.328-.008.3-.034a.247.247,0,0,1-.18-.065.718.718,0,0,0,.384-.039c.016-.023-.21.01-.317-.078l-.006,0c.128,0,.851.006.8-.082a2.865,2.865,0,0,1-.708-.04,2.358,2.358,0,0,1,.3-.039c.33-.01.841-.021.8-.141a4.142,4.142,0,0,1-.911.013l.023-.016a2.986,2.986,0,0,1,.688-.087c.113-.014.715-.041.735-.13a4.112,4.112,0,0,1-.725.021,1.408,1.408,0,0,0-.841.125,1.149,1.149,0,0,0-.148.138c-.028.036-.123.158-.148.184a2.366,2.366,0,0,1-.54.524c-.058.032-.118.025-.128.047h0a.316.316,0,0,1,.038,0,1.559,1.559,0,0,1,.624.169c-.021-.035-.014-.067.032-.092a.21.21,0,0,0,.166.12c-.031-.08.025-.1.025-.1Z" transform="translate(-1004.84 -97.16)" fill="#0069a2"/>
              <path id="Path_57790" data-name="Path 57790" d="M1012.875,108.866c.06.068.188.123.461.052.111.015-.076-.09-.129-.087C1012.973,108.911,1012.852,108.819,1012.875,108.866Z" transform="translate(-1009.835 -104.418)" fill="#0069a2"/>
              <path id="Path_57791" data-name="Path 57791" d="M1020.61,109c.09.028.118.207.28.08C1020.988,109.005,1020.4,108.937,1020.61,109Z" transform="translate(-1014.618 -104.508)" fill="#0069a2"/>
              <path id="Path_57792" data-name="Path 57792" d="M1013.657,109.223a1.118,1.118,0,0,1-.281.028c.042.065.25.09.424.049.09,0,0-.03-.026-.033C1013.692,109.259,1013.689,109.213,1013.657,109.223Z" transform="translate(-1010.148 -104.661)" fill="#0069a2"/>
              <path id="Path_57793" data-name="Path 57793" d="M1010.17,107.25c-.06,0-.195-.043-.158-.009.071.1.217.2.959.151,0-.014-.056-.025-.12-.045-.253-.023-.1-.071-.284-.075A3.484,3.484,0,0,1,1010.17,107.25Z" transform="translate(-1008.052 -103.42)" fill="#0069a2"/>
              <path id="Path_57794" data-name="Path 57794" d="M1011.38,107.883c-.111-.01-.15-.039-.144-.019.074.18.568.165.748.123,0-.015-.059-.026-.09-.04-.214-.037-.085-.053-.2-.069S1011.468,107.891,1011.38,107.883Z" transform="translate(-1008.817 -103.812)" fill="#0069a2"/>
            </g>
          </g>
        </g>
      </g>
      <g id="Group_8609" data-name="Group 8609" transform="translate(52.09 43.872)">
        <g id="Group_8608" data-name="Group 8608">
          <path id="Path_60467" data-name="Path 60467" d="M165.174,132.1a1.171,1.171,0,0,1-.167-.012A5.884,5.884,0,0,1,160,126.42V65.444a5.376,5.376,0,0,1,5.37-5.37H196.7a5.376,5.376,0,0,1,5.37,5.37V126.42a5.863,5.863,0,0,1-5.419,5.669,1.144,1.144,0,0,1-.142.009Z" transform="translate(-159.995 -60.074)"/>
          <path id="Path_60468" data-name="Path 60468" d="M168.962,134.72a4.7,4.7,0,0,1-4.013-4.512V69.232a4.209,4.209,0,0,1,4.2-4.2h31.34a4.209,4.209,0,0,1,4.2,4.2v60.976a4.729,4.729,0,0,1-4.4,4.512Z" transform="translate(-163.784 -63.862)" fill="#266193"/>
          <path id="Path_60469" data-name="Path 60469" d="M205.842,72.022h-7.667v.83a1.407,1.407,0,0,1-1.407,1.407H184.29a1.407,1.407,0,0,1-1.407-1.407v-.83H174.5a2.559,2.559,0,0,0-2.559,2.559v60.976a2.559,2.559,0,0,0,2.559,2.559h31.34a2.559,2.559,0,0,0,2.559-2.559V74.581A2.559,2.559,0,0,0,205.842,72.022Z" transform="translate(-169.132 -69.211)" fill="#fff"/>
          <g id="Group_8594" data-name="Group 8594" transform="translate(5.316 17.001)">
            <g id="Group_8591" data-name="Group 8591" transform="translate(0 18.365)">
              <g id="Group_8590" data-name="Group 8590" transform="translate(0 4.246)">
                <rect id="Rectangle_3294" data-name="Rectangle 3294" width="31.448" height="0.929" fill="#dee1ef"/>
                <rect id="Rectangle_3295" data-name="Rectangle 3295" width="31.448" height="0.929" transform="translate(0 2.095)" fill="#dee1ef"/>
                <rect id="Rectangle_3296" data-name="Rectangle 3296" width="31.448" height="0.929" transform="translate(0 4.19)" fill="#dee1ef"/>
                <rect id="Rectangle_3297" data-name="Rectangle 3297" width="31.448" height="0.929" transform="translate(0 6.284)" fill="#dee1ef"/>
                <rect id="Rectangle_3298" data-name="Rectangle 3298" width="31.448" height="0.929" transform="translate(0 8.379)" fill="#dee1ef"/>
                <rect id="Rectangle_3299" data-name="Rectangle 3299" width="31.448" height="0.929" transform="translate(0 10.474)" fill="#dee1ef"/>
                <rect id="Rectangle_3300" data-name="Rectangle 3300" width="31.448" height="0.929" transform="translate(0 12.568)" fill="#dee1ef"/>
                <rect id="Rectangle_3301" data-name="Rectangle 3301" width="31.448" height="0.929" transform="translate(0 14.663)" fill="#dee1ef"/>
                <rect id="Rectangle_3302" data-name="Rectangle 3302" width="31.448" height="0.929" transform="translate(0 16.758)" fill="#dee1ef"/>
                <rect id="Rectangle_3303" data-name="Rectangle 3303" width="31.448" height="0.929" transform="translate(0 18.853)" fill="#dee1ef"/>
                <rect id="Rectangle_3304" data-name="Rectangle 3304" width="31.448" height="0.929" transform="translate(0 20.947)" fill="#dee1ef"/>
              </g>
              <rect id="Rectangle_3305" data-name="Rectangle 3305" width="31.448" height="2.347" fill="#dee1ef"/>
            </g>
            <g id="Group_8593" data-name="Group 8593">
              <rect id="Rectangle_3306" data-name="Rectangle 3306" width="12.85" height="15.744" fill="#c4ad76"/>
              <g id="Group_8592" data-name="Group 8592" transform="translate(14.885 0.076)">
                <rect id="Rectangle_3307" data-name="Rectangle 3307" width="16.563" height="0.929" fill="#dee1ef"/>
                <rect id="Rectangle_3308" data-name="Rectangle 3308" width="16.563" height="0.929" transform="translate(0 2.095)" fill="#dee1ef"/>
                <rect id="Rectangle_3309" data-name="Rectangle 3309" width="16.563" height="0.929" transform="translate(0 4.19)" fill="#dee1ef"/>
                <rect id="Rectangle_3310" data-name="Rectangle 3310" width="16.563" height="0.929" transform="translate(0 6.284)" fill="#dee1ef"/>
                <rect id="Rectangle_3311" data-name="Rectangle 3311" width="16.563" height="0.929" transform="translate(0 8.379)" fill="#dee1ef"/>
                <rect id="Rectangle_3312" data-name="Rectangle 3312" width="16.563" height="0.929" transform="translate(0 10.474)" fill="#dee1ef"/>
                <rect id="Rectangle_3313" data-name="Rectangle 3313" width="16.563" height="0.929" transform="translate(0 12.568)" fill="#dee1ef"/>
                <rect id="Rectangle_3314" data-name="Rectangle 3314" width="16.563" height="0.929" transform="translate(0 14.663)" fill="#dee1ef"/>
              </g>
            </g>
          </g>
          <g id="Group_8595" data-name="Group 8595" transform="translate(15.524 2.811)">
            <path id="Path_60470" data-name="Path 60470" d="M235.208,72.844h-8.814a.412.412,0,0,1-.411-.411h0a.412.412,0,0,1,.411-.411h8.814a.412.412,0,0,1,.411.411h0A.412.412,0,0,1,235.208,72.844Z" transform="translate(-225.983 -72.022)" fill="#4a83b4"/>
            <path id="Path_60471" data-name="Path 60471" d="M273.2,72.437a.415.415,0,1,1-.415-.415A.415.415,0,0,1,273.2,72.437Z" transform="translate(-261.459 -72.022)" fill="#4a83b4"/>
          </g>
        </g>
        <g id="logo-el-universal-2" data-name="logo-el-universal" transform="translate(5.384 10.461)">
          <g id="Group_8392-2" data-name="Group 8392" transform="translate(4.722 0.277)">
            <g id="Group_8391-2" data-name="Group 8391">
              <g id="Group_8390-2" data-name="Group 8390">
                <path id="Path_57775-2" data-name="Path 57775" d="M204.875,108.375h-1.926v-.189h.276v-2.017h-.276v-.188h1.89v.621h-.232v-.359h-.733v.8h.308v-.254h.218v.7h-.218v-.254h-.308v.888h.765v-.409h.236Z" transform="translate(-202.949 -105.919)" fill="#0069a2"/>
                <path id="Path_57776-2" data-name="Path 57776" d="M214.031,108.375h-1.894v-.189h.276v-2.017h-.275v-.188h1.252v.188h-.326v1.952h.733v-.41h.236Z" transform="translate(-209.975 -105.919)" fill="#0069a2"/>
                <path id="Path_57777-2" data-name="Path 57777" d="M226.035,106.171h-.195v1.364c0,.661-.4.888-1.023.888-.674,0-1.023-.287-1.023-.787v-1.465h-.221v-.188h1.143v.189h-.272v1.353c0,.522.207.646.588.646.4,0,.544-.214.544-.646v-1.35h-.3v-.192h.761Z" transform="translate(-218.721 -105.921)" fill="#0069a2"/>
                <path id="Path_57778-2" data-name="Path 57778" d="M235.714,108.186h.317v.188h-.855v-.188h.275v-1.912s-.076-.105-.076-.105H235.1v-.189h.913l1.157,1.593v-1.4h-.359v-.188h.885v.188h-.261v2.246h-.417l-1.3-1.782Z" transform="translate(-227.535 -105.919)" fill="#0069a2"/>
                <path id="Path_57779-2" data-name="Path 57779" d="M248.463,108.375h-1.239v-.189h.293v-2.017h-.293v-.189h1.239v.189h-.3v2.017h.3Z" transform="translate(-236.808 -105.919)" fill="#0069a2"/>
                <path id="Path_57780-2" data-name="Path 57780" d="M255.012,108.437h-.378l-.885-2.267h-.2v-.188h1.221v.189h-.356l.606,1.589.613-1.589h-.269v-.189h.726v.189H255.9Z" transform="translate(-241.645 -105.919)" fill="#0069a2"/>
                <path id="Path_57781-2" data-name="Path 57781" d="M267.337,108.376h-1.893v-.189h.207V106.17h-.207v-.189H267.3v.62h-.232v-.359H266.3v.8h.344v-.254h.217v.7h-.217v-.254H266.3v.888h.8v-.409h.235Z" transform="translate(-250.741 -105.919)" fill="#0069a2"/>
                <path id="Path_57782-2" data-name="Path 57782" d="M275.856,107.273c.628-.058.755-.337.755-.61,0-.435-.276-.682-.875-.682h-1.208v.189h.3v2.017h-.3v.189h1.208v-.189h-.254v-.751h.094l.551.939h.789v-.189h-.176l-.33-.537c-.167-.268-.232-.338-.555-.362v-.015Zm-.374-1.048h.029c.359,0,.424.145.424.453s-.047.522-.439.522h-.014Z" transform="translate(-257.688 -105.919)" fill="#0069a2"/>
                <path id="Path_57783-2" data-name="Path 57783" d="M285.991,108.23h-.25v-.7h.25v.388a1.761,1.761,0,0,0,.537.062c.3,0,.413-.083.413-.294,0-.167-.145-.243-.483-.407-.526-.254-.7-.424-.7-.86s.338-.664.788-.664a1.331,1.331,0,0,1,.573.134v-.145h.232v.674h-.232v-.348a1.666,1.666,0,0,0-.421-.044c-.247,0-.367.076-.367.258,0,.218.145.279.45.427.414.2.722.359.722.842,0,.461-.355.686-.834.686a1.527,1.527,0,0,1-.674-.142Z" transform="translate(-266.263 -105.741)" fill="#0069a2"/>
                <path id="Path_57784-2" data-name="Path 57784" d="M294.265,107.508h.867l.185.479h-.294v.189h1.148v-.189h-.208l-.886-2.267H294.7l-.885,2.267h-.225v.189h.736v-.189h-.247Zm.791-.2h-.715s.359-.925.359-.925Z" transform="translate(-272.266 -105.719)" fill="#0069a2"/>
                <path id="Path_57785-2" data-name="Path 57785" d="M307.437,108.376H305.62v-.189h.2V106.17h-.2v-.189h1.105v.189h-.256v1.951h.733v-.41h.236Z" transform="translate(-281.466 -105.919)" fill="#0069a2"/>
              </g>
            </g>
          </g>
          <g id="Group_8394-2" data-name="Group 8394" transform="translate(0 0)">
            <g id="Group_8393-2" data-name="Group 8393">
              <path id="Path_57786-2" data-name="Path 57786" d="M185.541,112.659c.141.076.244.095.746.115.079-.01-.146-.038-.189-.051-.166-.051-.019-.075-.132-.068a1.6,1.6,0,0,1-.327-.022C185.533,112.619,185.428,112.576,185.541,112.659Z" transform="translate(-184.877 -110.711)" fill="#0069a2"/>
              <path id="Path_57787-2" data-name="Path 57787" d="M196.341,110.19c.007-.009.014-.018.02-.027Z" transform="translate(-193.174 -108.84)" fill="#0069a2"/>
              <path id="Path_57788-2" data-name="Path 57788" d="M189.441,114.464c.039.054.212.061.273.041.052,0,.018-.026-.013-.03s-.062-.025-.067-.022C189.494,114.487,189.432,114.442,189.441,114.464Z" transform="translate(-187.896 -112.121)" fill="#0069a2"/>
              <path id="Path_57789-2" data-name="Path 57789" d="M187.271,106.077a5.356,5.356,0,0,0-1.09.03,1.132,1.132,0,0,0,.059-.378,1.192,1.192,0,1,0-2.317.393c-.929.07-1.03-.1-1.045-.014a.512.512,0,0,0,.447.386.687.687,0,0,0,.464.227.447.447,0,0,0,.276.125.242.242,0,0,0,.235.109.132.132,0,0,0,.1.07s0,.024.027.035a1.628,1.628,0,0,0-.682.229c.016.078.173.128.215.121a.267.267,0,0,0,.22.148.313.313,0,0,0,.267.091.259.259,0,0,0,.3-.171c.013-.057.053-.14.132-.15a.122.122,0,0,1,.064.039.154.154,0,0,0,.016.21.294.294,0,0,0,.221.024c.045.043.083.01.106.023-.009.015.039.045.082.028s.051-.038.054-.052a.037.037,0,0,0,.012-.043.029.029,0,0,0,.018-.037v0c.029.008.057-.036.054-.063,0-.055-.038-.063-.09-.063a.48.48,0,0,1,.237-.064.619.619,0,0,0,.209-.062c.06-.018.114-.018.163-.029s.061,0,.082-.01c.014.013.054.029.173.012a2.251,2.251,0,0,1,.279-.016c.074-.2-.1-.238-.1-.238-.027-.054-.046-.1-.129-.121s-.106-.016-.117-.056a.116.116,0,0,0-.06,0,.18.18,0,0,1,.059-.029c.17-.044.207-.1.228-.121a.559.559,0,0,0,.364-.126.288.288,0,0,0,.221-.13C187.332,106.39,187.373,106.06,187.271,106.077Zm-1.862.7a.058.058,0,0,1-.024-.027.5.5,0,0,0,.148-.067c.093-.057,0,.012-.025.046C185.508,106.731,185.492,106.757,185.409,106.779Zm-.925-.655s-.015-.051.008-.057c.04-.012.1-.076.144-.088,0,0,.031-.034-.164.045,0-.018,0-.02,0-.046a.237.237,0,0,1,.066-.027c0-.024-.047-.009-.063-.017s0-.033,0-.067a1.208,1.208,0,0,0,.239.039c.014.011.092.054.06.013l0-.008.048,0a.1.1,0,0,0,.013.032l.009.012v.149c-.018.009-.053.034-.086.049a.174.174,0,0,1-.069.01c.049-.032.069-.07.133-.108,0,0-.037-.034-.177.075a.2.2,0,0,1-.1.031v0c.059-.025.139-.122.2-.143C184.739,106.016,184.7,105.992,184.484,106.124Zm-.311.02h-.041c0-.017-.006-.042-.006-.042a.3.3,0,0,0,.15-.037c.037-.018.066-.064.124-.06.005,0,.007.026.009.044s-.038.011-.049.016c-.062.031-.062.076-.187.08Zm1.261-1.353a.816.816,0,0,1,.233.093.171.171,0,0,1-.008.109,1.25,1.25,0,0,0-.235-.141C185.448,104.839,185.446,104.816,185.434,104.791Zm-.315-.067h0c.045.054-.02.126-.144.164a.289.289,0,0,1-.286-.042c-.045-.053,0-.114.125-.151a.333.333,0,0,1,.3.029Zm-.713.332c-.023.019-.015.046-.022.069s-.01.031-.019.052-.02.028-.03.043a.475.475,0,0,1-.053-.038.134.134,0,0,1-.023-.028,1.219,1.219,0,0,1,.172-.137A.234.234,0,0,1,184.406,105.055Zm.612.746a.187.187,0,0,1,.026-.048c.012-.017.053-.02.07-.018a.143.143,0,0,0,.037,0,.106.106,0,0,0,.033-.025c.014-.013.031-.006.045,0a.107.107,0,0,1,.042.015.053.053,0,0,1,.024.018.076.076,0,0,1,.007.037,2.138,2.138,0,0,1-.3.047.216.216,0,0,0,.015-.027Zm.252-.712c-.024.006-.049,0-.059.012s-.011.063-.066.037c-.033-.044-.045-.024-.066-.049a.031.031,0,0,1,.014-.052c.016-.006.013-.022.01-.04s-.026-.022-.016-.052c0-.012.008-.036.045-.019a1.215,1.215,0,0,1,.148.116C185.3,105.069,185.292,105.085,185.269,105.09Zm-.808-.258a.608.608,0,0,1,.157-.07c-.01.018-.038.055-.045.069a1.446,1.446,0,0,0-.337.285.171.171,0,0,1,0-.106A.841.841,0,0,1,184.462,104.831Zm-.221.374a.288.288,0,0,0,.062.059,1.453,1.453,0,0,0-.169.376.231.231,0,0,1-.095-.119.97.97,0,0,1,.189-.338S184.236,105.2,184.24,105.205Zm-.081.513c.026.016.033.034.06.047a.408.408,0,0,0-.075.012C184.149,105.759,184.154,105.738,184.159,105.719Zm-.06-.038c-.02.007-.062.021-.05.025a.564.564,0,0,1,.069,0c-.007.031-.015.065-.02.093-.026.008-.073.026-.08.049.019,0,.049-.014.073-.018a.63.63,0,0,0-.006.084.206.206,0,0,0-.045.037c.01,0,.033-.01.046-.012s0,.031,0,.037-.007-.088,0,.034c-.009.014-.023.025-.028.034l.029-.008a.977.977,0,0,0,.018.111.182.182,0,0,1-.061-.042.234.234,0,0,1-.037-.052,1.174,1.174,0,0,1,.016-.481.422.422,0,0,0,.077.111Zm-.125.28a1.1,1.1,0,0,1,.012-.54.483.483,0,0,0,.015.116,1.519,1.519,0,0,0-.027.424Zm.219-.007-.073.042a.582.582,0,0,1,0-.073.5.5,0,0,0,.057-.022c.061-.021.066-.042.115-.055,0,0-.018-.023-.141.028-.008,0-.022.013-.03.016a.315.315,0,0,1,.012-.072c.04-.014.052-.035.092-.046a1.209,1.209,0,0,0,.175.075c0,.039,0,.1-.022.1a.574.574,0,0,0-.112.066.407.407,0,0,1-.144.071c0-.021,0-.038-.007-.059a.647.647,0,0,0,.1-.039c.061-.026.078-.068.142-.088,0,0-.007-.031-.166.053Zm-.009-.281c.022-.013.084-.022.072-.032a.561.561,0,0,0-.066,0,.984.984,0,0,1,.161-.316c.03.03.016.062.054.075s.018.042.037.06l.016.01c-.021.1-.038.2-.049.3A.663.663,0,0,1,184.184,105.673Zm.36-.146a.042.042,0,0,1,.025.053v0a.067.067,0,0,0,0,.076.18.18,0,0,1,.022.049.159.159,0,0,0,.041.045c.01.008.006.03.006.03a.376.376,0,0,0,.04.035.053.053,0,0,1,.012.01,1.113,1.113,0,0,1-.212-.033.957.957,0,0,1,.065-.271Zm.137.215c-.018-.038,0-.051.009-.053s.047.03.055.046.019.025.029.045.022.037.032.055l-.073,0c-.007-.011,0-.02-.009-.025A.208.208,0,0,1,184.681,105.743Zm.494.629a.935.935,0,0,1,.141-.149s.01-.047-.164.078c-.017.008-.035.016-.043.007.051-.04.073-.106.13-.132,0,0-.017-.028-.168.066a.04.04,0,0,1-.051,0c.043-.033.077-.082.122-.1,0,0-.006-.021-.15.057a.037.037,0,0,1-.041,0c.04-.031.072-.076.114-.091,0,0,0-.02-.143.033a.264.264,0,0,1,0-.028.245.245,0,0,1,.06-.037s-.012-.017-.062,0c0,0,0-.064,0-.093a.236.236,0,0,1,.037.032s.026.009.036,0a.125.125,0,0,1,.079-.016.527.527,0,0,1,.077.043.04.04,0,0,1,.03.025c.006.018,0,.027,0,.037s.008.016.046.029.044.014.054.022.029,0,.037,0,.016-.015.024-.017a.209.209,0,0,1,.038,0c.024.007.012.033.013.053,0,.035-.036.048-.059.078-.077.064-.138.176-.16.1Zm.225-.284a.149.149,0,0,0-.078.016.043.043,0,0,1-.058-.015c-.008-.016-.006-.028,0-.062s-.044-.027-.066-.04,0-.043.011-.065-.042-.026-.056-.023-.02.049-.047.064-.033,0-.064-.014a.064.064,0,0,1-.037-.063,2.746,2.746,0,0,0,.287-.049c.024,0,.013.015.037.007a.056.056,0,0,0,.021-.016.655.655,0,0,1,.021.067c-.009,0-.027-.007-.036-.012a.178.178,0,0,0-.085.019c-.009.008.016.01.029.014s.031.016.044.02.022.03.044.028a.019.019,0,0,1,.02.01.848.848,0,0,1,.035.121.049.049,0,0,0-.02-.008Zm-.031-.322a.178.178,0,0,0,0-.052c-.006-.022.077-.06.077-.06s.033-.013.058-.026.026-.089.013-.117-.021-.064,0-.082.066.032.091.022.018-.024.025-.039a1.677,1.677,0,0,1,.108.2,1.249,1.249,0,0,1-.355.157Zm.2-.515.033,0c.026,0,.063,0,.07-.032a.3.3,0,0,0-.006-.092c-.007-.023-.042-.025-.051-.039l0,0a.3.3,0,0,0,.046-.06,1.149,1.149,0,0,1,.312.334.672.672,0,0,1-.2.23A1.716,1.716,0,0,0,185.565,105.25Zm.079-.23a.28.28,0,0,1-.047.058.061.061,0,0,0-.053-.01.043.043,0,0,1-.048-.024s.052-.04.028-.062a.427.427,0,0,0-.15-.022c-.046-.013-.043.019-.049.035-.033-.028-.067-.054-.1-.078h0c0-.049.055-.02.058-.041s-.06-.044-.039-.049a1.315,1.315,0,0,1,.4.192Zm-.488-.355c-.01,0-.055-.022-.07-.024l.018-.01a1.084,1.084,0,0,1,.231.038A.787.787,0,0,0,185.157,104.665Zm-.935.365a.225.225,0,0,0-.012.113,1.159,1.159,0,0,0-.191.354.274.274,0,0,1-.025-.091,1.084,1.084,0,0,1,.228-.375Zm.138,1.092c.028-.011.044-.014.046-.015s.008.012.013.045a.549.549,0,0,1-.21.007.463.463,0,0,0,.151-.037Zm.873.367a.089.089,0,0,1-.02-.039c.153-.038.311-.206.218-.1a.256.256,0,0,1-.129.107Zm.23-.064c.087-.066.079-.044.015.008a.439.439,0,0,1-.2.139.057.057,0,0,1-.019-.036,1.281,1.281,0,0,0,.2-.11Zm.1.059c-.068.054-.045.072-.173.13l-.084.033a.121.121,0,0,1-.019-.039c.187-.051.3-.174.275-.124Zm-.015.105c.063-.038-.016.015-.033.049a.436.436,0,0,1-.159.082.159.159,0,0,1-.023-.034.714.714,0,0,0,.215-.1Zm.357-.283c.027-.066.043-.1.035-.137,0-.015.02-.024-.01-.049s-.145.1-.179.084-.041.006-.067,0a.051.051,0,0,1-.025-.015,1.027,1.027,0,0,0,.382-.3.958.958,0,0,1-.416.278c-.016,0-.019.007-.033-.008a.13.13,0,0,0-.1-.024.176.176,0,0,1-.047,0,.115.115,0,0,0-.026-.036c-.007-.051-.008-.08-.019-.136a.1.1,0,0,1,.025,0c.025,0,.025.016.041.02a.047.047,0,0,0,.044-.027c0-.013-.018-.026-.039-.036a.259.259,0,0,1-.037-.024c-.012-.007-.037,0-.049,0-.006-.028-.009-.057-.016-.086l.013,0a1.1,1.1,0,0,0,.356-.191,1.4,1.4,0,0,1,.135.342,1.47,1.47,0,0,0-.108-.359.6.6,0,0,0,.2-.236.977.977,0,0,1,.117.273,1.1,1.1,0,0,0-.113-.282c0-.012.008-.023.011-.034l-.014.03a1.18,1.18,0,0,0-.307-.353.174.174,0,0,0,0-.113,1.055,1.055,0,0,1,.327.319l0-.006a.92.92,0,0,0-.581-.443l-.034-.016-.12-.022c0-.015-.033-.031-.038-.033a.6.6,0,0,1,.194.01,1.1,1.1,0,0,1,.733,1.038,1.253,1.253,0,0,1-.247.694.861.861,0,0,1,.012-.115Zm-1.617,1.209a.78.78,0,0,0,.347-.187l-.007.013A.284.284,0,0,1,184.292,107.516Zm.128.04a.3.3,0,0,0,.264-.156c-.062.219-.224.172-.264.156Zm.585-.02a.1.1,0,0,1-.01-.145c0-.029.016-.037.012.022-.011.115.074.116.1.132s-.062.019-.1-.009Zm.178-.065c-.006-.013,0-.029.027-.056.138-.117-.015-.1.053-.155-.01.033.209.047-.035.168a.163.163,0,0,0-.045.043Zm.216.049s0,0-.005-.008a.011.011,0,0,0-.015-.005.011.011,0,0,0-.005.005c.018.02.009.046,0,.026a.014.014,0,0,0-.018-.006l0,0a.035.035,0,0,1,0,.047c-.012.014-.036.019-.04.01s.009,0,.016-.01a.027.027,0,0,0-.008-.037l0,0c-.018-.011-.047-.006-.04.015s.016.019,0,.02a.091.091,0,0,1-.03,0,.041.041,0,0,1-.032-.026c0-.015.01,0,.023,0s.029-.047.075-.041a.02.02,0,0,0,.017-.008c0-.005,0-.01.008-.012a.032.032,0,0,1,.016,0c.012,0,.011,0,.014-.01s.012,0,.02,0a.029.029,0,0,1,.015.038Zm.023-.086a.023.023,0,0,1,.024.022.024.024,0,0,1-.008.018c-.012.012-.005-.005-.012-.018a.035.035,0,0,0-.025-.013c-.008,0-.011-.011-.008-.012a.075.075,0,0,0,.028,0Zm.729-.576a.082.082,0,0,0,.072.054c.06.011.14.043.148.1,0,.027.166.024.129.134a1.414,1.414,0,0,1-.178-.019c-.005.008.052.012.025.026s-.234.032-.192-.019c.01-.012.052-.017.053-.023a.256.256,0,0,0-.075.005.089.089,0,0,1-.067,0c-.023-.012-.038-.032.02-.045s.023-.011-.028-.009c0,0-.1,0-.1-.018s.044-.022.108-.037,0-.008-.037-.012c0,0-.085,0-.1-.016s.037-.025.021-.04c-.028.018-.106.011-.086.045a.166.166,0,0,0,.075.029c-.07.016-.052.056-.02.078a.173.173,0,0,0,.033.018c-.057.032-.111.039-.121.027s.032-.022.024-.038c-.253.037-.039-.043-.039-.043,0-.023-.187.038-.172-.008.029-.016.07-.018.1-.033-.009-.021-.145.011-.164-.011s.043-.015.054-.024a.422.422,0,0,0-.193-.019.218.218,0,0,0-.117-.058.14.14,0,0,0-.09-.079.177.177,0,0,0-.046-.066.184.184,0,0,0-.043-.027.249.249,0,0,0-.039-.074c-.015-.023-.03-.025-.046-.037a.117.117,0,0,0-.026-.06.155.155,0,0,0-.035-.036.114.114,0,0,0-.022-.053c-.088-.159-.438-.146-.873-.132a4.585,4.585,0,0,1-.9-.039c.162.154.938.112,1.3.161a1.276,1.276,0,0,1-.339.032c-.024.029.233.074.479.091a2.531,2.531,0,0,0-.269.046,1.493,1.493,0,0,0,.446.067c-.144.032-.311.033-.285.061a1.685,1.685,0,0,0,.395.03c-.156.059-.291.016-.283.044a.65.65,0,0,0,.166.03,1.326,1.326,0,0,1,.214.009c.009.013-.062.01-.119.021-.137.025-.185,0-.152.025a.6.6,0,0,0,.172.02c.084,0,.173,0,.189.029a.58.58,0,0,0-.129,0c-.112.012-.169-.005-.146.015a.547.547,0,0,0,.174.026c.127.01.153.026.176.045h-.033c-.09-.011-.185-.006-.27-.014-.016.024.093.023.106.056a1.14,1.14,0,0,1-.291.041c-.016,0-.056-.012-.053,0s.042.015.06.02a.592.592,0,0,0,.169.008c.025.042-.362.023-.321.061a1.16,1.16,0,0,1,.194.008c-.012,0,.029.016-.1.039-.113.035-.286.253-.5.208-.048-.019-.055-.035-.058-.039.161.043.459-.175.459-.175-.072-.033-.38.177-.51.139-.028-.022-.028-.018-.028-.028a1.65,1.65,0,0,0,.436-.181c-.224.026-.393.134-.526.13-.028,0-.033,0-.042-.023a2.316,2.316,0,0,1,.742-.205c-.056-.01-.132-.066-.134-.111-.073-.015-.133-.06-.139-.1a.237.237,0,0,1-.231-.135c-.225,0-.265-.127-.265-.127-.416,0-.45-.2-.45-.2a.489.489,0,0,1-.4-.218c.344.122,1.627-.039,1.918.093.258.117.3.654.707.584a.587.587,0,0,1-.132-.048,1.159,1.159,0,0,0,.133-.068,2.543,2.543,0,0,0,.471-.482c.143-.189.886-.048,1.084-.1-.013.069-.1.121-.28.149-.077.012-.02.089-.159.12-.1.022-.1.1-.361.112a.9.9,0,0,1-.3.135l-.058.014c-.044-.011-.062-.019-.075-.034.054,0,.1.006.112-.011-.02,0-.072-.014-.07-.026.085,0,.179,0,.166-.019a.136.136,0,0,1-.1-.035.4.4,0,0,0,.21-.021c.008-.012-.115.006-.174-.043l0,0c.07,0,.466,0,.439-.045a1.562,1.562,0,0,1-.388-.022,1.291,1.291,0,0,1,.162-.021c.181-.005.461-.011.437-.077a2.282,2.282,0,0,1-.5.007l.013-.008a1.629,1.629,0,0,1,.377-.048c.062-.008.392-.023.4-.071a2.265,2.265,0,0,1-.4.012.77.77,0,0,0-.46.068.629.629,0,0,0-.081.076c-.015.02-.068.086-.081.1a1.294,1.294,0,0,1-.3.287c-.032.017-.064.014-.07.026h0l.021,0a.852.852,0,0,1,.341.092c-.012-.019-.008-.037.018-.05a.115.115,0,0,0,.091.066c-.017-.044.014-.055.014-.055Z" transform="translate(-182.878 -104.54)" fill="#0069a2"/>
              <path id="Path_57790-2" data-name="Path 57790" d="M189.951,114.833c.033.037.1.067.252.028.061.008-.042-.049-.071-.048C190,114.858,189.938,114.807,189.951,114.833Z" transform="translate(-188.286 -112.397)" fill="#0069a2"/>
              <path id="Path_57791-2" data-name="Path 57791" d="M196.745,114.956c.049.015.065.114.153.044C196.952,114.958,196.63,114.92,196.745,114.956Z" transform="translate(-193.463 -112.495)" fill="#0069a2"/>
              <path id="Path_57792-2" data-name="Path 57792" d="M190.546,115.159a.617.617,0,0,1-.154.015c.023.036.137.049.232.027.049,0,0-.016-.014-.018C190.565,115.178,190.564,115.153,190.546,115.159Z" transform="translate(-188.624 -112.66)" fill="#0069a2"/>
              <path id="Path_57793-2" data-name="Path 57793" d="M187.515,113.414c-.033,0-.107-.024-.086-.005.039.052.119.112.525.082,0-.008-.031-.014-.066-.025-.139-.013-.055-.039-.156-.041A1.915,1.915,0,0,1,187.515,113.414Z" transform="translate(-186.356 -111.317)" fill="#0069a2"/>
              <path id="Path_57794-2" data-name="Path 57794" d="M188.587,113.971c-.061-.005-.082-.021-.079-.01.04.1.311.091.41.067,0-.008-.032-.015-.049-.022-.117-.02-.046-.029-.108-.038S188.635,113.975,188.587,113.971Z" transform="translate(-187.183 -111.741)" fill="#0069a2"/>
            </g>
          </g>
        </g>
      </g>
    </g>
  </g>
</svg>
