<svg xmlns="http://www.w3.org/2000/svg" width="42" height="42" viewBox="0 0 42 42">
  <g id="Group_8632" data-name="Group 8632" transform="translate(-1039 -493)">
    <rect id="Rectangle_1614" data-name="Rectangle 1614" width="42" height="42" rx="21" transform="translate(1039 493)" fill="#0069a2"/>
    <path id="_002-twitter" data-name="002-twitter" d="M23.055,50.218a9.854,9.854,0,0,1-2.724.747,4.7,4.7,0,0,0,2.085-2.616,9.446,9.446,0,0,1-3,1.144,4.726,4.726,0,0,0-8.176,3.232,4.866,4.866,0,0,0,.1,1.082,13.379,13.379,0,0,1-9.742-4.944,4.728,4.728,0,0,0,1.453,6.317A4.668,4.668,0,0,1,.922,54.6v.052A4.748,4.748,0,0,0,4.709,59.3a4.718,4.718,0,0,1-1.239.156,4.181,4.181,0,0,1-.894-.08,4.771,4.771,0,0,0,4.414,3.293,9.5,9.5,0,0,1-5.857,2.01A8.852,8.852,0,0,1,0,64.609,13.307,13.307,0,0,0,7.251,66.73,13.357,13.357,0,0,0,20.7,53.28c0-.209-.007-.411-.017-.611A9.43,9.43,0,0,0,23.055,50.218Z" transform="translate(1048 457.003)" fill="#fff"/>
  </g>
</svg>
