<svg xmlns="http://www.w3.org/2000/svg" width="18.322" height="18.322" viewBox="0 0 18.322 18.322">
  <g id="Group_8638" data-name="Group 8638" transform="translate(-293 -654.474)">
    <rect id="Rectangle_3481" data-name="Rectangle 3481" width="18.322" height="18.322" rx="3" transform="translate(293 654.474)" fill="#17b3bf"/>
    <g id="Grupo_3901" data-name="Grupo 3901" transform="translate(297.254 660.169)">
      <g id="Grupo_3900" data-name="Grupo 3900" transform="translate(0)">
        <path id="Trazado_3165" data-name="Trazado 3165" d="M9.208,0H.485A.485.485,0,0,0,0,.485V6.95a.485.485,0,0,0,.485.482H9.208a.485.485,0,0,0,.485-.485V.485A.485.485,0,0,0,9.208,0Zm.161,6.947a.161.161,0,0,1-.161.161H.485a.161.161,0,0,1-.161-.161V.485A.161.161,0,0,1,.485.323H9.208a.161.161,0,0,1,.161.161Z" fill="#fff" stroke="#fff" stroke-width="0.3"/>
        <path id="Trazado_3166" data-name="Trazado 3166" d="M8.252,0a.161.161,0,0,0-.117.037L4.407,3.168a.323.323,0,0,1-.416,0L.265.038A.162.162,0,1,0,.057.287L3.784,3.418a.645.645,0,0,0,.831,0L8.342.285A.161.161,0,0,0,8.249,0Z" transform="translate(0.647 0.647)" fill="#fff" stroke="#fff" stroke-width="0.3"/>
        <path id="Trazado_3167" data-name="Trazado 3167" d="M2.46,0A.161.161,0,0,0,2.3.054L.043,2.478A.162.162,0,1,0,.279,2.7L2.54.274A.161.161,0,0,0,2.46,0Z" transform="translate(0.646 4.036)" fill="#fff" stroke="#fff" stroke-width="0.3"/>
        <path id="Trazado_3168" data-name="Trazado 3168" d="M.279.048A.162.162,0,0,0,.043.271L2.3,2.693A.162.162,0,0,0,2.54,2.47Z" transform="translate(6.462 4.04)" fill="#fff" stroke="#fff" stroke-width="0.3"/>
      </g>
    </g>
  </g>
</svg>
