<svg id="Group_8569" data-name="Group 8569" xmlns="http://www.w3.org/2000/svg" width="68.682" height="71.588" viewBox="0 0 68.682 71.588">
  <path id="Path_264" data-name="Path 264" d="M1115.41,1389.386a13.414,13.414,0,0,1,.345,1.406.618.618,0,0,1,1.1.132c.036.1.066.2.1.3a.487.487,0,0,1,.11-.092,1.167,1.167,0,0,1-.179-.235,1.772,1.772,0,0,1-.093-.2.961.961,0,0,1-.126-.312,3.135,3.135,0,0,1-.067-.59c-.206-.077-.414-.152-.628-.22C1115.768,1389.511,1115.587,1389.446,1115.41,1389.386Z" transform="translate(-1071.438 -1370.036)" fill="#476036"/>
  <path id="Path_265" data-name="Path 265" d="M1094.651,1389.5l-.116.033c0,.044.01.087.012.131C1094.582,1389.612,1094.617,1389.558,1094.651,1389.5Z" transform="translate(-1052.833 -1370.14)" fill="#476036"/>
  <path id="Path_266" data-name="Path 266" d="M1039.719,1389.586c-.036.105-.071.211-.111.317a11.529,11.529,0,0,0-.389,1.228c.488-.943,1.267-1.585,1.742-2.384A2.451,2.451,0,0,0,1039.719,1389.586Z" transform="translate(-1003.533 -1369.466)" fill="#476036"/>
  <path id="Path_267" data-name="Path 267" d="M1075.642,1389.966c-.069-.01-.136-.021-.2-.032a4.553,4.553,0,0,1-.056.73h0A5.5,5.5,0,0,0,1075.642,1389.966Z" transform="translate(-1035.763 -1370.524)" fill="#476036"/>
  <path id="Path_268" data-name="Path 268" d="M1025.474,1314.248q.193-.1.393-.191c.042-.026.087-.049.127-.079a.381.381,0,0,1,.247-.09q.218-.1.428-.2a2.4,2.4,0,0,1-1.582-.594,5.7,5.7,0,0,1,.374,1.16Z" transform="translate(-990.939 -1302.04)" fill="#476036"/>
  <path id="Path_269" data-name="Path 269" d="M961.893,1327.7a3.7,3.7,0,0,1-.161-.4.782.782,0,0,1-.116.14.655.655,0,0,1-.188.121c.031.011.061.024.092.035C961.643,1327.635,961.768,1327.669,961.893,1327.7Z" transform="translate(-934.202 -1314.7)" fill="#476036"/>
  <path id="Path_270" data-name="Path 270" d="M987.529,1617.646c-.015.231-.026.463-.028.7a15.92,15.92,0,0,1,.018,1.743c-.028.239-.253.293-.365.082a3.677,3.677,0,0,1-.168-2.532c-.691-.017-1.385-.031-2.087-.031-1.682,0-3.335.05-4.949.147a10.572,10.572,0,0,1,.242,2.235c0,4.152-5.43,10.381-5.75,15.971a7.975,7.975,0,0,0,3.334,6.856c2.293.2,4.675.311,7.123.311q.989,0,1.963-.023c1.948-.047,3.849-.161,5.691-.336a8.219,8.219,0,0,0,2.8-6.807c-.319-5.59-5.75-11.819-5.75-15.971a10.571,10.571,0,0,1,.242-2.236h0Q988.7,1617.682,987.529,1617.646Zm-10.36,18.158a1.835,1.835,0,0,1-.169-.154c-.641-.451-.793-1.978-.744-2.669a10.766,10.766,0,0,1,2.366-5.581c1.016-1.273,2.609-1.77,3.02.263C981.961,1629.242,979.653,1637.715,977.169,1635.8Zm15.611.635c-.091.358-.486.207-.526-.092a14.667,14.667,0,0,0-.833-3.917,29.584,29.584,0,0,0-1.764-3.342,15.563,15.563,0,0,1-2.077-5.3c-.034-.2.173-.348.234-.105C988.873,1627.866,993.96,1631.788,992.78,1636.44Z" transform="translate(-945.789 -1573.433)" fill="#b9cbcb"/>
  <path id="Path_271" data-name="Path 271" d="M1009.972,1574.617c0,.011,0,.024,0,.035,0-.011,0-.022,0-.032Z" transform="translate(-977.466 -1535.122)" fill="#b9cbcb"/>
  <path id="Path_272" data-name="Path 272" d="M1119.777,1856.654a9.351,9.351,0,0,1-1.337.7A9.325,9.325,0,0,0,1119.777,1856.654Z" transform="translate(-1074.138 -1786.486)" fill="#b9cbcb"/>
  <path id="Path_273" data-name="Path 273" d="M993.522,1698.6a10.765,10.765,0,0,0-2.366,5.581c-.048.691.1,2.217.744,2.669a1.8,1.8,0,0,0,.169.154c2.484,1.911,4.792-6.562,4.473-8.14C996.132,1696.827,994.539,1697.323,993.522,1698.6Z" transform="translate(-960.69 -1644.629)" fill="#d9ecca"/>
  <path id="Path_274" data-name="Path 274" d="M1095.315,1672.6a15.566,15.566,0,0,0,2.077,5.3,29.667,29.667,0,0,1,1.764,3.342,14.668,14.668,0,0,1,.833,3.917c.04.3.436.449.526.091,1.18-4.652-3.908-8.573-4.966-12.756C1095.488,1672.248,1095.281,1672.4,1095.315,1672.6Z" transform="translate(-1053.524 -1622.24)" fill="#d9ecca"/>
  <path id="Path_275" data-name="Path 275" d="M1021.134,1566.257c-.113-.23-.226-.453-.34-.671.2.719.313,1.471.449,2.228a.594.594,0,0,1-.984.573c-1.039-.953-2.353-1.575-3.324-2.6a4.818,4.818,0,0,1-.524-.684c.014.082.033.16.043.244a10.993,10.993,0,0,1-.462,3.828.558.558,0,0,1-.86.328.59.59,0,0,1-.3-.232c-.5-.734-1.133-1.5-1.615-2.314a13.762,13.762,0,0,1-.682-1.278,1.8,1.8,0,0,1-.222-1.141l-.062.007c-.214.322-.436.633-.674.924a1.013,1.013,0,0,1-1.57.168c0,.011,0,.021,0,.032a2.993,2.993,0,0,0,.228.857h0a22.131,22.131,0,0,1,1.423,3.929c1.614-.1,3.266-.147,4.949-.147.7,0,1.4.014,2.087.031a6.442,6.442,0,0,1,.585-1.542c.061-.113.145.044.133.112a12.865,12.865,0,0,0-.174,1.442q1.17.037,2.317.1h0a14.5,14.5,0,0,1,.894-2.688A3.44,3.44,0,0,1,1021.134,1566.257Z" transform="translate(-977.496 -1526.136)" fill="#e2b3c6"/>
  <path id="Path_276" data-name="Path 276" d="M1005.137,1849a11.032,11.032,0,0,0,5.577,2.21h3.913a9.4,9.4,0,0,0,5.294-2.257h0c-1.841.175-3.742.29-5.69.336q-.974.023-1.963.023C1009.719,1849.316,1007.127,1849.188,1005.137,1849Z" transform="translate(-973.157 -1779.626)" fill="#d1b4b4"/>
  <path id="Path_277" data-name="Path 277" d="M1088.887,1607.462c.112.211.336.158.365-.082a15.954,15.954,0,0,0-.017-1.744c0-.232.013-.463.028-.695a12.754,12.754,0,0,1,.174-1.442c.012-.068-.072-.225-.133-.112a6.442,6.442,0,0,0-.585,1.542A3.678,3.678,0,0,0,1088.887,1607.462Z" transform="translate(-1047.522 -1560.729)" fill="#d9ecca"/>
  <path id="Path_278" data-name="Path 278" d="M1199.161,1548.992c-1.6-4.775-1.856-10.175-4.437-14.583a.644.644,0,0,1-.064-.172,20.863,20.863,0,0,0-.994,2.5.483.483,0,0,1-.755.323,6.228,6.228,0,0,1-2.3-3.095.875.875,0,0,0-.3.608c-.48,4.563.669,9.452,2.242,13.728a11.611,11.611,0,0,0,2.95,4.6c1.623,1.507,3.58,2.545,4.734,4.5a.67.67,0,0,0,.342.325q.071-.238.147-.481C1201.691,1554.146,1200.118,1551.844,1199.161,1548.992Z" transform="translate(-1138.09 -1498.894)" fill="#618854"/>
  <path id="Path_279" data-name="Path 279" d="M1257.1,1529.656l.013.01c0-.027,0-.053,0-.08C1257.1,1529.61,1257.1,1529.633,1257.1,1529.656Z" transform="translate(-1197.716 -1494.988)" fill="#4b6949"/>
  <path id="Path_280" data-name="Path 280" d="M1250.046,1532.219a.35.35,0,0,1-.281-.085,8.888,8.888,0,0,0-.9-.622c1.9,3.756,2.59,7.839,3.9,11.908.747,2.318,2.115,4.528,2.336,6.989.233,2.6-1.662,4.693-1.559,7.21a.654.654,0,0,0,.218-.14c4.446-4.172,5.123-9.816,3.43-15.441-.457-1.516-.966-3.017-1.382-4.546a44.482,44.482,0,0,0-1.051-4.539,6.1,6.1,0,0,0-3.71-3.4,7.228,7.228,0,0,0-.525,2.123C1250.521,1532.056,1250.264,1532.287,1250.046,1532.219Z" transform="translate(-1190.38 -1494.959)" fill="#4b6949"/>
  <path id="Path_281" data-name="Path 281" d="M1239.39,1553.648c-.221-2.46-1.589-4.671-2.336-6.989-1.31-4.07-2-8.151-3.9-11.908a4.328,4.328,0,0,1-1.785-1.564q-.062.179-.132.354a.638.638,0,0,0,.064.173c2.581,4.408,2.834,9.808,4.437,14.583.957,2.853,2.53,5.155,1.562,8.258-.051.162-.1.322-.147.481-.443,1.477-.706,2.819.121,4.253.233.4.573-.1.559-.372,0-.02,0-.039,0-.059C1237.728,1558.341,1239.623,1556.249,1239.39,1553.648Z" transform="translate(-1174.667 -1498.198)" fill="#7ca36d"/>
  <path id="Path_282" data-name="Path 282" d="M1217.027,1273.018a9.271,9.271,0,0,1-.37,1.271,9.216,9.216,0,0,0-.269,3.212,4.2,4.2,0,0,1-.42,2.271,3.441,3.441,0,0,1,1.336.39c.07-.082.135-.163.2-.245a.57.57,0,0,1,.259-.313,15.225,15.225,0,0,0,2.446-4.306,1.7,1.7,0,0,1,.271-.478,6.057,6.057,0,0,0,.054-1.4,1.43,1.43,0,0,0-.038-.225,5.479,5.479,0,0,1,.394-1.958c.1-.221.032-.884-.338-.835a6.643,6.643,0,0,0-3.513,1.812A4.271,4.271,0,0,1,1217.027,1273.018Z" transform="translate(-1161.059 -1263.991)" fill="#ffcb4a"/>
  <path id="Path_283" data-name="Path 283" d="M1244.669,1328.038a8.994,8.994,0,0,1-2.052,1.377q-.2.111-.4.219a4.266,4.266,0,0,1-1.118.458c.036.042.072.084.106.129a7.783,7.783,0,0,1,.61.936c.188-.071.421-.132.723-.255,1.184-.482,2.152-1.291,3.283-1.863a2.834,2.834,0,0,1,1.222-.317,4.067,4.067,0,0,1,2.359-1.253c.386-.052.408-.729.143-.931a5.738,5.738,0,0,0-2.658-1.425c-.1-.012-.193-.013-.285-.015A7.375,7.375,0,0,1,1244.669,1328.038Z" transform="translate(-1183.453 -1312.74)" fill="#f9e99d"/>
  <path id="Path_284" data-name="Path 284" d="M1257.647,1395.77a9.486,9.486,0,0,1,.171,2.619,4.174,4.174,0,0,1,2.268-.713c1.554-.052,2.867.791,4.333,1.169a2.573,2.573,0,0,0,.81.048c1.515-.189,1.465-2.659,1.239-3.781a1.158,1.158,0,0,0-.615-.859,6.036,6.036,0,0,1-3.089,1.1C1261.03,1395.427,1259.17,1394.922,1257.647,1395.77Z" transform="translate(-1198.205 -1374.374)" fill="#ffcb77"/>
  <path id="Path_285" data-name="Path 285" d="M1182.595,1272.623a7.392,7.392,0,0,1-.134,3.992c.016.1.03.2.046.3a3.809,3.809,0,0,1,2.533-.773,4.194,4.194,0,0,0,.42-2.271,9.214,9.214,0,0,1,.269-3.211,9.261,9.261,0,0,0,.37-1.272,4.266,4.266,0,0,0,.014-.8,10.583,10.583,0,0,0-.355-1.868c-.085-.332-.368-.556-.625-.233-.572.72-1.623.779-2.323,1.36a4.92,4.92,0,0,0-1.412,2.118,3.065,3.065,0,0,0-.132.613A4.662,4.662,0,0,1,1182.595,1272.623Zm1.041-1.16c.143-1.25,1.51-1.979,1.592-3.186,0-.038.043-.024.042.008a2.422,2.422,0,0,1-.3,1.246c-.193.346-.551.6-.75.936-.643,1.1-.37,1.658.046,2.735a1.973,1.973,0,0,1-.328,2.368c-.082.1-.125-.122-.1-.178a2.318,2.318,0,0,0,.072-2.26,3.7,3.7,0,0,1-.175-.425A3.062,3.062,0,0,1,1183.635,1271.462Z" transform="translate(-1130.131 -1260.363)" fill="#ffd176"/>
  <path id="Path_286" data-name="Path 286" d="M1228.712,1308.273a.572.572,0,0,0-.259.313c-.068.082-.133.164-.2.245.042.022.084.051.127.075a1.025,1.025,0,0,0,.375.932,1.1,1.1,0,0,0,.895.173,4.258,4.258,0,0,0,1.118-.458c.139-.072.273-.145.4-.219a9,9,0,0,0,2.052-1.378,7.368,7.368,0,0,0,1.928-2.939,13.6,13.6,0,0,0,.529-1.793c.047-.2-.054-.677-.349-.657-1.253.085-3.088-.09-3.9.92a1.7,1.7,0,0,0-.271.478A15.22,15.22,0,0,1,1228.712,1308.273Zm3.792-1.7a30.34,30.34,0,0,0,2.21-2.8c0-.05,0-.1,0-.151h.067c-.018.048-.037.094-.056.141l.07-.091c.064-.08.124.046.1.107a12.621,12.621,0,0,1-5.286,5.213c-.039.021-.049-.069-.018-.088A17.351,17.351,0,0,0,1232.5,1306.576Z" transform="translate(-1172.006 -1292.66)" fill="#f9e65d"/>
  <path id="Path_287" data-name="Path 287" d="M1257.724,1360.789c-1.546-.886-3.107-2.419-4.816-2.373a2.834,2.834,0,0,0-1.222.317c-1.131.572-2.1,1.381-3.282,1.863-.3.123-.535.184-.723.255.112.2.218.411.318.626a10.584,10.584,0,0,1,.713,2.105c.018.082.037.164.054.246,1.523-.848,3.383-.342,5.116-.413a6.037,6.037,0,0,0,3.089-1.1c.249-.15.5-.306.78-.466A.655.655,0,0,0,1257.724,1360.789Zm-2.005-.1-.034.006-.588-.331c0-.013,0-.026,0-.039C1255.3,1360.444,1255.513,1360.566,1255.719,1360.692Zm.575.739c-1.4-1.168-2.854-.412-4.408-.081a9.959,9.959,0,0,1-3.332.172c-.03,0-.033-.068,0-.069a37.818,37.818,0,0,0,5.356-.891,2.4,2.4,0,0,1,2.46.713C1256.409,1361.325,1256.373,1361.5,1256.294,1361.431Z" transform="translate(-1189.323 -1342.433)" fill="#f9e65d"/>
  <path id="Path_288" data-name="Path 288" d="M1256,1426.417a6.751,6.751,0,0,1-.393,1.828c1.478-.4,3.926.553,4.986,1.413a5.588,5.588,0,0,1,1.214,1.448c.08.008.16.017.241.02,2.014.073,2.251-1.5,2.118-3.186-.03-.379-.175-.866-.625-.9a5.532,5.532,0,0,1-.941-.165c-1.466-.378-2.779-1.22-4.333-1.169A4.172,4.172,0,0,0,1256,1426.417Zm.472.782c-.026,0-.027-.057,0-.057S1256.5,1427.2,1256.471,1427.2Zm7.2,1.064c.105-.069.121.178.071.233-.705.768-1.6.452-2.424.009a8.648,8.648,0,0,0-4.706-1.2c-.034,0-.035-.073,0-.077a7.351,7.351,0,0,1,3.353.293C1261.219,1427.957,1262.311,1429.152,1263.669,1428.263Z" transform="translate(-1196.386 -1402.402)" fill="#ffd176"/>
  <path id="Path_289" data-name="Path 289" d="M1195.536,1478.61a.483.483,0,0,0,.755-.323,20.912,20.912,0,0,1,.994-2.5c.047-.117.091-.235.132-.354a3.765,3.765,0,0,1-.328-.819,15.777,15.777,0,0,1-.273-2.879,8.831,8.831,0,0,0-.432-1.927l-.042-.038a3.066,3.066,0,0,0-.15-.44,2.186,2.186,0,0,0-.1-.205,1.449,1.449,0,0,0-1.633-.681c-.165.054-.195.335-.162.469,0,.01,0,.02.007.03-.049-.026-.1-.046-.149-.074-.01.018-.018.037-.028.055a.983.983,0,0,1-.03.59,8.793,8.793,0,0,0-.71,3.291,8.2,8.2,0,0,1-.123,2.1,1.406,1.406,0,0,1-.12.252c.026.123.055.245.089.361A6.224,6.224,0,0,0,1195.536,1478.61Zm-.814-9.959c.923.384,1.068,1.528,1.145,2.427a4.565,4.565,0,0,1-.167,1.546.1.1,0,0,1-.029.115c-.01.038-.02.075-.031.113,0,0,0-.008,0-.008s.009.02,0,.02-.006,0-.006-.009c-.333,1.19-.82,2.31-.136,3.641.023.045-.017.14-.067.083a2.616,2.616,0,0,1-.575-2.253,8.577,8.577,0,0,1,.548-1.637c.362-.953.519-3.3-.705-3.927C1194.662,1468.741,1194.669,1468.629,1194.721,1468.651Z" transform="translate(-1140.716 -1440.441)" fill="#ffc239"/>
  <path id="Path_290" data-name="Path 290" d="M1242.384,1463.935c-.121-.053-.245-.1-.369-.145l-.037.038c.031,0,.032.075,0,.075s-.028-.028-.024-.051a4.57,4.57,0,0,1-.517.473,6.1,6.1,0,0,1,2.84,2.8,5.724,5.724,0,0,1,.412,1.844c.949,1.015,2.564,2.024,3.83,1.374.523-.269.5-1.088.225-1.518a2.529,2.529,0,0,0-.552-.621,15.191,15.191,0,0,1-2.48-.948C1244.31,1466.478,1243.5,1465.033,1242.384,1463.935Z" transform="translate(-1183.757 -1436.348)" fill="#ffcb77"/>
  <path id="Path_291" data-name="Path 291" d="M1223.393,1468.715a4.814,4.814,0,0,1-1.086.63,3.7,3.7,0,0,1-1.116.279,3.076,3.076,0,0,1,.15.44c.013.013.028.025.042.038a8.833,8.833,0,0,1,.432,1.927,15.8,15.8,0,0,0,.272,2.879,3.776,3.776,0,0,0,.328.819,4.327,4.327,0,0,0,1.785,1.564,8.865,8.865,0,0,1,.9.622.352.352,0,0,0,.281.085c.218.068.475-.164.479-.543a7.216,7.216,0,0,1,.526-2.123,4.977,4.977,0,0,0,.265-1.21,5.977,5.977,0,0,0,0-.764,5.726,5.726,0,0,0-.412-1.844A6.1,6.1,0,0,0,1223.393,1468.715Zm-.069,4.667c.044.179.083.359.119.54A2.8,2.8,0,0,1,1223.324,1473.382Zm2.117,3.748a3.666,3.666,0,0,1-.333-1.716l-.013-.01c.005-.023.007-.047.012-.07,0-.392.019-.791,0-1.195a5.68,5.68,0,0,0-2.165-4.332c-.027-.022-.022-.126.026-.1,2.942,1.476,2.1,4.7,2.654,7.3C1225.65,1477.135,1225.524,1477.294,1225.441,1477.131Z" transform="translate(-1165.714 -1440.738)" fill="#f9e65d"/>
  <path id="Path_292" data-name="Path 292" d="M1253.479,1449.731c-1.06-.859-3.507-1.813-4.986-1.413a5.046,5.046,0,0,1-.739,1.335c-.041.052-.085.1-.129.152q.141.125.275.256c1.118,1.1,1.927,2.543,3.328,3.32a15.144,15.144,0,0,0,2.48.948,5.261,5.261,0,0,1,2.434,1.473c.319.37.5-.244.407-.5a4.06,4.06,0,0,0-.734-1.273,9.657,9.657,0,0,0-1.122-2.848A5.592,5.592,0,0,0,1253.479,1449.731Z" transform="translate(-1189.273 -1422.476)" fill="#f9e65d"/>
  <path id="Path_293" data-name="Path 293" d="M1193.351,1466.127l-.026-.022-.02.029Z" transform="translate(-1140.862 -1438.411)" fill="#eaa654"/>
  <path id="Path_294" data-name="Path 294" d="M1174.172,1474.847a8.789,8.789,0,0,1,.71-3.291.987.987,0,0,0,.031-.591c-.006-.027-.012-.054-.019-.081-.106-.062-.208-.136-.31-.208-.771.92-1.391,2.1-2.6,2.494-.06.047-.118.1-.185.138.713.388,1.478.685,1.946.292a.3.3,0,0,1,.5.208,1.9,1.9,0,0,1-1.793,2.048,2.44,2.44,0,0,1-.87-.108c.5.437.97.927,1.44,1.4a.582.582,0,0,1,.122.631,1.113,1.113,0,0,0,.783-.577,1.406,1.406,0,0,0,.12-.253A8.21,8.21,0,0,0,1174.172,1474.847Z" transform="translate(-1121.502 -1442.485)" fill="#eaa654"/>
  <path id="Path_295" data-name="Path 295" d="M1129.906,1407.574l.007.019a5.153,5.153,0,0,0,.29-2.218c-.016-.417.643-.63.823-.223.611,1.377,1.33,3.275.751,4.785a16.176,16.176,0,0,0,3.225-.548,10.556,10.556,0,0,1-1.234-4.374.408.408,0,0,1-.23-.029.518.518,0,0,1-.2-.084c-1.108-.072-2.258.008-3.316-.124a.518.518,0,0,0-.35.07.493.493,0,0,0-.11.092A6.551,6.551,0,0,1,1129.906,1407.574Z" transform="translate(-1084.054 -1383.751)" fill="#cd9826"/>
  <path id="Path_296" data-name="Path 296" d="M1168.328,1456.478c.1,0,.194.008.292.006.388-.009.986-.21,1.527-.267l.212-.049c.226-.054.455-.119.686-.162l.019-.029a7.3,7.3,0,0,1-1.025-1.236A3.009,3.009,0,0,1,1168.328,1456.478Z" transform="translate(-1118.6 -1428.283)" fill="#cd9826"/>
  <path id="Path_297" data-name="Path 297" d="M1185.368,1480.769q.11-.1.213-.216c-.005,0-.009.005-.014.007C1185.5,1480.628,1185.432,1480.7,1185.368,1480.769Z" transform="translate(-1133.787 -1451.288)" fill="#cd9826"/>
  <path id="Path_298" data-name="Path 298" d="M938.646,1318.888a1.652,1.652,0,0,1-.35-.726,2.638,2.638,0,0,1-.45.1,5.217,5.217,0,0,0,.139.669A2.535,2.535,0,0,1,938.646,1318.888Z" transform="translate(-913.184 -1306.558)" fill="#393a3a"/>
  <path id="Path_299" data-name="Path 299" d="M1024.273,1331.621a3.581,3.581,0,0,1,3.459-1.784,8.869,8.869,0,0,1,4.5,1.935c.444.321.9.65,1.358,1a3.507,3.507,0,0,1,.141-.452.516.516,0,0,1,.3-.307c-1.959-2.234-3.343-3.682-6.672-2.956-2.522.55-5.988,3.2-5.089,5.9.461-1.042,1.091-2,1.617-3.049A.489.489,0,0,1,1024.273,1331.621Z" transform="translate(-988.306 -1316.095)" fill="#7ca36d"/>
  <path id="Path_300" data-name="Path 300" d="M1043.263,1343.264a2.761,2.761,0,0,0,.332-2.118.592.592,0,0,1,1.076-.454,4.849,4.849,0,0,1,.839,2.7c.068.011.135.023.2.032a5.929,5.929,0,0,0,.251-1.6c.01-.54.847-.858,1.1-.3a5.472,5.472,0,0,1,.475,1.851l.116-.033a7.458,7.458,0,0,0,.906-1.974.483.483,0,0,1,.591-.3.366.366,0,0,1,.442.413,4.772,4.772,0,0,0,.216,1.846c.177.06.359.125.557.188.214.068.421.143.628.22a1.573,1.573,0,0,1,.268-1,3.512,3.512,0,0,1-.136-2.09c-.454-.346-.915-.676-1.359-1a8.867,8.867,0,0,0-4.5-1.935,3.581,3.581,0,0,0-3.459,1.784.662.662,0,0,1,.72.58,9.36,9.36,0,0,1-.5,4.015A2.455,2.455,0,0,1,1043.263,1343.264Z" transform="translate(-1005.834 -1323.984)" fill="#4b6949"/>
  <path id="Path_301" data-name="Path 301" d="M763.226,1645.694a11.88,11.88,0,0,0-1.876-2.111,12.235,12.235,0,0,0-1.826-1.059.711.711,0,0,0,.108.226,10.606,10.606,0,0,1,1.757,2.737c.4,1.168-.194,2.014-.122,3.124a2.583,2.583,0,0,0,.465,1.427c.582.745,1.684.55,2.139,1.438.263.511.886.639,1.078-.026a3.329,3.329,0,0,0-.11-2.55c-.236-.463-.784-.7-1-1.091-.243-.437-.06-.891-.06-1.379a4.49,4.49,0,0,0-.485-2.172,3.221,3.221,0,0,1,.318,1.075C763.639,1645.549,763.477,1646,763.226,1645.694Z" transform="translate(-754.256 -1595.645)" fill="#7ca36d"/>
  <path id="Path_302" data-name="Path 302" d="M714.257,1488.837a11.931,11.931,0,0,0,1.716-2.322,18.461,18.461,0,0,0,.693-2.438,5.4,5.4,0,0,1,1.69-3.021,3.942,3.942,0,0,1,1.794-.651h-.007c-3.652.337-6.773,1.6-8.3,5.188-1.229,2.894-1.11,7.474,1.4,9.685a.139.139,0,0,0,.015.008,2.094,2.094,0,0,0,.83.849,5.459,5.459,0,0,1-.556-1.024A6.56,6.56,0,0,1,714.257,1488.837Z" transform="translate(-711.085 -1451.156)" fill="#7ca36d"/>
  <path id="Path_303" data-name="Path 303" d="M739.951,1481.059c-.627.149-1.663.08-2.131.558a.4.4,0,0,1-.562.034.594.594,0,0,1-.372-.853,9.447,9.447,0,0,1,.675-1.186,10.491,10.491,0,0,0-1.272.088,3.936,3.936,0,0,0-1.794.651,5.4,5.4,0,0,0-1.69,3.021,18.515,18.515,0,0,1-.692,2.438,11.949,11.949,0,0,1-1.716,2.321,6.559,6.559,0,0,0-.718,6.274,5.451,5.451,0,0,0,.556,1.024,5.509,5.509,0,0,0,1.586,1.515c.217.14.443.266.671.386a12.213,12.213,0,0,1,1.826,1.059,11.862,11.862,0,0,1,1.876,2.111c.251.309.413-.146.388-.362a3.217,3.217,0,0,0-.318-1.075,3.8,3.8,0,0,0-.462-.707c-.709-1.357-1.715-2.552-2.33-3.99-1.559-3.648,2.431-3.1,3.512-5.5.915-2.036-.61-5.029,1.431-6.41a7.888,7.888,0,0,1,2.664-.994,3.188,3.188,0,0,1,.376-.982A6.4,6.4,0,0,1,739.951,1481.059Zm-7.176,16.348c-.009,0-.009-.02,0-.02S732.783,1497.406,732.774,1497.406Z" transform="translate(-727.224 -1450.449)" fill="#476036"/>
  <path id="Path_304" data-name="Path 304" d="M762.068,1643.076c.008,0,.008-.02,0-.02S762.059,1643.076,762.068,1643.076Z" transform="translate(-756.517 -1596.119)" fill="#7ca36d"/>
  <path id="Path_305" data-name="Path 305" d="M975.3,1491.592l-.006,0,0,0Z" transform="translate(-946.563 -1461.123)" fill="#4b6949"/>
  <path id="Path_306" data-name="Path 306" d="M926.088,1477.333c-.272-.135-.128-.543.149-.549a6.009,6.009,0,0,1,1.323.089c-.675-.885-1.337-1.915-2.43-1.831a.281.281,0,0,1-.107-.012,2.377,2.377,0,0,0-.2.143,5.719,5.719,0,0,0-.806,1.622c1.36.434,2.81,1.281,2.916,2.859a5.17,5.17,0,0,1-.978,2.68q-1.043,1.24.773,2.055a4.79,4.79,0,0,1,.573-.108,3.883,3.883,0,0,1,.786.092,1.908,1.908,0,0,1,1.05,2.353,10.6,10.6,0,0,0-.452,1.34c-.069.139-.141.271-.215.39a12.68,12.68,0,0,0-1.354,2.455c.012.008.023.022.035.031a3.712,3.712,0,0,0-.078,1.97c.455,1.784,2.118,2.992,3.393,4.192.4.377.783-.046.93-.436.844-1.361.744-4.8.46-5.727-.521-1.7-1.155-2.869-.472-4.615.319-.815.635-1.573.873-2.328a1.321,1.321,0,0,1,.159-.587c-.888.46-1.921.7-2.4-.27-.352-.711.1-1.426.719-1.989a4.4,4.4,0,0,1-2.068-.9C927.645,1479.462,927.222,1477.9,926.088,1477.333Z" transform="translate(-900.862 -1446.366)" fill="#476036"/>
  <path id="Path_307" data-name="Path 307" d="M914.067,1468.8c-.238.755-.555,1.513-.873,2.328-.683,1.747-.049,2.911.473,4.615.283.928.384,4.366-.46,5.727-.148.39-.53.813-.93.436-1.275-1.2-2.937-2.408-3.393-4.192a3.714,3.714,0,0,1,.078-1.97c-.012-.009-.023-.023-.035-.031a12.684,12.684,0,0,1,1.354-2.455c.074-.118.146-.251.215-.39a10.613,10.613,0,0,1,.452-1.341,1.908,1.908,0,0,0-1.05-2.353,3.892,3.892,0,0,0-.787-.092,4.832,4.832,0,0,0-.573.108q-1.815-.814-.773-2.054a5.168,5.168,0,0,0,.978-2.68c-.107-1.578-1.556-2.425-2.916-2.859a5.73,5.73,0,0,1,.805-1.621q.068-.09.14-.174a.31.31,0,0,1-.04-.445l.008-.009a.286.286,0,0,1,.029-.031.3.3,0,0,1,.052-.055,2.2,2.2,0,0,1,2.535-.4c-.026-.021-.054-.039-.08-.061a2.972,2.972,0,0,1-.693-.821,3.665,3.665,0,0,0-2.061.552.207.207,0,0,1-.043.025,4.089,4.089,0,0,0-1.137,1.052c-1.683,2.3-.881,5.234-1.109,7.855-.139,1.591-.811,3.1-.576,4.719a7.889,7.889,0,0,0,1.387,3.19,42.254,42.254,0,0,0,6.177,7.607c1.607,1.455,2.7-.28,3.343-1.838a8.358,8.358,0,0,0,.619-3.757c-.1-1.392-.813-2.506-1.064-3.834a5.745,5.745,0,0,1,.659-3.237l-.052-.052A2.084,2.084,0,0,1,914.067,1468.8Zm-6.548,8.335a.452.452,0,0,1-.068-.027,6.653,6.653,0,0,1-3.086-5.628,22.693,22.693,0,0,1,.472-4.721c.119-.772.162-1.594.288-2.392a9.962,9.962,0,0,1,.106-1.2,2.872,2.872,0,0,1,.112-.481,3.55,3.55,0,0,1,1.811.953c1.011,1.272-.211,2.372-.652,3.367a3.1,3.1,0,0,0-.329,1.954,1.914,1.914,0,0,0,1.227,1.435c.55.181,1.308-.136,1.82.038a.687.687,0,0,1,.414.374,1.912,1.912,0,0,1,.149.8c.017,1.111-1.632,2.34-2.031,3.4A4.526,4.526,0,0,0,907.52,1477.139Z" transform="translate(-882.669 -1431.173)" fill="#4b6949"/>
  <path id="Path_308" data-name="Path 308" d="M959.731,1468.461l0,0-.025-.016Z" transform="translate(-932.67 -1440.495)" fill="#526833"/>
  <path id="Path_309" data-name="Path 309" d="M915.878,1510.139a1.915,1.915,0,0,0-.149-.8c-.011-.013-.019-.026-.03-.038a2.129,2.129,0,0,0-.384-.336c-.513-.174-1.27.144-1.82-.038a1.912,1.912,0,0,1-1.226-1.435,3.1,3.1,0,0,1,.329-1.954c.442-.995,1.663-2.095.652-3.367a3.548,3.548,0,0,0-1.811-.952,2.866,2.866,0,0,0-.112.481,9.987,9.987,0,0,0-.106,1.2c-.125.8-.168,1.62-.288,2.392a22.667,22.667,0,0,0-.473,4.721,6.654,6.654,0,0,0,3.086,5.628.428.428,0,0,0,.068.027,4.524,4.524,0,0,1,.233-2.133C914.246,1512.478,915.895,1511.25,915.878,1510.139Z" transform="translate(-888.764 -1469.704)" fill="#7ca36d"/>
  <path id="Path_310" data-name="Path 310" d="M1052.633,1372.346c0-.044-.009-.087-.012-.131a5.473,5.473,0,0,0-.475-1.851c-.251-.562-1.087-.243-1.1.3a5.953,5.953,0,0,1-.25,1.6,5.56,5.56,0,0,1-.26.7h0a4.649,4.649,0,0,1-.1.458,4.448,4.448,0,0,1-.915,1.745c-.554.652-1.614,1.23-2.021,2.075a7.554,7.554,0,0,1,2.011.254,3.514,3.514,0,0,1,.555.2,7.8,7.8,0,0,1,.254-1.316A15.823,15.823,0,0,1,1052.633,1372.346Z" transform="translate(-1010.919 -1352.819)" fill="#ffcb4a"/>
  <path id="Path_311" data-name="Path 311" d="M947.608,1421.138l.025.016a5.881,5.881,0,0,0,3.821.639c.21,0,.419-.013.628-.031a.24.24,0,0,0,.031,0,.235.235,0,0,0,.03,0c.32-.032.4-.562.247-.872.027-.072.048-.146.078-.215-.753-.122-1.535-.28-2.242-.47a3.7,3.7,0,0,1-1.97-1.264c-.96-1.19-.771-2.337-.609-3.568a.547.547,0,0,0-.563.271c-.028.046-.051.093-.077.139a.47.47,0,0,0-.2.226,5.225,5.225,0,0,0-.549,3.464,2.636,2.636,0,0,0,.228.532,2.977,2.977,0,0,0,.693.821c.026.022.054.04.08.061a2.542,2.542,0,0,1,.234.153C947.53,1421.07,947.569,1421.1,947.608,1421.138Z" transform="translate(-920.568 -1393.191)" fill="#ffc239"/>
  <path id="Path_312" data-name="Path 312" d="M1020.167,1361.424c.179.725.422,1.441.654,2.155a4.508,4.508,0,0,1,.438-.164c.092-.041.188-.07.283-.1a6.447,6.447,0,0,1,.532-2.935c.011-.022.024-.043.035-.065a11.466,11.466,0,0,1,.389-1.228c.04-.106.075-.212.111-.317a9.363,9.363,0,0,0,.5-4.015.663.663,0,0,0-.72-.58.488.488,0,0,0-.377.283c-.526,1.044-1.156,2.007-1.617,3.048q-.132.3-.243.608c0,.095,0,.189-.01.284A8.949,8.949,0,0,0,1020.167,1361.424Z" transform="translate(-986.422 -1338.648)" fill="#f9e65d"/>
  <path id="Path_313" data-name="Path 313" d="M1037.5,1368.454a4.456,4.456,0,0,0,.915-1.745c.041-.153.071-.3.1-.458h0a4.541,4.541,0,0,0,.057-.73,4.849,4.849,0,0,0-.839-2.7.592.592,0,0,0-1.076.454,2.758,2.758,0,0,1-.332,2.117c-.475.8-1.254,1.442-1.742,2.385-.011.022-.024.042-.035.064a6.448,6.448,0,0,0-.532,2.935,4.753,4.753,0,0,1,1.468-.247C1035.882,1369.685,1036.941,1369.106,1037.5,1368.454Z" transform="translate(-998.887 -1346.112)" fill="#ffcb77"/>
  <path id="Path_314" data-name="Path 314" d="M967.709,1363.656a3.086,3.086,0,0,1,.1,1.567c-.195,1.12-.832,2.118-.632,3.367a4.922,4.922,0,0,0,.469,1.374c-.827-1.13-.57-2.355-.93-3.643a3.414,3.414,0,0,0-2.842-2.416.3.3,0,0,0-.332.433,4.717,4.717,0,0,1,.63,2.021c.145,1.314,0,2.655.715,3.871.871,1.486,2.43,1.735,3.78,2.525a4.8,4.8,0,0,1,1.778-1.362c-.232-.714-.475-1.43-.654-2.155a8.945,8.945,0,0,1-.025-3.027c.007-.1.008-.19.01-.285a3.8,3.8,0,0,0-.476-2.121,3,3,0,0,0-.611-.723C968.282,1362.727,967.507,1363.056,967.709,1363.656Zm1.919,7.06c.042.059.038.3-.087.246-.768-.342-1.031-1.3-1.2-2.067a8.231,8.231,0,0,1,.069-3.669c.021-.092.1-.039.091.036A7.324,7.324,0,0,0,969.627,1370.715Z" transform="translate(-936.05 -1346.463)" fill="#f9e99d"/>
  <path id="Path_315" data-name="Path 315" d="M959.592,1399.337a3.7,3.7,0,0,0,1.97,1.265c.706.19,1.489.348,2.242.47a4.979,4.979,0,0,1,.722-1.19c-1.35-.79-2.909-1.039-3.78-2.525-.713-1.216-.57-2.558-.715-3.871a.557.557,0,0,0-.352-.114.535.535,0,0,0-.489.273.505.505,0,0,0-.113.383,7,7,0,0,1-.047,1.369q-.022.188-.046.374C958.821,1397,958.632,1398.147,959.592,1399.337Z" transform="translate(-931.905 -1373.587)" fill="#f9e65d"/>
  <path id="Path_316" data-name="Path 316" d="M931.929,1465c1.092-.083,1.755.945,2.43,1.831a3.137,3.137,0,0,1,1.081.442c0-.023.011-.053.032-.036a4.924,4.924,0,0,0,1.9.936,3.307,3.307,0,0,0,1.126.092,7.98,7.98,0,0,1,.875-.176c.117,0,.139.2.082.276-.023.03-.051.051-.075.078l.166-.03c.008,0,.014,0,.021,0a.245.245,0,0,1,.041-.026l.163-.062a6.973,6.973,0,0,1-.525-1.6c-.012-.062-.024-.124-.033-.182a5.052,5.052,0,0,1,.019-1.652.277.277,0,0,1-.029,0,.294.294,0,0,1-.032,0c-.208.019-.418.031-.628.031a5.883,5.883,0,0,1-3.821-.639l0,0-.022-.018c-.039-.033-.077-.068-.119-.1a2.625,2.625,0,0,0-.234-.152,2.2,2.2,0,0,0-2.535.4.3.3,0,0,0-.052.056.272.272,0,0,0-.029.031s-.005.006-.008.01a.31.31,0,0,0,.041.445.217.217,0,0,0,.057.031A.281.281,0,0,0,931.929,1465Z" transform="translate(-907.661 -1436.319)" fill="#f9e65d"/>
  <path id="Path_317" data-name="Path 317" d="M976.231,1504.429c.027.016.056.026.083.041-.068-.042-.136-.084-.2-.128C976.153,1504.37,976.189,1504.4,976.231,1504.429Z" transform="translate(-947.289 -1472.49)" fill="#f9e65d"/>
  <path id="Path_318" data-name="Path 318" d="M948.562,1492.788a.263.263,0,0,0-.041.026c-.007,0-.014,0-.021,0l-.166.03c-.679.739-1.784.418-2.7-.14-.028-.015-.056-.025-.083-.041s-.078-.058-.118-.087a5.582,5.582,0,0,1-1.039-.884.032.032,0,0,1-.006-.019,3.129,3.129,0,0,0-1.081-.441,6.026,6.026,0,0,0-1.323-.089c-.276.006-.421.414-.149.549,1.134.565,1.558,2.129,2.581,2.919a4.4,4.4,0,0,0,2.068.9,6.271,6.271,0,0,1,1.388-.94,7.669,7.669,0,0,1,1.671-.575,4.968,4.968,0,0,1-.821-1.267Z" transform="translate(-916.613 -1460.724)" fill="#ffcb77"/>
  <path id="Path_319" data-name="Path 319" d="M1016.92,1525.784c-.094.017-.189.033-.283.053a.358.358,0,0,1,.041.094C1016.758,1525.881,1016.839,1525.831,1016.92,1525.784Z" transform="translate(-983.406 -1491.6)" fill="#cab01f"/>
  <path id="Path_320" data-name="Path 320" d="M1029.815,1524.351c-.125,0-.251.009-.38.018a.241.241,0,0,1-.01.15C1029.545,1524.464,1029.678,1524.407,1029.815,1524.351Z" transform="translate(-994.804 -1490.323)" fill="#cab01f"/>
  <path id="Path_321" data-name="Path 321" d="M1033.267,1537.726l-.007,0a1.336,1.336,0,0,1-.567-.615c-.439.774-.877,1.58-1.347,2.35a1.478,1.478,0,0,0-.3.493,1.134,1.134,0,0,0-.033.14,1.809,1.809,0,0,0,.222,1.141,13.89,13.89,0,0,0,.682,1.278c.481.818,1.111,1.58,1.615,2.314a.589.589,0,0,0,.3.233.558.558,0,0,0,.86-.328,10.991,10.991,0,0,0,.462-3.828c-.01-.084-.029-.162-.043-.244a16.774,16.774,0,0,0-1.821-2.906C1033.279,1537.741,1033.274,1537.733,1033.267,1537.726Zm.665,6.043a12.363,12.363,0,0,0-1.38-5.168c-.009-.016.011-.055.025-.031a9.853,9.853,0,0,1,1.473,5.2C1034.049,1543.877,1033.94,1543.879,1033.933,1543.769Z" transform="translate(-996.193 -1501.692)" fill="#ffc239"/>
  <path id="Path_322" data-name="Path 322" d="M1051.98,1542.787c.007.008.011.016.019.023a16.788,16.788,0,0,1,1.821,2.906,4.84,4.84,0,0,0,.524.684c.971,1.03,2.285,1.652,3.324,2.6a.594.594,0,0,0,.985-.573c-.136-.757-.247-1.509-.449-2.228a9.48,9.48,0,0,0-1.6-2.3c-.13-.1-.259-.209-.392-.308l-.122-.09a3.4,3.4,0,0,1-1.1-.719A3.669,3.669,0,0,1,1051.98,1542.787Z" transform="translate(-1014.906 -1506.753)" fill="#f9e99d"/>
  <path id="Path_323" data-name="Path 323" d="M1096.036,1529.895a4.39,4.39,0,0,1-.771.472c-.171.083-.37.177-.58.275a4.82,4.82,0,0,1,1.145.494c.239.151.487.321.732.506a3.74,3.74,0,0,1,1.932,1.641,6.02,6.02,0,0,0,.827.451c1.584.691,3.343.268,4.94-.14a.3.3,0,0,0,.176-.432,5.444,5.444,0,0,0-2.155-2.288c-.544-.149-1.083-.377-1.686-.569C1099.112,1529.832,1097.552,1530.122,1096.036,1529.895Zm5.862,3.629.068,0h0l-.08.007Z" transform="translate(-1052.966 -1495.264)" fill="#f9e65d"/>
  <path id="Path_324" data-name="Path 324" d="M1115.559,1510.073c-.47-.469-.938-.959-1.44-1.4a14.5,14.5,0,0,1-1.482-.628,4.539,4.539,0,0,0-4.367.283,3.154,3.154,0,0,1-1.163,1.712c1.517.227,3.076-.063,4.559.409.6.193,1.142.421,1.686.57a3.492,3.492,0,0,0,1.948.033.6.6,0,0,0,.26-.984Z" transform="translate(-1064.037 -1475.414)" fill="#ffcb77"/>
  <path id="Path_325" data-name="Path 325" d="M1148.947,1489.465a3.572,3.572,0,0,0-.717-.187,4.589,4.589,0,0,1,.542.178C1148.83,1489.459,1148.891,1489.459,1148.947,1489.465Z" transform="translate(-1100.688 -1459.063)" fill="#f9e99d"/>
  <path id="Path_326" data-name="Path 326" d="M1104.621,1413.654a5.751,5.751,0,0,1,2.443-1.965,7.069,7.069,0,0,1,1.75-.435c.579-1.511-.14-3.408-.751-4.785-.181-.407-.839-.194-.823.223a5.154,5.154,0,0,1-.29,2.217c-.005.014-.009.028-.015.042a4.162,4.162,0,0,1-.424,1.441,3.657,3.657,0,0,1-1.233,1.343,4.659,4.659,0,0,1-.566.431c-.3.2-.576.457-.883.636l-.008,0c-.006.02-.015.039-.021.058a7.878,7.878,0,0,1,.648.962.493.493,0,0,1,.048-.086A.286.286,0,0,1,1104.621,1413.654Z" transform="translate(-1061.091 -1385.067)" fill="#ffd176"/>
  <path id="Path_327" data-name="Path 327" d="M1076.317,1372.627a4.477,4.477,0,0,0-.051-.486,13.421,13.421,0,0,0-.346-1.406,4.77,4.77,0,0,1-.216-1.845.366.366,0,0,0-.442-.413.483.483,0,0,0-.591.3,7.458,7.458,0,0,1-.905,1.975c-.034.055-.069.109-.1.164a15.824,15.824,0,0,0-2.306,4.026,7.8,7.8,0,0,0-.253,1.316,5.125,5.125,0,0,1,1.55,1.132,8.493,8.493,0,0,1,1.02.768,10.49,10.49,0,0,0,1.972-3.04A5.337,5.337,0,0,0,1076.317,1372.627Zm-3.567,4.355c-.125.133-.2-.176-.142-.264a11.336,11.336,0,0,0,1.743-3.741c.27-1.213.467-2.448.7-3.669.015-.078.085-.032.076.03C1074.757,1372.021,1074.709,1374.9,1072.75,1376.982Z" transform="translate(-1031.948 -1351.385)" fill="#f9e99d"/>
  <path id="Path_328" data-name="Path 328" d="M1111.759,1448.2a5.751,5.751,0,0,0-2.443,1.965.287.287,0,0,0-.124.086.485.485,0,0,0-.048.086.668.668,0,0,0-.021.569,1.225,1.225,0,0,0,.138.215.57.57,0,0,0,.145.23.6.6,0,0,0,.29.142c.005.015.012.028.018.043.622.065,1.61-.652,2.249-.828.971-.267,1.99-.347,2.942-.683a6.244,6.244,0,0,0,.61-.252,3.011,3.011,0,0,0,1.71-1.737c-.175-.262-.339-.535-.49-.818a16.177,16.177,0,0,1-3.224.548A7.075,7.075,0,0,0,1111.759,1448.2Z" transform="translate(-1065.786 -1421.578)" fill="#ffc239"/>
  <path id="Path_329" data-name="Path 329" d="M1120.37,1483.542a3.913,3.913,0,0,0-2.5,1.743,3.8,3.8,0,0,1-.062,1.568,4.54,4.54,0,0,1,4.367-.284,14.52,14.52,0,0,0,1.482.628,2.436,2.436,0,0,0,.87.108,1.9,1.9,0,0,0,1.793-2.048.3.3,0,0,0-.5-.208c-.468.392-1.234.1-1.946-.292-.532-.29-1.035-.631-1.362-.774A4.161,4.161,0,0,0,1120.37,1483.542Zm1.464.794c-.057-.005-.117-.006-.176-.009a4.546,4.546,0,0,0-.542-.179A3.588,3.588,0,0,1,1121.833,1484.337Zm3.837,1.282c.074-.037.089.12.047.156a2.746,2.746,0,0,1-2.362.528c-.616-.09-1.2-.3-1.808-.447a5.442,5.442,0,0,0-2.953.1c-.018,0-.023-.031-.008-.037a5.138,5.138,0,0,1,3-.32C1123.069,1485.884,1124.225,1486.346,1125.67,1485.619Z" transform="translate(-1073.574 -1453.935)" fill="#f9e65d"/>
  <path id="Path_330" data-name="Path 330" d="M1083.4,1541.3v-.007a.079.079,0,0,0-.033.019Z" transform="translate(-1042.878 -1505.422)" fill="#675840"/>
  <path id="Path_331" data-name="Path 331" d="M1013.483,1442.9c0-.014,0-.028-.005-.042a7.333,7.333,0,0,0-.363-1.35c-.005-.014-.013-.028-.018-.042a.606.606,0,0,1-.29-.142.571.571,0,0,1-.145-.23,1.251,1.251,0,0,1-.138-.215.668.668,0,0,1,.021-.569,7.863,7.863,0,0,0-.648-.962c-.01-.012-.021-.023-.031-.036a.48.48,0,0,1-.722-.246.5.5,0,0,1-.322-.413.538.538,0,0,1,.1-.321l-.014-.014a8.449,8.449,0,0,0-1.02-.767,5.124,5.124,0,0,0-1.55-1.132,3.565,3.565,0,0,0-.555-.2,7.59,7.59,0,0,0-2.011-.254,4.748,4.748,0,0,0-1.468.247c-.1.033-.191.062-.283.1a4.527,4.527,0,0,0-.438.164,4.8,4.8,0,0,0-1.779,1.362,4.983,4.983,0,0,0-.722,1.19c-.03.07-.051.144-.078.215.151.31.073.84-.247.872a5.048,5.048,0,0,0-.019,1.652c.009.058.021.12.033.182a6.971,6.971,0,0,0,.525,1.6,4.969,4.969,0,0,0,.822,1.267,6.2,6.2,0,0,1,3.6.157.3.3,0,0,1,.078.054c.188-.126.384-.242.575-.362.125-.079.26.058.315.154a.645.645,0,0,1,.035.5,2.719,2.719,0,0,1-.788,1.228c-.081.139-.163.275-.244.417a1.334,1.334,0,0,0,.567.615l.007,0a3.669,3.669,0,0,0,3.007,0l-.007-.007a.29.29,0,0,1-.028-.259.834.834,0,0,1,.847-.514.236.236,0,0,1,.075-.009.227.227,0,0,1,.161.008.982.982,0,0,1,.264.045c.109.021.217.049.325.079.209-.1.409-.192.58-.275a4.381,4.381,0,0,0,.771-.472,3.155,3.155,0,0,0,1.164-1.712A3.806,3.806,0,0,0,1013.483,1442.9Zm-7.606-4.66a12.028,12.028,0,0,1,4.1,3.488c.034.047-.006.212-.068.143a18.858,18.858,0,0,0-4.058-3.529C1005.818,1438.326,1005.834,1438.222,1005.877,1438.245Zm1.685,4.639a22.839,22.839,0,0,0-3.415-3.241c-.02-.015-.01-.072.019-.053a12.5,12.5,0,0,1,3.454,3.2C1007.651,1442.834,1007.615,1442.945,1007.562,1442.884Zm2.434.739a38.43,38.43,0,0,0-5.708-5.164c-.035-.024-.015-.122.032-.09a22.563,22.563,0,0,1,5.727,5.148C1010.073,1443.551,1010.045,1443.673,1010,1443.623Z" transform="translate(-969.188 -1411.555)" fill="#675840"/>
  <path id="Path_332" data-name="Path 332" d="M983.084,1521.88c.237-.29.459-.6.673-.924.032-.049.063-.1.1-.147a1.475,1.475,0,0,1,.305-.493c.47-.77.908-1.576,1.348-2.35.08-.142.162-.278.244-.417a2.722,2.722,0,0,0,.788-1.228.646.646,0,0,0-.035-.5c-.055-.1-.189-.233-.315-.154-.191.121-.387.236-.575.362a.3.3,0,0,0-.078-.053,6.2,6.2,0,0,0-3.6-.157,7.656,7.656,0,0,0-1.671.575,6.267,6.267,0,0,0-1.388.94c-.617.563-1.07,1.278-.719,1.989.481.971,1.513.73,2.4.27a1.32,1.32,0,0,0-.159.588,2.084,2.084,0,0,0,.658,1.464l.052.052a3.477,3.477,0,0,0,.4.348l0,0A1.013,1.013,0,0,0,983.084,1521.88Zm.552-5.283c.129-.009.255-.014.38-.018-.136.056-.27.113-.39.167A.242.242,0,0,0,983.636,1516.6Zm-1.118.138c-.082.047-.163.1-.243.147a.355.355,0,0,0-.041-.094C982.329,1516.769,982.423,1516.752,982.518,1516.736Zm-1.637,2.965c-.09.1-.147-.117-.123-.178.333-.846,1.34-1.344,2.083-1.788a8.606,8.606,0,0,1,1.023-.5,4.085,4.085,0,0,1,.666-.3c.016-.005.033-.008.05-.013l-.078.041a4.814,4.814,0,0,0,1.781-1.147c.032-.037.053.047.038.071a5.057,5.057,0,0,1-2.2,1.606A11.359,11.359,0,0,0,980.881,1519.7Z" transform="translate(-949.005 -1482.551)" fill="#f9e65d"/>
  <path id="Path_333" data-name="Path 333" d="M863.764,1286.154c.155.359.3.727.425,1.125a5.47,5.47,0,0,1,2.028-1.14,5.174,5.174,0,0,0,.252-.659,5.886,5.886,0,0,1-.571-3.4,3.047,3.047,0,0,0-.44-.464,4.461,4.461,0,0,1-1.982-2.981.446.446,0,0,0-.807-.105,7.146,7.146,0,0,0-.55,4.387,3.943,3.943,0,0,0,.727,1.594,8.475,8.475,0,0,1,.715,1.183v0A4.725,4.725,0,0,1,863.764,1286.154Zm-.4-3.909c-.009-.015-.034-.02-.044-.038a5.9,5.9,0,0,1-.479-3.131c0-.042.043-.044.045,0a7.584,7.584,0,0,0,.251,2.044,2.709,2.709,0,0,0,.813,1.057c.179.182.323.24.46.476.54.933.411,2.623.389,3.638,0,.094-.1.142-.125.029-.141-.782-.062-1.628-.237-2.394C864.269,1283.209,863.709,1282.786,863.36,1282.245Z" transform="translate(-845.569 -1271.045)" fill="#ffcb4a"/>
  <path id="Path_334" data-name="Path 334" d="M786.228,1420.614a3.82,3.82,0,0,1-.383-1.15,5.813,5.813,0,0,1-.075-1.234c-1.429.287-2.858.57-4.285.862a10.358,10.358,0,0,0-1.854.47,6.635,6.635,0,0,1-1.8.775c-.4.048-.645.592-.223.824,1.694.928,3.462,1.744,5.425,1.192.055-.016.118-.035.182-.056a9.1,9.1,0,0,1,1.914-.884A6.246,6.246,0,0,0,786.228,1420.614Z" transform="translate(-770.179 -1395.743)" fill="#f9e65d"/>
  <path id="Path_335" data-name="Path 335" d="M924.023,1267.793a.494.494,0,0,0-.35-.461.477.477,0,0,1,.176.4C923.906,1267.756,923.964,1267.775,924.023,1267.793Z" transform="translate(-900.553 -1261.256)" fill="#a8622d"/>
  <path id="Path_336" data-name="Path 336" d="M903.339,1284.261a2.686,2.686,0,0,1-.515-.568,6.814,6.814,0,0,1-.582-1.046,10.745,10.745,0,0,0-.508,1.321c.06.036.121.07.182.1A6.117,6.117,0,0,0,903.339,1284.261Z" transform="translate(-881.001 -1274.905)" fill="#cd9826"/>
  <path id="Path_337" data-name="Path 337" d="M898.266,1309.6c0,.008.01.016.015.025a1.205,1.205,0,0,0,0,.233,1.681,1.681,0,0,0,.059.32.941.941,0,0,0,.587.689.848.848,0,0,0,.948-.476l.021.015a.371.371,0,0,0,.277-.4,1.748,1.748,0,0,1,.164-.823,2.536,2.536,0,0,1,.516-.894,2.678,2.678,0,0,0,.469-1.166,2,2,0,0,0,.007-.235,7.1,7.1,0,0,1-2.762-1,5.4,5.4,0,0,1-.744-.506c-.051.273-.1.547-.122.822A5.885,5.885,0,0,0,898.266,1309.6Z" transform="translate(-877.367 -1295.164)" fill="#eaa654"/>
  <path id="Path_338" data-name="Path 338" d="M917.581,1265.948a.673.673,0,0,0-.743-.1,2.908,2.908,0,0,0,.919.5A.477.477,0,0,0,917.581,1265.948Z" transform="translate(-894.461 -1259.872)" fill="#cd9826"/>
  <path id="Path_339" data-name="Path 339" d="M832.9,1331.947c.04.027.078.057.118.083a2.313,2.313,0,0,0,.563.277,2.351,2.351,0,0,0,.3.029,11.188,11.188,0,0,1,1.245-1.514,6.391,6.391,0,0,0-.329-1.22,4.668,4.668,0,0,0-.2-.456v0a4.2,4.2,0,0,0-.6-.881c-1.037-1.16-2.466-1.261-3.93-1.173a.6.6,0,0,0-.509.886,11.729,11.729,0,0,0,1.883,2.664A4.385,4.385,0,0,1,832.9,1331.947Z" transform="translate(-816.6 -1314.492)" fill="#f9e65d"/>
  <path id="Path_340" data-name="Path 340" d="M799.752,1450.155a.4.4,0,0,0,.563-.034c.468-.477,1.5-.408,2.131-.557a6.413,6.413,0,0,0,1.5-.582c.028-.047.055-.095.086-.139a2.267,2.267,0,0,1,.164-.206c.113-.278.252-.538.354-.735a6.877,6.877,0,0,1,2.131-2.851c.054-.033.109-.056.163-.083a.59.59,0,0,0,.006-.111,2.087,2.087,0,0,1-.79-.583,10.02,10.02,0,0,0-1.389.35,9.106,9.106,0,0,0-1.914.884,8.682,8.682,0,0,0-2.7,2.61,9.438,9.438,0,0,0-.675,1.186A.594.594,0,0,0,799.752,1450.155Zm.026-.427a11.589,11.589,0,0,1,5.594-4.649c.057-.023.073.1.025.121a13.367,13.367,0,0,0-5.521,4.669C799.8,1449.972,799.736,1449.8,799.778,1449.728Z" transform="translate(-789.718 -1418.954)" fill="#ffcb4a"/>
  <path id="Path_341" data-name="Path 341" d="M863.152,1450.44a3.007,3.007,0,0,1,.381-1.074,4.519,4.519,0,0,1-.894.2c-.017.062-.034.123-.052.184a1.182,1.182,0,0,1,.088.551,1.712,1.712,0,0,1-.115.468,14.765,14.765,0,0,1-1.579,5.619,6.63,6.63,0,0,1-.571,1.544.445.445,0,0,0,.6.6c1.249-.708,3.023-1.986,3.282-3.526a1.676,1.676,0,0,0,.012-.548.538.538,0,0,1-.2-.321C863.8,1452.885,862.948,1451.784,863.152,1450.44Z" transform="translate(-844.122 -1423.493)" fill="#eaa654"/>
  <path id="Path_342" data-name="Path 342" d="M790.919,1388.888a8.522,8.522,0,0,1-2.782-1.157c-1.508-.141-3.175.146-4.614.152-.348,0-.629.508-.312.754a9.8,9.8,0,0,0,3.574,2.228,14.8,14.8,0,0,0,4.052.1,7.4,7.4,0,0,1,.324-1.82Q791.043,1389.01,790.919,1388.888Zm-.728.789a5.344,5.344,0,0,0-2.983-.5,6.6,6.6,0,0,1-2.525-.579c-.031-.013-.025-.091.012-.078a7.742,7.742,0,0,0,3.49.294,2.333,2.333,0,0,1,2.08.571C790.322,1389.443,790.331,1389.762,790.191,1389.677Z" transform="translate(-775.244 -1368.526)" fill="#f9e65d"/>
  <path id="Path_343" data-name="Path 343" d="M809.623,1358.9a10.126,10.126,0,0,1,.922-1.991,8.243,8.243,0,0,0-.608-.977,4.374,4.374,0,0,0-1.463-1.309c-.078-.042-.152-.089-.235-.126a8.885,8.885,0,0,0-3.932-.508.594.594,0,0,0-.508.886,8.815,8.815,0,0,0,2.736,2.806,8.522,8.522,0,0,0,2.782,1.157Q809.469,1358.869,809.623,1358.9Zm-.454-1.127a2.235,2.235,0,0,1-1.823-.985,8.48,8.48,0,0,0-1.388-1.394,14.714,14.714,0,0,0-1.662-.88c-.027-.014-.025-.086.012-.074a6.689,6.689,0,0,1,2.362,1.2c.42.351.768.782,1.19,1.129a5.035,5.035,0,0,0,1.328.711C809.293,1357.521,809.293,1357.751,809.169,1357.77Z" transform="translate(-793.641 -1338.473)" fill="#ffcb77"/>
  <path id="Path_344" data-name="Path 344" d="M854.853,1359.358a2.573,2.573,0,0,0,.294.449,2.088,2.088,0,0,0,.79.583c.04.017.082.031.124.046a.931.931,0,0,1,1.1.132c.053,0,.105,0,.159-.011a4.534,4.534,0,0,0,.894-.2,3.289,3.289,0,0,1,1.343-1.247,2.535,2.535,0,0,1-.945-2.646,1.8,1.8,0,0,1,.382-.679,2.021,2.021,0,0,1,.088-.2,1.663,1.663,0,0,1,.058-.169c.012-.031.033-.012.038.01a1.52,1.52,0,0,1,.3-.357,1.22,1.22,0,0,1,1.191-.238c.018-.018.039-.034.056-.052a1.416,1.416,0,0,1-.017-.8,1.807,1.807,0,0,1,.483-.755,1.552,1.552,0,0,1,.021-.191c0-.011,0-.019.007-.03a1.815,1.815,0,0,1,.094-1.235,6.467,6.467,0,0,0,.245-1.791,1.228,1.228,0,0,0-.235-.254l-.021-.015a.848.848,0,0,1-.948.476.941.941,0,0,1-.587-.689c-.106.023-.213.05-.32.082a5.473,5.473,0,0,0-2.028,1.14l-.058.056-.038.04a11.172,11.172,0,0,0-1.245,1.514c-.131.191-.255.388-.375.589a10.1,10.1,0,0,0-.922,1.991c-.022.066-.045.132-.065.2a7.4,7.4,0,0,0-.324,1.82c0,.015,0,.03,0,.045a5.8,5.8,0,0,0,.075,1.234A3.816,3.816,0,0,0,854.853,1359.358Z" transform="translate(-838.805 -1334.488)" fill="#956777"/>
  <path id="Path_345" data-name="Path 345" d="M888.549,1438.46a.284.284,0,0,1-.261-.015,4.667,4.667,0,0,1-.756-.546,3.285,3.285,0,0,0-1.343,1.247,3,3,0,0,0-.381,1.074c-.2,1.344.649,2.445.952,3.7a.538.538,0,0,0,.2.322.646.646,0,0,0,.931-.322,11.636,11.636,0,0,0,.8-4.11c0-.333,0-.666-.023-1A.683.683,0,0,0,888.549,1438.46Z" transform="translate(-866.779 -1413.274)" fill="#f9e99d"/>
  <path id="Path_346" data-name="Path 346" d="M962.842,1314.36a.382.382,0,0,0-.248.091c-.04.03-.084.053-.127.079-.134.06-.264.125-.393.191l-.012.005a2.708,2.708,0,0,1,.043.821.225.225,0,0,1-.021.072,1.387,1.387,0,0,1,.025.178c.006.165-.106.38-.289.266a8.549,8.549,0,0,0-.972-.687,5.666,5.666,0,0,0-1.213-.327c-.2-.041-.392-.086-.583-.14a1.785,1.785,0,0,1-.028,2.24.129.129,0,0,1-.075.037.066.066,0,0,1-.092.008c-1.085-.752-2.552-.112-3.428-1.331a2.3,2.3,0,0,1-.2-.352c-.125-.029-.25-.063-.372-.1-.031-.01-.061-.023-.092-.034a1.041,1.041,0,0,1-.5.064.5.5,0,0,1-.029.181,2.129,2.129,0,0,1-.068.322,2.587,2.587,0,0,1-.212.488,2.024,2.024,0,0,1,.486-.308c.216-.1.259.316.177.432a3.38,3.38,0,0,0-.427.823,3.531,3.531,0,0,0,.334.181c.954.415,2.067.26,3.008.693.764.352,1.076,1.077,1.537,1.687a2.565,2.565,0,0,0,.234,1.338,3.086,3.086,0,0,0-.1-1.567c-.2-.6.573-.928.984-.573a3.012,3.012,0,0,1,.611.723A4.867,4.867,0,0,1,962.3,1317c.941-.921,2.151-1.5,2.873-2.637a1.016,1.016,0,0,0,.069-.74,4.506,4.506,0,0,1-1.973.536Q963.059,1314.263,962.842,1314.36Z" transform="translate(-927.539 -1302.513)" fill="#4b6949"/>
  <path id="Path_347" data-name="Path 347" d="M1059.979,1251.554c.445.121.887.258,1.332.347a7.015,7.015,0,0,0,1.394-1.2,10.752,10.752,0,0,0,1.986-2.839c.29-.113.591-.216.91-.342.062-.024.065-.155.012-.19a2.221,2.221,0,0,0-2.709.535c-.566.68-1.059,1.456-1.594,2.108Q1060.655,1250.775,1059.979,1251.554Z" transform="translate(-1022.035 -1243.184)" fill="#ffcb77"/>
  <path id="Path_348" data-name="Path 348" d="M928.582,1224.279c.076.123.151.252.227.393a.367.367,0,0,1-.028.336,1.349,1.349,0,0,1,.124.147,2.17,2.17,0,0,1,.438-.776,4.605,4.605,0,0,0,.027-1.011,3.575,3.575,0,0,1,.2.772,4.8,4.8,0,0,1,.994-.717c0-.021.01-.042.013-.063-.015-.038-.027-.078-.041-.116-.541-.189-.725-1.137-.863-1.612a8.589,8.589,0,0,1-.313-2.626c0-.16.1-.265.2-.256a2.671,2.671,0,0,0-.217-.439.594.594,0,0,1,.01-.433,3.077,3.077,0,0,1,0-.791c.013-.1-.079-.391-.221-.246a1.865,1.865,0,0,0-.316.443,3.665,3.665,0,0,0-.928,2.9,3.384,3.384,0,0,0,.137.539c-.828-.6-1.854-.966-2.155-2.029,0-.229,0-.457.013-.676,0-.064-.08-.123-.1-.04-.328,1.116-.721,2.318-.095,3.414a3.808,3.808,0,0,0,1.4,1.235,3.141,3.141,0,0,1,.982.994,2.757,2.757,0,0,1,.366.418A.519.519,0,0,1,928.582,1224.279Z" transform="translate(-902.043 -1216.222)" fill="#ffcb4a"/>
  <path id="Path_349" data-name="Path 349" d="M1009.942,1223.444a4.4,4.4,0,0,1,1.029.184,4.24,4.24,0,0,1,.3-3.022c-.073.011-.141-.152-.133-.223.042-.387.159-.758.227-1.141a10.564,10.564,0,0,0,.089-1.237c0-.035.042-.108.076-.051a1.4,1.4,0,0,1,.072.158c.009-.157-.139-.335-.232-.13a10.534,10.534,0,0,1-1.569,2.078c.009.357,0,.712.014,1.038C1009.847,1221.878,1009.9,1222.661,1009.942,1223.444Z" transform="translate(-977.315 -1217.191)" fill="#ffcb77"/>
  <path id="Path_350" data-name="Path 350" d="M887.08,1253.641a5.893,5.893,0,0,0,5.849,3.095,1.234,1.234,0,0,1,.346-.793,2.151,2.151,0,0,1,1.333-.537,2.7,2.7,0,0,1,.073-.736c.008-.034.022-.068.032-.1a1.363,1.363,0,0,0-.124-.147.368.368,0,0,0,.028-.336c-.076-.141-.15-.27-.226-.393a.518.518,0,0,0-.154-.236,2.739,2.739,0,0,0-.366-.419,2.4,2.4,0,0,0-1.342-.606,8.723,8.723,0,0,1-1.207-.259l-.174-.057a2.92,2.92,0,0,1-.92-.5,2.3,2.3,0,0,1-.781-1.45c-.065-.389-.483-.515-.639-.111a4.427,4.427,0,0,0,.286,3.324,6.851,6.851,0,0,0,.582,1.046,2.689,2.689,0,0,0,.515.568,6.127,6.127,0,0,1-1.422-.189c-.061-.034-.122-.069-.182-.1a9.824,9.824,0,0,1-1.509-1.083c-.09-.079-.114.119-.081.171l.03.045c-.01-.044-.024-.085-.032-.13S887.045,1253.558,887.08,1253.641Z" transform="translate(-867.852 -1245.634)" fill="#f9e65d"/>
  <path id="Path_351" data-name="Path 351" d="M1047.189,1229.371a12.66,12.66,0,0,0-4.136,1.6,3.358,3.358,0,0,0-1.161,1.593,6.234,6.234,0,0,0-.244,2.213,3.825,3.825,0,0,0,.091.458c0,.013.006.029.008.044a3.269,3.269,0,0,1,.438-.023,3.734,3.734,0,0,1,.583-2.5,3.176,3.176,0,0,1,1.007-1.605c1.064-.906,2.658-.83,3.611-1.859.058-.063.055-.3-.076-.25l-.25.092.1.01C1047.25,1229.156,1047.279,1229.349,1047.189,1229.371Z" transform="translate(-1005.683 -1227.126)" fill="#ffcb77"/>
  <path id="Path_352" data-name="Path 352" d="M1046.368,1242.257a5.769,5.769,0,0,1,1.443.239q.674-.781,1.331-1.577c.535-.651,1.028-1.428,1.594-2.108a6.724,6.724,0,0,1,.706-.739,3.261,3.261,0,0,0,1.169-.8c.064-.073.1-.416-.077-.377-1.568.348-3.662.748-4.844,1.913a4.85,4.85,0,0,0-.738.951A3.732,3.732,0,0,0,1046.368,1242.257Z" transform="translate(-1009.868 -1234.126)" fill="#f9e65d"/>
  <path id="Path_353" data-name="Path 353" d="M1034.029,1232.964c-.2.679-.1,1.418-.25,2.11,0,.005,0,.01-.006.016a2.167,2.167,0,0,1,.092.633,4.556,4.556,0,0,1,.59-.176c.1-.021.192-.035.286-.046a.357.357,0,0,0-.009-.044,3.839,3.839,0,0,1-.09-.458,4.615,4.615,0,0,1,.244-2.213,3.358,3.358,0,0,1,1.161-1.593,12.662,12.662,0,0,1,4.136-1.6c.09-.022.061-.215-.026-.225l-.1-.01c-1.619-.174-3.56-.091-4.833.977-.089.242-.184.48-.283.711A18.8,18.8,0,0,0,1034.029,1232.964Z" transform="translate(-998.679 -1227.346)" fill="#f9e65d"/>
  <path id="Path_354" data-name="Path 354" d="M970.637,1223.952c.007.035.014.072.021.108.167-.047.335-.087.5-.123a5.97,5.97,0,0,1-.162-3.756,2.755,2.755,0,0,0-.495-.769,10.789,10.789,0,0,0-1.876-1.131c-.114-.08-.148.12-.119.192.007.018.018.034.026.052a2.327,2.327,0,0,0,.7,1.762c.017.057.036.114.051.172a4.392,4.392,0,0,1,.726,1.416C970.22,1222.554,970.488,1223.257,970.637,1223.952Z" transform="translate(-940.505 -1217.522)" fill="#ffcb4a"/>
  <path id="Path_355" data-name="Path 355" d="M961.767,1226.232a2.665,2.665,0,0,1,.217.439c.061.006.119.058.147.176a15.457,15.457,0,0,0,.734,2.254,3.44,3.44,0,0,1,.508,1.793c-.016.115-.1.313-.25.3a.583.583,0,0,1-.162-.035c.014.038.026.078.041.116l.019.046a7.658,7.658,0,0,1,1.6-.646c-.007-.036-.013-.073-.021-.108-.149-.7-.417-1.4-.625-2.078a4.387,4.387,0,0,0-.726-1.417,12.533,12.533,0,0,0-1.253-1.333c-.106-.1-.179-.048-.223.055A.6.6,0,0,0,961.767,1226.232Z" transform="translate(-934.471 -1224.142)" fill="#ffcb77"/>
  <path id="Path_356" data-name="Path 356" d="M1023.035,1286.224a3.313,3.313,0,0,0-.438.023c-.095.012-.19.025-.286.046a4.488,4.488,0,0,0-.59.176c0,.02,0,.037,0,.057a1.1,1.1,0,0,1-.114.457c0,.013,0,.027.005.04a5.86,5.86,0,0,0-1.259.67.561.561,0,0,0-.2.383.929.929,0,0,0,.134.673,3.29,3.29,0,0,0,.392.4,2.4,2.4,0,0,0,1.582.594,4.511,4.511,0,0,0,1.973-.537,22.856,22.856,0,0,0,2.335-1.421l.173-.112c.049-.013.1-.03.148-.048a1.83,1.83,0,0,0,.608-.388c.119-.111.086-.47-.127-.417a3.524,3.524,0,0,1-1.565-.006c-.446-.089-.887-.227-1.333-.347A5.747,5.747,0,0,0,1023.035,1286.224Zm3.226,1.064c.082-.031.107.147.036.173a4.248,4.248,0,0,1-2.105.324,7.8,7.8,0,0,0-2.289-.448c-.07.008-.08-.151-.019-.169a2.383,2.383,0,0,1,1.574.189A3.649,3.649,0,0,0,1026.261,1287.288Z" transform="translate(-986.533 -1278.093)" fill="#f9e99d"/>
  <path id="Path_357" data-name="Path 357" d="M1019.571,1214.879a4.241,4.241,0,0,0-.3,3.022,2.031,2.031,0,0,1,1.438,1.306c0-.005,0-.01.006-.016.148-.692.047-1.43.25-2.11a18.825,18.825,0,0,1,.91-1.919c.1-.231.194-.469.284-.711a7.005,7.005,0,0,0,.476-2.139,2.914,2.914,0,0,0,.253-.538c.027-.08-.008-.38-.158-.295a8.114,8.114,0,0,0-2.919,2.93,3.836,3.836,0,0,1-.175.411C1019.613,1214.861,1019.592,1214.876,1019.571,1214.879Z" transform="translate(-985.613 -1211.465)" fill="#ffc239"/>
  <path id="Path_358" data-name="Path 358" d="M989.745,1223.732a7.225,7.225,0,0,1,1.97-.162c-.041-.783-.095-1.566-.126-2.345-.013-.326-.005-.681-.014-1.038a3.9,3.9,0,0,0-.242-1.413.959.959,0,0,0-.241-.666c-.065-.075-.144-.107-.227-.039a4.018,4.018,0,0,0-1.282,1.906A5.97,5.97,0,0,0,989.745,1223.732Z" transform="translate(-959.088 -1217.317)" fill="#ffd176"/>
  <path id="Path_359" data-name="Path 359" d="M960.429,1272.058a1.694,1.694,0,0,1,2.32-.681,3.119,3.119,0,0,1,1.2,1.206.56.56,0,0,1,.2-.383,5.85,5.85,0,0,1,1.259-.67c0-.013,0-.026-.005-.04a1.1,1.1,0,0,0,.114-.457c0-.02,0-.038,0-.057a2.159,2.159,0,0,0-.092-.633,2.032,2.032,0,0,0-1.438-1.306,4.371,4.371,0,0,0-1.029-.184,7.228,7.228,0,0,0-1.97.162c-.169.036-.338.076-.5.123a7.66,7.66,0,0,0-1.6.646l-.032.017a4.813,4.813,0,0,0-.994.717,3.194,3.194,0,0,0-.224.239,2.171,2.171,0,0,0-.438.776c-.01.034-.024.068-.032.1a2.7,2.7,0,0,0-.073.736l.041,0a3.013,3.013,0,0,1,.4-.317c.377-.244.647.461.633.7q-.016.259-.031.519a.25.25,0,0,1,.022-.014c.44-.213,1.194.18,1.606.33.173.063.347.132.519.207a1.558,1.558,0,0,1-.1-.185A1.45,1.45,0,0,1,960.429,1272.058Zm-1.464-1.261c-.063.067-.106-.09-.074-.137a1.912,1.912,0,0,1,.908-.744,1.968,1.968,0,0,1,.692-.121,1.519,1.519,0,0,0,1.006-.16c.629-.3,1.28-.394,1.749.242.043.058.012.258-.087.183a1.311,1.311,0,0,0-1.4-.245c-.173.088-.306.27-.5.328-.381.116-.8-.086-1.195,0A2.041,2.041,0,0,0,958.965,1270.8Z" transform="translate(-930.325 -1262.6)" fill="#655d5b"/>
  <path id="Path_360" data-name="Path 360" d="M988.07,1294.551a8.522,8.522,0,0,1,.972.687c.183.114.3-.1.289-.265a1.465,1.465,0,0,0-.025-.179.226.226,0,0,0,.021-.072,2.72,2.72,0,0,0-.043-.821,5.673,5.673,0,0,0-.375-1.16,3.347,3.347,0,0,1-.392-.4.931.931,0,0,1-.134-.673,3.117,3.117,0,0,0-1.2-1.206,1.694,1.694,0,0,0-2.32.68,1.451,1.451,0,0,0-.252,1.551,1.567,1.567,0,0,0,.1.185,4.056,4.056,0,0,1,1.194.746,2.385,2.385,0,0,1,.37.456c.191.054.386.1.583.14A5.645,5.645,0,0,1,988.07,1294.551Zm-1.65-3.193a6.044,6.044,0,0,1,2.824,3.711c.031.121-.123.284-.174.118a7.119,7.119,0,0,0-2.668-3.755C986.38,1291.415,986.389,1291.339,986.421,1291.357Z" transform="translate(-954.761 -1281.688)" fill="#f9e65d"/>
  <path id="Path_361" data-name="Path 361" d="M1156.607,1296.559a6.224,6.224,0,0,0,.508.986c.009.015.019.029.027.044.1.168.207.335.31.5l.037-.028s.005.009.009.012a.527.527,0,0,0,.825-.191,2.425,2.425,0,0,0,.225-.846c.052-.041.1-.084.156-.123-.016-.1-.03-.2-.046-.3a7.39,7.39,0,0,0,.134-3.992,4.658,4.658,0,0,0-1.329-2.045c-.633-.588-1.387-1.058-2.164-1.692-.548-.447-.8.528-.73.9a10.736,10.736,0,0,0,.672,1.89,2.706,2.706,0,0,1,.159.9,5.412,5.412,0,0,1,.243.678C1155.956,1294.349,1156.2,1295.493,1156.607,1296.559Zm.185-4.375c-.018-.065-.036-.129-.056-.192.033.046.064.093.1.14C1156.818,1292.149,1156.8,1292.164,1156.791,1292.183Zm-.341-1.36a7.148,7.148,0,0,1,1.78,5.651c-.024.148-.169.1-.169-.03a8.572,8.572,0,0,0-1.676-5.517C1156.348,1290.88,1156.392,1290.755,1156.45,1290.823Z" transform="translate(-1106.327 -1280.363)" fill="#f9e65d"/>
  <path id="Path_362" data-name="Path 362" d="M1136.27,1321.242a2.35,2.35,0,0,0,.2.205c.033-.092.076-.179.115-.268a.711.711,0,0,0,.876-.5,1.066,1.066,0,0,0,0-.635c0-.041,0-.083,0-.126.054-.052.1-.108.162-.157-.1-.168-.207-.335-.31-.5-.009-.015-.018-.029-.027-.044a6.227,6.227,0,0,1-.508-.987c-.411-1.065-.651-2.209-.965-3.306a5.392,5.392,0,0,0-.243-.679c-.327-.746-.806-1.269-1.422-1.139a.105.105,0,0,1,.018.078,6.217,6.217,0,0,0,.5,5.24,15.846,15.846,0,0,0,1.977,2.461c.05.054.031.248-.063.177a8.906,8.906,0,0,1-2.856-3.895,6.21,6.21,0,0,1,.362-4.049h0a2.094,2.094,0,0,0-.983.745,3.821,3.821,0,0,0-.456,3.938,3.911,3.911,0,0,0,.3.568A8.1,8.1,0,0,0,1136.27,1321.242Z" transform="translate(-1086.499 -1302.032)" fill="#ffcb4a"/>
  <path id="Path_363" data-name="Path 363" d="M1176.133,1358.058a1.1,1.1,0,0,1-.895-.173,1.025,1.025,0,0,1-.375-.932c-.042-.025-.084-.053-.127-.076a3.444,3.444,0,0,0-1.336-.39,3.806,3.806,0,0,0-2.533.772c-.053.039-.1.082-.156.123a2.423,2.423,0,0,1-.225.846.528.528,0,0,1-.825.192s-.005-.009-.009-.013l-.037.029c-.057.048-.107.1-.162.157,0,.043,0,.086,0,.126a1.064,1.064,0,0,1,0,.635.711.711,0,0,1-.876.5c-.039.089-.082.176-.115.268-.007.019-.011.04-.018.059a1.094,1.094,0,0,1,.257.491q.034.307.019.163c-.006-.052,0-.041.005.034a1.509,1.509,0,0,1,.013.325,1.1,1.1,0,0,1-.158.519.567.567,0,0,1-.377.259,10.562,10.562,0,0,0,1.234,4.375,9.435,9.435,0,0,0,.49.818,7.306,7.306,0,0,0,1.025,1.236l.026.022a2.093,2.093,0,0,1,.608-.025c.021-.008.041-.021.064-.027.171-.05.176.238.1.323-.061.066-.12.135-.178.2.1.072.2.146.31.208l.047.026c.049.028.1.048.149.074l-.007-.03c-.033-.134,0-.415.162-.469a1.449,1.449,0,0,1,1.633.681,2.2,2.2,0,0,1,.1.2,3.7,3.7,0,0,0,1.115-.279,4.812,4.812,0,0,0,1.086-.629,4.54,4.54,0,0,0,.517-.474c0-.014.009-.026.022-.026l0,0c.012-.013.026-.025.037-.038.033-.036.063-.074.094-.111s.088-.1.129-.152a5.04,5.04,0,0,0,.739-1.335,6.746,6.746,0,0,0,.393-1.828,9.476,9.476,0,0,0-.171-2.619c-.017-.082-.035-.165-.053-.246a10.613,10.613,0,0,0-.713-2.105c-.1-.216-.206-.426-.318-.626a7.824,7.824,0,0,0-.609-.936C1176.2,1358.143,1176.169,1358.1,1176.133,1358.058Zm-4.235,5.993c-.348-.807-.6-1.667-.887-2.5-.028-.08.062-.213.1-.1.3.834.649,1.666.894,2.519C1172.031,1364.053,1171.942,1364.153,1171.9,1364.051Zm1.338.884a49.012,49.012,0,0,0-1.433-5.23c-.015-.042.031-.113.055-.052a22.243,22.243,0,0,1,1.466,5.241C1173.334,1364.967,1173.258,1365.028,1173.236,1364.935Zm1.558.132a58.334,58.334,0,0,0-2.008-5.86c-.016-.038.025-.1.049-.046a33.048,33.048,0,0,1,2.048,5.866C1174.9,1365.1,1174.821,1365.156,1174.795,1365.067Zm.841-.139a20.169,20.169,0,0,0-1.918-5.983c-.017-.034.023-.114.052-.064a14.562,14.562,0,0,1,1.938,6.03C1175.712,1364.967,1175.646,1364.989,1175.636,1364.928Z" transform="translate(-1118.492 -1340.707)" fill="#655d5b"/>
  <path id="Path_364" data-name="Path 364" d="M1216.42,1507.379c-.01.038-.019.077-.03.115A.106.106,0,0,0,1216.42,1507.379Z" transform="translate(-1161.436 -1475.196)" fill="#eaa654"/>
  <path id="Path_365" data-name="Path 365" d="M1216.11,1509.425c.008,0,.008-.02,0-.02s0,0,0,.008v0S1216.106,1509.425,1216.11,1509.425Z" transform="translate(-1161.18 -1477.002)" fill="#eaa654"/>
  <path id="Path_366" data-name="Path 366" d="M1126.566,1356.876a3.546,3.546,0,0,0,0,2.542,1.574,1.574,0,0,0-.268,1,3.172,3.172,0,0,0,.067.59.957.957,0,0,0,.127.312,1.731,1.731,0,0,0,.093.2,1.147,1.147,0,0,0,.179.235.515.515,0,0,1,.35-.07c1.058.132,2.209.052,3.316.123a.514.514,0,0,0,.2.084.406.406,0,0,0,.23.029.567.567,0,0,0,.377-.259,1.1,1.1,0,0,0,.158-.519,1.53,1.53,0,0,0-.013-.325c-.009-.075-.011-.086-.005-.034q.015.143-.019-.164a1.093,1.093,0,0,0-.258-.491c.007-.019.011-.04.019-.059a2.4,2.4,0,0,1-.2-.205,8.1,8.1,0,0,1-3.313-2.876,3.879,3.879,0,0,1-.3-.568h0a.991.991,0,0,0-.37.139.259.259,0,0,0-.047.008A.516.516,0,0,0,1126.566,1356.876Z" transform="translate(-1081.136 -1340.656)" fill="#eaa654"/>
  <path id="Path_367" data-name="Path 367" d="M1218.851,1378.511a20.165,20.165,0,0,1,1.918,5.983c.01.061.076.039.071-.017a14.564,14.564,0,0,0-1.937-6.03C1218.874,1378.4,1218.834,1378.477,1218.851,1378.511Z" transform="translate(-1163.625 -1360.272)" fill="#956777"/>
  <path id="Path_368" data-name="Path 368" d="M1210.3,1381.028a58.352,58.352,0,0,1,2.008,5.86c.027.089.106.035.089-.04a33.006,33.006,0,0,0-2.048-5.865C1210.324,1380.929,1210.283,1380.99,1210.3,1381.028Z" transform="translate(-1156.003 -1362.528)" fill="#956777"/>
  <path id="Path_369" data-name="Path 369" d="M1201.258,1385.531a49,49,0,0,1,1.433,5.23c.022.094.1.032.089-.04a22.22,22.22,0,0,0-1.466-5.241C1201.288,1385.418,1201.242,1385.489,1201.258,1385.531Z" transform="translate(-1147.946 -1366.533)" fill="#956777"/>
  <path id="Path_370" data-name="Path 370" d="M1193.948,1401.986c.289.83.54,1.69.887,2.5.044.1.133,0,.111-.075-.245-.853-.592-1.685-.894-2.519C1194.01,1401.773,1193.92,1401.906,1193.948,1401.986Z" transform="translate(-1141.429 -1381.139)" fill="#956777"/>
  <path id="Path_371" data-name="Path 371" d="M1032.464,1469.212c-.029-.018-.039.038-.019.054a22.814,22.814,0,0,1,3.415,3.241c.054.061.089-.05.058-.093A12.508,12.508,0,0,0,1032.464,1469.212Z" transform="translate(-997.486 -1441.177)" fill="#956777"/>
  <path id="Path_372" data-name="Path 372" d="M1033.718,1457.965c-.047-.031-.067.066-.032.09a38.432,38.432,0,0,1,5.708,5.164c.048.05.077-.072.051-.107A22.58,22.58,0,0,0,1033.718,1457.965Z" transform="translate(-998.585 -1431.151)" fill="#956777"/>
  <path id="Path_373" data-name="Path 373" d="M1052.114,1460.483c.062.069.1-.1.068-.143a12.033,12.033,0,0,0-4.1-3.488c-.043-.024-.059.082-.026.1A18.846,18.846,0,0,1,1052.114,1460.483Z" transform="translate(-1011.392 -1430.161)" fill="#956777"/>
  <path id="Path_374" data-name="Path 374" d="M976.032,1274.74c.191-.058.324-.241.5-.328a1.312,1.312,0,0,1,1.4.245c.1.075.13-.124.087-.183-.469-.636-1.119-.545-1.749-.242a1.522,1.522,0,0,1-1.006.16,1.957,1.957,0,0,0-.692.121,1.914,1.914,0,0,0-.908.744c-.032.047.011.2.074.137a2.039,2.039,0,0,1,1.1-.656C975.236,1274.654,975.65,1274.856,976.032,1274.74Z" transform="translate(-945.098 -1267.197)" fill="#956777"/>
  <path id="Path_375" data-name="Path 375" d="M913.377,1349.587l-.355-.394-.033-.039a2.222,2.222,0,0,1-.157-.948,4.242,4.242,0,0,0,2.342.917,5.225,5.225,0,0,1,.549-3.464.472.472,0,0,1,.2-.226c.026-.046.049-.093.077-.139a.547.547,0,0,1,.563-.271q.024-.185.046-.374a3.839,3.839,0,0,1-.3-.258,2.009,2.009,0,0,1-.639-1.64,3.672,3.672,0,0,1,.715-1.278.5.5,0,0,0,.1-.233,2.18,2.18,0,0,0,.281-1.488c-.007-.1-.106-.1-.111,0-.012.268-.336.441-.5.619s-.341.348-.5.535a.22.22,0,0,0-.072-.031,28.515,28.515,0,0,1,.547-3.175,3.372,3.372,0,0,1,.427-.823c.082-.116.039-.528-.177-.432a2.022,2.022,0,0,0-.486.308c-.057.106-.116.212-.172.32a2.385,2.385,0,0,0-.1.224,10,10,0,0,1-.164,1.163,4.266,4.266,0,0,1-.7,1.487,5.15,5.15,0,0,1-.815.865c1.241.519-.246,4.28-.507,4.953a.3.3,0,0,1-.578-.078,1.305,1.305,0,0,0-.178-.554c-.21-.3-.506-.652-.768-1.026a.336.336,0,0,1-.082.142c.57.886-.176,2.869-.412,3.584a.316.316,0,0,1-.172.191.679.679,0,0,1,.128.346c.023.337.028.67.023,1a1.954,1.954,0,0,0,.7.444,1.917,1.917,0,0,0,.483.273.233.233,0,0,0,.186.068,3.607,3.607,0,0,0,.359.1.217.217,0,0,0,.16-.027.232.232,0,0,0,.043-.025A.514.514,0,0,0,913.377,1349.587Z" transform="translate(-889.489 -1322.841)" fill="#476036"/>
  <path id="Path_376" data-name="Path 376" d="M842.13,1449.987a1.184,1.184,0,0,0-.087-.551c.017-.061.035-.122.052-.184-.054.006-.106.007-.159.011a.931.931,0,0,0-1.1-.132c-.043.017-.086.044-.129.066s-.109.05-.163.083a6.876,6.876,0,0,0-2.131,2.851c-.1.2-.24.458-.354.735a2.331,2.331,0,0,0-.164.206c-.031.045-.058.093-.086.14a3.188,3.188,0,0,0-.376.982,16.123,16.123,0,0,0-.03,3.651.594.594,0,0,0,.886.509,6.491,6.491,0,0,0,2.148-2.279,14.763,14.763,0,0,0,1.579-5.619A1.706,1.706,0,0,0,842.13,1449.987Z" transform="translate(-823.577 -1423.182)" fill="#f9e65d"/>
  <path id="Path_377" data-name="Path 377" d="M963.808,1238.935a3.441,3.441,0,0,0-.508-1.793,15.464,15.464,0,0,1-.734-2.254c-.028-.119-.086-.171-.147-.176-.094-.008-.194.1-.2.256a8.579,8.579,0,0,0,.313,2.626c.137.475.322,1.423.863,1.612a.589.589,0,0,0,.161.034C963.7,1239.248,963.791,1239.05,963.808,1238.935Z" transform="translate(-934.906 -1232.182)" fill="#f9e65d"/>
  <path id="Path_378" data-name="Path 378" d="M899.332,1321.3a.492.492,0,0,0,.029-.181.431.431,0,0,0-.014-.07c0-.027,0-.055,0-.082a1.694,1.694,0,0,0-.08-.915c-.012-.036-.065-.076-.1-.036a1.535,1.535,0,0,1-.251.237.176.176,0,0,0-.082.039l-.093.073a1.961,1.961,0,0,1-.6.208l-.041-.048a2.541,2.541,0,0,0-.661.043,2.383,2.383,0,0,0-1.32.748,2.536,2.536,0,0,0-.516.894,2.772,2.772,0,0,0-.11.426,8.655,8.655,0,0,0-.1,1.053,6.463,6.463,0,0,1-.245,1.791,1.818,1.818,0,0,0-.093,1.235,1.1,1.1,0,0,0,.063.135c-.031.028-.061.057-.09.086a1.807,1.807,0,0,0-.483.755,1.415,1.415,0,0,0,.017.8c.008.029.021.058.031.087-.029-.014-.058-.023-.087-.034a1.22,1.22,0,0,0-1.191.238,1.511,1.511,0,0,0-.3.357.04.04,0,0,1,0,.014c-.168,1.151.75,1.459,1.227,2.3a2.446,2.446,0,0,1,.313,1.493c-.009.09-.116.1-.126,0a3.143,3.143,0,0,0-.612-1.666c-.213-.267-.491-.479-.684-.764a1.4,1.4,0,0,1-.215-1.218,2.005,2.005,0,0,0-.088.2,1.8,1.8,0,0,0-.382.678,2.535,2.535,0,0,0,.945,2.646,4.69,4.69,0,0,0,.755.546.284.284,0,0,0,.261.015.316.316,0,0,0,.172-.191c.236-.715.982-2.7.412-3.584a.333.333,0,0,0,.082-.142c.262.374.558.722.768,1.026a1.3,1.3,0,0,1,.178.554.3.3,0,0,0,.578.078c.261-.674,1.748-4.435.507-4.953a5.154,5.154,0,0,0,.815-.865,4.263,4.263,0,0,0,.7-1.487,10.039,10.039,0,0,0,.164-1.163,2.322,2.322,0,0,1,.1-.224c.056-.108.115-.214.172-.32a2.568,2.568,0,0,0,.212-.488A2.1,2.1,0,0,0,899.332,1321.3Zm-3.014,8.55c-.037.087-.109.006-.1-.058.175-.854.183-2.623-.992-2.815-.05-.009-.057-.119,0-.119C896.543,1326.859,896.691,1328.967,896.317,1329.85Zm1.4-6.939a4.579,4.579,0,0,0-1.143.353,2.069,2.069,0,0,0-.876,1.083c-.017.047-.05-.005-.042-.036a2.179,2.179,0,0,1,.933-1.323,4.246,4.246,0,0,1,.983-.355c.533-.179.646-.559.8-1.045.026-.083.1-.021.1.039A1.159,1.159,0,0,1,897.713,1322.911Z" transform="translate(-872.639 -1308.196)" fill="#f9e65d"/>
  <path id="Path_379" data-name="Path 379" d="M1022.414,1218.361a10.534,10.534,0,0,1-.089,1.237c-.068.383-.184.754-.226,1.141-.008.071.061.234.133.223.021,0,.042-.019.062-.057a3.868,3.868,0,0,0,.175-.411,2.873,2.873,0,0,0,.093-2.024,1.466,1.466,0,0,0-.072-.158C1022.455,1218.254,1022.415,1218.327,1022.414,1218.361Z" transform="translate(-988.273 -1217.547)" fill="#ffcb4a"/>
  <path id="Path_380" data-name="Path 380" d="M891.9,1288.512a3.242,3.242,0,0,0,.7-.015,2.646,2.646,0,0,0,.45-.1,1.651,1.651,0,0,0,.35.727l.042.048a1.969,1.969,0,0,0,.6-.208l.093-.074a.18.18,0,0,1,.082-.039,1.553,1.553,0,0,0,.251-.237c.033-.039.087,0,.1.037a1.693,1.693,0,0,1,.08.915c0,.027,0,.055,0,.082a.425.425,0,0,1,.014.07,1.04,1.04,0,0,0,.5-.064.658.658,0,0,0,.188-.121.784.784,0,0,0,.116-.14,3.736,3.736,0,0,0,.161.4,2.312,2.312,0,0,0,.2.352c.877,1.219,2.344.579,3.428,1.331a.066.066,0,0,0,.092-.008.124.124,0,0,0,.074-.037,1.784,1.784,0,0,0,.028-2.24,2.413,2.413,0,0,0-.37-.456,4.057,4.057,0,0,0-1.194-.746q-.258-.112-.519-.207c-.412-.149-1.166-.543-1.606-.33-.008,0-.014.01-.022.014q.015-.26.031-.519c.014-.238-.256-.944-.633-.7a3.034,3.034,0,0,0-.4.317l-.04,0a2.149,2.149,0,0,0-1.333.538,1.234,1.234,0,0,0-.346.792,5.893,5.893,0,0,1-5.849-3.095c-.035-.083-.1,0-.086.058s.022.086.031.13a3.525,3.525,0,0,0,1.277,2.018,5.42,5.42,0,0,0,.744.507A7.1,7.1,0,0,0,891.9,1288.512Z" transform="translate(-867.946 -1276.793)" fill="#ffcb4a"/>
  <path id="Path_381" data-name="Path 381" d="M1004.592,1304.176c.051.166.206,0,.174-.118a6.044,6.044,0,0,0-2.824-3.711c-.032-.018-.04.058-.019.074A7.12,7.12,0,0,1,1004.592,1304.176Z" transform="translate(-970.283 -1290.678)" fill="#ffcb4a"/>
  <path id="Path_382" data-name="Path 382" d="M1035.794,1294.334c-.061.019-.051.176.019.169a7.8,7.8,0,0,1,2.289.448,4.251,4.251,0,0,0,2.105-.324c.071-.026.047-.2-.036-.173a3.648,3.648,0,0,1-2.8.07A2.381,2.381,0,0,0,1035.794,1294.334Z" transform="translate(-1000.444 -1285.259)" fill="#ffcb4a"/>
  <path id="Path_383" data-name="Path 383" d="M1082.709,1536.585c-.245-.186-.493-.355-.732-.506a4.816,4.816,0,0,0-1.145-.494c-.108-.031-.217-.059-.326-.079a.975.975,0,0,0-.264-.044.227.227,0,0,0-.161-.009.241.241,0,0,0-.075.009.834.834,0,0,0-.847.513.292.292,0,0,0,.028.259l.008.007a3.391,3.391,0,0,0,1.1.719l.121.09c.133.1.263.2.392.308a9.483,9.483,0,0,1,1.6,2.3q.172.326.341.67a3.436,3.436,0,0,0,1.312,1.507,2.662,2.662,0,0,0,1.582.344.3.3,0,0,0,.208-.5c-.664-.693-.606-1.841-.967-2.7a2.5,2.5,0,0,0-.247-.754A3.739,3.739,0,0,0,1082.709,1536.585Zm-3.074-.5-.033.012a.084.084,0,0,1,.034-.019A.056.056,0,0,1,1079.635,1536.085Zm4.842,4.657a13.369,13.369,0,0,0-1.208-2.411,6.86,6.86,0,0,0-2.249-1.959c-.038-.021-.029-.127.016-.1,1.641.824,3.351,2.464,3.57,4.387C1084.615,1540.737,1084.535,1540.867,1084.476,1540.742Z" transform="translate(-1039.114 -1500.207)" fill="#ffc239"/>
  <path id="Path_384" data-name="Path 384" d="M1008.569,1517.306c.014-.024-.006-.108-.038-.071a4.815,4.815,0,0,1-1.781,1.147c-.212.093-.426.183-.637.274a8.651,8.651,0,0,0-1.023.5c-.744.444-1.751.943-2.083,1.788-.024.061.033.278.123.178a11.357,11.357,0,0,1,3.238-2.21A5.057,5.057,0,0,0,1008.569,1517.306Z" transform="translate(-971.252 -1483.972)" fill="#ffc239"/>
  <path id="Path_385" data-name="Path 385" d="M1124.9,1502.127c-.015.006-.011.042.008.037a5.445,5.445,0,0,1,2.953-.1c.6.144,1.192.358,1.809.448a2.747,2.747,0,0,0,2.362-.529c.041-.036.027-.194-.048-.156-1.444.727-2.6.265-4.082-.021A5.139,5.139,0,0,0,1124.9,1502.127Z" transform="translate(-1079.889 -1470.144)" fill="#ffc239"/>
  <path id="Path_386" data-name="Path 386" d="M1095.013,1407.017c.307-.179.583-.438.884-.636a4.652,4.652,0,0,0,.565-.431,3.652,3.652,0,0,0,1.233-1.343,4.16,4.16,0,0,0,.424-1.441c0-.021.006-.041.008-.061a6.549,6.549,0,0,0-.34-2.633c-.032-.1-.062-.2-.1-.3a.619.619,0,0,0-1.1-.132,4.287,4.287,0,0,1,.051.487,5.331,5.331,0,0,1-.674,2.485,10.478,10.478,0,0,1-1.971,3.04l.014.014a.539.539,0,0,0-.1.321.5.5,0,0,0,.322.413.48.48,0,0,0,.722.246c.018-.009.034-.013.052-.023Zm.691-1.336a5.812,5.812,0,0,0,1.349-4.541c-.017-.116.117-.209.139-.063a5.474,5.474,0,0,1-1.417,4.738C1095.711,1405.878,1095.669,1405.727,1095.7,1405.681Z" transform="translate(-1052.274 -1379.282)" fill="#ffc239"/>
  <path id="Path_387" data-name="Path 387" d="M1124.221,1465.776c-.023.007-.042.019-.063.027a2.112,2.112,0,0,0-.608.025l-.045.007c-.231.044-.459.109-.686.163l-.212.049c-.541.057-1.139.258-1.527.267-.1,0-.194,0-.292-.005a6.234,6.234,0,0,1-.61.251c-.952.335-1.971.416-2.942.683-.639.176-1.627.893-2.249.828a7.35,7.35,0,0,1,.363,1.35c0,.014,0,.028.005.042a3.913,3.913,0,0,1,2.5-1.743,4.167,4.167,0,0,1,2.139.441c.327.143.829.484,1.362.774a2.294,2.294,0,0,0,.185-.138c1.209-.391,1.829-1.574,2.6-2.494.058-.07.117-.138.178-.2C1124.4,1466.014,1124.393,1465.725,1124.221,1465.776Zm-4.811,1.38a.3.3,0,0,0-.012-.075l.077,0Zm3.231.438c.064-.07.128-.141.2-.209l.014-.007C1122.786,1467.453,1122.715,1467.526,1122.641,1467.594Z" transform="translate(-1071.06 -1438.113)" fill="#f9e99d"/>
  <path id="Path_388" data-name="Path 388" d="M1045.4,1550.526a12.368,12.368,0,0,1,1.38,5.168c.007.11.116.108.118,0a9.851,9.851,0,0,0-1.473-5.2C1045.408,1550.471,1045.388,1550.51,1045.4,1550.526Z" transform="translate(-1009.037 -1513.617)" fill="#f9e99d"/>
  <path id="Path_389" data-name="Path 389" d="M1096.219,1543.012c-.046-.023-.055.083-.016.1a6.865,6.865,0,0,1,2.25,1.958,13.394,13.394,0,0,1,1.208,2.412c.059.125.139,0,.129-.087C1099.569,1545.475,1097.86,1543.835,1096.219,1543.012Z" transform="translate(-1054.297 -1506.951)" fill="#f9e99d"/>
  <path id="Path_390" data-name="Path 390" d="M1110.387,1416a5.473,5.473,0,0,0,1.416-4.738c-.022-.146-.156-.053-.139.063a5.811,5.811,0,0,1-1.349,4.541C1110.28,1415.912,1110.322,1416.062,1110.387,1416Z" transform="translate(-1066.885 -1389.466)" fill="#f9e99d"/>
  <path id="Path_391" data-name="Path 391" d="M1087.232,1375.932c-.228,1.221-.426,2.456-.7,3.669a11.337,11.337,0,0,1-1.743,3.74c-.055.089.017.4.142.265,1.959-2.084,2.007-4.962,2.373-7.644C1087.317,1375.9,1087.247,1375.854,1087.232,1375.932Z" transform="translate(-1044.134 -1358.008)" fill="#ffcb4a"/>
  <path id="Path_392" data-name="Path 392" d="M970.435,1496.517a8.062,8.062,0,0,0-.875.176,3.3,3.3,0,0,1-1.125-.092,4.923,4.923,0,0,1-1.9-.936c-.021-.016-.034.013-.032.036a.033.033,0,0,0,.006.019,5.578,5.578,0,0,0,1.039.884c.066.044.134.086.2.128.911.558,2.016.879,2.7.139.025-.027.052-.048.075-.078C970.574,1496.722,970.552,1496.516,970.435,1496.517Z" transform="translate(-938.722 -1464.752)" fill="#ffcb4a"/>
  <path id="Path_393" data-name="Path 393" d="M1006.676,1383.621c.011-.075-.07-.127-.091-.035a8.231,8.231,0,0,0-.069,3.669c.173.762.436,1.724,1.2,2.066.125.056.128-.187.087-.246A7.324,7.324,0,0,1,1006.676,1383.621Z" transform="translate(-974.229 -1364.823)" fill="#ffcb4a"/>
  <path id="Path_394" data-name="Path 394" d="M1263.4,1439c.025,0,.024-.057,0-.057S1263.37,1439,1263.4,1439Z" transform="translate(-1203.311 -1414.201)" fill="#ffcb4a"/>
  <path id="Path_395" data-name="Path 395" d="M1264.618,1439.115c-.034,0-.032.078,0,.077a8.646,8.646,0,0,1,4.706,1.2c.819.443,1.719.759,2.424-.009.051-.055.034-.3-.071-.233-1.359.889-2.45-.306-3.708-.746A7.338,7.338,0,0,0,1264.618,1439.115Z" transform="translate(-1204.396 -1414.294)" fill="#ffcb4a"/>
  <path id="Path_396" data-name="Path 396" d="M1246.183,1464.149c0,.022,0,.05.024.05s.032-.071,0-.075l0,0C1246.192,1464.123,1246.186,1464.135,1246.183,1464.149Z" transform="translate(-1187.987 -1436.645)" fill="#ffcb4a"/>
  <path id="Path_397" data-name="Path 397" d="M1237.187,1477.8c-.047-.024-.053.08-.026.1a5.681,5.681,0,0,1,2.165,4.332c.019.4,0,.8,0,1.2,0,.027,0,.053,0,.079a3.664,3.664,0,0,0,.333,1.717c.083.163.208,0,.181-.123C1239.284,1482.495,1240.129,1479.272,1237.187,1477.8Z" transform="translate(-1179.933 -1448.828)" fill="#ffcb4a"/>
  <path id="Path_398" data-name="Path 398" d="M1172.93,1313.1c0,.129.145.179.169.031a7.15,7.15,0,0,0-1.78-5.652c-.058-.068-.1.057-.065.1A8.571,8.571,0,0,1,1172.93,1313.1Z" transform="translate(-1121.196 -1297.022)" fill="#ffcb4a"/>
  <path id="Path_399" data-name="Path 399" d="M1240.37,1317.817a12.62,12.62,0,0,0,5.286-5.213c.029-.061-.031-.187-.1-.107-.024.03-.047.061-.07.091l-.008.01a30.327,30.327,0,0,1-2.21,2.8,17.338,17.338,0,0,1-2.921,2.326C1240.321,1317.748,1240.331,1317.838,1240.37,1317.817Z" transform="translate(-1182.775 -1301.486)" fill="#ffcb4a"/>
  <path id="Path_400" data-name="Path 400" d="M1260.868,1377.616a37.8,37.8,0,0,1-5.355.891c-.031,0-.028.065,0,.069a9.97,9.97,0,0,0,3.332-.172c1.553-.332,3-1.088,4.408.081.079.066.115-.106.074-.155A2.4,2.4,0,0,0,1260.868,1377.616Z" transform="translate(-1196.284 -1359.486)" fill="#ffcb4a"/>
  <path id="Path_401" data-name="Path 401" d="M1143.616,1317.156a8.906,8.906,0,0,0,2.856,3.9c.094.07.113-.123.063-.177a15.807,15.807,0,0,1-1.977-2.461,6.218,6.218,0,0,1-.5-5.24.1.1,0,0,0-.018-.078c-.018-.026-.042-.034-.059.011h0A6.21,6.21,0,0,0,1143.616,1317.156Z" transform="translate(-1096.388 -1302.023)" fill="#f9e99d"/>
  <path id="Path_402" data-name="Path 402" d="M1207.987,1474.866a8.588,8.588,0,0,0-.549,1.637,2.615,2.615,0,0,0,.575,2.253c.05.057.09-.038.067-.083-.684-1.332-.2-2.451.136-3.641v0c.01-.038.02-.075.031-.113s.02-.077.03-.115a4.564,4.564,0,0,0,.166-1.546c-.078-.9-.222-2.043-1.145-2.427-.052-.022-.059.09-.017.111C1208.506,1471.568,1208.349,1473.913,1207.987,1474.866Z" transform="translate(-1153.294 -1442.619)" fill="#f9e99d"/>
  <path id="Path_403" data-name="Path 403" d="M1203.166,1288.893a2.318,2.318,0,0,1-.072,2.26c-.03.056.014.275.1.178a1.973,1.973,0,0,0,.328-2.368c-.416-1.077-.689-1.632-.046-2.735.2-.341.556-.591.749-.937a2.422,2.422,0,0,0,.3-1.246c0-.032-.04-.045-.042-.008-.082,1.207-1.449,1.936-1.592,3.186a3.06,3.06,0,0,0,.109,1.244A3.717,3.717,0,0,0,1203.166,1288.893Z" transform="translate(-1149.378 -1276.125)" fill="#f9e99d"/>
  <path id="Path_404" data-name="Path 404" d="M812.465,1360.561c-.422-.348-.77-.778-1.19-1.129a6.692,6.692,0,0,0-2.362-1.2c-.037-.011-.038.06-.012.074a14.729,14.729,0,0,1,1.662.88,8.473,8.473,0,0,1,1.388,1.394,2.235,2.235,0,0,0,1.823.985c.125-.019.124-.249.019-.294A5.035,5.035,0,0,1,812.465,1360.561Z" transform="translate(-798.247 -1342.271)" fill="#f9e99d"/>
  <path id="Path_405" data-name="Path 405" d="M871.547,1292.291c.02.113.123.065.125-.029.022-1.015.151-2.7-.389-3.638-.136-.235-.281-.293-.46-.475a2.717,2.717,0,0,1-.813-1.057,7.593,7.593,0,0,1-.251-2.044c0-.043-.043-.041-.045,0a5.905,5.905,0,0,0,.479,3.131c.01.018.035.023.044.038.349.541.909.964,1.072,1.68C871.485,1290.663,871.406,1291.509,871.547,1292.291Z" transform="translate(-852.447 -1277.017)" fill="#f9e99d"/>
  <path id="Path_406" data-name="Path 406" d="M803.576,1456.45a13.364,13.364,0,0,1,5.521-4.669c.048-.021.032-.145-.025-.121a11.589,11.589,0,0,0-5.594,4.649C803.436,1456.379,803.5,1456.553,803.576,1456.45Z" transform="translate(-793.418 -1425.535)" fill="#f9e99d"/>
  <path id="Path_407" data-name="Path 407" d="M801.223,1395.549a7.742,7.742,0,0,1-3.49-.294c-.037-.013-.042.065-.012.078a6.606,6.606,0,0,0,2.525.579,5.349,5.349,0,0,1,2.983.5c.14.085.131-.233.074-.3A2.332,2.332,0,0,0,801.223,1395.549Z" transform="translate(-788.281 -1375.265)" fill="#ffcb4a"/>
  <path id="Path_408" data-name="Path 408" d="M897.3,1405.173c.194.284.471.5.684.764a3.145,3.145,0,0,1,.612,1.666c.011.092.117.087.126,0a2.446,2.446,0,0,0-.313-1.493c-.476-.837-1.395-1.145-1.227-2.3a.037.037,0,0,0,0-.014c0-.022-.025-.041-.038-.01a1.664,1.664,0,0,0-.058.169A1.4,1.4,0,0,0,897.3,1405.173Z" transform="translate(-876.807 -1382.856)" fill="#ffcb4a"/>
  <path id="Path_409" data-name="Path 409" d="M918.464,1383.059c-.054,0-.047.111,0,.119,1.175.193,1.167,1.961.992,2.815-.013.065.059.145.1.058C919.929,1385.168,919.782,1383.06,918.464,1383.059Z" transform="translate(-895.877 -1364.397)" fill="#ffcb4a"/>
  <path id="Path_410" data-name="Path 410" d="M925.405,1334.276c-.152.486-.266.865-.8,1.045a4.216,4.216,0,0,0-.983.355,2.178,2.178,0,0,0-.933,1.323c-.008.03.025.082.042.036a2.071,2.071,0,0,1,.876-1.084,4.585,4.585,0,0,1,1.143-.353,1.159,1.159,0,0,0,.757-1.283C925.506,1334.255,925.431,1334.193,925.405,1334.276Z" transform="translate(-899.675 -1320.884)" fill="#ffcb4a"/>
</svg>
