<svg xmlns="http://www.w3.org/2000/svg" width="20.568" height="31.352" viewBox="0 0 20.568 31.352">
  <g id="Group_8688" data-name="Group 8688" transform="translate(-8943.01 -4300.94)">
    <g id="Group_8429" data-name="Group 8429" transform="translate(8943.01 4300.94)">
      <path id="Path_57934" data-name="Path 57934" d="M58.183,316.017h-.589v-.4a1.967,1.967,0,0,0-1.885-2.039H50.787v-16.09h6.691V293.2H50.787v-6.512h-5.01V293.2H39.085v4.293h6.692v16.09H40.853a1.967,1.967,0,0,0-1.885,2.039v.4h-.589a.421.421,0,0,0-.382.448v1.125a.422.422,0,0,0,.382.449h19.8a.422.422,0,0,0,.382-.449v-1.125A.421.421,0,0,0,58.183,316.017Z" transform="translate(-37.997 -286.687)" fill="#b79a57"/>
    </g>
    <path id="Path_57941" data-name="Path 57941" d="M51.235,286.687H46.225v6.394H39.533V297.3h6.692v15.718h5.011V297.3h6.69v-4.215h-6.69Z" transform="translate(8904.564 4014.253)" fill="#b79a57"/>
    <path id="Path_57942" data-name="Path 57942" d="M39.368,330.986v.423H57.994v-.423a2.16,2.16,0,0,0-1.63-2.234H41A2.161,2.161,0,0,0,39.368,330.986Z" transform="translate(8904.612 3998.63)" fill="#b79a57"/>
  </g>
</svg>
