<svg xmlns="http://www.w3.org/2000/svg" width="42" height="42" viewBox="0 0 42 42">
  <g id="Group_8650" data-name="Group 8650" transform="translate(-662 -100)">
    <circle id="Ellipse_252" data-name="Ellipse 252" cx="21" cy="21" r="21" transform="translate(662 100)" fill="#006cad"/>
    <g id="velas" transform="translate(599.316 105.781)">
      <g id="Group_8381" data-name="Group 8381" transform="translate(72.947 0)">
        <g id="Group_8380" data-name="Group 8380">
          <path id="Path_57920" data-name="Path 57920" d="M91.517,14.912a.4.4,0,0,0,.4-.4V8.985a1.591,1.591,0,0,0-1.591-1.591H86.776V6.617A3.1,3.1,0,0,0,88.4,4.26C88.581,2.179,86.373.184,86.28.1a.4.4,0,0,0-.655.345,3.222,3.222,0,0,1-.506,2.1,2.674,2.674,0,0,0-.464,2.63,2.461,2.461,0,0,0,1.332,1.379v.841H82.441a1.591,1.591,0,0,0-1.59,1.593v5.1H78.558v-.549a2.446,2.446,0,0,0,1.526-1.451,2.673,2.673,0,0,0-.464-2.631,3.222,3.222,0,0,1-.507-2.1.4.4,0,0,0-.655-.345c-.094.084-2.3,2.079-2.118,4.16A3.008,3.008,0,0,0,77.768,13.4v.686H74.538a1.591,1.591,0,0,0-1.591,1.591v6.046a.4.4,0,0,0,.79,0V15.675a.8.8,0,0,1,.8-.8h7.248a.8.8,0,0,1,.8.8V25.732h-8.85V20.693a.4.4,0,0,0-.79,0v5.434a.4.4,0,0,0,.4.4H91.517a.4.4,0,0,0,.4-.4V14.637a.4.4,0,1,0-.79,0v11.1H83.38V15.675a1.591,1.591,0,0,0-1.591-1.591h-.147v-5.1a.8.8,0,0,1,.8-.8h7.881a.8.8,0,0,1,.8.8v5.532a.4.4,0,0,0,.393.4ZM78.162,11.45a.4.4,0,0,0-.4.4v.537a2,2,0,0,1-.64-1.28,4.3,4.3,0,0,1,1.219-2.828,3.46,3.46,0,0,0,.647,1.659,1.879,1.879,0,0,1,.355,1.863,1.7,1.7,0,0,1-.79.886v-.837A.4.4,0,0,0,78.162,11.45Zm8.218-6.69a.4.4,0,0,0-.4.4v.5a1.715,1.715,0,0,1-.594-.768,1.879,1.879,0,0,1,.355-1.863,3.461,3.461,0,0,0,.647-1.66c.115.138.239.293.361.46a3.816,3.816,0,0,1,.858,2.365,2.094,2.094,0,0,1-.836,1.459V5.154A.4.4,0,0,0,86.381,4.76Z" transform="translate(-72.947 0)" fill="none" stroke="#fff" stroke-width="0.8"/>
        </g>
      </g>
    </g>
  </g>
</svg>
