<svg xmlns="http://www.w3.org/2000/svg" width="122.151" height="135.5" viewBox="0 0 122.151 135.5">
  <g id="Group_8695" data-name="Group 8695" transform="translate(-287.375 -857.5)">
    <g id="Group_8663" data-name="Group 8663" transform="translate(288.619 857.5)">
      <ellipse id="Ellipse_2" data-name="Ellipse 2" cx="59.918" cy="11.748" rx="59.918" ry="11.748" transform="translate(0 112.005)" fill="#efefef"/>
      <g id="Group_10" data-name="Group 10" transform="translate(9.799 0)">
        <path id="Path_13" data-name="Path 13" d="M295.634,185.928c0,2.22-24.071,9.268-52.175,9.268s-49.589-7.048-49.589-9.268,22.787-4.03,50.882-4.03S295.634,183.7,295.634,185.928Z" transform="translate(-193.87 -78.36)" fill="#9c704b"/>
        <g id="Group_7" data-name="Group 7" transform="translate(9.097 35.539)">
          <path id="Path_14" data-name="Path 14" d="M288.6,107v71.9c0,3.825-18.706,6.926-41.785,6.926s-41.785-3.1-41.785-6.926V107Z" transform="translate(-205.027 -100.072)" fill="#ffb4bf"/>
          <path id="Path_15" data-name="Path 15" d="M267.445,107c6.531,23.791.9,54.188-27.348,60.313a109.76,109.76,0,0,1-35.071,2.318V178.9c0,3.825,18.712,6.926,41.785,6.926s41.785-3.1,41.785-6.926V107Z" transform="translate(-205.027 -100.072)" fill="#f2a7b2"/>
          <ellipse id="Ellipse_3" data-name="Ellipse 3" cx="41.784" cy="6.924" rx="41.784" ry="6.924" transform="translate(0.002)" fill="#ffd1d8"/>
          <ellipse id="Ellipse_4" data-name="Ellipse 4" cx="20.815" cy="3.449" rx="20.815" ry="3.449" transform="translate(20.972 3.475)" fill="#ffb4bf"/>
          <rect id="Rectangle_2" data-name="Rectangle 2" width="7.941" height="53.703" rx="3.971" transform="translate(4.035 13.847)" fill="#ffd1d8"/>
        </g>
        <path id="Path_16" data-name="Path 16" d="M295.634,186.841v13.724c0,4.882-22.778,8.841-50.882,8.841s-50.882-3.96-50.882-8.841V186.841c0,2.219,22.787,8.474,50.882,8.474S295.634,189.06,295.634,186.841Z" transform="translate(-193.87 -79.273)" fill="#c28d5e"/>
        <g id="Group_9" data-name="Group 9" transform="translate(44.947)">
          <g id="Group_8" data-name="Group 8">
            <path id="Path_17" data-name="Path 17" d="M253.192,91.387s-5.537-3.085-3.9-10.766,8.1-15.226,5.857-25.7c0,0,6.46,10.686,6.625,22S253.192,91.387,253.192,91.387Z" transform="translate(-248.993 -54.919)" fill="#ef9178"/>
            <path id="Path_18" data-name="Path 18" d="M253.675,95.194a5.053,5.053,0,0,1-1.616-5.8c1.164-3.962,4.846-7.661,4.084-13.24,0,0,2.965,5.855,2.6,11.792S253.675,95.194,253.675,95.194Z" transform="translate(-249.506 -58.84)" fill="#efae78"/>
            <path id="Path_19" data-name="Path 19" d="M256.1,103.709a12.244,12.244,0,0,1-1.923-7.562c.263-2.379,1.927-4.414,1.9-6.853" transform="translate(-249.94 -61.265)" fill="none" stroke="#3f121f" stroke-linecap="round" stroke-linejoin="round" stroke-width="0.789"/>
          </g>
        </g>
      </g>
    </g>
    <g id="Group_8661" data-name="Group 8661" transform="translate(287.375 940.184)">
      <g id="Group_43" data-name="Group 43" transform="translate(0 0)">
        <g id="Group_41" data-name="Group 41" transform="translate(100.883 3.748)">
          <path id="Path_63" data-name="Path 63" d="M718.863,250.712H697.594V230.932h21.268l-6.806,10.207Z" transform="translate(-697.594 -230.932)" fill="#00578b"/>
          <path id="Path_64" data-name="Path 64" d="M697.666,315.8v3.737l6.93-3.737Z" transform="translate(-697.652 -299.775)" fill="#022f4a"/>
        </g>
        <g id="Group_42" data-name="Group 42" transform="translate(0 3.748)">
          <path id="Path_65" data-name="Path 65" d="M163.433,250.712H184.7V230.932H163.433l6.806,10.207Z" transform="translate(-163.433 -230.932)" fill="#00578b"/>
          <path id="Path_66" data-name="Path 66" d="M246.186,315.8v3.737l-6.935-3.737Z" transform="translate(-224.932 -299.775)" fill="#022f4a"/>
        </g>
        <rect id="Rectangle_6" data-name="Rectangle 6" width="93.356" height="19.777" transform="translate(14.449 0)" fill="#006cad"/>
      </g>
      <g id="logo-el-universal" transform="translate(18.026 5.393)">
        <g id="Group_8392" data-name="Group 8392" transform="translate(13.246 0.8)">
          <g id="Group_8391" data-name="Group 8391" transform="translate(0 0)">
            <g id="Group_8390" data-name="Group 8390">
              <path id="Path_57775" data-name="Path 57775" d="M120.094,18.178h-5.4v-.53h.774V11.989h-.774V11.46h5.3V13.2h-.651V12.193h-2.056v2.248h.865V13.73h.611v1.955h-.611v-.713h-.865v2.493h2.147v-1.15h.661Z" transform="translate(-114.69 -11.288)" fill="#fff"/>
              <path id="Path_57776" data-name="Path 57776" d="M170.782,18.178H165.47v-.53h.774V11.989h-.773V11.46h3.511v.529h-.916v5.476h2.056v-1.15h.66Z" transform="translate(-159.406 -11.288)" fill="#fff"/>
              <path id="Path_57777" data-name="Path 57777" d="M235.586,12.008h-.546v3.827c0,1.853-1.13,2.493-2.871,2.493-1.893,0-2.869-.8-2.869-2.208V12.009h-.621V11.48h3.206v.529h-.763v3.8c0,1.465.58,1.811,1.649,1.811,1.119,0,1.526-.6,1.526-1.811V12.02h-.844v-.54h2.134Z" transform="translate(-215.069 -11.306)" fill="#fff"/>
              <path id="Path_57778" data-name="Path 57778" d="M294.107,17.648h.888v.529h-2.4v-.529h.77V12.284c0-.011-.214-.295-.214-.295h-.77V11.46h2.561l3.247,4.468V11.989H297.18V11.46h2.484v.529h-.733v6.3h-1.17l-3.654-5Z" transform="translate(-271.162 -11.288)" fill="#fff"/>
              <path id="Path_57779" data-name="Path 57779" d="M362.866,18.178H359.39v-.53h.822V11.99h-.822v-.53h3.476v.53h-.833v5.658h.833Z" transform="translate(-330.171 -11.288)" fill="#fff"/>
              <path id="Path_57780" data-name="Path 57780" d="M398.455,18.36H397.4L394.912,12h-.562V11.47h3.423V12h-1l1.7,4.457L400.195,12h-.753V11.47h2.037V12h-.541Z" transform="translate(-360.956 -11.297)" fill="#fff"/>
              <path id="Path_57781" data-name="Path 57781" d="M465.4,18.187H460.09v-.53h.58V12h-.58V11.47h5.21v1.74h-.652V12.2h-2.155v2.25h.965v-.713h.61v1.955h-.61v-.713h-.965v2.493h2.247v-1.15h.661Z" transform="translate(-418.846 -11.297)" fill="#fff"/>
              <path id="Path_57782" data-name="Path 57782" d="M514.024,15.093c1.761-.162,2.117-.946,2.117-1.71,0-1.222-.773-1.913-2.453-1.913H510.3V12h.855v5.659H510.3v.529h3.389v-.529h-.712V15.551h.264l1.546,2.635H517v-.529h-.494l-.925-1.507c-.468-.752-.652-.947-1.557-1.017Zm-1.048-2.941h.081c1.008,0,1.19.407,1.19,1.272s-.131,1.465-1.232,1.465h-.041Z" transform="translate(-463.061 -11.297)" fill="#fff"/>
              <path id="Path_57783" data-name="Path 57783" d="M572.971,17.143h-.7V15.188h.7v1.089a4.956,4.956,0,0,0,1.507.173c.844,0,1.16-.234,1.16-.824,0-.468-.407-.682-1.354-1.14-1.476-.713-1.974-1.19-1.974-2.412,0-1.262.947-1.863,2.209-1.863a3.738,3.738,0,0,1,1.609.376V10.18h.651v1.893h-.651V11.1a4.676,4.676,0,0,0-1.18-.123c-.693,0-1.028.214-1.028.722,0,.611.407.783,1.262,1.2,1.161.56,2.025,1.008,2.025,2.361,0,1.292-1,1.924-2.34,1.924a4.276,4.276,0,0,1-1.893-.4Z" transform="translate(-517.631 -10.161)" fill="#fff"/>
              <path id="Path_57784" data-name="Path 57784" d="M617.542,15.038h2.432l.518,1.343h-.824v.529h3.22v-.529h-.584l-2.484-6.361h-1.058l-2.484,6.361h-.63v.529h2.066v-.529h-.691Zm2.219-.571h-2c.011,0,1.008-2.595,1.008-2.595Z" transform="translate(-555.831 -10.02)" fill="#fff"/>
              <path id="Path_57785" data-name="Path 57785" d="M687.238,18.187h-5.1v-.529h.559V12h-.559V11.47h3.1V12h-.72v5.475h2.056v-1.15h.661Z" transform="translate(-614.382 -11.297)" fill="#fff"/>
            </g>
          </g>
        </g>
        <g id="Group_8394" data-name="Group 8394" transform="translate(0 0)">
          <g id="Group_8393" data-name="Group 8393" transform="translate(0 0)">
            <path id="Path_57786" data-name="Path 57786" d="M18.338,48.244c.4.214.685.265,2.093.324.222-.029-.411-.105-.53-.142-.466-.142-.054-.211-.371-.192a4.483,4.483,0,0,1-.917-.061C18.32,48.13,18.024,48.01,18.338,48.244Z" transform="translate(-16.479 -42.756)" fill="#fff"/>
            <path id="Path_57787" data-name="Path 57787" d="M78.17,34.656c.019-.025.038-.05.055-.076C78.207,34.606,78.189,34.631,78.17,34.656Z" transform="translate(-69.285 -30.847)" fill="#fff"/>
            <path id="Path_57788" data-name="Path 57788" d="M40.025,58.325c.109.15.595.171.765.116.147.011.051-.073-.037-.084-.081.017-.173-.072-.189-.062C40.175,58.39,40,58.264,40.025,58.325Z" transform="translate(-35.693 -51.73)" fill="#fff"/>
            <path id="Path_57789" data-name="Path 57789" d="M16.084,7.654c-.632.106-2.314-.234-3.058.084a3.174,3.174,0,0,0,.165-1.058,3.343,3.343,0,1,0-6.5,1.1c-2.607.2-2.89-.266-2.93-.038A1.436,1.436,0,0,0,5.014,8.827a1.924,1.924,0,0,0,1.3.636,1.253,1.253,0,0,0,.775.352.679.679,0,0,0,.659.3.371.371,0,0,0,.275.2s-.011.068.076.1a4.56,4.56,0,0,0-1.914.641c.045.219.486.358.6.339a.748.748,0,0,0,.616.413.879.879,0,0,0,.749.254.728.728,0,0,0,.837-.478c.036-.16.148-.393.371-.422a.344.344,0,0,1,.179.11.431.431,0,0,0,.045.589.822.822,0,0,0,.619.067c.125.122.234.027.3.063-.025.043.11.128.23.078s.142-.106.153-.144a.1.1,0,0,0,.032-.121.082.082,0,0,0,.044-.115c.081.021.159-.1.153-.178-.011-.154-.107-.177-.252-.177a1.351,1.351,0,0,1,.666-.179,1.727,1.727,0,0,0,.585-.174c.17-.051.32-.05.457-.081.1-.02.171-.013.229-.029.038.037.152.082.486.035a6.141,6.141,0,0,1,.781-.048c.207-.574-.282-.667-.282-.667-.075-.15-.128-.287-.363-.339s-.3-.044-.327-.156a.33.33,0,0,0-.167.006.5.5,0,0,1,.165-.081c.476-.123.579-.267.64-.34a1.572,1.572,0,0,0,1.022-.352.809.809,0,0,0,.621-.364C16.254,8.532,16.371,7.607,16.084,7.654ZM10.86,9.624a.161.161,0,0,1-.067-.075,1.394,1.394,0,0,0,.414-.189c.263-.161,0,.035-.07.129C11.138,9.489,11.092,9.561,10.86,9.624Zm-2.6-1.835s-.042-.143.024-.161c.112-.032.285-.214.4-.248,0,0,.086-.1-.463.125,0-.051,0-.055,0-.129A.686.686,0,0,1,8.407,7.3c.012-.067-.133-.024-.176-.049-.025-.029-.006-.091,0-.189a3.337,3.337,0,0,0,.671.109c.038.031.259.15.17.036l0-.021c.054,0,.079,0,.134.006a.274.274,0,0,0,.036.09l.026.032,0,.418c-.05.024-.149.1-.241.137a.481.481,0,0,1-.192.029c.137-.09.192-.195.374-.3,0,0-.1-.1-.5.21a.541.541,0,0,1-.289.087V7.884c.166-.07.39-.343.566-.4C8.982,7.481,8.869,7.413,8.264,7.788Zm-.87.055-.116,0c-.007-.049-.017-.118-.017-.118a.848.848,0,0,0,.422-.1c.105-.05.185-.178.347-.168.014,0,.02.074.025.122-.031.016-.107.031-.136.044C7.743,7.7,7.742,7.83,7.394,7.843Zm3.536-3.8a2.3,2.3,0,0,1,.653.262.478.478,0,0,1-.023.307,3.5,3.5,0,0,0-.66-.4C10.969,4.18,10.964,4.116,10.929,4.045Zm-.882-.187h0c.127.15-.055.353-.4.459a.81.81,0,0,1-.8-.117c-.125-.149,0-.32.351-.423A.933.933,0,0,1,10.047,3.857Zm-2,.929c-.064.053-.043.128-.061.192-.008.03-.029.087-.053.147-.029.039-.057.079-.084.119A1.377,1.377,0,0,1,7.7,5.137a.379.379,0,0,1-.064-.08,3.409,3.409,0,0,1,.481-.384A.653.653,0,0,1,8.047,4.786ZM9.763,6.88a.521.521,0,0,1,.074-.135c.032-.049.149-.055.2-.05s.079.019.1.012.053-.033.093-.069.087-.018.128-.012a.307.307,0,0,1,.118.043.15.15,0,0,1,.066.05.218.218,0,0,1,.02.105,5.977,5.977,0,0,1-.839.13A.568.568,0,0,0,9.763,6.88Zm.708-2c-.068.016-.139,0-.166.035s-.03.177-.184.1c-.092-.123-.127-.068-.184-.137a.088.088,0,0,1,.039-.146c.044-.017.037-.061.027-.111s-.073-.062-.045-.147c.01-.032.023-.1.125-.054a3.437,3.437,0,0,1,.413.326C10.565,4.826,10.533,4.87,10.471,4.884ZM8.2,4.159a1.723,1.723,0,0,1,.439-.2c-.027.05-.107.155-.127.193a4.047,4.047,0,0,0-.947.8.478.478,0,0,1,.01-.3A2.366,2.366,0,0,1,8.2,4.159ZM7.582,5.208a.8.8,0,0,0,.173.166,4.024,4.024,0,0,0-.474,1.054A.644.644,0,0,1,7.016,6.1a2.717,2.717,0,0,1,.529-.947C7.555,5.162,7.57,5.192,7.582,5.208Zm-.227,1.44c.072.044.094.1.17.133a1.168,1.168,0,0,0-.211.035C7.326,6.761,7.34,6.7,7.355,6.648Zm-.17-.105c-.055.018-.173.06-.141.069a1.427,1.427,0,0,1,.193-.01c-.019.086-.043.181-.057.26-.072.024-.205.074-.224.137.053-.011.14-.041.2-.051a1.751,1.751,0,0,0-.018.236.589.589,0,0,0-.127.1c.029-.007.093-.027.128-.033,0,.018,0,.086,0,.1,0,.033-.02-.248,0,.1-.025.038-.066.069-.079.1.014,0,.066-.017.081-.023a2.822,2.822,0,0,0,.05.31.516.516,0,0,1-.172-.117.642.642,0,0,1-.1-.144,3.293,3.293,0,0,1,.048-1.348A1.2,1.2,0,0,0,7.186,6.543Zm-.35.786a3.1,3.1,0,0,1,.036-1.515,1.374,1.374,0,0,0,.043.326A4.244,4.244,0,0,0,6.836,7.329Zm.614-.019c-.066.035-.122.07-.205.117a1.791,1.791,0,0,1,.007-.205,1.306,1.306,0,0,0,.161-.061C7.583,7.1,7.6,7.042,7.737,7c0,0-.05-.066-.4.078-.021.008-.061.036-.082.044a.89.89,0,0,1,.033-.2c.113-.038.147-.1.258-.13A3.443,3.443,0,0,0,8.042,7c.007.11.007.275-.062.294a1.576,1.576,0,0,0-.314.183,1.137,1.137,0,0,1-.4.2c-.011-.06-.013-.105-.019-.165A1.775,1.775,0,0,0,7.52,7.4c.171-.072.219-.191.4-.247C7.919,7.157,7.9,7.073,7.45,7.309Zm-.026-.788c.062-.036.236-.061.2-.088,0,0-.086,0-.185.013a2.758,2.758,0,0,1,.451-.887c.085.085.044.173.152.209.076.056.05.117.105.17l.047.027a8.514,8.514,0,0,0-.137.854A1.863,1.863,0,0,1,7.423,6.521Zm1.011-.41a.117.117,0,0,1,.067.159.189.189,0,0,0,.006.214.5.5,0,0,1,.062.137.448.448,0,0,0,.116.128c.029.023.017.085.017.085a1.084,1.084,0,0,0,.111.1.156.156,0,0,1,.032.029,3.146,3.146,0,0,1-.595-.094A2.661,2.661,0,0,1,8.435,6.112Zm.383.6c-.05-.107-.014-.142.024-.148s.133.085.155.129.054.069.082.128.062.1.088.153c-.06,0-.148-.006-.205-.008-.019-.03-.01-.055-.024-.07A.582.582,0,0,1,8.818,6.716ZM10.2,8.48a2.636,2.636,0,0,1,.4-.419s.027-.133-.463.219c-.049.024-.1.045-.122.019.142-.112.2-.3.365-.37,0,0-.049-.079-.47.186a.113.113,0,0,1-.142,0c.119-.094.216-.233.343-.283,0,0-.018-.059-.42.16a.107.107,0,0,1-.115,0c.111-.087.2-.214.319-.256,0,0,0-.057-.4.093a.61.61,0,0,1,0-.079.669.669,0,0,1,.17-.1s-.035-.049-.174,0c0,0,0-.178.007-.26a.663.663,0,0,1,.1.09s.073.026.1.008a.352.352,0,0,1,.222-.048,1.467,1.467,0,0,1,.217.119.112.112,0,0,1,.084.069c.017.051-.011.076,0,.1s.023.044.13.082.123.038.152.062.081.014.1.013.044-.042.068-.049a.566.566,0,0,1,.107,0c.067.019.035.091.036.148,0,.1-.1.134-.165.219C10.436,8.376,10.264,8.691,10.2,8.48Zm.63-.8a.413.413,0,0,0-.217.045.12.12,0,0,1-.164-.043c-.024-.045-.016-.078,0-.173s-.123-.075-.184-.111.008-.121.03-.181-.118-.073-.156-.063-.056.14-.131.178-.092.01-.179-.041a.178.178,0,0,1-.105-.176,7.794,7.794,0,0,0,.8-.14c.068-.011.037.043.1.018a.153.153,0,0,0,.059-.044,1.96,1.96,0,0,1,.06.189c-.025-.008-.075-.02-.1-.032a.5.5,0,0,0-.239.054c-.025.023.048.027.081.039s.087.044.122.056.061.084.123.079c.017,0,.048,0,.057.029a2.45,2.45,0,0,1,.1.34A.135.135,0,0,0,10.834,7.682Zm-.09-.9a.5.5,0,0,0,0-.147c-.016-.062.216-.167.216-.167s.092-.037.162-.073.073-.25.037-.33-.059-.178-.013-.23.183.088.257.061c.055-.02.05-.069.07-.11a4.7,4.7,0,0,1,.3.547,3.509,3.509,0,0,1-1,.441ZM11.3,5.334l.093.007c.072.006.176-.008.2-.09a.825.825,0,0,0-.018-.259c-.02-.064-.117-.072-.142-.11l-.007-.01a.862.862,0,0,0,.129-.17,3.221,3.221,0,0,1,.875.936,1.882,1.882,0,0,1-.566.647A4.836,4.836,0,0,0,11.3,5.334Zm.222-.647a.762.762,0,0,1-.131.162.171.171,0,0,0-.148-.029.122.122,0,0,1-.134-.067s.147-.112.079-.173a1.2,1.2,0,0,0-.42-.061c-.128-.036-.119.054-.139.1-.093-.078-.187-.152-.284-.219h.006c0-.137.155-.055.162-.115s-.168-.123-.109-.136A3.712,3.712,0,0,1,11.521,4.687Zm-1.37-.995c-.029-.006-.155-.062-.2-.067.03-.016.042-.024.05-.029a3.051,3.051,0,0,1,.648.105A2.189,2.189,0,0,0,10.152,3.693ZM7.529,4.717a.638.638,0,0,0-.033.316,3.269,3.269,0,0,0-.536.992.771.771,0,0,1-.07-.256A3.046,3.046,0,0,1,7.529,4.717ZM7.915,7.78c.08-.03.122-.038.13-.042s.021.035.037.127a1.527,1.527,0,0,1-.59.019A1.288,1.288,0,0,0,7.915,7.78Zm2.448,1.03a.247.247,0,0,1-.056-.11c.429-.107.874-.577.611-.276a.719.719,0,0,1-.363.3Zm.645-.179c.245-.186.223-.124.042.021a1.228,1.228,0,0,1-.556.389.158.158,0,0,1-.054-.1A3.547,3.547,0,0,0,11.008,8.631ZM11.3,8.8c-.192.153-.125.2-.485.365-.1.041-.229.091-.234.094a.352.352,0,0,1-.053-.109C11.057,9,11.367,8.659,11.3,8.8Zm-.042.3c.177-.107-.047.043-.093.136a1.22,1.22,0,0,1-.445.232.427.427,0,0,1-.066-.1A2.007,2.007,0,0,0,11.261,9.093Zm1-.793c.075-.186.122-.288.1-.384-.008-.042.055-.067-.027-.137s-.407.293-.5.234c-.066-.036-.116.018-.187,0a.147.147,0,0,1-.072-.042,2.876,2.876,0,0,0,1.071-.839,2.683,2.683,0,0,1-1.168.78c-.044-.011-.054.02-.094-.021a.364.364,0,0,0-.273-.067.487.487,0,0,1-.133-.007.327.327,0,0,0-.074-.1c-.019-.144-.024-.224-.054-.381a.265.265,0,0,1,.069-.01c.069.008.072.045.115.056a.132.132,0,0,0,.124-.076c.011-.037-.051-.073-.11-.1a.712.712,0,0,1-.1-.068c-.033-.02-.1.012-.137.014-.017-.079-.026-.161-.044-.241L10.8,6.9a3.1,3.1,0,0,0,1-.537,3.938,3.938,0,0,1,.379.956,4.135,4.135,0,0,0-.3-1.005,1.679,1.679,0,0,0,.561-.663,2.738,2.738,0,0,1,.327.767,3.067,3.067,0,0,0-.316-.792c.013-.032.023-.064.032-.1-.012.027-.025.056-.038.084a3.31,3.31,0,0,0-.861-.991.491.491,0,0,0,0-.318A2.963,2.963,0,0,1,12.5,5.2l-.012-.017a2.58,2.58,0,0,0-1.629-1.243l-.1-.045-.337-.063c-.01-.042-.093-.087-.106-.093a1.685,1.685,0,0,1,.543.027,3.088,3.088,0,0,1,2.057,2.912,3.512,3.512,0,0,1-.691,1.946A2.429,2.429,0,0,1,12.263,8.3ZM7.728,11.69a2.2,2.2,0,0,0,.972-.525.268.268,0,0,0-.019.037A.8.8,0,0,1,7.728,11.69Zm.358.111a.84.84,0,0,0,.742-.438C8.652,11.978,8.2,11.846,8.086,11.8Zm1.642-.055a.289.289,0,0,1-.027-.406c.007-.081.048-.1.032.062-.03.321.208.326.288.369S9.846,11.825,9.728,11.747Zm.5-.182c-.016-.036-.012-.082.076-.158.387-.33-.041-.29.148-.435-.029.094.585.131-.1.47A.441.441,0,0,0,10.227,11.565Zm.605.136c-.008.01-.012-.013-.014-.021a.031.031,0,0,0-.056,0c.051.055.026.13,0,.074a.038.038,0,0,0-.059-.011.1.1,0,0,1-.01.133c-.032.039-.1.054-.111.027s.026-.007.045-.029a.074.074,0,0,0-.031-.107c-.051-.031-.133-.016-.112.042.02.026.047.054-.013.055a.257.257,0,0,1-.084-.01.114.114,0,0,1-.09-.073c0-.043.027.014.064.008.057,0,.082-.131.211-.116a.057.057,0,0,0,.049-.021c.006-.014,0-.027.023-.035a.084.084,0,0,1,.045,0c.035,0,.031-.013.038-.029s.033-.012.057,0C10.843,11.62,10.849,11.685,10.833,11.7Zm.064-.242a.066.066,0,0,1,.045.115c-.032.035-.014-.014-.032-.051a.1.1,0,0,0-.07-.036c-.021-.006-.031-.031-.021-.033A.207.207,0,0,0,10.9,11.459Zm2.045-1.614a.233.233,0,0,0,.2.153c.168.031.392.119.413.271.011.076.464.068.361.375a3.989,3.989,0,0,1-.5-.053c-.014.021.146.035.069.073-.112.064-.656.088-.54-.053.029-.032.147-.049.148-.066a.729.729,0,0,0-.209.016.251.251,0,0,1-.189,0c-.064-.035-.107-.09.057-.125s.066-.031-.08-.026c0,0-.272,0-.267-.051s.123-.061.3-.105c.149-.041-.007-.021-.1-.035,0,0-.238,0-.272-.045s.1-.069.059-.111c-.079.051-.3.031-.242.127a.46.46,0,0,0,.21.081c-.2.044-.146.159-.055.219a.5.5,0,0,0,.094.051c-.16.09-.31.109-.339.075s.09-.062.067-.106c-.71.1-.11-.119-.11-.119-.007-.063-.525.107-.484-.023.082-.044.2-.051.289-.093-.026-.059-.406.03-.46-.03s.121-.043.153-.068a1.2,1.2,0,0,0-.541-.054.617.617,0,0,0-.328-.162.394.394,0,0,0-.253-.221.5.5,0,0,0-.13-.186.54.54,0,0,0-.121-.076.707.707,0,0,0-.11-.208c-.043-.066-.085-.069-.128-.1a.329.329,0,0,0-.073-.17.438.438,0,0,0-.1-.1.322.322,0,0,0-.062-.148c-.247-.444-1.23-.408-2.448-.37A12.9,12.9,0,0,1,4.7,8.263c.455.431,2.632.313,3.642.451a3.589,3.589,0,0,1-.952.088c-.067.081.654.208,1.343.254a7.15,7.15,0,0,0-.755.13,4.2,4.2,0,0,0,1.25.189c-.4.088-.872.093-.8.171a4.69,4.69,0,0,0,1.108.084c-.437.166-.816.048-.794.123a1.818,1.818,0,0,0,.464.084,3.688,3.688,0,0,1,.6.025c.026.036-.174.029-.333.059-.386.07-.518,0-.425.069a1.685,1.685,0,0,0,.482.055c.235,0,.486.01.53.081a1.618,1.618,0,0,0-.363.013c-.315.032-.473-.014-.408.043a1.535,1.535,0,0,0,.488.073c.355.029.43.073.494.127l-.091,0c-.252-.03-.521-.017-.758-.039-.047.067.262.066.3.156a3.2,3.2,0,0,1-.817.116c-.048,0-.159-.035-.148-.007s.117.042.17.055a1.659,1.659,0,0,0,.475.024c.069.117-1.017.063-.9.171a3.243,3.243,0,0,1,.543.021c-.035.014.081.045-.293.109-.316.1-.8.709-1.389.584-.134-.054-.155-.1-.162-.109.45.122,1.288-.49,1.288-.49-.2-.094-1.066.5-1.432.389-.079-.061-.08-.05-.079-.079A4.668,4.668,0,0,0,8.2,10.779c-.628.072-1.1.376-1.477.363-.078,0-.091,0-.118-.063a6.486,6.486,0,0,1,2.08-.57c-.159-.029-.37-.185-.376-.312-.205-.043-.374-.168-.39-.283a.663.663,0,0,1-.648-.379c-.632,0-.744-.356-.744-.356-1.165,0-1.261-.565-1.261-.565A1.372,1.372,0,0,1,4.149,8c.965.342,4.564-.11,5.379.26.722.327.83,1.833,1.982,1.638a1.673,1.673,0,0,1-.371-.134,3.4,3.4,0,0,0,.374-.191,7.156,7.156,0,0,0,1.321-1.351c.4-.53,2.485-.134,3.041-.279-.036.193-.278.339-.785.418-.216.033-.057.25-.447.337-.277.062-.29.285-1.011.315A2.539,2.539,0,0,1,12.8,9.4l-.162.038c-.124-.031-.174-.053-.21-.1.152.006.281.016.315-.03-.057-.008-.2-.039-.2-.074.238,0,.5-.013.466-.053a.38.38,0,0,1-.277-.1,1.108,1.108,0,0,0,.59-.06c.024-.035-.321.016-.487-.121l-.008,0c.2-.007,1.308.01,1.232-.127a4.395,4.395,0,0,1-1.085-.061,3.712,3.712,0,0,1,.455-.06c.506-.016,1.291-.032,1.225-.217a6.394,6.394,0,0,1-1.4.02l.036-.024a4.589,4.589,0,0,1,1.057-.134c.173-.021,1.1-.063,1.13-.2a6.351,6.351,0,0,1-1.114.032,2.159,2.159,0,0,0-1.291.192,1.741,1.741,0,0,0-.227.211c-.043.055-.19.242-.227.283a3.637,3.637,0,0,1-.83.8c-.088.049-.181.038-.2.072h0l.059.006a2.389,2.389,0,0,1,.958.259c-.032-.054-.021-.1.049-.141a.324.324,0,0,0,.254.186C12.858,9.877,12.942,9.844,12.942,9.844Z" transform="translate(-3.76 -3.32)" fill="#fff"/>
            <path id="Path_57790" data-name="Path 57790" d="M42.848,60.343c.092.1.289.189.708.08.171.023-.117-.14-.2-.134C43,60.412,42.812,60.27,42.848,60.343Z" transform="translate(-38.176 -53.486)" fill="#fff"/>
            <path id="Path_57791" data-name="Path 57791" d="M80.337,61.034c.139.043.181.319.43.123C80.916,61.039,80.012,60.933,80.337,61.034Z" transform="translate(-71.13 -54.107)" fill="#fff"/>
            <path id="Path_57792" data-name="Path 57792" d="M45.691,62.2a1.713,1.713,0,0,1-.432.043c.064.1.384.137.651.075.137.006,0-.045-.039-.051C45.744,62.255,45.739,62.184,45.691,62.2Z" transform="translate(-40.299 -55.168)" fill="#fff"/>
            <path id="Path_57793" data-name="Path 57793" d="M29.142,52.516c-.093-.007-.3-.067-.242-.014.11.147.333.314,1.473.232,0-.021-.086-.038-.185-.069-.389-.036-.155-.109-.436-.116A5.273,5.273,0,0,1,29.142,52.516Z" transform="translate(-25.889 -46.61)" fill="#fff"/>
            <path id="Path_57794" data-name="Path 57794" d="M35.1,55.589c-.171-.016-.232-.06-.222-.029.113.275.873.254,1.15.189,0-.023-.09-.041-.136-.061-.33-.057-.13-.081-.3-.106S35.23,55.6,35.1,55.589Z" transform="translate(-31.157 -49.313)" fill="#fff"/>
          </g>
        </g>
      </g>
    </g>
  </g>
</svg>
