<svg xmlns="http://www.w3.org/2000/svg" width="16.197" height="15.51" viewBox="0 0 16.197 15.51">
  <g id="Group_8690" data-name="Group 8690" transform="translate(-413.217 -756.795)">
    <path id="Union_7" data-name="Union 7" d="M7.373,14.416,1.52,8.327a.514.514,0,0,1-.051-.069A4.966,4.966,0,0,1,0,4.657C0,2.089,1.777,0,3.957,0,5.643,0,7.037,1.632,7.6,2.4,8.162,1.632,9.555,0,11.24,0,13.42,0,15.2,2.089,15.2,4.657a5.11,5.11,0,0,1-1.051,3.153.346.346,0,0,1-.059.08c-.053.061-.1.111-.152.161l-.062.064-6.049,6.3a.318.318,0,0,1-.227.1A.329.329,0,0,1,7.373,14.416ZM.637,4.657a4.277,4.277,0,0,0,1.328,3.18.288.288,0,0,1,.074.1L7.6,13.715l5.9-6.144c.031-.033.064-.064.094-.1a.143.143,0,0,1,.027-.036,4.435,4.435,0,0,0,.943-2.781c0-2.205-1.492-4-3.324-4-1.812,0-3.357,2.463-3.375,2.488a.322.322,0,0,1-.533,0C7.318,3.122,5.77.659,3.957.659,2.125.659.637,2.452.637,4.657Z" transform="translate(413.717 757.295)" fill="none" stroke="#fff" stroke-width="1"/>
    <path id="Path_57952" data-name="Path 57952" d="M14496.2,744.538l3.035-.917,1.375.917,1.26,1.26h1.146l1.089-1.89h3.608l1.317,1.89.516,2.578-1.089,2.807-2.176,1.948-2.521,2.635-1.26,1.6-.631-.515-2.635-2.291-4.067-4.983V745.8Z" transform="translate(-14081 14)" fill="#fff"/>
  </g>
</svg>
