<svg xmlns="http://www.w3.org/2000/svg" width="41" height="41" viewBox="0 0 41 41">
  <g id="Group_8643" data-name="Group 8643" transform="translate(-122 -446.5)">
    <rect id="Rectangle_3241" data-name="Rectangle 3241" width="41" height="41" rx="6" transform="translate(122 446.5)" fill="#47c7fa"/>
    <path id="_002-twitter" data-name="002-twitter" d="M22.6,50.174a9.661,9.661,0,0,1-2.67.732,4.609,4.609,0,0,0,2.044-2.564,9.262,9.262,0,0,1-2.939,1.122,4.634,4.634,0,0,0-8.016,3.169,4.771,4.771,0,0,0,.1,1.061,13.117,13.117,0,0,1-9.552-4.848A4.636,4.636,0,0,0,3,55.04,4.577,4.577,0,0,1,.9,54.471v.051a4.655,4.655,0,0,0,3.712,4.555A4.625,4.625,0,0,1,3.4,59.23a4.1,4.1,0,0,1-.877-.079,4.678,4.678,0,0,0,4.327,3.228,9.312,9.312,0,0,1-5.743,1.971A8.679,8.679,0,0,1,0,64.285a13.047,13.047,0,0,0,7.109,2.079A13.1,13.1,0,0,0,20.3,53.177c0-.2-.007-.4-.017-.6A9.246,9.246,0,0,0,22.6,50.174Z" transform="translate(130.729 410.268)" fill="#fff"/>
  </g>
</svg>
