<svg xmlns="http://www.w3.org/2000/svg" width="41" height="41" viewBox="0 0 41 41">
  <g id="Group_8644" data-name="Group 8644" transform="translate(-177 -446.5)">
    <rect id="Rectangle_3242" data-name="Rectangle 3242" width="41" height="41" rx="6" transform="translate(177 446.5)" fill="#1bd741"/>
    <g id="whatsapp" transform="translate(183.178 452.697)">
      <g id="Group_3926" data-name="Group 3926" transform="translate(0 0)">
        <path id="Path_57766" data-name="Path 57766" d="M68.494,97.42l2.036-7.23A14.509,14.509,0,1,1,75.95,95.5Zm7.837-4.56.444.271A12.05,12.05,0,1,0,72.9,89.339l.3.466-1.172,4.164Z" transform="translate(-68.494 -68.321)" fill="#fff"/>
        <path id="Path_57767" data-name="Path 57767" d="M150.859,152.878l-.942-.051a1.139,1.139,0,0,0-.81.277,4.291,4.291,0,0,0-1.411,2.162,6.554,6.554,0,0,0,1.52,5.137,15.283,15.283,0,0,0,8.238,5.988,4.014,4.014,0,0,0,3.4-.421,3.041,3.041,0,0,0,1.323-1.93l.15-.7a.488.488,0,0,0-.273-.545l-3.183-1.467a.488.488,0,0,0-.591.145l-1.25,1.62a.358.358,0,0,1-.4.12,9.786,9.786,0,0,1-5.3-4.531.361.361,0,0,1,.046-.4l1.194-1.382a.488.488,0,0,0,.08-.511l-1.372-3.21A.488.488,0,0,0,150.859,152.878Z" transform="translate(-140.384 -145.119)" fill="#fff"/>
      </g>
    </g>
  </g>
</svg>
