<svg xmlns="http://www.w3.org/2000/svg" width="122.151" height="132.211" viewBox="0 0 122.151 132.211">
  <g id="Group_8697" data-name="Group 8697" transform="translate(-287.375 -859.5)">
    <g id="Group_8677" data-name="Group 8677" transform="translate(314.488 859.5)">
      <path id="Path_539" data-name="Path 539" d="M311.589,982.294v0h-.1v0A25.342,25.342,0,0,1,306,981.65a5.673,5.673,0,0,1-2.074-1.032,3.967,3.967,0,0,0,1.348,2.333,13.8,13.8,0,0,0,6.142,1.181c2.788-.047,4.819-.331,6.189-1.04a4.029,4.029,0,0,0,1.581-2.509,5.67,5.67,0,0,1-2.118,1.066A25.341,25.341,0,0,1,311.589,982.294Z" transform="translate(-279.509 -853.051)" fill="#c9bfbc"/>
      <path id="Path_540" data-name="Path 540" d="M528.054,230.792l.131-.052a.294.294,0,0,0,.119.051c.791.108,5.669.833,4.573-1.39-.354-.718-1.4-.447-2-.338a7.828,7.828,0,0,0-1.569.46,34.4,34.4,0,0,1,4.539-3.678l-.025-.035a.44.44,0,0,1-.149-.269.253.253,0,0,1-.065-.167c0-.016,0-.036,0-.054q-1.125.782-2.172,1.638a9.844,9.844,0,0,0,1.008-4.095.489.489,0,0,0-.237-.447c-2.289-1.154-1.92,4.316-1.76,5.384q-1.074.952-2.054,1.984l-.111-.012a.239.239,0,0,0-.242.127,7.273,7.273,0,0,0,.161-2.489c-.08-.732-.255-2.249-1.325-2.12-2.266.275-.582,4.686.049,5.856,0,0,0,.007,0,.01a.558.558,0,0,0,.08.195q-.365.436-.715.883a4.351,4.351,0,0,1,.815-.384Q527.567,231.311,528.054,230.792Zm3.66-7.554a.535.535,0,0,1,.086.008c0,.054-.006.108-.012.161C531.767,223.35,531.74,223.294,531.713,223.238Zm-3.753,7.017-.013.015-.012.008c.011-.037.02-.075.03-.112A.829.829,0,0,0,527.961,230.255Z" transform="translate(-466.474 -213.817)" fill="#809e83"/>
      <path id="Path_541" data-name="Path 541" d="M392.86,285.467a4.156,4.156,0,0,1-.618,2.133c.028.076.058.149.087.224a3.358,3.358,0,0,1,2.384.161c.545-2.7,2.238-4.9,3.979-7.033a15.683,15.683,0,0,0,3.52-6.415c0-.019.007-.038.011-.057-.013-.025-.023-.054-.037-.079-.066-1.5-.618-2.967-1.759-3.361a1.712,1.712,0,0,0-2.1,1.235,4.024,4.024,0,0,0-.226,1c-.53-1.694-1.43-3.421-2.7-3.75-1.376-.356-2.021.906-2.331,2.275-1.282-1.459-3.117-2.7-4.933-1.724-.743.4-1.663,1.995-1.236,2.86a2.307,2.307,0,0,0,.539,1.281c2.548,2.523,3.079,6.318,3.847,9.883.194-.022.39-.041.589-.054C392.534,284,392.878,284.947,392.86,285.467Z" transform="translate(-349.358 -253.608)" fill="#ffa59f"/>
      <path id="Path_542" data-name="Path 542" d="M486.542,330.851a12.439,12.439,0,0,1-4.428,6.818,9.592,9.592,0,0,1-3.691,1.8,8.947,8.947,0,0,0,9.543-2.136c1.625-1.5,2.741-3.48,4.43-4.914,2.182-1.853,4.952-2.246,7.72-2.313.879-.022,1.228-1.226,1.193-1.919-.163-3.309-2.654-3.662-5.564-3.589-.207.005-.409.017-.606.035a4.72,4.72,0,0,0-.142-2.221,1.531,1.531,0,0,0-.8-.891,4.39,4.39,0,0,0-4.218,1.564c-.074-1.335-.531-2.288-1.636-2.43C486.716,323.8,487.457,327.22,486.542,330.851Z" transform="translate(-426.599 -296.758)" fill="#ffa59f"/>
      <path id="Path_543" data-name="Path 543" d="M441.21,277.153c-1.741,2.134-3.434,4.329-3.979,7.033.543.344.836,1.023.728,2.206a3.131,3.131,0,0,1-.634,1.665,6.512,6.512,0,0,0,2.379,3.7c.567.008,1.141.222,1.709.256a.862.862,0,0,1,.723.626,5.672,5.672,0,0,0,1.564-.121,9.591,9.591,0,0,0,3.691-1.8,12.439,12.439,0,0,0,4.428-6.818c.915-3.631.174-7.047,1.8-10.2a8.827,8.827,0,0,1,1.385-1.968c.855-.923,1.009-3.346-.429-3.878a3,3,0,0,0-2.07-.014,4.343,4.343,0,0,0-.815.384,8.308,8.308,0,0,0-1.68,1.393,7.179,7.179,0,0,0-.922-3.4c-.954-1.666-2.659-1.73-3.527.068-.642,1.33-.5,2.966-.822,4.392,0,.019-.007.038-.011.057A15.681,15.681,0,0,1,441.21,277.153Zm5.865-3.356c.006,0,.006-.014,0-.014S447.081,273.8,447.074,273.8Zm.164-.447.184-.2c.058-.064.116.1.06.147l-.194.177C447.229,273.528,447.2,273.391,447.238,273.351Zm.4-.661c.139,0,.144.31.008.31S447.5,272.69,447.637,272.69Zm1.35,3.425c-.121.133-.247.26-.374.387-.058.058-.1-.088-.055-.133.125-.125.251-.249.382-.368C449,275.951,449.021,276.078,448.988,276.115Zm-3.041,10.652c-.139.088-.154-.231-.091-.3,1.381-1.543,2.723-2.6,3.1-4.786a20.427,20.427,0,0,1,.739-3.981c.09-.238.286.022.224.19-.7,1.9-.329,4.037-1.193,5.88A7.4,7.4,0,0,1,445.946,286.767Zm-5.669.507-.284-.017c-.072,0-.108-.055-.138-.114-.061-.122-.04-.169.017-.289a.141.141,0,0,1,.109-.072l.283-.017C440.494,286.751,440.5,287.287,440.277,287.274Zm5.735-12.672c.157-.169.266.242.152.369-2.265,2.552-4.129,5.084-4.555,8.552-.033.269-.279.159-.294-.053C441.068,279.9,443.758,277.034,446.012,274.6Z" transform="translate(-391.877 -249.81)" fill="#ffc9b6"/>
      <path id="Path_544" data-name="Path 544" d="M485.958,429.349c0-.01,0-.023,0-.032-.005-.077,0-.154,0-.23a24.1,24.1,0,0,0-3.23-.028.373.373,0,0,0,.041-.131,1.5,1.5,0,0,1,.05-.208.24.24,0,0,0,.218-.034c.372-.257.859-.3,1.215-.605a1.279,1.279,0,0,0,.424-1.267c-.024-.115-.13-.348-.29-.32a2.422,2.422,0,0,0-2,2.286.384.384,0,0,0,.114.3,23.283,23.283,0,0,0-3.138.439,12.542,12.542,0,0,0,1.745-1.875c.327-.494.308-1.379-.412-1.485-.747-.111-1.317.681-1.647,1.232a4.264,4.264,0,0,0-.67,2.358,24.233,24.233,0,0,0-2.82.9c.712-1.216,1.574-2.513,1.4-3.943-.025-.2-.211-.445-.434-.357-.777.307-1.2,1.308-1.5,2.037a6.066,6.066,0,0,0-.478,2.689,27.237,27.237,0,0,0-2.819,1.453,7.118,7.118,0,0,0,.963-2.025c.156-.547.526-1.854-.3-2.127-.79-.262-1.227.868-1.449,1.39a7.92,7.92,0,0,0-.581,3.616q-1.091.725-2.13,1.542a24.919,24.919,0,0,0-.02-3.7c-.08-.528-.457-1.035-1.042-.73-.7.363-.614,1.534-.572,2.174a5.422,5.422,0,0,0,.9,2.794.259.259,0,0,0,.033.034q-1.241,1.029-2.405,2.171a.845.845,0,0,0,.075-.353c0-.577.471-5.438-1.149-4.26-1.373,1-.222,4.092.512,5.174q-1.06,1.078-2.054,2.233a.586.586,0,0,0,.064-.295,16.865,16.865,0,0,0-.379-3.9c-.207-.616-.906-1.205-1.5-.648s-.324,1.619-.137,2.283a8.7,8.7,0,0,0,1.566,3.01q-1.091,1.3-2.1,2.66c-.007.221-.017.442-.03.664l.01-.008a52.034,52.034,0,0,1,4.663-5.308c.014.04.037.067.083.041s.086-.045.127-.068c1.033.483,5.839,1.423,5.262-.779-.242-.925-1.625-.982-2.389-.927a4.589,4.589,0,0,0-1.724.454q1-.907,2.06-1.735l.056-.014a21.356,21.356,0,0,0,3.925.346c.682.014,1.484-.2,1.4-1.065-.082-.892-1.19-.776-1.821-.751a9.2,9.2,0,0,0-1.941.288c.589-.408,1.188-.8,1.8-1.164a5.659,5.659,0,0,0,1.3.165,14.58,14.58,0,0,0,1.6.108c.471-.018.921-.217.895-.757-.038-.787-.732-.877-1.526-.731.445-.214.9-.414,1.352-.6.538,1.1,2.31,1.443,3.388,1.32.35-.04.366-.6.2-.823a2.993,2.993,0,0,0-1.927-1.126c.674-.226,1.362-.419,2.059-.587a5.317,5.317,0,0,0,1.448,1.386c.4.3,1.266,1.051,1.675.353.58-.991-.753-1.677-1.91-2a23.539,23.539,0,0,1,2.394-.316c0,.008,0,.018,0,.024a3.17,3.17,0,0,0,1.275,1.572c.359.26,1.011.749,1.457.388s.207-1.075-.2-1.344a9.765,9.765,0,0,0-1.1-.578c-.095-.046-.187-.089-.279-.127a24.158,24.158,0,0,1,2.451.049A2.21,2.21,0,0,1,485.958,429.349Zm-14.3,1.586c.024-.079.052-.157.079-.234-.016.053-.029.107-.044.161Z" transform="translate(-411.057 -385.687)" fill="#809e83"/>
      <path id="Path_545" data-name="Path 545" d="M373.6,345.987a.639.639,0,0,1,.151-.113.919.919,0,0,0-.151.085C373.6,345.969,373.6,345.978,373.6,345.987Z" transform="translate(-338.24 -318.02)" fill="#809e83"/>
      <path id="Path_546" data-name="Path 546" d="M295.187,208.483c.1.04.217.014.3-.145a8.088,8.088,0,0,0,1-3.233c.056-.69.067-1.88-.816-2.081-.983-.224-.968,1.241-1.034,1.862a8.25,8.25,0,0,0,.05,2.36,39.817,39.817,0,0,0-2.1-4.263.568.568,0,0,0,.08-.165,18.379,18.379,0,0,0,.858-4.355c.049-.736.22-2.16-.8-2.359-2.018-.395-1.372,3.493-.974,5.5a34.463,34.463,0,0,0-2-2.839.763.763,0,0,0,.1-.021c.2-.073.243-.359.253-.538.031-.6.475-7.114-1.5-5.605-.71.543-.5,1.731-.4,2.477a10.888,10.888,0,0,0,.446,1.94q.015.236.038.47a31.824,31.824,0,0,0-3.623-3.557.912.912,0,0,1-.658.571,34.385,34.385,0,0,1,2.976,2.837,8.553,8.553,0,0,0-3.875-.209c-.358.062-.446.582-.3.866l.01.019a.73.73,0,0,0,.088.266,2.28,2.28,0,0,0,1.808.921,13.753,13.753,0,0,0,3.683,0c.1.037.193.072.29.111q1.02,1.278,1.9,2.632l-.143-.027c-.013-.008-.022-.021-.036-.027a7.476,7.476,0,0,0-1.085-.344,8.937,8.937,0,0,0-2.81-.808c-.244-.031-.314.362-.321.516-.1,2.244,3.036,2.21,4.69,1.975.058.038.117.074.175.113.151.1.227-.04.232-.2a.3.3,0,0,0,.043-.02,38.656,38.656,0,0,1,2.14,4.085l-.044-.026a4.379,4.379,0,0,0-1.375-1.3c-.5-.309-1.631-.913-2.122-.265-.536.709.147,1.474.725,1.831a8.963,8.963,0,0,0,3.112,1.175l.015.008v0c.035.007.068.017.1.023a.258.258,0,0,0,.187-.034q.291.715.556,1.442a2.307,2.307,0,0,1,.69-.132C295.554,209.447,295.374,208.964,295.187,208.483Zm-5.746-12.71c0,.041,0,.082,0,.123-.006-.146-.011-.277-.014-.374q-.006-.431-.019-.861,0-.07,0-.14c0,.045,0,.09.007.136A5.225,5.225,0,0,1,289.442,195.773Z" transform="translate(-261.988 -188.63)" fill="#809e83"/>
      <path id="Path_547" data-name="Path 547" d="M356.6,660.276c.535-3.289,1.047-6.594,1.517-9.912q-.257,0-.512-.01-.578,4.475-1.184,8.943A8.181,8.181,0,0,1,356.6,660.276Z" transform="translate(-323.755 -574.682)" fill="#809e83"/>
      <path id="Path_548" data-name="Path 548" d="M379.052,491.7c-.011.226-.025.452-.036.679.172.188.348.386.526.593.015-.3.033-.6.047-.907C379.406,491.948,379.227,491.825,379.052,491.7Z" transform="translate(-342.804 -440.948)" fill="#809e83"/>
      <path id="Path_549" data-name="Path 549" d="M339.316,650.029a45.592,45.592,0,0,0-1.267-7.6,6.606,6.606,0,0,1-1.132-.648c.373,1.663.686,3.333.928,5.019.1.19.193.381.286.577C338.342,647.824,338.855,648.85,339.316,650.029Z" transform="translate(-307.316 -567.459)" fill="#4a6540"/>
      <path id="Path_550" data-name="Path 550" d="M320.529,578.953q-.335-.933-.675-1.853a2.22,2.22,0,0,1-.41.454q.348,1.056.679,2.109c.069-.151.145-.3.229-.445C320.408,579.121,320.469,579.039,320.529,578.953Z" transform="translate(-292.588 -512.932)" fill="#4a6540"/>
      <path id="Path_551" data-name="Path 551" d="M360.054,661.105l.144-.011a35.705,35.705,0,0,1,2.174-6.019c.041-.256.079-.515.124-.77.328-1.856.718-3.7,1.146-5.545-.333.067-.67.123-1.011.165-.331,1.323-.651,2.649-.946,3.983C361.1,655.557,360.424,658.333,360.054,661.105Z" transform="translate(-326.82 -573.339)" fill="#4a6540"/>
      <path id="Path_552" data-name="Path 552" d="M367.456,640.468a46.946,46.946,0,0,0-4.312,7.392,35.712,35.712,0,0,0-2.174,6.019c.639-.05,1.174-.1,1.608-.083.507-1.64,1.024-3.277,1.691-4.866.949-2.261,2.038-4.482,3.213-6.651.082-.7.2-1.4.348-2.078A4.083,4.083,0,0,1,367.456,640.468Z" transform="translate(-327.593 -566.123)" fill="#777a77"/>
      <path id="Path_553" data-name="Path 553" d="M495.9,541.3a21.746,21.746,0,0,1,2.439-1.3c.539-.242,1.1-.447,1.664-.639a13.625,13.625,0,0,1,2.616-.713c.2-.032.228.429.055.483-2.879.886-5.179,2.845-7.639,4.465a6.09,6.09,0,0,1-1.635,1.7c-.265.184-.549.354-.842.517a3.417,3.417,0,0,1,1.151,1.411c.031.071.051.139.078.209a25.028,25.028,0,0,0,4.14-2.236c3.555-2.379,6.258-5.956,10.116-7.9.24-.068.482-.132.717-.206.2-.064.16-.532-.062-.542-4.606-.206-9.159-.5-13.236,1.805A5.194,5.194,0,0,1,495.9,541.3Z" transform="translate(-438.518 -478.635)" fill="#9bbf73"/>
      <path id="Path_554" data-name="Path 554" d="M515.917,550.657a13.62,13.62,0,0,0-2.616.713,23.652,23.652,0,0,0-4.127,2.1,5.758,5.758,0,0,1-.841,2.135c2.461-1.62,4.76-3.579,7.639-4.465C516.146,551.087,516.115,550.625,515.917,550.657Z" transform="translate(-451.812 -490.641)" fill="#809e83"/>
      <path id="Path_555" data-name="Path 555" d="M409.051,423.481q-.486-.838-.982-1.678c-.926.392-1.958.7-2.908,1.07A10.069,10.069,0,0,1,409.051,423.481Z" transform="translate(-364.843 -382.024)" fill="#787f55"/>
      <path id="Path_556" data-name="Path 556" d="M399.919,443.244a3.052,3.052,0,0,1-.105.753,3.934,3.934,0,0,1-3.966,2.748,4.755,4.755,0,0,1,1.044.88,2.63,2.63,0,0,1,.232,3.088,1.423,1.423,0,0,1-.747.531,1.366,1.366,0,0,1-.643.849,3.006,3.006,0,0,1-2.542.023q.119.9.3,1.781c2.5-.072,3.872,3.067,4.683,5.376a24.679,24.679,0,0,1,1.054,3.886,21.56,21.56,0,0,1,4.453-4.513c.013-.221.022-.442.03-.663a37.506,37.506,0,0,0-.08-3.761,21.361,21.361,0,0,0-1.642-6.736c-.156-.381-.318-.759-.488-1.134C401.02,445.3,400.485,444.268,399.919,443.244Z" transform="translate(-354.753 -400.098)" fill="#787f55"/>
      <path id="Path_557" data-name="Path 557" d="M339.153,580.009a4.7,4.7,0,0,1,2.9,2.2c1.077,2.042.319,4.967-2.072,5.626-2.551.7-4.566-1.814-5.3-3.932a9.088,9.088,0,0,1-.081-5.8.184.184,0,0,0-.118.086c-.039-.1-.081-.2-.129-.307-3.12-1.422-6.152-4.039-7.128-7.424a3.609,3.609,0,0,0-3.084.77,8.055,8.055,0,0,0-2.733,2.04c-.06.086-.121.169-.177.265-.084.145-.159.294-.229.445a6.382,6.382,0,0,0,1.573,7.206q.238.209.492.39a6.608,6.608,0,0,0,1.132.648,8.4,8.4,0,0,0,3.115.7q.256.011.512.01a12.171,12.171,0,0,0,1.451-.095c.34-.043.678-.1,1.011-.166a14.812,14.812,0,0,0,1.488-.379,6.481,6.481,0,0,0,1.554-.7,4.07,4.07,0,0,0,.374-.267c-.143.681-.266,1.38-.348,2.078a8.844,8.844,0,0,0,.654,5.192c1.434,2.659,5.019,4.359,7.919,4.631,3.138.294,4.786-2.145,4.438-5.074-.41-3.452-3.14-6.221-5.851-8.133l-.1-.068c-1.063-.329-2.11-.738-3.143-1.13A4.709,4.709,0,0,0,339.153,580.009Zm-13.3-.479c-.07.223-.246.043-.26-.1a1.985,1.985,0,0,1,.976-1.773,4.284,4.284,0,0,1,2.632-.459c.1,0,.106.218.005.227C327.715,577.56,326.335,577.988,325.852,579.531Zm.73-4.653a7.239,7.239,0,0,1,4.568,2.149c.058.055.025.25-.063.179a7.427,7.427,0,0,0-4.013-1.656,4.254,4.254,0,0,0-3.2.969c-.151.11-.2-.147-.17-.246C324.049,575.057,325.465,574.8,326.582,574.877Z" transform="translate(-293.464 -507.246)" fill="#ffcce8"/>
      <path id="Path_558" data-name="Path 558" d="M322.018,492.464a2.944,2.944,0,0,0,2.717.616c-.425-2.9.726-6.347,3.368-7.83a4.523,4.523,0,0,1,1.24-.489,17.891,17.891,0,0,0-1.407-1.848c-.178-.207-.354-.4-.526-.593-.336-.369-.654-.7-.925-.979l-.271-.277c-.007,0-.013,0-.021,0a12.092,12.092,0,0,1-5.755-1.3c.957,1.692,1.549,4.811-1.094,5.253a2.379,2.379,0,0,1-1.549-.282,24.42,24.42,0,0,0,.676,3.719A16.014,16.014,0,0,0,322.018,492.464Z" transform="translate(-291.198 -430.885)" fill="#d740b2"/>
      <path id="Path_559" data-name="Path 559" d="M242.681,510.129c.054-.078.107-.162.158-.254a6.951,6.951,0,0,0,.236-4.684c-.124-.567-.257-1.116-.386-1.658a24.433,24.433,0,0,1-.676-3.719A5.674,5.674,0,0,1,240,497.652c0,.018,0,.036,0,.054.038,1.661.2,3.743-.4,5.328-.457,1.2-1.6,1.94-2.725,1.066a3.763,3.763,0,0,1-1.171-1.764,2.684,2.684,0,0,1-2.038,1.145c-1.281.025-1.962-1.043-2.09-2.2-.013-.12-.015-.24-.02-.36a2,2,0,0,1-.457-.056,2.479,2.479,0,0,1-.69-.28,20.392,20.392,0,0,1-2.445,4.325,14.3,14.3,0,0,0-.061,1.85c.038,1.092.383,2.678,1.59,3.072,1.168.381,2.283-.636,3.184-1.692a4.012,4.012,0,0,0,2.36,2.9c1.31.37,2.384-.728,3.134-1.924,1.183,1.279,2.894,2.474,4.1,1.469A2.207,2.207,0,0,0,242.681,510.129Z" transform="translate(-215.415 -445.961)" fill="#e340af"/>
      <path id="Path_560" data-name="Path 560" d="M177.153,469.684a9.271,9.271,0,0,1-1.422.753c-1.482.622-3.765,1.025-5.223.127-1.287.795-2.516,1.641-3.64,2.39-1.992,1.327-4,3.12-3.328,5.762.1.383.321,1.024.781,1.128a9.229,9.229,0,0,0,5.5-1.005,17.9,17.9,0,0,0-.278,1.822c-.081.812.125,2.14,1.174,2.211a3.521,3.521,0,0,0,2.888-1.542,20.391,20.391,0,0,0,2.445-4.325C174.22,475.926,175.343,472.754,177.153,469.684Z" transform="translate(-161.057 -422.386)" fill="#d740b2"/>
      <path id="Path_561" data-name="Path 561" d="M258.812,486.579c-.306,1.053-.892,1.957-2.09,2a1.86,1.86,0,0,1-1.758-1.047c-.8,1.73-2.031,4.063-3.758,4.053.005.12.007.239.02.36.128,1.162.809,2.23,2.09,2.2A2.683,2.683,0,0,0,255.353,493a3.762,3.762,0,0,0,1.171,1.764c1.13.874,2.268.134,2.725-1.066.6-1.586.438-3.667.4-5.328,0-.018,0-.036,0-.054A12.288,12.288,0,0,1,258.812,486.579Z" transform="translate(-235.066 -436.627)" fill="#d740b2"/>
      <path id="Path_562" data-name="Path 562" d="M159.243,437.412c-1.155-2.775,1.2-3.5,3.28-4.055.254-.069.505-.146.757-.222-.773-.036-1.548-.112-2.315-.2a34.809,34.809,0,0,1-5.872-1.045,11.381,11.381,0,0,0-2.888.714c-1.2.475-1.042,2.676-.207,3.393a4.077,4.077,0,0,0,1.693.83,6.159,6.159,0,0,0-.849,1.247,2.487,2.487,0,0,0,.319,2.915c1.653,1.442,4.534-1.161,6.046-1.973q.445-.239.9-.471A2.7,2.7,0,0,1,159.243,437.412Z" transform="translate(-150.884 -390.523)" fill="#fe5bdd"/>
      <path id="Path_563" data-name="Path 563" d="M188.37,322.991c1.016.632,2.048,1.315,3.1,1.985a5.76,5.76,0,0,1,.046-4.167,2.9,2.9,0,0,1,4.169-1.419,25.663,25.663,0,0,1-1.535-3.837c-.623-.991-1.452-2.068-2.47-2.232a1.768,1.768,0,0,0-2.028,1.264,7.293,7.293,0,0,0,.115,2.655,2.054,2.054,0,0,0-.1.2c-1.736-.639-3.756-.457-3.858,1.986a4.031,4.031,0,0,0,.956,2.507C187.367,322.326,187.919,322.711,188.37,322.991Z" transform="translate(-179.934 -290.553)" fill="#fe5bdd"/>
      <path id="Path_564" data-name="Path 564" d="M362.7,356.173c.579.081,1.572.712,1.62,1.474.364-.081.734-.156,1.113-.225,1.7-.309,1.507,3.01.762,3.749a8.865,8.865,0,0,1-1.338,1.081,5.91,5.91,0,0,1,1.116.608,1.332,1.332,0,0,1,.368.421,8.745,8.745,0,0,1,3.028-.674c.95-.372,1.981-.678,2.908-1.07a5.308,5.308,0,0,0,2.223-1.532,3.132,3.132,0,0,0,.634-1.664c.108-1.183-.185-1.862-.728-2.206a3.358,3.358,0,0,0-2.384-.161c-.092.018-.183.038-.277.059.068-.09.129-.186.19-.283a4.157,4.157,0,0,0,.619-2.133c.018-.52-.326-1.467-.986-1.424-.2.013-.395.032-.589.054a7.65,7.65,0,0,0-2.853.858,3.066,3.066,0,0,0-.283.18c.412-1.153.5-2.218-.279-2.771a1.458,1.458,0,0,0-.426-.205,8.822,8.822,0,0,1-.837,1.6C364.3,355.928,362.7,356.173,362.7,356.173Z" transform="translate(-329.05 -321.758)" fill="#e340af"/>
      <path id="Path_565" data-name="Path 565" d="M372.443,431.927a3.6,3.6,0,0,1-2.471,1.488,3.116,3.116,0,0,1,1.349,2.641,1.928,1.928,0,0,1-.815,1.758c.148.105.294.219.443.322l.48.334c.175.121.354.244.536.365a8.773,8.773,0,0,0,1.654.9,3.006,3.006,0,0,0,2.542-.023,1.366,1.366,0,0,0,.643-.85,1.422,1.422,0,0,0,.747-.531,2.63,2.63,0,0,0-.232-3.088,4.758,4.758,0,0,0-1.044-.88,3.934,3.934,0,0,0,3.966-2.748,3.05,3.05,0,0,0,.105-.753,1.589,1.589,0,0,0-.807-1.637c-.05-.019-.1-.034-.151-.052a10.073,10.073,0,0,0-3.89-.608,8.743,8.743,0,0,0-3.028.674A2.8,2.8,0,0,1,372.443,431.927Z" transform="translate(-335.18 -387.713)" fill="#fe5bdd"/>
      <path id="Path_566" data-name="Path 566" d="M304.039,457.893c2.643-.442,2.05-3.561,1.093-5.253a12.094,12.094,0,0,0,5.755,1.3c.008,0,.014,0,.021,0a.881.881,0,0,0,.309-.079,1.928,1.928,0,0,0,.815-1.758,3.116,3.116,0,0,0-1.349-2.641,7.936,7.936,0,0,1-2.306-.035c-.055.95-.511,1.83-1.379,1.472-1.409-.581-2.748-1.339-4.1-2.037a25.773,25.773,0,0,1-2.518-1.273c-.031,1.3-.289,2.648-.382,3.791a12.006,12.006,0,0,1-.357,2.332,12.265,12.265,0,0,0,.836,1.739,5.672,5.672,0,0,0,2.016,2.162A2.38,2.38,0,0,0,304.039,457.893Z" transform="translate(-275.893 -403.758)" fill="#f340cf"/>
      <path id="Path_567" data-name="Path 567" d="M334.391,397.777a51.723,51.723,0,0,1-6.3,3.483c1.262.784,2.482,1.614,3.7,2.461a2.11,2.11,0,0,1,.567,1.772,7.935,7.935,0,0,0,2.306.035,3.6,3.6,0,0,0,2.471-1.488,2.8,2.8,0,0,0,.028-2.692,1.332,1.332,0,0,0-.368-.421,5.9,5.9,0,0,0-1.116-.608,8.858,8.858,0,0,0,1.338-1.081c.745-.738.94-4.058-.762-3.749q-.568.1-1.113.225A2.3,2.3,0,0,1,334.391,397.777Z" transform="translate(-299.881 -359.826)" fill="#e640bc"/>
      <path id="Path_568" data-name="Path 568" d="M160.832,369.621q.482-.145.959-.306A2.312,2.312,0,0,1,160.4,367.5c-.307-1.83.563-2.52,1.919-2.6a7.864,7.864,0,0,1-.817-.8,7.986,7.986,0,0,1-1.536-2.669c-1.051-.669-2.082-1.353-3.1-1.985-.451-.28-1-.665-1.609-1.062-1.719-1.127-3.885-2.36-5.5-1.625-1.674.762-1.523,3.411-.867,4.794a4.832,4.832,0,0,0,.655,1.03,1.973,1.973,0,0,0-.263.256c-1.148,1.371-.382,3.624.952,4.482a9.693,9.693,0,0,0,2.4,1.049,34.791,34.791,0,0,0,5.872,1.045C159.284,369.509,160.059,369.585,160.832,369.621Z" transform="translate(-148.436 -327.009)" fill="#d740b2"/>
      <path id="Path_569" data-name="Path 569" d="M333.44,308a11.852,11.852,0,0,1-1.389,4.957c1.122,1.291.557,3.656-.066,5.09a11.229,11.229,0,0,1-.631,1.211c1.783-.781,3.646-1.379,5.06-1.96a1.118,1.118,0,0,1,.393-.084c.06-.052.119-.107.178-.16a13.438,13.438,0,0,0,3.122-4.037,8.161,8.161,0,0,0,.606-1.613,4,4,0,0,0-.58-3.623,2.137,2.137,0,0,0-1.932-.89c-.015,0-.026.008-.04.011a7.509,7.509,0,0,0-.058-1.423,1.524,1.524,0,0,0-.827-1.194,2.793,2.793,0,0,0-.913-.127,2.309,2.309,0,0,0-.69.132,4.575,4.575,0,0,0-2.279,2.547A8.433,8.433,0,0,1,333.44,308Z" transform="translate(-302.628 -282.856)" fill="#fe5bdd"/>
      <path id="Path_570" data-name="Path 570" d="M236.714,285.508a3.956,3.956,0,0,1,.8.543,7.71,7.71,0,0,1,1.74,2.72,2.567,2.567,0,0,1,.989-2.108c1.312-.873,2.217.14,2.736,1.3-.29-2.849-.366-5.823.808-8.229a15.767,15.767,0,0,0-.766-4.181c-.42-1.209-1.24-2.994-2.771-2.3a3.473,3.473,0,0,0-1.563,2.462,2.432,2.432,0,0,0-2.54-1.3c-2.259.558-1.668,4.1-1.366,5.669.1.54.246,1.069.4,1.593A25.665,25.665,0,0,0,236.714,285.508Z" transform="translate(-220.964 -256.671)" fill="#d740b2"/>
      <path id="Path_571" data-name="Path 571" d="M287.618,310.453a6.96,6.96,0,0,1,.46,1.45c.272,1.395.54,2.755.9,4.115.24-.632.512-1.22.738-1.7.91-1.931,2.288-4.372,4.146-5.535a.717.717,0,0,1,.563-.014,2.28,2.28,0,0,1,.609.494,11.855,11.855,0,0,0,1.389-4.957,8.408,8.408,0,0,0-.045-1.163c-.12-1.1-.5-2.3-1.465-2.71a1.712,1.712,0,0,0-1.983.609,1.943,1.943,0,0,0-.7-.913c-1.25-.9-2.526.062-3.282,1.179a7.459,7.459,0,0,0-.519.915C287.252,304.63,287.329,307.6,287.618,310.453Z" transform="translate(-265.607 -279.161)" fill="#f340cf"/>
      <path id="Path_572" data-name="Path 572" d="M206.345,443.638a9.251,9.251,0,0,0,1.422-.753c-1.81,3.071-2.933,6.243-1.1,7.321a2.482,2.482,0,0,0,.69.279,2,2,0,0,0,.457.056c1.727.01,2.959-2.323,3.758-4.053a5.028,5.028,0,0,1-.432-3.057,27.58,27.58,0,0,1,1.455-4.735c-1.836.472-4.248-.144-6-.382a5.408,5.408,0,0,1-1.567-.422q-.477.161-.959.306c-.252.076-.5.154-.757.222-2.077.56-4.435,1.281-3.28,4.055a2.767,2.767,0,0,0,1.092,1.289C202.58,444.663,204.862,444.26,206.345,443.638Z" transform="translate(-191.671 -395.587)" fill="#f340cf"/>
      <path id="Path_573" data-name="Path 573" d="M229.111,360.966a11.469,11.469,0,0,1-1.829-3.736,13.125,13.125,0,0,1-.615-3.929,7.711,7.711,0,0,0-1.74-2.72,3.946,3.946,0,0,0-.8-.543,2.9,2.9,0,0,0-4.169,1.419,5.76,5.76,0,0,0-.046,4.167,7.987,7.987,0,0,0,1.536,2.669,7.854,7.854,0,0,0,.817.8C224.221,358.971,227.18,360.116,229.111,360.966Z" transform="translate(-208.38 -321.201)" fill="#e340af"/>
      <path id="Path_574" data-name="Path 574" d="M234.005,379.676c1.2-.041,1.784-.944,2.09-2a12,12,0,0,0,.357-2.332c.093-1.143.352-2.493.382-3.791a4.112,4.112,0,0,1-.658-.531,2.191,2.191,0,0,1-.409-.6.9.9,0,0,0,.329-.3l-.057.06a1.512,1.512,0,0,0,.317-1.006,1.133,1.133,0,0,1-.525.385c-1.348.455-1.923-1.485-1.518-2.443a1.619,1.619,0,0,1,.305-.474c.026-.039.047-.08.077-.117a1.3,1.3,0,0,1,.554-.4,10.884,10.884,0,0,1,.467-1.534c-.357-1.36-.625-2.721-.9-4.115a6.953,6.953,0,0,0-.46-1.45c-.519-1.161-1.424-2.174-2.736-1.3a2.567,2.567,0,0,0-.989,2.108,13.123,13.123,0,0,0,.615,3.929,11.466,11.466,0,0,0,1.829,3.736c-1.931-.85-4.89-1.995-6.842-1.876-1.356.082-2.226.772-1.919,2.6a2.312,2.312,0,0,0,1.386,1.815,5.4,5.4,0,0,0,1.567.422c1.75.238,4.162.854,6,.382a27.585,27.585,0,0,0-1.455,4.735,5.027,5.027,0,0,0,.432,3.057A1.859,1.859,0,0,0,234.005,379.676Z" transform="translate(-212.35 -327.727)" fill="#fe5bdd"/>
      <path id="Path_575" data-name="Path 575" d="M294.257,365.556a.889.889,0,0,1,.789.065,1.987,1.987,0,0,1,.708,2,2.06,2.06,0,0,1-.391.982,1.511,1.511,0,0,1-.317,1.006l.057-.06a.9.9,0,0,1-.329.3,2.19,2.19,0,0,0,.409.6,4.114,4.114,0,0,0,.658.531,25.7,25.7,0,0,0,2.518,1.273c1.355.7,2.694,1.456,4.1,2.037.869.358,1.325-.522,1.38-1.472a2.11,2.11,0,0,0-.567-1.772c-1.222-.846-2.442-1.677-3.7-2.461a51.726,51.726,0,0,0,6.3-3.483,2.3,2.3,0,0,0,.759-2.062c-.048-.762-.358-1.446-.936-1.527a.905.905,0,0,0-.154,0,1.128,1.128,0,0,0-.393.084c-1.414.582-3.277,1.179-5.06,1.96a11.24,11.24,0,0,0,.631-1.211c.623-1.434,1.187-3.8.066-5.091a2.28,2.28,0,0,0-.609-.494.716.716,0,0,0-.563.014c-1.859,1.164-3.236,3.6-4.146,5.536-.226.479-.5,1.067-.738,1.7A10.882,10.882,0,0,0,294.257,365.556Z" transform="translate(-271.356 -327.164)" fill="#ff6ee4"/>
      <path id="Path_576" data-name="Path 576" d="M290.045,414.707a1.987,1.987,0,0,0-.708-2,.889.889,0,0,0-.789-.065,1.3,1.3,0,0,0-.554.4c-.03.037-.051.078-.077.117a1.617,1.617,0,0,0-.305.474c-.4.958.17,2.9,1.518,2.443a1.135,1.135,0,0,0,.525-.385A2.058,2.058,0,0,0,290.045,414.707Z" transform="translate(-265.647 -374.245)" fill="#e0d996"/>
      <path id="Path_577" data-name="Path 577" d="M431.631,536.874a11.7,11.7,0,0,1,.022,4.407q.594,0,1.187,0c2.592-1.4,6.317-1.77,8.36-.287.293-.163.578-.333.842-.517a6.091,6.091,0,0,0,1.635-1.7,5.763,5.763,0,0,0,.841-2.135c.009-.053.016-.106.024-.159a5.194,5.194,0,0,0-.436-2.951c-.036-.076-.066-.153-.106-.228-1.9-3.615-5.016-3.028-7.905-.95l-.01.008A21.555,21.555,0,0,0,431.631,536.874Zm9.988-.251c-1.4.463-2.87.636-4.261,1.174a19.471,19.471,0,0,0-3.89,2.02c-.077.052-.122-.15-.06-.2,2.249-1.659,5.283-3.4,8.181-3.253C441.695,536.374,441.715,536.592,441.619,536.624Zm-8.924,3.054c1.123-2.221,3.416-4.731,6.076-4.907.093-.006.088.173.023.206a19.041,19.041,0,0,0-3.474,1.89,9.845,9.845,0,0,0-2.5,2.992C432.746,540,432.649,539.77,432.7,539.678Z" transform="translate(-387.156 -473.812)" fill="#ffcce8"/>
      <path id="Path_578" data-name="Path 578" d="M371.4,516.456c-.81-2.308-2.185-5.448-4.683-5.376a3.211,3.211,0,0,0-.594.075,4.524,4.524,0,0,0-1.24.489c-2.642,1.483-3.794,4.93-3.368,7.83a7.48,7.48,0,0,0,.148.765c.022.085.051.166.075.25.976,3.385,4.009,6,7.128,7.424.093.043.186.088.279.128q.1-.252.212-.494a1.812,1.812,0,0,1-.318-.741c0-.006,0-.013,0-.019s-.008-.028-.011-.042a2.652,2.652,0,0,1-.044-.711,2.6,2.6,0,0,1,.142-.836,1.544,1.544,0,0,1,.138-.36,1.614,1.614,0,0,1,.343-.486,1.21,1.21,0,0,1,.7-.326,1.281,1.281,0,0,1,1.156.736c.337-.006.674-.011,1.01-.014a11.7,11.7,0,0,0-.022-4.407A24.708,24.708,0,0,0,371.4,516.456Z" transform="translate(-327.981 -457.28)" fill="#f5a4a6"/>
      <path id="Path_579" data-name="Path 579" d="M433.334,591.168c-2.043-1.483-5.769-1.117-8.36.287q-.593,0-1.187,0c-.337,0-.674.007-1.01.013a1.822,1.822,0,0,1,.119.24,2.716,2.716,0,0,1-.142,2.336,1.789,1.789,0,0,1-.453.507,7.791,7.791,0,0,0,.8,1.007c1.034.392,2.081.8,3.143,1.13a11.375,11.375,0,0,0,5.113.569c2.365-.359,4.142-2.014,3.207-4.471-.026-.07-.047-.138-.078-.209A3.418,3.418,0,0,0,433.334,591.168Z" transform="translate(-379.29 -523.987)" fill="#ffb6bb"/>
      <path id="Path_580" data-name="Path 580" d="M409.232,616.489a1.107,1.107,0,0,1-.947-.506c-.011-.014-.023-.026-.034-.041q-.116.241-.211.494c-.011.031-.021.062-.032.093a9.09,9.09,0,0,0,.081,5.8c.737,2.119,2.752,4.635,5.3,3.932,2.391-.659,3.149-3.584,2.072-5.627a4.7,4.7,0,0,0-2.9-2.2,4.711,4.711,0,0,1-1.879-1.19,7.8,7.8,0,0,1-.8-1.007A1.162,1.162,0,0,1,409.232,616.489Z" transform="translate(-366.873 -545.674)" fill="#ffe9ec"/>
      <path id="Path_581" data-name="Path 581" d="M410.815,593.5a1.208,1.208,0,0,0-.7.326,1.608,1.608,0,0,0-.343.486,1.533,1.533,0,0,0-.138.36,2.6,2.6,0,0,0-.142.836,2.656,2.656,0,0,0,.044.711c0,.014.008.028.011.042s0,.013,0,.019a1.814,1.814,0,0,0,.318.741c.011.014.022.027.034.04a1.107,1.107,0,0,0,.947.506,1.161,1.161,0,0,0,.651-.248,1.789,1.789,0,0,0,.453-.507,2.717,2.717,0,0,0,.143-2.336,1.83,1.83,0,0,0-.119-.24A1.281,1.281,0,0,0,410.815,593.5Z" transform="translate(-368.484 -526.756)" fill="#e340af"/>
      <path id="Path_582" data-name="Path 582" d="M297.23,627.14c.366-.014.708-.037,1.029-.061a1.851,1.851,0,0,0-.256-.911,3.734,3.734,0,0,0,.041-1.275,8.18,8.18,0,0,0-.179-.979,16.2,16.2,0,0,0-.663-2.044c-.462-1.179-.974-2.205-1.185-2.649-.093-.2-.19-.386-.286-.577a23.025,23.025,0,0,0-6.351-7.784,7.154,7.154,0,0,0-2.192-2.451c-.2-.133-.271.207-.21.339,1.928,4.2,2.24,8.774,3.79,13.072A14.409,14.409,0,0,0,293.931,627,28.416,28.416,0,0,1,297.23,627.14Zm-5.922-12.115a43.156,43.156,0,0,1,4.505,10.991c.045.206-.2.5-.307.208a106.4,106.4,0,0,0-4.348-11.058C291.1,615.052,291.225,614.868,291.309,615.025Z" transform="translate(-265.202 -539.299)" fill="#787f55"/>
      <path id="Path_583" data-name="Path 583" d="M454.154,403.821l-.283.017a.14.14,0,0,0-.109.072c-.057.12-.078.167-.017.289.03.059.066.11.138.114l.284.017C454.389,404.343,454.383,403.807,454.154,403.821Z" transform="translate(-405.766 -366.866)" fill="#ffa59f"/>
      <path id="Path_584" data-name="Path 584" d="M448.891,435.86c-.568-.034-1.142-.248-1.709-.256a1.818,1.818,0,0,0-.527.063c-.247.07-.275.5-.237.687a2.318,2.318,0,0,0,1.027,1.507c-.476.658-.925,1.341-1.343,2.052q.256.562.488,1.134c.45-.979.876-1.967,1.266-2.969a2.871,2.871,0,0,0,1.095.225c.735,0,.943-1.091.663-1.817A.862.862,0,0,0,448.891,435.86Z" transform="translate(-399.354 -393.658)" fill="#4a6540"/>
      <path id="Path_585" data-name="Path 585" d="M286.552,726.83l-.144.011-.177.013c-.321.024-.663.046-1.029.061a28.4,28.4,0,0,0-3.3-.143.962.962,0,0,0-.958.921c-.2,1.519-1.567,9.872-3.33,13.669s-5.289,8.543-4.9,14.428c.263,3.95,2.379,7.644,3.742,9.646a5.43,5.43,0,0,0,1.134,1.206,5.665,5.665,0,0,0,2.074,1.032,25.354,25.354,0,0,0,5.482.644v0h.1v0a25.354,25.354,0,0,0,5.483-.644,5.671,5.671,0,0,0,2.118-1.066,5.425,5.425,0,0,0,1.09-1.172c1.363-2,3.48-5.7,3.742-9.646.392-5.885-3.134-10.631-4.9-14.428s-3.134-12.15-3.33-13.669c-.092-.714-.534-.923-1.3-.946C287.726,726.734,287.191,726.78,286.552,726.83Zm-10.326,26.22c.222-2.341,1.541-4.132,2.946-4s2.364,2.139,2.142,4.481-1.541,4.132-2.946,4S276,755.392,276.225,753.05Z" transform="translate(-253.174 -639.075)" fill="#ede4e1"/>
      <path id="Path_586" data-name="Path 586" d="M317.981,661.567c.11.295.352,0,.307-.208a43.158,43.158,0,0,0-4.505-10.991c-.084-.156-.208.027-.15.141A106.42,106.42,0,0,1,317.981,661.567Z" transform="translate(-287.677 -574.643)" fill="#809e83"/>
      <path id="Path_587" data-name="Path 587" d="M630.6,426.52a2.325,2.325,0,0,0-1.738-.888c.081-.1.169-.195.247-.3.355-.492.149-1.787-.648-1.578-1.414.371-3.091,1.713-3.139,3.3a2.239,2.239,0,0,0,0,.23c0,.009,0,.022,0,.032a2.217,2.217,0,0,0,.086.577c.014.049.028.1.045.144a5.431,5.431,0,0,0,1.919,2.279c.683.5,1.022-.619.909-1.119a6.7,6.7,0,0,0-.306-.994,12.367,12.367,0,0,0,2.213-.022C630.9,428.1,630.929,426.967,630.6,426.52Z" transform="translate(-550.428 -383.648)" fill="#ffb6bb"/>
      <path id="Path_588" data-name="Path 588" d="M266.874,173.816a1.04,1.04,0,0,0,.048-.131c.219-.841,1.213-4.894-.43-4.995-.72-.044-.922.988-1.044,1.509a6.736,6.736,0,0,0-.14.9c-.423-.829-1-2-1.077-2.155-.525-1.008-1.391-.045-1.156.783.022.078.052.152.075.229l-.005,0,.016.03a13.721,13.721,0,0,0,.906,2.263c-1.078-.478-2.275-.51-2.493.784-.059.352.04,1.135.493,1.23a12.5,12.5,0,0,0,3.715.234.575.575,0,0,0,.278-.105.676.676,0,0,0,.154-.009A.912.912,0,0,0,266.874,173.816Z" transform="translate(-243.794 -168.513)" fill="#ffb6bb"/>
      <path id="Path_589" data-name="Path 589" d="M509.641,335.224c-.131.119-.257.243-.382.368-.045.045,0,.191.055.133.127-.127.253-.254.374-.387C509.722,335.3,509.7,335.174,509.641,335.224Z" transform="translate(-452.577 -309.033)" fill="#ffa59f"/>
      <path id="Path_590" data-name="Path 590" d="M575.966,210.719a.44.44,0,0,0,.149.269l.025.035.083.115a.234.234,0,0,0,.151.2c.871,1.122,2.149,2.27,3.607,1.474a.449.449,0,0,0,.041-.668,5.261,5.261,0,0,0-2.334-1.225c1.542-.328,3.658-1.028,3.255-2.393s-2.233-.259-3.564.74a7.415,7.415,0,0,0,1.1-2.27c.144-.545.472-1.928-.26-2.25-1.683-.739-2.312,4.715-2.318,5.755,0,.018,0,.038,0,.054A.252.252,0,0,0,575.966,210.719Zm2.117-4.029c.023-.11.046-.22.064-.332A.543.543,0,0,1,578.084,206.69Z" transform="translate(-508.769 -198.996)" fill="#ecced3"/>
      <path id="Path_591" data-name="Path 591" d="M438.468,561.754a9.842,9.842,0,0,1,2.5-2.992,19.046,19.046,0,0,1,3.474-1.89c.064-.033.069-.212-.023-.206-2.661.176-4.953,2.686-6.076,4.907C438.3,561.666,438.393,561.894,438.468,561.754Z" transform="translate(-392.804 -495.708)" fill="#ffe9ec"/>
      <path id="Path_592" data-name="Path 592" d="M450.975,566.8c-2.9-.147-5.932,1.594-8.181,3.253-.063.046-.018.248.059.2a19.482,19.482,0,0,1,3.89-2.02c1.391-.538,2.857-.711,4.261-1.174C451.1,567.021,451.08,566.8,450.975,566.8Z" transform="translate(-396.541 -504.24)" fill="#ffe9ec"/>
      <path id="Path_593" data-name="Path 593" d="M340.947,600.485c-.028.1.019.356.17.246a4.255,4.255,0,0,1,3.2-.969,7.43,7.43,0,0,1,4.013,1.656c.088.071.121-.124.063-.179a7.239,7.239,0,0,0-4.568-2.149C342.708,599.017,341.292,599.271,340.947,600.485Z" transform="translate(-310.707 -531.46)" fill="#ffe9ec"/>
      <path id="Path_594" data-name="Path 594" d="M356.587,614.078c.1-.009.1-.224-.005-.227a4.283,4.283,0,0,0-2.632.459,1.985,1.985,0,0,0-.976,1.774c.014.143.19.323.26.1C353.715,614.641,355.1,614.213,356.587,614.078Z" transform="translate(-320.844 -543.899)" fill="#ffe9ec"/>
      <path id="Path_595" data-name="Path 595" d="M502.96,314.2c-.137,0-.131.31.008.31S503.1,314.2,502.96,314.2Z" transform="translate(-447.199 -291.323)" fill="#ffa59f"/>
      <path id="Path_596" data-name="Path 596" d="M500.912,317.374l.194-.177c.055-.05,0-.211-.06-.147l-.184.2C500.824,317.291,500.852,317.428,500.912,317.374Z" transform="translate(-445.5 -293.71)" fill="#ffa59f"/>
      <path id="Path_597" data-name="Path 597" d="M463.151,335.031c.015.212.261.323.294.053.426-3.468,2.29-6,4.555-8.552.114-.128,0-.538-.152-.369C465.594,328.595,462.9,331.458,463.151,335.031Z" transform="translate(-413.712 -301.37)" fill="#ffa59f"/>
      <path id="Path_598" data-name="Path 598" d="M496.013,345.774c.061-.168-.134-.428-.224-.19a20.433,20.433,0,0,0-.739,3.981c-.372,2.181-1.714,3.242-3.1,4.786-.063.07-.048.389.091.3a7.4,7.4,0,0,0,2.774-3C495.684,349.811,495.318,347.675,496.013,345.774Z" transform="translate(-437.976 -317.694)" fill="#ffa59f"/>
      <path id="Path_599" data-name="Path 599" d="M300.133,873.232c.222-2.342-.737-4.348-2.142-4.481s-2.724,1.657-2.946,4,.737,4.348,2.142,4.481S299.911,875.574,300.133,873.232Z" transform="translate(-271.994 -758.775)" fill="#f5f5ff"/>
    </g>
    <g id="Group_8667" data-name="Group 8667" transform="translate(287.375 968.184)">
      <g id="Group_43" data-name="Group 43" transform="translate(0 0)">
        <g id="Group_41" data-name="Group 41" transform="translate(100.883 3.748)">
          <path id="Path_63" data-name="Path 63" d="M718.863,250.712H697.594V230.932h21.268l-6.806,10.207Z" transform="translate(-697.594 -230.932)" fill="#00578b"/>
          <path id="Path_64" data-name="Path 64" d="M697.666,315.8v3.737l6.93-3.737Z" transform="translate(-697.652 -299.775)" fill="#022f4a"/>
        </g>
        <g id="Group_42" data-name="Group 42" transform="translate(0 3.748)">
          <path id="Path_65" data-name="Path 65" d="M163.433,250.712H184.7V230.932H163.433l6.806,10.207Z" transform="translate(-163.433 -230.932)" fill="#00578b"/>
          <path id="Path_66" data-name="Path 66" d="M246.186,315.8v3.737l-6.935-3.737Z" transform="translate(-224.932 -299.775)" fill="#022f4a"/>
        </g>
        <rect id="Rectangle_6" data-name="Rectangle 6" width="93.356" height="19.777" transform="translate(14.449 0)" fill="#006cad"/>
      </g>
      <g id="logo-el-universal" transform="translate(18.026 5.393)">
        <g id="Group_8392" data-name="Group 8392" transform="translate(13.246 0.8)">
          <g id="Group_8391" data-name="Group 8391" transform="translate(0 0)">
            <g id="Group_8390" data-name="Group 8390">
              <path id="Path_57775" data-name="Path 57775" d="M120.094,18.178h-5.4v-.53h.774V11.989h-.774V11.46h5.3V13.2h-.651V12.193h-2.056v2.248h.865V13.73h.611v1.955h-.611v-.713h-.865v2.493h2.147v-1.15h.661Z" transform="translate(-114.69 -11.288)" fill="#fff"/>
              <path id="Path_57776" data-name="Path 57776" d="M170.782,18.178H165.47v-.53h.774V11.989h-.773V11.46h3.511v.529h-.916v5.476h2.056v-1.15h.66Z" transform="translate(-159.406 -11.288)" fill="#fff"/>
              <path id="Path_57777" data-name="Path 57777" d="M235.586,12.008h-.546v3.827c0,1.853-1.13,2.493-2.871,2.493-1.893,0-2.869-.8-2.869-2.208V12.009h-.621V11.48h3.206v.529h-.763v3.8c0,1.465.58,1.811,1.649,1.811,1.119,0,1.526-.6,1.526-1.811V12.02h-.844v-.54h2.134Z" transform="translate(-215.069 -11.306)" fill="#fff"/>
              <path id="Path_57778" data-name="Path 57778" d="M294.107,17.648h.888v.529h-2.4v-.529h.77V12.284c0-.011-.214-.295-.214-.295h-.77V11.46h2.561l3.247,4.468V11.989H297.18V11.46h2.484v.529h-.733v6.3h-1.17l-3.654-5Z" transform="translate(-271.162 -11.288)" fill="#fff"/>
              <path id="Path_57779" data-name="Path 57779" d="M362.866,18.178H359.39v-.53h.822V11.99h-.822v-.53h3.476v.53h-.833v5.658h.833Z" transform="translate(-330.171 -11.288)" fill="#fff"/>
              <path id="Path_57780" data-name="Path 57780" d="M398.455,18.36H397.4L394.912,12h-.562V11.47h3.423V12h-1l1.7,4.457L400.195,12h-.753V11.47h2.037V12h-.541Z" transform="translate(-360.956 -11.297)" fill="#fff"/>
              <path id="Path_57781" data-name="Path 57781" d="M465.4,18.187H460.09v-.53h.58V12h-.58V11.47h5.21v1.74h-.652V12.2h-2.155v2.25h.965v-.713h.61v1.955h-.61v-.713h-.965v2.493h2.247v-1.15h.661Z" transform="translate(-418.846 -11.297)" fill="#fff"/>
              <path id="Path_57782" data-name="Path 57782" d="M514.024,15.093c1.761-.162,2.117-.946,2.117-1.71,0-1.222-.773-1.913-2.453-1.913H510.3V12h.855v5.659H510.3v.529h3.389v-.529h-.712V15.551h.264l1.546,2.635H517v-.529h-.494l-.925-1.507c-.468-.752-.652-.947-1.557-1.017Zm-1.048-2.941h.081c1.008,0,1.19.407,1.19,1.272s-.131,1.465-1.232,1.465h-.041Z" transform="translate(-463.061 -11.297)" fill="#fff"/>
              <path id="Path_57783" data-name="Path 57783" d="M572.971,17.143h-.7V15.188h.7v1.089a4.956,4.956,0,0,0,1.507.173c.844,0,1.16-.234,1.16-.824,0-.468-.407-.682-1.354-1.14-1.476-.713-1.974-1.19-1.974-2.412,0-1.262.947-1.863,2.209-1.863a3.738,3.738,0,0,1,1.609.376V10.18h.651v1.893h-.651V11.1a4.676,4.676,0,0,0-1.18-.123c-.693,0-1.028.214-1.028.722,0,.611.407.783,1.262,1.2,1.161.56,2.025,1.008,2.025,2.361,0,1.292-1,1.924-2.34,1.924a4.276,4.276,0,0,1-1.893-.4Z" transform="translate(-517.631 -10.161)" fill="#fff"/>
              <path id="Path_57784" data-name="Path 57784" d="M617.542,15.038h2.432l.518,1.343h-.824v.529h3.22v-.529h-.584l-2.484-6.361h-1.058l-2.484,6.361h-.63v.529h2.066v-.529h-.691Zm2.219-.571h-2c.011,0,1.008-2.595,1.008-2.595Z" transform="translate(-555.831 -10.02)" fill="#fff"/>
              <path id="Path_57785" data-name="Path 57785" d="M687.238,18.187h-5.1v-.529h.559V12h-.559V11.47h3.1V12h-.72v5.475h2.056v-1.15h.661Z" transform="translate(-614.382 -11.297)" fill="#fff"/>
            </g>
          </g>
        </g>
        <g id="Group_8394" data-name="Group 8394" transform="translate(0 0)">
          <g id="Group_8393" data-name="Group 8393" transform="translate(0 0)">
            <path id="Path_57786" data-name="Path 57786" d="M18.338,48.244c.4.214.685.265,2.093.324.222-.029-.411-.105-.53-.142-.466-.142-.054-.211-.371-.192a4.483,4.483,0,0,1-.917-.061C18.32,48.13,18.024,48.01,18.338,48.244Z" transform="translate(-16.479 -42.756)" fill="#fff"/>
            <path id="Path_57787" data-name="Path 57787" d="M78.17,34.656c.019-.025.038-.05.055-.076C78.207,34.606,78.189,34.631,78.17,34.656Z" transform="translate(-69.285 -30.847)" fill="#fff"/>
            <path id="Path_57788" data-name="Path 57788" d="M40.025,58.325c.109.15.595.171.765.116.147.011.051-.073-.037-.084-.081.017-.173-.072-.189-.062C40.175,58.39,40,58.264,40.025,58.325Z" transform="translate(-35.693 -51.73)" fill="#fff"/>
            <path id="Path_57789" data-name="Path 57789" d="M16.084,7.654c-.632.106-2.314-.234-3.058.084a3.174,3.174,0,0,0,.165-1.058,3.343,3.343,0,1,0-6.5,1.1c-2.607.2-2.89-.266-2.93-.038A1.436,1.436,0,0,0,5.014,8.827a1.924,1.924,0,0,0,1.3.636,1.253,1.253,0,0,0,.775.352.679.679,0,0,0,.659.3.371.371,0,0,0,.275.2s-.011.068.076.1a4.56,4.56,0,0,0-1.914.641c.045.219.486.358.6.339a.748.748,0,0,0,.616.413.879.879,0,0,0,.749.254.728.728,0,0,0,.837-.478c.036-.16.148-.393.371-.422a.344.344,0,0,1,.179.11.431.431,0,0,0,.045.589.822.822,0,0,0,.619.067c.125.122.234.027.3.063-.025.043.11.128.23.078s.142-.106.153-.144a.1.1,0,0,0,.032-.121.082.082,0,0,0,.044-.115c.081.021.159-.1.153-.178-.011-.154-.107-.177-.252-.177a1.351,1.351,0,0,1,.666-.179,1.727,1.727,0,0,0,.585-.174c.17-.051.32-.05.457-.081.1-.02.171-.013.229-.029.038.037.152.082.486.035a6.141,6.141,0,0,1,.781-.048c.207-.574-.282-.667-.282-.667-.075-.15-.128-.287-.363-.339s-.3-.044-.327-.156a.33.33,0,0,0-.167.006.5.5,0,0,1,.165-.081c.476-.123.579-.267.64-.34a1.572,1.572,0,0,0,1.022-.352.809.809,0,0,0,.621-.364C16.254,8.532,16.371,7.607,16.084,7.654ZM10.86,9.624a.161.161,0,0,1-.067-.075,1.394,1.394,0,0,0,.414-.189c.263-.161,0,.035-.07.129C11.138,9.489,11.092,9.561,10.86,9.624Zm-2.6-1.835s-.042-.143.024-.161c.112-.032.285-.214.4-.248,0,0,.086-.1-.463.125,0-.051,0-.055,0-.129A.686.686,0,0,1,8.407,7.3c.012-.067-.133-.024-.176-.049-.025-.029-.006-.091,0-.189a3.337,3.337,0,0,0,.671.109c.038.031.259.15.17.036l0-.021c.054,0,.079,0,.134.006a.274.274,0,0,0,.036.09l.026.032,0,.418c-.05.024-.149.1-.241.137a.481.481,0,0,1-.192.029c.137-.09.192-.195.374-.3,0,0-.1-.1-.5.21a.541.541,0,0,1-.289.087V7.884c.166-.07.39-.343.566-.4C8.982,7.481,8.869,7.413,8.264,7.788Zm-.87.055-.116,0c-.007-.049-.017-.118-.017-.118a.848.848,0,0,0,.422-.1c.105-.05.185-.178.347-.168.014,0,.02.074.025.122-.031.016-.107.031-.136.044C7.743,7.7,7.742,7.83,7.394,7.843Zm3.536-3.8a2.3,2.3,0,0,1,.653.262.478.478,0,0,1-.023.307,3.5,3.5,0,0,0-.66-.4C10.969,4.18,10.964,4.116,10.929,4.045Zm-.882-.187h0c.127.15-.055.353-.4.459a.81.81,0,0,1-.8-.117c-.125-.149,0-.32.351-.423A.933.933,0,0,1,10.047,3.857Zm-2,.929c-.064.053-.043.128-.061.192-.008.03-.029.087-.053.147-.029.039-.057.079-.084.119A1.377,1.377,0,0,1,7.7,5.137a.379.379,0,0,1-.064-.08,3.409,3.409,0,0,1,.481-.384A.653.653,0,0,1,8.047,4.786ZM9.763,6.88a.521.521,0,0,1,.074-.135c.032-.049.149-.055.2-.05s.079.019.1.012.053-.033.093-.069.087-.018.128-.012a.307.307,0,0,1,.118.043.15.15,0,0,1,.066.05.218.218,0,0,1,.02.105,5.977,5.977,0,0,1-.839.13A.568.568,0,0,0,9.763,6.88Zm.708-2c-.068.016-.139,0-.166.035s-.03.177-.184.1c-.092-.123-.127-.068-.184-.137a.088.088,0,0,1,.039-.146c.044-.017.037-.061.027-.111s-.073-.062-.045-.147c.01-.032.023-.1.125-.054a3.437,3.437,0,0,1,.413.326C10.565,4.826,10.533,4.87,10.471,4.884ZM8.2,4.159a1.723,1.723,0,0,1,.439-.2c-.027.05-.107.155-.127.193a4.047,4.047,0,0,0-.947.8.478.478,0,0,1,.01-.3A2.366,2.366,0,0,1,8.2,4.159ZM7.582,5.208a.8.8,0,0,0,.173.166,4.024,4.024,0,0,0-.474,1.054A.644.644,0,0,1,7.016,6.1a2.717,2.717,0,0,1,.529-.947C7.555,5.162,7.57,5.192,7.582,5.208Zm-.227,1.44c.072.044.094.1.17.133a1.168,1.168,0,0,0-.211.035C7.326,6.761,7.34,6.7,7.355,6.648Zm-.17-.105c-.055.018-.173.06-.141.069a1.427,1.427,0,0,1,.193-.01c-.019.086-.043.181-.057.26-.072.024-.205.074-.224.137.053-.011.14-.041.2-.051a1.751,1.751,0,0,0-.018.236.589.589,0,0,0-.127.1c.029-.007.093-.027.128-.033,0,.018,0,.086,0,.1,0,.033-.02-.248,0,.1-.025.038-.066.069-.079.1.014,0,.066-.017.081-.023a2.822,2.822,0,0,0,.05.31.516.516,0,0,1-.172-.117.642.642,0,0,1-.1-.144,3.293,3.293,0,0,1,.048-1.348A1.2,1.2,0,0,0,7.186,6.543Zm-.35.786a3.1,3.1,0,0,1,.036-1.515,1.374,1.374,0,0,0,.043.326A4.244,4.244,0,0,0,6.836,7.329Zm.614-.019c-.066.035-.122.07-.205.117a1.791,1.791,0,0,1,.007-.205,1.306,1.306,0,0,0,.161-.061C7.583,7.1,7.6,7.042,7.737,7c0,0-.05-.066-.4.078-.021.008-.061.036-.082.044a.89.89,0,0,1,.033-.2c.113-.038.147-.1.258-.13A3.443,3.443,0,0,0,8.042,7c.007.11.007.275-.062.294a1.576,1.576,0,0,0-.314.183,1.137,1.137,0,0,1-.4.2c-.011-.06-.013-.105-.019-.165A1.775,1.775,0,0,0,7.52,7.4c.171-.072.219-.191.4-.247C7.919,7.157,7.9,7.073,7.45,7.309Zm-.026-.788c.062-.036.236-.061.2-.088,0,0-.086,0-.185.013a2.758,2.758,0,0,1,.451-.887c.085.085.044.173.152.209.076.056.05.117.105.17l.047.027a8.514,8.514,0,0,0-.137.854A1.863,1.863,0,0,1,7.423,6.521Zm1.011-.41a.117.117,0,0,1,.067.159.189.189,0,0,0,.006.214.5.5,0,0,1,.062.137.448.448,0,0,0,.116.128c.029.023.017.085.017.085a1.084,1.084,0,0,0,.111.1.156.156,0,0,1,.032.029,3.146,3.146,0,0,1-.595-.094A2.661,2.661,0,0,1,8.435,6.112Zm.383.6c-.05-.107-.014-.142.024-.148s.133.085.155.129.054.069.082.128.062.1.088.153c-.06,0-.148-.006-.205-.008-.019-.03-.01-.055-.024-.07A.582.582,0,0,1,8.818,6.716ZM10.2,8.48a2.636,2.636,0,0,1,.4-.419s.027-.133-.463.219c-.049.024-.1.045-.122.019.142-.112.2-.3.365-.37,0,0-.049-.079-.47.186a.113.113,0,0,1-.142,0c.119-.094.216-.233.343-.283,0,0-.018-.059-.42.16a.107.107,0,0,1-.115,0c.111-.087.2-.214.319-.256,0,0,0-.057-.4.093a.61.61,0,0,1,0-.079.669.669,0,0,1,.17-.1s-.035-.049-.174,0c0,0,0-.178.007-.26a.663.663,0,0,1,.1.09s.073.026.1.008a.352.352,0,0,1,.222-.048,1.467,1.467,0,0,1,.217.119.112.112,0,0,1,.084.069c.017.051-.011.076,0,.1s.023.044.13.082.123.038.152.062.081.014.1.013.044-.042.068-.049a.566.566,0,0,1,.107,0c.067.019.035.091.036.148,0,.1-.1.134-.165.219C10.436,8.376,10.264,8.691,10.2,8.48Zm.63-.8a.413.413,0,0,0-.217.045.12.12,0,0,1-.164-.043c-.024-.045-.016-.078,0-.173s-.123-.075-.184-.111.008-.121.03-.181-.118-.073-.156-.063-.056.14-.131.178-.092.01-.179-.041a.178.178,0,0,1-.105-.176,7.794,7.794,0,0,0,.8-.14c.068-.011.037.043.1.018a.153.153,0,0,0,.059-.044,1.96,1.96,0,0,1,.06.189c-.025-.008-.075-.02-.1-.032a.5.5,0,0,0-.239.054c-.025.023.048.027.081.039s.087.044.122.056.061.084.123.079c.017,0,.048,0,.057.029a2.45,2.45,0,0,1,.1.34A.135.135,0,0,0,10.834,7.682Zm-.09-.9a.5.5,0,0,0,0-.147c-.016-.062.216-.167.216-.167s.092-.037.162-.073.073-.25.037-.33-.059-.178-.013-.23.183.088.257.061c.055-.02.05-.069.07-.11a4.7,4.7,0,0,1,.3.547,3.509,3.509,0,0,1-1,.441ZM11.3,5.334l.093.007c.072.006.176-.008.2-.09a.825.825,0,0,0-.018-.259c-.02-.064-.117-.072-.142-.11l-.007-.01a.862.862,0,0,0,.129-.17,3.221,3.221,0,0,1,.875.936,1.882,1.882,0,0,1-.566.647A4.836,4.836,0,0,0,11.3,5.334Zm.222-.647a.762.762,0,0,1-.131.162.171.171,0,0,0-.148-.029.122.122,0,0,1-.134-.067s.147-.112.079-.173a1.2,1.2,0,0,0-.42-.061c-.128-.036-.119.054-.139.1-.093-.078-.187-.152-.284-.219h.006c0-.137.155-.055.162-.115s-.168-.123-.109-.136A3.712,3.712,0,0,1,11.521,4.687Zm-1.37-.995c-.029-.006-.155-.062-.2-.067.03-.016.042-.024.05-.029a3.051,3.051,0,0,1,.648.105A2.189,2.189,0,0,0,10.152,3.693ZM7.529,4.717a.638.638,0,0,0-.033.316,3.269,3.269,0,0,0-.536.992.771.771,0,0,1-.07-.256A3.046,3.046,0,0,1,7.529,4.717ZM7.915,7.78c.08-.03.122-.038.13-.042s.021.035.037.127a1.527,1.527,0,0,1-.59.019A1.288,1.288,0,0,0,7.915,7.78Zm2.448,1.03a.247.247,0,0,1-.056-.11c.429-.107.874-.577.611-.276a.719.719,0,0,1-.363.3Zm.645-.179c.245-.186.223-.124.042.021a1.228,1.228,0,0,1-.556.389.158.158,0,0,1-.054-.1A3.547,3.547,0,0,0,11.008,8.631ZM11.3,8.8c-.192.153-.125.2-.485.365-.1.041-.229.091-.234.094a.352.352,0,0,1-.053-.109C11.057,9,11.367,8.659,11.3,8.8Zm-.042.3c.177-.107-.047.043-.093.136a1.22,1.22,0,0,1-.445.232.427.427,0,0,1-.066-.1A2.007,2.007,0,0,0,11.261,9.093Zm1-.793c.075-.186.122-.288.1-.384-.008-.042.055-.067-.027-.137s-.407.293-.5.234c-.066-.036-.116.018-.187,0a.147.147,0,0,1-.072-.042,2.876,2.876,0,0,0,1.071-.839,2.683,2.683,0,0,1-1.168.78c-.044-.011-.054.02-.094-.021a.364.364,0,0,0-.273-.067.487.487,0,0,1-.133-.007.327.327,0,0,0-.074-.1c-.019-.144-.024-.224-.054-.381a.265.265,0,0,1,.069-.01c.069.008.072.045.115.056a.132.132,0,0,0,.124-.076c.011-.037-.051-.073-.11-.1a.712.712,0,0,1-.1-.068c-.033-.02-.1.012-.137.014-.017-.079-.026-.161-.044-.241L10.8,6.9a3.1,3.1,0,0,0,1-.537,3.938,3.938,0,0,1,.379.956,4.135,4.135,0,0,0-.3-1.005,1.679,1.679,0,0,0,.561-.663,2.738,2.738,0,0,1,.327.767,3.067,3.067,0,0,0-.316-.792c.013-.032.023-.064.032-.1-.012.027-.025.056-.038.084a3.31,3.31,0,0,0-.861-.991.491.491,0,0,0,0-.318A2.963,2.963,0,0,1,12.5,5.2l-.012-.017a2.58,2.58,0,0,0-1.629-1.243l-.1-.045-.337-.063c-.01-.042-.093-.087-.106-.093a1.685,1.685,0,0,1,.543.027,3.088,3.088,0,0,1,2.057,2.912,3.512,3.512,0,0,1-.691,1.946A2.429,2.429,0,0,1,12.263,8.3ZM7.728,11.69a2.2,2.2,0,0,0,.972-.525.268.268,0,0,0-.019.037A.8.8,0,0,1,7.728,11.69Zm.358.111a.84.84,0,0,0,.742-.438C8.652,11.978,8.2,11.846,8.086,11.8Zm1.642-.055a.289.289,0,0,1-.027-.406c.007-.081.048-.1.032.062-.03.321.208.326.288.369S9.846,11.825,9.728,11.747Zm.5-.182c-.016-.036-.012-.082.076-.158.387-.33-.041-.29.148-.435-.029.094.585.131-.1.47A.441.441,0,0,0,10.227,11.565Zm.605.136c-.008.01-.012-.013-.014-.021a.031.031,0,0,0-.056,0c.051.055.026.13,0,.074a.038.038,0,0,0-.059-.011.1.1,0,0,1-.01.133c-.032.039-.1.054-.111.027s.026-.007.045-.029a.074.074,0,0,0-.031-.107c-.051-.031-.133-.016-.112.042.02.026.047.054-.013.055a.257.257,0,0,1-.084-.01.114.114,0,0,1-.09-.073c0-.043.027.014.064.008.057,0,.082-.131.211-.116a.057.057,0,0,0,.049-.021c.006-.014,0-.027.023-.035a.084.084,0,0,1,.045,0c.035,0,.031-.013.038-.029s.033-.012.057,0C10.843,11.62,10.849,11.685,10.833,11.7Zm.064-.242a.066.066,0,0,1,.045.115c-.032.035-.014-.014-.032-.051a.1.1,0,0,0-.07-.036c-.021-.006-.031-.031-.021-.033A.207.207,0,0,0,10.9,11.459Zm2.045-1.614a.233.233,0,0,0,.2.153c.168.031.392.119.413.271.011.076.464.068.361.375a3.989,3.989,0,0,1-.5-.053c-.014.021.146.035.069.073-.112.064-.656.088-.54-.053.029-.032.147-.049.148-.066a.729.729,0,0,0-.209.016.251.251,0,0,1-.189,0c-.064-.035-.107-.09.057-.125s.066-.031-.08-.026c0,0-.272,0-.267-.051s.123-.061.3-.105c.149-.041-.007-.021-.1-.035,0,0-.238,0-.272-.045s.1-.069.059-.111c-.079.051-.3.031-.242.127a.46.46,0,0,0,.21.081c-.2.044-.146.159-.055.219a.5.5,0,0,0,.094.051c-.16.09-.31.109-.339.075s.09-.062.067-.106c-.71.1-.11-.119-.11-.119-.007-.063-.525.107-.484-.023.082-.044.2-.051.289-.093-.026-.059-.406.03-.46-.03s.121-.043.153-.068a1.2,1.2,0,0,0-.541-.054.617.617,0,0,0-.328-.162.394.394,0,0,0-.253-.221.5.5,0,0,0-.13-.186.54.54,0,0,0-.121-.076.707.707,0,0,0-.11-.208c-.043-.066-.085-.069-.128-.1a.329.329,0,0,0-.073-.17.438.438,0,0,0-.1-.1.322.322,0,0,0-.062-.148c-.247-.444-1.23-.408-2.448-.37A12.9,12.9,0,0,1,4.7,8.263c.455.431,2.632.313,3.642.451a3.589,3.589,0,0,1-.952.088c-.067.081.654.208,1.343.254a7.15,7.15,0,0,0-.755.13,4.2,4.2,0,0,0,1.25.189c-.4.088-.872.093-.8.171a4.69,4.69,0,0,0,1.108.084c-.437.166-.816.048-.794.123a1.818,1.818,0,0,0,.464.084,3.688,3.688,0,0,1,.6.025c.026.036-.174.029-.333.059-.386.07-.518,0-.425.069a1.685,1.685,0,0,0,.482.055c.235,0,.486.01.53.081a1.618,1.618,0,0,0-.363.013c-.315.032-.473-.014-.408.043a1.535,1.535,0,0,0,.488.073c.355.029.43.073.494.127l-.091,0c-.252-.03-.521-.017-.758-.039-.047.067.262.066.3.156a3.2,3.2,0,0,1-.817.116c-.048,0-.159-.035-.148-.007s.117.042.17.055a1.659,1.659,0,0,0,.475.024c.069.117-1.017.063-.9.171a3.243,3.243,0,0,1,.543.021c-.035.014.081.045-.293.109-.316.1-.8.709-1.389.584-.134-.054-.155-.1-.162-.109.45.122,1.288-.49,1.288-.49-.2-.094-1.066.5-1.432.389-.079-.061-.08-.05-.079-.079A4.668,4.668,0,0,0,8.2,10.779c-.628.072-1.1.376-1.477.363-.078,0-.091,0-.118-.063a6.486,6.486,0,0,1,2.08-.57c-.159-.029-.37-.185-.376-.312-.205-.043-.374-.168-.39-.283a.663.663,0,0,1-.648-.379c-.632,0-.744-.356-.744-.356-1.165,0-1.261-.565-1.261-.565A1.372,1.372,0,0,1,4.149,8c.965.342,4.564-.11,5.379.26.722.327.83,1.833,1.982,1.638a1.673,1.673,0,0,1-.371-.134,3.4,3.4,0,0,0,.374-.191,7.156,7.156,0,0,0,1.321-1.351c.4-.53,2.485-.134,3.041-.279-.036.193-.278.339-.785.418-.216.033-.057.25-.447.337-.277.062-.29.285-1.011.315A2.539,2.539,0,0,1,12.8,9.4l-.162.038c-.124-.031-.174-.053-.21-.1.152.006.281.016.315-.03-.057-.008-.2-.039-.2-.074.238,0,.5-.013.466-.053a.38.38,0,0,1-.277-.1,1.108,1.108,0,0,0,.59-.06c.024-.035-.321.016-.487-.121l-.008,0c.2-.007,1.308.01,1.232-.127a4.395,4.395,0,0,1-1.085-.061,3.712,3.712,0,0,1,.455-.06c.506-.016,1.291-.032,1.225-.217a6.394,6.394,0,0,1-1.4.02l.036-.024a4.589,4.589,0,0,1,1.057-.134c.173-.021,1.1-.063,1.13-.2a6.351,6.351,0,0,1-1.114.032,2.159,2.159,0,0,0-1.291.192,1.741,1.741,0,0,0-.227.211c-.043.055-.19.242-.227.283a3.637,3.637,0,0,1-.83.8c-.088.049-.181.038-.2.072h0l.059.006a2.389,2.389,0,0,1,.958.259c-.032-.054-.021-.1.049-.141a.324.324,0,0,0,.254.186C12.858,9.877,12.942,9.844,12.942,9.844Z" transform="translate(-3.76 -3.32)" fill="#fff"/>
            <path id="Path_57790" data-name="Path 57790" d="M42.848,60.343c.092.1.289.189.708.08.171.023-.117-.14-.2-.134C43,60.412,42.812,60.27,42.848,60.343Z" transform="translate(-38.176 -53.486)" fill="#fff"/>
            <path id="Path_57791" data-name="Path 57791" d="M80.337,61.034c.139.043.181.319.43.123C80.916,61.039,80.012,60.933,80.337,61.034Z" transform="translate(-71.13 -54.107)" fill="#fff"/>
            <path id="Path_57792" data-name="Path 57792" d="M45.691,62.2a1.713,1.713,0,0,1-.432.043c.064.1.384.137.651.075.137.006,0-.045-.039-.051C45.744,62.255,45.739,62.184,45.691,62.2Z" transform="translate(-40.299 -55.168)" fill="#fff"/>
            <path id="Path_57793" data-name="Path 57793" d="M29.142,52.516c-.093-.007-.3-.067-.242-.014.11.147.333.314,1.473.232,0-.021-.086-.038-.185-.069-.389-.036-.155-.109-.436-.116A5.273,5.273,0,0,1,29.142,52.516Z" transform="translate(-25.889 -46.61)" fill="#fff"/>
            <path id="Path_57794" data-name="Path 57794" d="M35.1,55.589c-.171-.016-.232-.06-.222-.029.113.275.873.254,1.15.189,0-.023-.09-.041-.136-.061-.33-.057-.13-.081-.3-.106S35.23,55.6,35.1,55.589Z" transform="translate(-31.157 -49.313)" fill="#fff"/>
          </g>
        </g>
      </g>
    </g>
  </g>
</svg>
