<svg id="Group_27" data-name="Group 27" xmlns="http://www.w3.org/2000/svg" width="56.523" height="74.747" viewBox="0 0 56.523 74.747">
  <ellipse id="Ellipse_14" data-name="Ellipse 14" cx="21.518" cy="5.034" rx="21.518" ry="5.034" transform="translate(6.743 64.679)" fill="#efefef"/>
  <path id="Path_49" data-name="Path 49" d="M392.95,313.127l-.068.276c-1.012,2.057-13.248,3.684-28.194,3.684s-27.182-1.628-28.193-3.684l-.068-.276c0-2.187,12.651-3.956,28.261-3.956S392.95,310.94,392.95,313.127Z" transform="translate(-336.427 -298.501)" fill="#efefef"/>
  <path id="Path_50" data-name="Path 50" d="M392.971,318.95l-13.417,53.781c0,1.663-6.618,3.007-14.777,3.007S350,374.394,350,372.731L336.584,318.95c1.012,2.057,13.248,3.684,28.193,3.684S391.96,321.007,392.971,318.95Z" transform="translate(-336.516 -304.048)" fill="#ffd6ab"/>
  <path id="Path_51" data-name="Path 51" d="M392.971,318.95l-13.417,53.781c0,1.663-6.618,3.007-14.777,3.007S350,374.394,350,372.731L336.584,318.95c1.012,2.057,13.248,3.684,28.193,3.684S391.96,321.007,392.971,318.95Z" transform="translate(-336.516 -304.048)" fill="#d9efe8"/>
  <path id="Path_52" data-name="Path 52" d="M397.7,440.634c0,.973-5.809,1.762-12.975,1.762s-12.974-.788-12.974-1.762,5.809-1.762,12.974-1.762S397.7,439.661,397.7,440.634Z" transform="translate(-356.467 -372.076)" fill="#bee8da"/>
  <path id="Path_53" data-name="Path 53" d="M394.781,333.992l-.054.218c-.8,1.628-10.488,2.917-22.32,2.917s-21.518-1.288-22.319-2.917l-.054-.218c0-1.731,10.015-3.132,22.373-3.132S394.781,332.261,394.781,333.992Z" transform="translate(-344.146 -310.804)" fill="#c28d5e"/>
  <path id="Path_54" data-name="Path 54" d="M399.455,336.753l-.017.072c-.263.534-3.441.957-7.322.957s-7.059-.423-7.322-.957l-.017-.072c0-.568,3.285-1.027,7.339-1.027S399.455,336.186,399.455,336.753Z" transform="translate(-363.854 -313.565)" fill="#9c704b"/>
  <path id="Path_55" data-name="Path 55" d="M394.8,338.6l-10.621,42.576c0,1.316-5.239,2.38-11.7,2.38s-11.7-1.064-11.7-2.38L350.159,338.6c.8,1.628,10.487,2.917,22.319,2.917S394,340.23,394.8,338.6Z" transform="translate(-344.217 -315.196)" fill="#ab7c53"/>
  <path id="Path_56" data-name="Path 56" d="M394.258,341.234c.449,12.1-.8,24.8-11.5,32.445-3.223,2.149-6.874,2.8-10.633,3.024l1.116,4.474c0,1.316,5.239,2.38,11.7,2.38s11.7-1.064,11.7-2.38L407.258,338.6C406.683,339.773,401.514,340.767,394.258,341.234Z" transform="translate(-356.677 -315.196)" fill="#9c704b"/>
  <path id="Path_57" data-name="Path 57" d="M357.427,372.711h0a2.533,2.533,0,0,1-3.07-1.847l-8.276-33.293a2.534,2.534,0,0,1,1.848-3.07h0a2.533,2.533,0,0,1,3.07,1.847l8.276,33.293A2.534,2.534,0,0,1,357.427,372.711Z" transform="translate(-341.861 -312.827)" fill="#d9efe8" opacity="0.49" style="mix-blend-mode: screen;isolation: isolate"/>
  <path id="Path_58" data-name="Path 58" d="M428.742,375.528h0a1.348,1.348,0,0,0,1.634-.983l8.848-35.593a1.349,1.349,0,0,0-.984-1.634h0a1.349,1.349,0,0,0-1.634.983l-8.848,35.593A1.349,1.349,0,0,0,428.742,375.528Z" transform="translate(-388.214 -314.444)" fill="#d9efe8" opacity="0.49" style="mix-blend-mode: screen;isolation: isolate"/>
  <g id="Group_26" data-name="Group 26" transform="translate(25.04 0)">
    <g id="Group_25" data-name="Group 25">
      <path id="Path_59" data-name="Path 59" d="M396.563,304.228s-2.993-1.667-2.106-5.82,4.379-8.231,3.166-13.895c0,0,3.493,5.777,3.582,11.893S396.563,304.228,396.563,304.228Z" transform="translate(-394.293 -284.513)" fill="#ef9178"/>
      <path id="Path_60" data-name="Path 60" d="M398.153,316.439a2.732,2.732,0,0,1-.874-3.134c.629-2.142,2.62-4.141,2.208-7.158a14.285,14.285,0,0,1,1.408,6.375A4.138,4.138,0,0,1,398.153,316.439Z" transform="translate(-395.9 -296.785)" fill="#efae78"/>
      <path id="Path_61" data-name="Path 61" d="M400.589,327.322a6.62,6.62,0,0,1-1.039-4.088c.142-1.286,1.042-2.386,1.025-3.705" transform="translate(-397.258 -304.376)" fill="none" stroke="#3f121f" stroke-linecap="round" stroke-linejoin="round" stroke-width="0.804"/>
    </g>
  </g>
  <path id="Path_62" data-name="Path 62" d="M364.688,320.839c-14.564,0-26.551-1.546-28.09-3.528a.711.711,0,0,0-.172.434l.068.276c1.012,2.057,13.248,3.684,28.193,3.684s27.182-1.628,28.194-3.684l.068-.276a.713.713,0,0,0-.172-.434C391.24,319.293,379.253,320.839,364.688,320.839Z" transform="translate(-336.427 -303.118)" fill="#d9efe8" opacity="0.49" style="mix-blend-mode: screen;isolation: isolate"/>
</svg>
