<svg xmlns="http://www.w3.org/2000/svg" width="111.008" height="133.993" viewBox="0 0 111.008 133.993">
  <g id="Group_8696" data-name="Group 8696" transform="translate(-292.496 -539.5)">
    <g id="Group_8673" data-name="Group 8673" transform="translate(305.844 539.5)">
      <path id="Path_411" data-name="Path 411" d="M1845.765,1405.928l0-.005h0Z" transform="translate(-1798.712 -1351.991)" fill="#6d776e"/>
      <path id="Path_412" data-name="Path 412" d="M1886.348,1398.668c-.453,3.748-.293,7.571-.638,11.42a26.3,26.3,0,0,1,2.581-3.872,49.787,49.787,0,0,1,4.284-4.651l-.032-.034a24.218,24.218,0,0,1-2.457-3.764,11.394,11.394,0,0,0-2.349-2.643c-.136-.113-.272-.225-.413-.332q-.207.361-.411.724A27.619,27.619,0,0,0,1886.348,1398.668Z" transform="translate(-1832.012 -1342.712)" fill="#6d776e"/>
      <path id="Path_413" data-name="Path 413" d="M1835.838,1436.489c.22-.845.442-1.692.651-2.547a13.739,13.739,0,0,0,.511-6.059c-.337-1.605-1.282-2.967-1.8-4.511a11.3,11.3,0,0,1-.547-2.781,10.454,10.454,0,0,1,.416-3.779l-.007-.024c-.318.812-.629,1.625-.923,2.443a33.306,33.306,0,0,0-1.823,7.045c-.042.326-.07.656-.1.986.155.617.317,1.22.481,1.8.724,2.566,2.249,6.326,1.961,9.436l.094-.183C1835.08,1437.687,1835.454,1437.085,1835.838,1436.489Z" transform="translate(-1787.416 -1361.048)" fill="#6d776e"/>
      <path id="Path_414" data-name="Path 414" d="M1812.947,1304.932c-.013-.081-.026-.162-.039-.243a.161.161,0,0,0-.01.118C1812.916,1304.848,1812.929,1304.89,1812.947,1304.932Z" transform="translate(-1771.306 -1267.597)" fill="#396406"/>
      <path id="Path_415" data-name="Path 415" d="M1777.068,1424.572a9.716,9.716,0,0,1-.243-4.21c.137-1.2.355-2.4.438-3.562a27.7,27.7,0,0,0-1.37-4.733,9.712,9.712,0,0,1-.561-1.931,2.75,2.75,0,0,1-.718-3.034c.191-.729.417-1.476.664-2.229-.331.439-.675.878-1.029,1.323a11.614,11.614,0,0,0-1.9,2.912,10.574,10.574,0,0,0,.187,1.635,6.314,6.314,0,0,0,1.525,3.066c.414.477,1.066.879,1.338,1.457.508,1.082-.01,2.466-.379,3.533a12.048,12.048,0,0,1-.04,3.447,32.32,32.32,0,0,1,.405,3.658c.318,1.189,1.351,3.525,1.538,4.417h.344l2.955.01a10.662,10.662,0,0,0-1.129-2.383A15.088,15.088,0,0,1,1777.068,1424.572Z" transform="translate(-1737.507 -1351.115)" fill="#6c7d43"/>
      <path id="Path_416" data-name="Path 416" d="M1662.211,1300.692c-.027-.618-.051-1.236-.067-1.854a1.063,1.063,0,0,1-.224-.039c-.534.343-1.277.262-2.224-.272a4.214,4.214,0,0,1-.524-.355,13.951,13.951,0,0,0-1.943,1.557,4.558,4.558,0,0,0-1.117,2.411,5.982,5.982,0,0,1,3.393-1.768A4.728,4.728,0,0,1,1662.211,1300.692Z" transform="translate(-1640.608 -1262.164)" fill="#6c7d43"/>
      <path id="Path_417" data-name="Path 417" d="M1701.238,1305.454c1.5,4,2.38,8.454,6.255,10.727l.051-.09c-1.975-2.111-3.221-5.686-4.081-8.186a38.113,38.113,0,0,1-1.431-5.109,8.767,8.767,0,0,0-2.727-3.927,2.146,2.146,0,0,1-.482.342,19.553,19.553,0,0,1,.249,2.875A8.4,8.4,0,0,1,1701.238,1305.454Z" transform="translate(-1676.213 -1262.745)" fill="#6c7d43"/>
      <path id="Path_418" data-name="Path 418" d="M1670.766,1430.555c.934.479,1.892.913,2.883,1.31-.219-.665-.405-1.327-.573-1.953-.955-.3-1.9-.6-2.826-.962C1670.408,1429.49,1670.576,1430.026,1670.766,1430.555Z" transform="translate(-1652.393 -1371.187)" fill="#6d776e"/>
      <path id="Path_419" data-name="Path 419" d="M1639.674,1409.633a14.131,14.131,0,0,1-4.732-3.3c-.072-.078-.083.149-.064.188a10.372,10.372,0,0,0,1,1.588,28.377,28.377,0,0,0,4.178,2.913C1639.921,1410.555,1639.8,1410.092,1639.674,1409.633Z" transform="translate(-1622.899 -1352.321)" fill="#6d776e"/>
      <path id="Path_420" data-name="Path 420" d="M1708.9,1443.161a11.606,11.606,0,0,0-2.456-1.948,25.631,25.631,0,0,0-5.443-2.257c.145.677.318,1.349.529,2.012.007.022.016.044.023.067.28.095.555.193.84.284a11.95,11.95,0,0,1,4.846,2.887,3.773,3.773,0,0,1,3.234.952l-.046-.072A10.315,10.315,0,0,1,1708.9,1443.161Z" transform="translate(-1678.027 -1379.529)" fill="#6d776e"/>
      <path id="Path_421" data-name="Path 421" d="M1968.388,1291.812a31.281,31.281,0,0,0,2.785-4.59,14.043,14.043,0,0,1,1.748-6.793,1.448,1.448,0,0,1-.545,0,39.461,39.461,0,0,1-1.915,5.793,27.3,27.3,0,0,1-2.09,3.621C1968.406,1290.5,1968.417,1291.154,1968.388,1291.812Z" transform="translate(-1900.923 -1247.372)" fill="#7ca36d"/>
      <path id="Path_422" data-name="Path 422" d="M1914.035,1295.11c.828.784,1.713,1.5,2.482,2.331a19.411,19.411,0,0,0,1.718-2.8,21.122,21.122,0,0,0,2.117-8.382c.029-.658.018-1.315-.016-1.97a15.229,15.229,0,0,0-2.7-8.238c-.523-1.306-1.058-1.512-2.276-2.276-.106-.067-.077.251-.054.291,1.87,3.172,1.99,7.443,1.463,10.978-.561,3.765-3.684,4.083-6.015,6.3.024.024.051.044.074.068C1911.957,1292.6,1912.838,1293.978,1914.035,1295.11Zm2.265-4.407a26.085,26.085,0,0,0,1.885-5.72,16.72,16.72,0,0,0-.612-6.66c-.056-.214.175-.483.306-.207,1.844,3.906,1.867,9.874-1.1,13.283C1916.435,1291.8,1916.212,1290.937,1916.3,1290.7Z" transform="translate(-1852.887 -1241.816)" fill="#6d776e"/>
      <path id="Path_423" data-name="Path 423" d="M1704.318,1451.451a18.609,18.609,0,0,0,1.3,3.017,12.594,12.594,0,0,1,1.468.634,3.79,3.79,0,0,1,1.978-.206,4.258,4.258,0,0,1,.943-.274,11.953,11.953,0,0,0-4.846-2.887C1704.873,1451.643,1704.6,1451.546,1704.318,1451.451Z" transform="translate(-1680.795 -1389.945)" fill="#7ca36d"/>
      <path id="Path_424" data-name="Path 424" d="M1673.808,1439.766a15.648,15.648,0,0,0,1.059,2.02,12.3,12.3,0,0,0,1.712.852c.353.141.71.266,1.067.387a13.829,13.829,0,0,1-1.408-3.117c-.99-.4-1.949-.831-2.883-1.31C1673.5,1438.991,1673.645,1439.381,1673.808,1439.766Z" transform="translate(-1654.983 -1379.23)" fill="#8b9660"/>
      <path id="Path_425" data-name="Path 425" d="M1639.554,1416.018c-.087-.073-.176-.138-.263-.213-.009-.008-.013.03-.006.036a52.914,52.914,0,0,0,5.23,5.556c-.29-.819-.55-1.647-.783-2.466A28.356,28.356,0,0,1,1639.554,1416.018Z" transform="translate(-1626.578 -1360.228)" fill="#8b9660"/>
      <path id="Path_426" data-name="Path 426" d="M1657.862,1394.3l.016-.016c-.853-1.549-1.93-2.952-2.849-4.461a15.646,15.646,0,0,1-1.059-2.02c-.163-.385-.312-.775-.453-1.168-.189-.529-.357-1.065-.517-1.6-.608-2.063-1.044-4.19-1.632-6.246-.131-.456-.268-.909-.406-1.362-.47-.373-.945-.748-1.4-1.157q1.016,3.066,1.816,6.2c.173.675.353,1.387.545,2.116.121.458.246.922.38,1.391.233.819.493,1.647.783,2.466a17.508,17.508,0,0,0,3.3,5.964A5.3,5.3,0,0,0,1657.862,1394.3Z" transform="translate(-1635.145 -1327.263)" fill="#7ca36d"/>
      <path id="Path_427" data-name="Path 427" d="M1630.171,1320.612a2.1,2.1,0,0,1-1.126.381,33.577,33.577,0,0,0,1.338,3.429,9.023,9.023,0,0,1,.471-2.254A13.208,13.208,0,0,0,1630.171,1320.612Z" transform="translate(-1618.044 -1280.872)" fill="#7ca36d"/>
      <path id="Path_428" data-name="Path 428" d="M1823.433,1217.13c-.155.142-.351.168-.579-.069-.04-.042-.083-.077-.124-.116.013.1-.021.348-.1.243-.021-.026-.037-.054-.057-.08.031,1.156.1,2.312.173,3.469a11.018,11.018,0,0,1,1.106-.984A16.818,16.818,0,0,0,1823.433,1217.13Z" transform="translate(-1779.375 -1194.449)" fill="#839824"/>
      <path id="Path_429" data-name="Path 429" d="M1822.655,1242.093c.023.678.035,1.358.019,2.038-.05,2.213-.2,4.422-.329,6.631.182.664.351,1.329.5,2q.149.2.284.407c.057-1.177.125-2.354.192-3.529a90.761,90.761,0,0,0,.432-9.328,8.789,8.789,0,0,0-.561.784A8.563,8.563,0,0,0,1822.655,1242.093Z" transform="translate(-1779.189 -1213.928)" fill="#839824"/>
      <path id="Path_430" data-name="Path 430" d="M1954.922,1354.1a53.041,53.041,0,0,1-4.125,5.9c-1.4,1.55-2.912,2.992-4.434,4.422a8.512,8.512,0,0,1,.785,1.02c.419-.5.834-1,1.234-1.511a22.356,22.356,0,0,1,5.326-5.177,15.784,15.784,0,0,0,2.452-4.848,1.146,1.146,0,0,1-.105.1A.846.846,0,0,1,1954.922,1354.1Z" transform="translate(-1882.576 -1308.621)" fill="#839824"/>
      <path id="Path_431" data-name="Path 431" d="M1886.821,1440.158a26.3,26.3,0,0,0-2.581,3.872c-.051.564-.108,1.128-.184,1.693-.028.211-.073.413-.109.62q.206-.291.4-.564c.512-.706,1.05-1.392,1.6-2.068a47.085,47.085,0,0,1,6.275-7.22,9.229,9.229,0,0,1-.933-.782c-.067-.065-.126-.135-.189-.2A49.758,49.758,0,0,0,1886.821,1440.158Z" transform="translate(-1830.542 -1376.654)" fill="#839824"/>
      <path id="Path_432" data-name="Path 432" d="M1704.92,1472.085a.123.123,0,0,1-.091-.017,5.5,5.5,0,0,1-1.4-1.156c.25.552.53,1.086.823,1.613C1704.476,1472.383,1704.7,1472.233,1704.92,1472.085Z" transform="translate(-1680.055 -1406.169)" fill="#839824"/>
      <path id="Path_433" data-name="Path 433" d="M1727.218,1503.393a4.719,4.719,0,0,0-1.316-.525c-.136-.032-.279-.052-.418-.077-.077.172-.161.343-.249.514.2.264.4.527.6.79.445.575.871,1.152,1.288,1.731a21.979,21.979,0,0,1,4.288,6.071c.3,0,.6-.005.91-.005a30.485,30.485,0,0,0-4.959-8.305Z" transform="translate(-1698.231 -1432.745)" fill="#839824"/>
      <path id="Path_434" data-name="Path 434" d="M1693.205,1325.965c-.007-.022-.016-.044-.023-.067-.212-.663-.385-1.335-.529-2.012-.946-4.432-.575-9.124-.379-13.6.089-2.027.309-4.282.266-6.489a19.552,19.552,0,0,0-.249-2.875,1.788,1.788,0,0,1-.974.2.792.792,0,0,1-.1.013c.016.618.04,1.235.067,1.854.05,1.153.1,2.305.076,3.458-.046,2.245-.2,4.485-.287,6.728a64.128,64.128,0,0,0,.065,7.8c.742,2.982,1.494,5.939,3.473,8.548.082.108.125.726-.036.834.168-.11.34-.219.519-.322-.207-.346-.4-.7-.593-1.053A18.594,18.594,0,0,1,1693.205,1325.965Z" transform="translate(-1669.682 -1264.459)" fill="#839824"/>
      <path id="Path_435" data-name="Path 435" d="M1716.416,1300.874a38.1,38.1,0,0,0,1.431,5.11c.859,2.5,2.106,6.074,4.081,8.185l-.051.091a10.729,10.729,0,0,0-1.174,3.249,11.743,11.743,0,0,0-.18,1.544,10.78,10.78,0,0,0,.313,3.894,6.139,6.139,0,0,0,.63,1.509,10.3,10.3,0,0,0,1.528,1.925l.186.194c1.49.534,3.285.452,4.112,2.029a7.1,7.1,0,0,1,.623,2.292c.055.442.106.829.162,1.19,0-.044-.007-.087-.01-.131a12.055,12.055,0,0,0,.04-3.447,10.181,10.181,0,0,0-.523-2.117,7.635,7.635,0,0,0-1.19-2.109c-.047-.142-.093-.284-.142-.426a12.33,12.33,0,0,1-1.088-3.54,3.89,3.89,0,0,1,.272-1.5,11.584,11.584,0,0,1,1.9-2.912c.353-.445.7-.884,1.029-1.323.447-.591.868-1.181,1.261-1.777a14.849,14.849,0,0,0,2.778-8.478c0-.034-.028-.123-.061-.127a13.836,13.836,0,0,0,.245-1.674c.007-.094-.037-.2-.082-.211-.029-.009-.057.02-.07.116-.5,3.517-4.353,5.5-6.98,7.645-.21.172-.416.344-.608.518a16.614,16.614,0,0,0-1.584,1.645c-.066.079-.129.16-.192.24-.156.2-.308.393-.453.6-.4-.822-.843-1.622-1.29-2.417a36.3,36.3,0,0,1-2.809-5.693c-.967-2.751-1.116-5.617-1.763-8.4a2.33,2.33,0,0,1-.646.067A16.019,16.019,0,0,0,1716.416,1300.874Z" transform="translate(-1690.598 -1260.823)" fill="#7ca36d"/>
      <path id="Path_436" data-name="Path 436" d="M1753.494,1270.754q.046-.615.109-1.237c-.086-2.031-.084-4.071-.006-6.167.111-2.947.5-6.17.354-9.232a2.214,2.214,0,0,1-.413-.025.153.153,0,0,1-.117,0l-.071-.029-.014,0a2.784,2.784,0,0,1-.372-.125c-.008.019-.018.035-.027.053-.083,1.092-.093,2.2-.147,3.268-.133,2.673-.261,5.346-.348,8.021-.12,3.694-.408,7.917,1.052,11.42A30.791,30.791,0,0,1,1753.494,1270.754Z" transform="translate(-1720.826 -1225.286)" fill="#839824"/>
      <path id="Path_437" data-name="Path 437" d="M1705.785,1191.246a21.723,21.723,0,0,1-1.183,6.685,1.682,1.682,0,0,0,1.5,1.081,2.321,2.321,0,0,0,.646-.067,3.827,3.827,0,0,0,2.215-1.642c1.544-2.4.05-5.726-.808-8.049a29.586,29.586,0,0,1-1.288-6.723,3.978,3.978,0,0,0-1.629-3.017c-.229-.167-.44.138-.515.309a12.5,12.5,0,0,0-.655,1.824C1705.882,1184.217,1705.935,1188.4,1705.785,1191.246Z" transform="translate(-1680.588 -1163.205)" fill="#f9e65d"/>
      <path id="Path_438" data-name="Path 438" d="M1990.022,1183.468a7.685,7.685,0,0,0-2.667,2.341,14.361,14.361,0,0,0-1.993,7.328c-.009.172.133.4.22.135.691-2.07,1.073-4.243,2.582-5.925a5.747,5.747,0,0,1,1.911-1.406,10.792,10.792,0,0,1-.778,5.661c-.57,1.069-1.03,2.235-1.412,2.93-.342.623-.669,1.245-.975,1.869a14.043,14.043,0,0,0-1.748,6.794,9.449,9.449,0,0,0,.955,3.715,5.534,5.534,0,0,0,1.141,1.91.846.846,0,0,0,1.133-.094,1.178,1.178,0,0,0,.105-.1,1.386,1.386,0,0,0,.13-.156,6.823,6.823,0,0,0,.628-1.53,29.967,29.967,0,0,1,1.818-3.71c1.5-2.712,3.318-6.076,3.354-9.37,0-.178,0-.355-.005-.532a7.681,7.681,0,0,0-.509-2.434.931.931,0,0,0-.237-.345.5.5,0,0,0-.245-.125,10,10,0,0,0,.407-2.719,9.653,9.653,0,0,0-.009-4.455c0-.013-.007-.023-.01-.036,0-.305-.012-.608-.042-.907-.058-.583-.136-1.457-.738-1.775-.285-.15-1.488-.273-1.532.261.019-.225,0-1.365-.494-1.122a4.231,4.231,0,0,0-1.353.964.881.881,0,0,1,.246.348A4.205,4.205,0,0,1,1990.022,1183.468Z" transform="translate(-1914.911 -1163.346)" fill="#f9e65d"/>
      <path id="Path_439" data-name="Path 439" d="M1789.724,1099.73l0-.012h0a45.141,45.141,0,0,1,.456-7.4c0-.022,0-.043,0-.065s.013-.072.019-.108a11.955,11.955,0,0,0,.092-3.23c-.021-1.916.079-4.528,1.2-4.782.557-.127.914.408,1.145,1.161a1.318,1.318,0,0,1,.214.434,22.879,22.879,0,0,0,3.144,5.99c-.173-2.237-1.37-4.387-2.4-6.471-.373-.755-1.088-3.352-2.188-3.516-.5-.074-.818.27-1.1.614-.168.2-.182.508-.338.71a4.936,4.936,0,0,1-.971.769,2.065,2.065,0,0,0-1,1.851c-.185,2.246-.046,4.589-.044,6.844,0,3.159-.025,6.616,2.16,9.042a3.619,3.619,0,0,1-.343-1.243C1789.745,1100.124,1789.738,1099.925,1789.724,1099.73Z" transform="translate(-1750.471 -1081.719)" fill="#f6df00"/>
      <path id="Path_440" data-name="Path 440" d="M1816.136,1128.409c-.1-.2-.2-.4-.3-.609-.014.315-.026.657-.035,1.017.059.1.117.2.174.3A3.089,3.089,0,0,1,1816.136,1128.409Z" transform="translate(-1773.734 -1120.134)" fill="#f6df00"/>
      <path id="Path_441" data-name="Path 441" d="M1839.066,1375q.269-.1.544-.189a6.8,6.8,0,0,0-.766.089c0,.026,0,.051,0,.077C1838.917,1374.981,1838.991,1374.989,1839.066,1375Z" transform="translate(-1792.94 -1326.053)" fill="#8b9660"/>
      <path id="Path_442" data-name="Path 442" d="M1838.01,1306.166c.091-.341.183-.681.259-1.026.048-.217.089-.433.125-.651-.009-.026-.019-.05-.028-.075a7.167,7.167,0,0,0-1.455-2.2,7.462,7.462,0,0,1-2.263-3.543,11.616,11.616,0,0,1-.588-3.941,11.357,11.357,0,0,0-.6,3.423.488.488,0,0,0-.025.177c.006.056.011.113.016.169a11.268,11.268,0,0,0,.182,1.871q.114,1.195.208,2.39a18.475,18.475,0,0,1,.517,4.469A10.155,10.155,0,0,1,1838.01,1306.166Z" transform="translate(-1788.435 -1259.298)" fill="#7ca36d"/>
      <path id="Path_443" data-name="Path 443" d="M1840.579,1379.719a9.976,9.976,0,0,0-1.307.011,12.377,12.377,0,0,0-1.636,1.258,15.382,15.382,0,0,0,.311,5.391c.009.034.021.069.03.1.3-.807.95-1.791,1.268-2.592Z" transform="translate(-1791.857 -1330.132)" fill="#7ca36d"/>
      <path id="Path_444" data-name="Path 444" d="M1863.169,1557.623c-.007-.029-.015-.057-.021-.086,0,.029-.01.057-.015.085Z" transform="translate(-1813.191 -1478.383)" fill="#0e2d00"/>
      <path id="Path_445" data-name="Path 445" d="M1595.8,1215.257c.577-3.067-.482-6.418-1.8-9.167a22.209,22.209,0,0,0-2.689-4.292c-.668-.831-1.878-2.577-3.007-2.865a1.443,1.443,0,0,0-1.576.363,2.962,2.962,0,0,0-.485,2.021c-.026.016-.052.034-.078.053a.255.255,0,0,1-.045.173,3.354,3.354,0,0,0-.542.471c-1.26,2.032.323,6.062.938,7.974a30.926,30.926,0,0,0,2.066,4.943c.371.705.867,1.859,1.467,2.821a8.144,8.144,0,0,0,1.853,1.442c.045.026.065.159.051.254a1.857,1.857,0,0,0,.461.043,2.107,2.107,0,0,0,1.126-.381A6.631,6.631,0,0,0,1595.8,1215.257Zm-5.657-.2c-1.462-2.293-6.747-11.256-1.987-12.807.1-.033.133.164.064.212-3.541,2.47.856,9.482,2.09,12.389C1590.349,1214.952,1590.244,1215.22,1590.139,1215.055Zm-.141-12.06c-.063-.08-.037-.464.089-.343a15.679,15.679,0,0,1,4.161,7.881c.49,1.911,1.568,5.155.018,6.858-.482.529-.649-.766-.6-1.045C1594.412,1212.3,1592.493,1206.175,1590,1202.995Z" transform="translate(-1581.41 -1179.37)" fill="#f9e65d"/>
      <path id="Path_446" data-name="Path 446" d="M1746.7,1160.047c0,.063-.056.3-.165.285h-.025a21.99,21.99,0,0,0,.661,6.727,21.668,21.668,0,0,1,.987,4.378,3.97,3.97,0,0,1-.169,1.482,2.783,2.783,0,0,0,.372.125l.014,0c.024.009.046.02.071.029a.152.152,0,0,0,.117,0,2.215,2.215,0,0,0,.413.025,5.233,5.233,0,0,0,4-3.211c.839-2.531.156-5.673-.3-8.186-.181-1-.268-2.41-.958-3.241a2.028,2.028,0,0,0-.668-.625,2.459,2.459,0,0,0-.606-.113.944.944,0,0,1-1.437-.405c-.754-.392-.834-.874-1.714-.315a3.062,3.062,0,0,0-.924,1.137A3.259,3.259,0,0,1,1746.7,1160.047Z" transform="translate(-1715.854 -1144.269)" fill="#f9e65d"/>
      <path id="Path_447" data-name="Path 447" d="M1800.4,1102.209c.006-.07.054-.036.051.016-.21,5.007-.035,9.425,2.314,13.946a.118.118,0,0,1,.009.034c.041.039.083.074.123.116.229.238.425.211.579.069a1.359,1.359,0,0,0,.324-.607c.181-.653,1.474-1.051,1.948-1.488a4.123,4.123,0,0,0,1.065-1.632,7.958,7.958,0,0,0,.134-4.576,14.606,14.606,0,0,0-2.008-4.381,22.883,22.883,0,0,1-3.144-5.99,1.316,1.316,0,0,0-.215-.434c-.232-.753-.588-1.288-1.145-1.161-1.118.254-1.218,2.866-1.2,4.782a11.947,11.947,0,0,1-.092,3.23c-.005.057-.012.115-.018.173a45.125,45.125,0,0,0-.456,7.4v.012c.014.2.02.394.042.587a3.625,3.625,0,0,0,.343,1.243c.62,1.231,1.9,1.363,3.081,2.146C1799.654,1111.829,1800.024,1106.566,1800.4,1102.209Zm1.124-.834c.1.2.193.409.3.609a3.1,3.1,0,0,0-.159.71c-.057-.1-.116-.2-.174-.3C1801.495,1102.033,1801.507,1101.691,1801.521,1101.376Z" transform="translate(-1759.417 -1093.71)" fill="#f9e65d"/>
      <path id="Path_448" data-name="Path 448" d="M1980.1,1200.821c.305-.624.633-1.246.975-1.87.382-.695.843-1.861,1.412-2.929a10.791,10.791,0,0,0,.778-5.662,5.745,5.745,0,0,0-1.911,1.406c-1.51,1.682-1.891,3.855-2.582,5.925-.087.262-.229.037-.22-.135a14.362,14.362,0,0,1,1.993-7.328,7.687,7.687,0,0,1,2.667-2.341,4.2,4.2,0,0,0-.116-2.487.872.872,0,0,0-.246-.348.427.427,0,0,0-.246-.115c-1.4-.073-2.867,2.721-3.457,3.689a14.271,14.271,0,0,0-2.141,5.723c-.168,1.479.59,6.071,2.549,6.473A1.444,1.444,0,0,0,1980.1,1200.821Z" transform="translate(-1908.103 -1167.765)" fill="#f6df00"/>
      <path id="Path_449" data-name="Path 449" d="M2011.843,1243.9c-.037,3.294-1.851,6.658-3.354,9.37a29.994,29.994,0,0,0-1.818,3.71,6.833,6.833,0,0,1-.628,1.531c.1.464.31.795.7.743,4.106-.547,5.526-2.7,6.333-6.633.7-3.411.916-8.318-.188-11.661-.63-1.909-1.285-1.423-1.793-.371a.926.926,0,0,1,.237.345A8.137,8.137,0,0,1,2011.843,1243.9Zm-3.712,13.432c-.049.1-.076-.094-.06-.137.741-2.024,3.264-3.426,2.8-5.8-.01-.05.024-.315.1-.172C2012.212,1253.619,2009.051,1255.514,2008.131,1257.334Z" transform="translate(-1932.328 -1213.39)" fill="#f6df00"/>
      <path id="Path_450" data-name="Path 450" d="M1734.421,1175.168a21.691,21.691,0,0,0-.987-4.378,21.988,21.988,0,0,1-.661-6.727h.025c.109.019.161-.222.165-.285a3.261,3.261,0,0,0-.331-1.905,2.45,2.45,0,0,0-.362-.484c-.139-.145-.233-.206-.426-.127-.883.359-.883,1.523-1.024,2.349a44.712,44.712,0,0,0-.928,6.45c-.048,2.307,1.269,6.542,3.926,6.907a.4.4,0,0,0,.407-.266c.009-.018.019-.034.027-.053A3.966,3.966,0,0,0,1734.421,1175.168Z" transform="translate(-1702.114 -1148.001)" fill="#f6df00"/>
      <path id="Path_451" data-name="Path 451" d="M1573.4,1219.049a8.165,8.165,0,0,1-1.854-1.442c-.6-.962-1.1-2.116-1.467-2.822a30.929,30.929,0,0,1-2.066-4.943c-.615-1.912-2.2-5.942-.938-7.974a3.347,3.347,0,0,1,.542-.471.256.256,0,0,0,.045-.173q.038-.028.078-.053a2.963,2.963,0,0,1,.485-2.021,1.277,1.277,0,0,0-1.35-.419c-.958.254-1.3,1.274-1.409,2.275-1.186-.518-2.036-.4-2.423,1.433-.485,2.293.451,4.637,1.091,6.8,1.248,4.221,3.434,10.661,8.815,10.034a4.462,4.462,0,0,0,.429.125c.04.009.063-.036.072-.1C1573.463,1219.208,1573.442,1219.075,1573.4,1219.049Z" transform="translate(-1562.908 -1179.224)" fill="#f6df00"/>
      <path id="Path_452" data-name="Path 452" d="M1618.047,1235.246c-.051.279.116,1.574.6,1.045,1.55-1.7.472-4.947-.018-6.858a15.679,15.679,0,0,0-4.161-7.881c-.126-.121-.152.263-.089.343C1616.871,1225.076,1618.79,1231.2,1618.047,1235.246Z" transform="translate(-1605.788 -1198.271)" fill="#f9e99d"/>
      <path id="Path_453" data-name="Path 453" d="M1810.288,1146.609a.109.109,0,0,0-.009-.034c-2.349-4.521-2.524-8.938-2.314-13.946,0-.052-.046-.085-.052-.016-.373,4.357-.742,9.619,1.739,13.487.147.229.308.452.476.671.02.026.036.054.057.08C1810.267,1146.957,1810.3,1146.712,1810.288,1146.609Z" transform="translate(-1766.933 -1124.114)" fill="#ffe633"/>
      <path id="Path_454" data-name="Path 454" d="M2021.014,1309.1c.46,2.378-2.064,3.779-2.8,5.8-.016.044.011.235.06.137.92-1.82,4.081-3.715,2.842-6.113C2021.038,1308.781,2021,1309.046,2021.014,1309.1Z" transform="translate(-1942.467 -1271.093)" fill="#ffe633"/>
      <path id="Path_455" data-name="Path 455" d="M1978.448,1303.675c-2.932,1.024-4.952,3.354-7.043,5.613-1.617,1.459-3.227,2.928-4.985,4.241-2.5,1.32-5.4,1.414-7.888,2.8-.306.171-.6.351-.888.539a22.353,22.353,0,0,0-5.326,5.177c-.4.512-.815,1.013-1.235,1.511l.009.013a21.385,21.385,0,0,1,1.713,3.426c1.17-.749,2.334-1.485,3.446-2.239,3.936-2.669,8.181-5.23,11.581-8.589a27.866,27.866,0,0,0,1.937-2.159c3.03-3.107,5.149-6.987,8.776-9.529C1978.728,1304.353,1978.744,1303.572,1978.448,1303.675Z" transform="translate(-1886.511 -1266.744)" fill="#6d776e"/>
      <path id="Path_456" data-name="Path 456" d="M1883.1,1448.639c-.551.676-1.089,1.362-1.6,2.068q-.2.273-.4.564a16.962,16.962,0,0,1-.568,2.288,4.861,4.861,0,0,1,2.483-1.389c.563-.707,1.144-1.388,1.729-2.04,1.629-1.817,3.318-3.578,4.958-5.385.684-.51,1.385-1,2.1-1.48a23.9,23.9,0,0,0-2.417-1.846A47.071,47.071,0,0,0,1883.1,1448.639Z" transform="translate(-1827.694 -1381.582)" fill="#6d776e"/>
      <path id="Path_457" data-name="Path 457" d="M1863.553,1524.9q-.03.139-.057.277l-.02.036c-.093.5-.166,1.008-.25,1.512.005.029.014.057.021.086a3.423,3.423,0,0,1,1.294.266h0c.87-1.815,1.124-3.895,2.045-5.745.022-.037.045-.072.067-.109a.2.2,0,0,0,.017-.061c.1-.2.216-.39.323-.585a4.362,4.362,0,0,0-.9.469C1864.785,1521.278,1863.95,1523.064,1863.553,1524.9Z" transform="translate(-1813.268 -1447.576)" fill="#6c7d43"/>
      <path id="Path_458" data-name="Path 458" d="M1811.86,1232.073c.4-.962.724-2.014,1.17-2.983a8.618,8.618,0,0,1,.534-1,8.8,8.8,0,0,1,.561-.784,7.258,7.258,0,0,1,3.761-2.416c.04-.014.037-.151-.009-.156a5.419,5.419,0,0,0-3.841,1.332,11,11,0,0,0-1.106.984,15,15,0,0,0-1.554,1.871c-.2.284-.389.572-.576.861a23.405,23.405,0,0,0,.606,3.28C1811.561,1232.735,1811.72,1232.409,1811.86,1232.073Z" transform="translate(-1769.564 -1200.926)" fill="#6c7d43"/>
      <path id="Path_459" data-name="Path 459" d="M1760.149,1280.835c.192-.174.4-.347.608-.518a26.611,26.611,0,0,1,.1-4.409c.408-3.321,1.842-5.271,3.859-7.81a24.956,24.956,0,0,0,2.193-3.276c.023-.041.045-.084.068-.125a23.5,23.5,0,0,1-.443-3.827l-.063.1a22.791,22.791,0,0,1-1.669,2.393c-1.1,1.329-2.449,2.44-3.473,3.829a16.257,16.257,0,0,0-2.653,8.108q-.064.621-.109,1.237a30.8,30.8,0,0,0,0,5.941v0A16.6,16.6,0,0,1,1760.149,1280.835Z" transform="translate(-1725.895 -1231.067)" fill="#6c7d43"/>
      <path id="Path_460" data-name="Path 460" d="M1792.333,1242.737c-.023.041-.045.083-.068.125.194,1.113.412,2.224.591,3.337l.039.244a20.107,20.107,0,0,1,.272,4.154c.044.013.089.117.082.211a13.84,13.84,0,0,1-.245,1.674c.032,0,.061.093.061.128a14.848,14.848,0,0,1-2.778,8.478c0,.083.016.166.022.249a7.255,7.255,0,0,0-1.155,2.958,6.749,6.749,0,0,0-.08,3.795c0,.013,0,.025.005.038a9.743,9.743,0,0,0,.561,1.931,27.7,27.7,0,0,1,1.37,4.733c-.083,1.167-.3,2.365-.438,3.563a9.721,9.721,0,0,0,.243,4.21,15.075,15.075,0,0,0,2.023,3.376,10.689,10.689,0,0,1,1.129,2.383l2.262.008c-.1-.387-.182-.778-.247-1.174-1.2-4.194-2.44-8.379-3.305-12.659-.358-1.771-.706-3.581-.911-5.4-.079-.307-.158-.614-.226-.923-.667-3.019-.363-8.341,2.924-9.639.25-1.193.492-2.4.666-3.618q.1-.737.171-1.484a14.906,14.906,0,0,0-1.705-6.668c-.037-.069,0-.446.106-.313.422.551.84,1,1.2,1.486-.145-.669-.315-1.334-.5-2-.43-1.571-.924-3.131-1.315-4.7a23.443,23.443,0,0,1-.605-3.28,13.427,13.427,0,0,1,.057-3.413c0-.007-.008-.039-.014-.02a11.5,11.5,0,0,0-.485,1.957,10.282,10.282,0,0,1,.163-1.13c0-.012-.009-.045-.015-.02a13.123,13.123,0,0,0-.369,3.669l.063-.1A23.525,23.525,0,0,0,1792.333,1242.737Zm1.471,3.754c.016,0,.016.051,0,.051S1793.789,1246.491,1793.8,1246.491Z" transform="translate(-1751.254 -1209.108)" fill="#90b652"/>
      <path id="Path_461" data-name="Path 461" d="M1583.521,1491.744a6.475,6.475,0,0,1,.942-3.816c-1.555-.891-3.045-1.753-4.964-1.239-4.721,1.263-5.945,7.3-10.866,8.317-.045.009-.042.127,0,.139a5.273,5.273,0,0,0,1.012.179c.012.047.038.078.078.064s.1-.032.149-.049a4.825,4.825,0,0,0,2.062-.4,10.29,10.29,0,0,1,4.838,1.4,8.511,8.511,0,0,0,4.612.792,21.8,21.8,0,0,0,3.428-.68c-.1-.232-.2-.465-.295-.7A11.5,11.5,0,0,1,1583.521,1491.744Z" transform="translate(-1567.653 -1419.192)" fill="#6c7d43"/>
      <path id="Path_462" data-name="Path 462" d="M1713.641,1519.493a21.969,21.969,0,0,0-4.289-6.071l-.014-.014a7.941,7.941,0,0,0-2.5-1.506c-.605.832-1.332,1.573-1.911,2.427a8.721,8.721,0,0,0-1.015,2.009l.025-.012a14.186,14.186,0,0,1,5.173,2.658,7.712,7.712,0,0,1,.86.861h.129a2.136,2.136,0,0,1,.928-.26C1711.8,1519.527,1712.7,1519.5,1713.641,1519.493Z" transform="translate(-1680.46 -1440.34)" fill="#6c7d43"/>
      <path id="Path_463" data-name="Path 463" d="M1818.638,1306.441c-.016,0-.016.051,0,.051S1818.654,1306.441,1818.638,1306.441Z" transform="translate(-1776.088 -1269.058)" fill="#396406"/>
      <path id="Path_464" data-name="Path 464" d="M1837.394,1375.346c-.1.017-.195.04-.292.062.1,0,.194.007.289.014C1837.392,1375.4,1837.393,1375.371,1837.394,1375.346Z" transform="translate(-1791.49 -1326.5)" fill="#396406"/>
      <path id="Path_465" data-name="Path 465" d="M1827.583,1392.922c-.01-.034-.021-.068-.03-.1a15.375,15.375,0,0,1-.312-5.391,10.253,10.253,0,0,0-1.2,1.3c-1.326,3.375-1.12,7.432-.411,11.2q.251-1.506.647-3.012C1826.64,1395.562,1827.094,1394.236,1827.583,1392.922Z" transform="translate(-1781.463 -1336.573)" fill="#6d776e"/>
      <path id="Path_466" data-name="Path 466" d="M1861.948,1348.214a.373.373,0,0,1-.517-.22c-.029.258-.062.517-.1.774,0,.027-.009.054-.013.08-.036.217-.076.434-.125.65-.076.345-.168.685-.259,1.026a11.433,11.433,0,0,1,1.269-.066,17.7,17.7,0,0,0,.415-2.515C1862.4,1348.035,1862.175,1348.126,1861.948,1348.214Z" transform="translate(-1811.355 -1303.656)" fill="#839824"/>
      <path id="Path_467" data-name="Path 467" d="M1830.987,1388.4c.294-.818.605-1.631.923-2.443.016-.04.03-.08.045-.119a9.124,9.124,0,0,1,.5-1.267c.566-1.417,1.221-2.987,1.788-4.622a10.745,10.745,0,0,0-1.258-.145q-.326.916-.673,1.822c-.092.24-.187.479-.28.719q-.354.9-.713,1.805l0,.005c-.318.8-.632,1.6-.933,2.412-.49,1.314-.943,2.64-1.3,4q-.4,1.505-.647,3.012c.183.976.4,1.933.629,2.854.031-.329.059-.66.1-.986A33.3,33.3,0,0,1,1830.987,1388.4Z" transform="translate(-1784.264 -1330.214)" fill="#839824"/>
      <path id="Path_468" data-name="Path 468" d="M1840.018,1228.219a7.162,7.162,0,0,1,1.456,2.2l.041,0c.042-.258.075-.516.1-.775a1.711,1.711,0,0,1-.14-.606c-.057.024-.09-.033-.108-.12l-.319-.052c-.025,0-.025-.076,0-.08l.278-.046h.024a.724.724,0,0,1,.016-.185c.061-.166.1-.332.155-.5a1.438,1.438,0,0,1,.073-.292c.025-.057.044-.113.069-.17,1.205-4.737-1.267-9.528.476-14.242.373-1.009,2.01-5.618,3.623-6.539a.939.939,0,0,0-.607-.769c-1.159-.32-2.08.5-2.792,1.526a9.184,9.184,0,0,0-1.838,3.38,34.749,34.749,0,0,0-3.047,7.371,11.238,11.238,0,0,0-.315,2.419,11.618,11.618,0,0,0,.588,3.941A7.463,7.463,0,0,0,1840.018,1228.219Z" transform="translate(-1791.542 -1185.3)" fill="#f9e65d"/>
      <path id="Path_469" data-name="Path 469" d="M1861.531,1216.745c-1.742,4.714.73,9.5-.476,14.242-.024.057-.044.113-.069.17a1.436,1.436,0,0,0-.073.292c-.051.166-.094.332-.155.5a.734.734,0,0,0-.016.185h-.024l-.278.046c-.025,0-.025.076,0,.08l.319.052c.018.087.051.144.108.12a1.719,1.719,0,0,0,.139.606.373.373,0,0,0,.517.221c.227-.088.449-.179.667-.271a11.523,11.523,0,0,0,4.5-3.05c.074-2.823-.3-5.795-.386-8.531,0-.009-.009-.016-.014-.024,0-.042.007-.084.01-.126a23.476,23.476,0,0,1,.057-2.578,16.888,16.888,0,0,1,1.286-5.373,9.191,9.191,0,0,0-.854-2.38c-.506-.913-1.072-1.042-1.64-.717C1863.542,1211.127,1861.9,1215.736,1861.531,1216.745Zm4.152,3.48c-.01-.057.05-.177.074-.071.93,4.1-.2,9.49-3.944,11.92-.125.081-.136-.332-.074-.4C1864.724,1228.354,1866.541,1224.862,1865.683,1220.225Z" transform="translate(-1810.931 -1188.697)" fill="#f6df00"/>
      <path id="Path_470" data-name="Path 470" d="M1868.227,1282.523c3.746-2.43,4.874-7.817,3.944-11.92-.024-.107-.084.014-.074.071.858,4.637-.959,8.129-3.944,11.449C1868.091,1282.192,1868.1,1282.6,1868.227,1282.523Z" transform="translate(-1817.345 -1239.146)" fill="#ffe633"/>
      <path id="Path_471" data-name="Path 471" d="M1847.49,1412.954c.005-.028.011-.057.016-.085.084-.5.157-1.013.25-1.512l.02-.036q.027-.139.057-.278a.118.118,0,0,1,0-.028c.008-.049.017-.1.025-.148q.152-.674.322-1.346a9.394,9.394,0,0,1,2.208-3.828,17.011,17.011,0,0,0,.568-2.288c.036-.207.081-.409.109-.62.076-.565.133-1.129.184-1.693.345-3.849.184-7.673.637-11.42a27.676,27.676,0,0,1,.565-3.152q.2-.363.411-.724a12.641,12.641,0,0,0-3.286-1.8c-1.4,1.231-2.947,2.292-3.821,4.041,0,.009-.007.018-.012.027a9.155,9.155,0,0,0-.5,1.267c-.015.047-.024.1-.038.143a10.452,10.452,0,0,0-.416,3.779,11.284,11.284,0,0,0,.547,2.781c.517,1.544,1.462,2.905,1.8,4.511a13.74,13.74,0,0,1-.511,6.059c-.209.854-.431,1.7-.651,2.546-.384.6-.757,1.2-1.087,1.826l-.094.183a6.273,6.273,0,0,1-.42,1.78c1.444,0,2.651.008,3.059.008Z" transform="translate(-1797.548 -1333.715)" fill="#90b652"/>
      <path id="Path_472" data-name="Path 472" d="M1736.074,1486.968c-.363-1.1.089-4.037-.622-4.734-.925-.907-2.85-.63-3.918-1.386-.58-.411-.5-.746-1.006-1.143a2.95,2.95,0,0,0-1.514-.678,4.073,4.073,0,0,0-.761.336c-.655,1.159-.974,2.4-1.523,3.617.14.024.282.045.418.077a4.721,4.721,0,0,1,1.316.525c.023.013.043.029.064.043.028.05.054.1.082.151a30.483,30.483,0,0,1,4.959,8.305c1.508,0,3.078.034,4.459.05a9.772,9.772,0,0,0-.774-2.834A23.142,23.142,0,0,1,1736.074,1486.968Z" transform="translate(-1699.479 -1412.934)" fill="#6d776e"/>
      <path id="Path_473" data-name="Path 473" d="M1651.019,1331.429a7.577,7.577,0,0,0,.568-.895c.019-.036.034-.072.052-.107.088-.171.172-.342.249-.514.548-1.221.867-2.458,1.523-3.617a4.056,4.056,0,0,1,.761-.336,2.951,2.951,0,0,1,1.514.678c.507.4.426.732,1.006,1.143,1.068.756,2.993.479,3.918,1.386.711.7.259,3.637.622,4.734a23.108,23.108,0,0,0,1.181,2.329,9.769,9.769,0,0,1,.774,2.834c.377,0,.738.007,1.08.008a4.441,4.441,0,0,0-.08-.5c-.027-.307-.067-.612-.124-.914a16.972,16.972,0,0,0-.969-3.114c-.258-.647-.442-1.173-.588-1.662a13.028,13.028,0,0,1-.39-1.755c-.057-.361-.108-.748-.163-1.19a7.094,7.094,0,0,0-.623-2.292c-.828-1.577-2.622-1.495-4.112-2.029l-.03-.012c-.037-.036-.072-.075-.11-.11a3.773,3.773,0,0,0-3.234-.952,4.26,4.26,0,0,0-.943.274,3.789,3.789,0,0,0-1.977.206,5.894,5.894,0,0,0-.826.39l-.048.029c-.179.1-.351.212-.519.322.16-.108.118-.727.036-.834-1.979-2.609-2.731-5.567-3.473-8.548q-.077-.31-.155-.62a20.936,20.936,0,0,0-1.715-7.531,19.9,19.9,0,0,0-2.513-3.415,6.784,6.784,0,0,1-1.569-4.975,4.557,4.557,0,0,1,1.117-2.411,13.977,13.977,0,0,1,1.943-1.557,4.536,4.536,0,0,1-.5-.458,10.48,10.48,0,0,0-4.694,4.437,9.641,9.641,0,0,0-.556,1.311,9.018,9.018,0,0,0-.471,2.253,6.4,6.4,0,0,0,1.98,5.366c.031.028.063.054.094.082.459.408.933.783,1.4,1.157a12.511,12.511,0,0,1,2.562,2.484,16.4,16.4,0,0,1,2.151,5.511c.049.187.1.38.153.575.168.625.354,1.288.573,1.953a13.827,13.827,0,0,0,1.408,3.118,7.55,7.55,0,0,0,.712.948,5.491,5.491,0,0,0,1.4,1.156.122.122,0,0,0,.09.017c-.224.148-.444.3-.667.44a5.376,5.376,0,0,1-1.127.57c-.094-.048-.205-.026-.338.091l-.016.016a5.3,5.3,0,0,1-1.481.1,8.724,8.724,0,0,0-2.018.035,3.679,3.679,0,0,0-2.409,1.567,6.474,6.474,0,0,0-.943,3.816,11.507,11.507,0,0,0,.995,4.006c.1.237.195.47.295.7a13.35,13.35,0,0,1,1.168,3.489c.129.934.029,1.882.18,2.814a3.987,3.987,0,0,0,1,2.068c.88,1.92,2.61,2.951,4.267,4.057a25.939,25.939,0,0,0,2.318,1.967.054.054,0,0,0,.083-.014,6,6,0,0,1,1.106,1.728c.057.138.112.13.157.059h0c0,.009.008.009.009,0l0-.025a.993.993,0,0,0,.086-.48,7.34,7.34,0,0,0-1.362-2.713c-1.827-4.242-3.394-9.03-2.888-13.657.052-.186.106-.371.17-.555a8.735,8.735,0,0,1,1.015-2.009C1649.687,1333,1650.414,1332.261,1651.019,1331.429Z" transform="translate(-1624.636 -1259.867)" fill="#90b652"/>
      <path id="Path_474" data-name="Path 474" d="M1865.523,1510.887q-.169.672-.322,1.346c-.008.049-.017.1-.025.148a.132.132,0,0,0,0,.027c.4-1.84,1.232-3.626,2.543-3.853a4.353,4.353,0,0,1,.9-.469,4.589,4.589,0,0,1,1.127-.281,4.664,4.664,0,0,1,2.948.571c.964.579,1.11,1.454,1.636,2.363.745,1.286,1.642,1.509,2.585,2.518.914.977.987,1.719.734,2.379-.025.06-.051.119-.075.179-.411.858-1.322,1.6-1.568,2.571-.276,1.092.168,1.852.367,2.885.636,3.3-1.405,4.189-3.3,6.238-1.474,1.59-2.77,3.463-2.767,5.626a3.355,3.355,0,0,0,.909,3.06c.031.035.031-.065.026-.078-1.605-4.451,5.25-6.137,6.963-9.375,1.34-2.535.335-5.01.117-7.654a8.027,8.027,0,0,1,.2-2.349,5.524,5.524,0,0,0,.276-1.13c.513-1.935,1.106-3.825.064-5.838a7.168,7.168,0,0,0-5.477-3.456,3.417,3.417,0,0,0-1.113-.541,4.392,4.392,0,0,0-2.053-.1,4.86,4.86,0,0,0-2.483,1.389A9.394,9.394,0,0,0,1865.523,1510.887Z" transform="translate(-1814.894 -1435.082)" fill="#7ca36d"/>
      <path id="Path_475" data-name="Path 475" d="M1633.943,1406.441c-.016,0-.016.051,0,.051S1633.959,1406.441,1633.943,1406.441Z" transform="translate(-1622.117 -1352.422)" fill="#507c03"/>
      <path id="Path_476" data-name="Path 476" d="M1635.174,1408.748l-.17-.17c-.005-.006-.008.013,0,.017l.17.17C1635.175,1408.771,1635.178,1408.752,1635.174,1408.748Z" transform="translate(-1623.006 -1354.204)" fill="#507c03"/>
      <path id="Path_477" data-name="Path 477" d="M1662.824,1198.544c.948.534,1.691.615,2.225.272a1.5,1.5,0,0,1-.41-.167c-1.835-1.075-1.233-5.167-.971-6.768.615-3.757,1.485-7.209,1.619-11.059.007-.186.2-1.848.8-1.4a1.629,1.629,0,0,0-.578-.973c-.527-.381-.966-.2-1.426.2-.863.763-.306,1.245-1.421,1.828-.751.393-.658-.144-1.333.719a7.375,7.375,0,0,0-.8,3.088,34.711,34.711,0,0,0-.562,8.846,7.964,7.964,0,0,0,1.83,4.6,4.541,4.541,0,0,0,.5.459A4.252,4.252,0,0,0,1662.824,1198.544Zm-1.292-11.625a2.708,2.708,0,0,1-.39-.891,2.82,2.82,0,0,1,.032-.83c.133-.972.977-2.263.562-3.276-.022-.052.013-.375.088-.258a2.785,2.785,0,0,1,.492,1.85c-.116,1.343-.74,1.987-.126,3.457a5.945,5.945,0,0,1,.309,5.093c-.073.2-.169-.129-.155-.206A7.621,7.621,0,0,0,1661.533,1186.919Z" transform="translate(-1643.736 -1162.181)" fill="#f9e65d"/>
      <path id="Path_478" data-name="Path 478" d="M1682.805,1186.367c-.133,3.85-1,7.3-1.619,11.059-.262,1.6-.865,5.693.971,6.768a1.507,1.507,0,0,0,.41.167,1.086,1.086,0,0,0,.224.039.8.8,0,0,0,.1-.013,1.789,1.789,0,0,0,.974-.2,2.15,2.15,0,0,0,.482-.342,4.2,4.2,0,0,0,.922-1.4,21.733,21.733,0,0,0,1.183-6.685c.15-2.849.1-7.029-1.715-9.6a5.453,5.453,0,0,0-1.125-1.2l-.007,0C1683,1184.52,1682.812,1186.182,1682.805,1186.367Z" transform="translate(-1661.255 -1167.728)" fill="#f6df00"/>
      <path id="Path_479" data-name="Path 479" d="M1668.649,1208.91c-.013.077.083.406.155.206a5.946,5.946,0,0,0-.309-5.093c-.614-1.47.01-2.115.126-3.457a2.785,2.785,0,0,0-.492-1.85c-.075-.118-.109.205-.088.258.415,1.012-.429,2.3-.562,3.276a2.808,2.808,0,0,0-.031.83,2.7,2.7,0,0,0,.389.89A7.621,7.621,0,0,1,1668.649,1208.91Z" transform="translate(-1650.041 -1179.231)" fill="#f6df00"/>
      <path id="Path_480" data-name="Path 480" d="M1875.708,1576.16l0,.009,0,.006Z" transform="translate(-1823.67 -1493.909)" fill="#73ad7e"/>
      <path id="Path_481" data-name="Path 481" d="M1593.752,1219.439c.068-.048.038-.245-.064-.212-4.76,1.551.525,10.513,1.987,12.807.105.165.21-.1.167-.206C1594.608,1228.922,1590.211,1221.909,1593.752,1219.439Z" transform="translate(-1586.945 -1196.349)" fill="#f6df00"/>
      <path id="Path_482" data-name="Path 482" d="M1944.5,1312.629c2.964-3.409,2.941-9.376,1.1-13.283-.131-.276-.362-.007-.306.207a16.72,16.72,0,0,1,.612,6.66,26.089,26.089,0,0,1-1.885,5.72C1943.929,1312.167,1944.152,1313.029,1944.5,1312.629Z" transform="translate(-1880.603 -1263.046)" fill="#7ca36d"/>
      <path id="Path_483" data-name="Path 483" d="M1849.255,1213.62a8.491,8.491,0,0,0-.785-1.02c-.051-.058-.105-.113-.157-.169-.769-.83-1.654-1.547-2.482-2.331-1.2-1.132-2.077-2.515-3.211-3.7-.023-.024-.05-.044-.074-.068a7.911,7.911,0,0,0-.75-.668,21.1,21.1,0,0,0,1.613-3.887c1.1-3.819.8-7.766.534-11.676a24.2,24.2,0,0,1,.581-7.756c.644-1.115,1.309-2.225,1.982-3.372a14.062,14.062,0,0,0,2.277-7.006c0-.064-.077-.278-.135-.127a15.1,15.1,0,0,1-.948,2.009c-1.463,2.094-3.766,3.459-5.226,5.6a12.085,12.085,0,0,0-1.076,1.963,16.89,16.89,0,0,0-1.286,5.373,23.473,23.473,0,0,0-.057,2.578c0,.05,0,.1,0,.15.081,2.736.46,5.707.386,8.53a13.8,13.8,0,0,1-1.375,6.167,11.224,11.224,0,0,0-3.543-.6,11.384,11.384,0,0,0-1.27.066,10.154,10.154,0,0,0-3.648,1.066,8.166,8.166,0,0,0-1.674,1.162,4.067,4.067,0,0,1,1.359-.189c.1-.022.194-.045.292-.063a6.8,6.8,0,0,1,.766-.089,10.551,10.551,0,0,1,8.4.751c3.381,1.937,4.026,5.964,7.039,8.166a11.566,11.566,0,0,1,3.637,3.466,14.84,14.84,0,0,0,2.306,3.216c-.657-1.326-1.182-2.728-1.752-4.1a21.361,21.361,0,0,0-1.713-3.426Z" transform="translate(-1784.683 -1156.805)" fill="#90b652"/>
      <path id="Path_484" data-name="Path 484" d="M1825.466,1326.4c-3.013-2.2-3.658-6.23-7.039-8.166a10.552,10.552,0,0,0-8.4-.751c-.183.058-.365.121-.544.189-.074-.009-.149-.017-.225-.023q-.143-.011-.289-.014a4.075,4.075,0,0,0-1.359.189,8.173,8.173,0,0,1,1.674-1.162,18.477,18.477,0,0,0-.517-4.469,16.018,16.018,0,0,0-.617-1.934c-.075-.352-.161-.7-.266-1.042a4.9,4.9,0,0,0-.59-1.251q-.135-.209-.283-.407c-.364-.484-.782-.935-1.2-1.486-.1-.134-.143.244-.106.313a14.906,14.906,0,0,1,1.705,6.668q-.066.747-.171,1.484c-.174,1.222-.417,2.425-.666,3.618-3.287,1.3-3.591,6.619-2.924,9.638.068.309.147.616.226.923.205,1.819.553,3.629.911,5.4.865,4.28,2.1,8.465,3.306,12.659.065.4.149.787.246,1.174l1.845.005a6.274,6.274,0,0,0,.42-1.78c.288-3.11-1.237-6.87-1.961-9.436-.164-.579-.325-1.182-.481-1.8-.232-.92-.446-1.877-.629-2.854-.708-3.773-.914-7.83.411-11.2a10.256,10.256,0,0,1,1.2-1.3,12.368,12.368,0,0,1,1.636-1.258,9.954,9.954,0,0,1,1.307-.011,10.823,10.823,0,0,1,1.258.145,11.883,11.883,0,0,1,2.045.553,12.639,12.639,0,0,1,3.286,1.8c.141.107.277.219.413.332a11.392,11.392,0,0,1,2.349,2.643,24.208,24.208,0,0,0,2.457,3.764l.032.034c.063.067.122.137.189.2a9.233,9.233,0,0,0,.933.782,23.878,23.878,0,0,1,2.417,1.847,5.7,5.7,0,0,1,.707.8c1.246,1.751,3.073,6.074,5.83,3.776.113-.095.144-.479-.031-.528a5.9,5.9,0,0,1-2.561-1.38,14.837,14.837,0,0,1-2.306-3.216A11.565,11.565,0,0,0,1825.466,1326.4Z" transform="translate(-1763.362 -1268.73)" fill="#6c7d43"/>
      <path id="Path_485" data-name="Path 485" d="M1745.314,1592.634c.323,2.617.607,4.187-.56,6.593-.125.257-.261.576-.405.939,3.586.752,6.639,2.411,9.907,4.285,4.317,2.475,9.032,1.494,11.151-2.28a22.792,22.792,0,0,1-1.618-5.479c-.209-2.183.571-6.837,1.261-9.772h-21.229A32.184,32.184,0,0,1,1745.314,1592.634Z" transform="translate(-1713.727 -1502.878)" fill="#d9ecca"/>
      <path id="Path_486" data-name="Path 486" d="M1742.158,1775.831c-4.8-.767-8.354-3.773-12.689-5.664a7.377,7.377,0,0,0-6.087-.287,19.411,19.411,0,0,0,1.265,6.56c2.3,5.905,3.425,6.844,5.015,7.976s6.195,1.633,8.9,1.633,5.7-.233,6.956-.867,4.141-3.523,5.656-9.342c.056-.214.1-.427.151-.641A20.6,20.6,0,0,1,1742.158,1775.831Z" transform="translate(-1696.687 -1654.965)" fill="#d9ecca"/>
      <path id="Path_487" data-name="Path 487" d="M1758.256,1557.592l-.062,0c-.408,0-1.615,0-3.059-.008l-1.845-.006-2.262-.008-2.956-.01h-.127c-.342,0-.7,0-1.08-.008-1.381-.016-2.951-.049-4.459-.05-.309,0-.61,0-.911.005-.941.01-1.838.035-2.61.094a2.136,2.136,0,0,0-.928.26,1.518,1.518,0,0,0-.482,1.933c.24.639.581,1.563.934,2.6h21.229a17.643,17.643,0,0,1,.657-2.3c.51-1.222.03-1.9-.71-2.233a3.425,3.425,0,0,0-1.293-.266Z" transform="translate(-1708.314 -1478.353)" fill="#d1b4b4"/>
      <path id="Path_488" data-name="Path 488" d="M1741.81,1670.832c-3.269-1.874-6.322-3.533-9.907-4.285a95.183,95.183,0,0,0-3.011,9.8c4.442-.419,8.485,1.608,12.262,3.765,3.6,2.053,6.987,3.659,11.233,2.872a14.066,14.066,0,0,0,4.111-1.442,32.131,32.131,0,0,0-1.334-7.021c-.618-2.015-1.462-4.059-2.2-5.968C1750.842,1672.325,1746.127,1673.307,1741.81,1670.832Z" transform="translate(-1701.28 -1569.259)" fill="#d1b4b4"/>
      <path id="Path_489" data-name="Path 489" d="M1736.518,1728.938c-3.777-2.156-7.82-4.184-12.262-3.765-.1.4-.167.719-.2.938-.106.61-.367,1.785-.545,3.313a25.238,25.238,0,0,0-.167,3.578,7.375,7.375,0,0,1,6.087.287c4.336,1.89,7.889,4.9,12.689,5.663a20.6,20.6,0,0,0,9.164-.632,25.748,25.748,0,0,0,.65-5.239c.021-.924,0-1.831-.068-2.714a14.062,14.062,0,0,1-4.111,1.442C1743.505,1732.6,1740.115,1730.991,1736.518,1728.938Z" transform="translate(-1696.646 -1618.087)" fill="#e4cccc"/>
    </g>
    <g id="Group_8674" data-name="Group 8674" transform="translate(292.496 652.112)">
      <g id="Group_8535" data-name="Group 8535" transform="translate(0 0)">
        <g id="Group_41" data-name="Group 41" transform="translate(91.68 3.406)">
          <path id="Path_63" data-name="Path 63" d="M716.922,248.907H697.594V230.932h19.328l-6.185,9.276Z" transform="translate(-697.594 -230.932)" fill="#00578b"/>
          <path id="Path_64" data-name="Path 64" d="M697.665,315.8v3.4l6.3-3.4Z" transform="translate(-697.653 -301.237)" fill="#022f4a"/>
        </g>
        <g id="Group_42" data-name="Group 42" transform="translate(0 3.406)">
          <path id="Path_65" data-name="Path 65" d="M163.433,248.907h19.327V230.932H163.433l6.185,9.276Z" transform="translate(-163.433 -230.932)" fill="#00578b"/>
          <path id="Path_66" data-name="Path 66" d="M245.553,315.8v3.4l-6.3-3.4Z" transform="translate(-226.238 -301.237)" fill="#022f4a"/>
        </g>
        <rect id="Rectangle_6" data-name="Rectangle 6" width="84.839" height="17.973" transform="translate(13.131 0)" fill="#006cad"/>
      </g>
      <g id="logo-el-universal" transform="translate(16.381 4.901)">
        <g id="Group_8392" data-name="Group 8392" transform="translate(12.038 0.727)">
          <g id="Group_8391" data-name="Group 8391" transform="translate(0 0)">
            <g id="Group_8390" data-name="Group 8390">
              <path id="Path_57775" data-name="Path 57775" d="M119.6,17.565H114.69v-.482h.7V11.941h-.7V11.46h4.819v1.582h-.591v-.916h-1.869V14.17h.786v-.647h.556V15.3h-.556v-.648h-.786v2.266H119V15.872h.6Z" transform="translate(-114.69 -11.304)" fill="#fff"/>
              <path id="Path_57776" data-name="Path 57776" d="M170.3,17.565H165.47v-.482h.7V11.941h-.7V11.46h3.19v.481h-.832v4.977H169.7V15.872h.6Z" transform="translate(-159.96 -11.304)" fill="#fff"/>
              <path id="Path_57777" data-name="Path 57777" d="M234.956,11.96h-.5v3.478c0,1.684-1.027,2.266-2.609,2.266-1.72,0-2.608-.731-2.608-2.006V11.961h-.564V11.48h2.914v.481H230.9v3.451c0,1.331.527,1.646,1.5,1.646,1.017,0,1.387-.546,1.387-1.646V11.97h-.767v-.49h1.939Z" transform="translate(-216.31 -11.322)" fill="#fff"/>
              <path id="Path_57778" data-name="Path 57778" d="M293.949,17.083h.807v.481h-2.182v-.481h.7V12.209c0-.01-.194-.268-.194-.268h-.7V11.46h2.328l2.951,4.061v-3.58h-.916V11.46H299v.481h-.666v5.725H297.27l-3.321-4.541Z" transform="translate(-273.098 -11.304)" fill="#fff"/>
              <path id="Path_57779" data-name="Path 57779" d="M362.549,17.565H359.39v-.482h.747V11.942h-.747V11.46h3.159v.482h-.757v5.141h.757Z" transform="translate(-332.837 -11.304)" fill="#fff"/>
              <path id="Path_57780" data-name="Path 57780" d="M398.081,17.731h-.962l-2.257-5.781h-.511V11.47h3.111v.481h-.907L398.1,16l1.563-4.051h-.685V11.47h1.851v.481h-.492Z" transform="translate(-364.003 -11.313)" fill="#fff"/>
              <path id="Path_57781" data-name="Path 57781" d="M464.917,17.574H460.09v-.482h.527V11.951h-.527V11.47h4.734v1.581h-.592v-.916h-1.959V14.18h.877v-.648h.554v1.776h-.554V14.66h-.877v2.266h2.042V15.881h.6Z" transform="translate(-422.609 -11.313)" fill="#fff"/>
              <path id="Path_57782" data-name="Path 57782" d="M513.684,14.762c1.6-.148,1.924-.859,1.924-1.554,0-1.11-.7-1.738-2.229-1.738H510.3v.481h.777v5.143H510.3v.481h3.08v-.481h-.647V15.179h.24l1.405,2.395h2.012v-.481h-.449l-.841-1.369c-.425-.684-.593-.861-1.415-.925Zm-.953-2.673h.074c.916,0,1.082.37,1.082,1.156s-.119,1.331-1.12,1.331h-.037Z" transform="translate(-467.371 -11.313)" fill="#fff"/>
              <path id="Path_57783" data-name="Path 57783" d="M572.907,16.508h-.637V14.731h.637v.99a4.5,4.5,0,0,0,1.369.157c.767,0,1.054-.213,1.054-.749,0-.425-.37-.62-1.231-1.036-1.341-.648-1.794-1.082-1.794-2.192,0-1.147.861-1.693,2.008-1.693a3.4,3.4,0,0,1,1.462.342v-.37h.591V11.9h-.591v-.888A4.249,4.249,0,0,0,574.7,10.9c-.629,0-.934.194-.934.657,0,.556.37.712,1.147,1.092,1.055.509,1.84.916,1.84,2.145,0,1.174-.906,1.748-2.127,1.748a3.886,3.886,0,0,1-1.72-.361Z" transform="translate(-522.616 -10.163)" fill="#fff"/>
              <path id="Path_57784" data-name="Path 57784" d="M617.37,14.58h2.211l.471,1.221H619.3v.481h2.927V15.8H621.7l-2.257-5.781h-.961L616.223,15.8h-.573v.481h1.877V15.8H616.9Zm2.016-.519h-1.822c.01,0,.916-2.358.916-2.358Z" transform="translate(-561.289 -10.02)" fill="#fff"/>
              <path id="Path_57785" data-name="Path 57785" d="M686.772,17.574H682.14v-.481h.508V11.951h-.508V11.47h2.817v.481H684.3v4.975h1.869V15.881h.6Z" transform="translate(-620.563 -11.313)" fill="#fff"/>
            </g>
          </g>
        </g>
        <g id="Group_8394" data-name="Group 8394" transform="translate(0 0)">
          <g id="Group_8393" data-name="Group 8393" transform="translate(0 0)">
            <path id="Path_57786" data-name="Path 57786" d="M18.326,48.231c.359.194.623.241,1.9.294.2-.026-.373-.1-.482-.129-.423-.129-.049-.192-.337-.175a4.074,4.074,0,0,1-.833-.055C18.31,48.127,18.041,48.019,18.326,48.231Z" transform="translate(-16.636 -43.244)" fill="#fff"/>
            <path id="Path_57787" data-name="Path 57787" d="M78.17,34.649c.017-.023.035-.046.05-.069C78.2,34.6,78.187,34.627,78.17,34.649Z" transform="translate(-70.095 -31.188)" fill="#fff"/>
            <path id="Path_57788" data-name="Path 57788" d="M40.025,58.322c.1.137.54.155.7.105.133.01.047-.066-.034-.076-.074.015-.157-.065-.171-.056C40.161,58.381,40,58.266,40.025,58.322Z" transform="translate(-36.088 -52.328)" fill="#fff"/>
            <path id="Path_57789" data-name="Path 57789" d="M14.96,7.259c-.574.1-2.1-.213-2.779.076a2.885,2.885,0,0,0,.15-.961,3.038,3.038,0,1,0-5.908,1C4.054,7.553,3.8,7.133,3.76,7.341A1.3,1.3,0,0,0,4.9,8.325,1.749,1.749,0,0,0,6.084,8.9a1.138,1.138,0,0,0,.7.32.617.617,0,0,0,.6.277.337.337,0,0,0,.25.179s-.01.062.069.089a4.144,4.144,0,0,0-1.739.583c.041.2.442.326.548.308a.679.679,0,0,0,.56.375.8.8,0,0,0,.68.231.661.661,0,0,0,.761-.434c.033-.145.135-.357.337-.383a.313.313,0,0,1,.163.1.391.391,0,0,0,.041.535.747.747,0,0,0,.562.061c.114.111.213.025.271.058-.023.039.1.116.209.071s.129-.1.139-.131a.1.1,0,0,0,.029-.11.075.075,0,0,0,.04-.1c.074.02.144-.091.139-.162-.01-.14-.1-.161-.229-.161a1.227,1.227,0,0,1,.606-.163,1.569,1.569,0,0,0,.532-.158c.154-.047.291-.046.416-.074.089-.018.155-.012.208-.026.035.034.138.075.442.031a5.581,5.581,0,0,1,.71-.043c.188-.522-.256-.607-.256-.607-.068-.137-.116-.26-.33-.308s-.27-.04-.3-.142a.3.3,0,0,0-.152.005.459.459,0,0,1,.15-.074c.433-.112.526-.243.582-.309a1.429,1.429,0,0,0,.929-.32.735.735,0,0,0,.564-.331C15.114,8.057,15.22,7.216,14.96,7.259ZM10.212,9.049a.147.147,0,0,1-.061-.068,1.267,1.267,0,0,0,.377-.171c.239-.146,0,.031-.064.117C10.465,8.926,10.423,8.992,10.212,9.049ZM7.853,7.381s-.038-.13.022-.146c.1-.029.259-.194.367-.226,0,0,.078-.087-.421.114,0-.047,0-.05,0-.117a.623.623,0,0,1,.166-.068c.011-.061-.12-.022-.16-.044-.023-.026-.005-.082,0-.171a3.032,3.032,0,0,0,.61.1c.035.028.235.137.154.033l0-.02c.049,0,.072,0,.122.005a.249.249,0,0,0,.033.081l.024.029,0,.38c-.046.022-.136.087-.219.125a.437.437,0,0,1-.175.026c.125-.081.175-.177.34-.275,0,0-.093-.087-.451.191a.491.491,0,0,1-.263.079V7.467c.151-.064.355-.311.514-.366C8.505,7.1,8.4,7.04,7.853,7.381Zm-.791.05-.105,0c-.007-.044-.015-.107-.015-.107a.771.771,0,0,0,.383-.093c.1-.046.168-.162.316-.153.013,0,.018.067.023.111-.028.014-.1.028-.124.04C7.38,7.3,7.379,7.419,7.062,7.431Zm3.213-3.452a2.092,2.092,0,0,1,.594.238.435.435,0,0,1-.021.279,3.177,3.177,0,0,0-.6-.36C10.311,4.1,10.307,4.044,10.275,3.979Zm-.8-.17h0c.115.137-.05.321-.366.417a.736.736,0,0,1-.729-.106c-.114-.136,0-.291.319-.384A.847.847,0,0,1,9.473,3.808Zm-1.818.844c-.059.048-.039.116-.055.175-.008.027-.026.079-.048.133-.026.036-.052.072-.076.109a1.251,1.251,0,0,1-.135-.1A.345.345,0,0,1,7.283,4.9a3.1,3.1,0,0,1,.437-.349A.593.593,0,0,1,7.656,4.653Zm1.559,1.9a.473.473,0,0,1,.067-.123c.029-.044.136-.05.178-.046s.072.017.094.011.048-.03.085-.063.079-.016.116-.011a.279.279,0,0,1,.107.039.136.136,0,0,1,.06.046.2.2,0,0,1,.018.1,5.431,5.431,0,0,1-.763.118A.516.516,0,0,0,9.215,6.555Zm.643-1.813c-.062.014-.126,0-.151.031s-.027.161-.167.093c-.084-.112-.115-.062-.167-.125a.08.08,0,0,1,.036-.132c.04-.015.034-.055.025-.1s-.066-.056-.041-.133c.009-.029.021-.092.114-.049a3.123,3.123,0,0,1,.375.3C9.944,4.688,9.915,4.729,9.859,4.742ZM7.8,4.083A1.565,1.565,0,0,1,8.2,3.9c-.025.046-.1.141-.115.176a3.678,3.678,0,0,0-.861.727.434.434,0,0,1,.009-.27A2.15,2.15,0,0,1,7.8,4.083Zm-.564.953a.723.723,0,0,0,.157.151,3.657,3.657,0,0,0-.431.958.586.586,0,0,1-.241-.3A2.469,2.469,0,0,1,7.2,4.981C7.209,4.994,7.223,5.022,7.234,5.036ZM7.027,6.344c.065.04.086.087.154.12a1.062,1.062,0,0,0-.192.031C7,6.447,7.013,6.393,7.027,6.344Zm-.154-.1c-.05.016-.157.054-.128.063A1.3,1.3,0,0,1,6.921,6.3c-.017.078-.039.165-.052.237-.065.022-.187.067-.2.125.048-.01.127-.037.186-.047a1.591,1.591,0,0,0-.016.215.535.535,0,0,0-.115.093c.026-.007.085-.025.116-.03,0,.016,0,.078,0,.094s-.018-.226,0,.087c-.023.035-.06.063-.072.087.013,0,.06-.015.074-.021a2.565,2.565,0,0,0,.046.282.469.469,0,0,1-.156-.106.583.583,0,0,1-.093-.131,2.993,2.993,0,0,1,.043-1.225A1.086,1.086,0,0,0,6.873,6.249Zm-.318.714a2.816,2.816,0,0,1,.033-1.377,1.249,1.249,0,0,0,.039.3A3.857,3.857,0,0,0,6.555,6.963Zm.558-.017c-.06.031-.111.064-.187.106a1.628,1.628,0,0,1,.007-.187,1.187,1.187,0,0,0,.146-.055c.155-.053.166-.107.3-.141,0,0-.046-.06-.36.071-.02.008-.055.033-.075.04a.809.809,0,0,1,.03-.184c.1-.035.133-.088.234-.118a3.129,3.129,0,0,0,.447.191c.007.1.007.25-.056.267A1.432,1.432,0,0,0,7.31,7.1a1.033,1.033,0,0,1-.368.18c-.01-.054-.012-.1-.017-.15a1.613,1.613,0,0,0,.253-.1c.155-.065.2-.174.361-.225C7.54,6.807,7.519,6.731,7.113,6.946Zm-.024-.716c.056-.033.215-.055.182-.08,0,0-.078,0-.168.012a2.506,2.506,0,0,1,.41-.806c.077.077.04.157.138.19.069.051.046.106.1.154l.042.025a7.738,7.738,0,0,0-.125.776A1.693,1.693,0,0,1,7.089,6.229Zm.919-.372A.106.106,0,0,1,8.069,6a.172.172,0,0,0,.005.194.457.457,0,0,1,.056.125.407.407,0,0,0,.105.116c.026.021.015.077.015.077a.986.986,0,0,0,.1.09.142.142,0,0,1,.029.026,2.859,2.859,0,0,1-.54-.086A2.418,2.418,0,0,1,8.008,5.857Zm.348.549c-.046-.1-.013-.129.022-.135s.12.077.141.117.049.063.075.116.056.093.08.139c-.054,0-.135-.005-.187-.008-.017-.027-.009-.05-.022-.064A.529.529,0,0,1,8.357,6.406Zm1.259,1.6a2.4,2.4,0,0,1,.36-.381s.025-.12-.421.2c-.044.022-.089.041-.111.017.129-.1.186-.27.332-.336,0,0-.044-.072-.428.169a.1.1,0,0,1-.129,0c.109-.086.2-.212.311-.257,0,0-.016-.053-.382.145a.1.1,0,0,1-.1,0c.1-.079.184-.194.29-.232,0,0,0-.052-.366.085a.554.554,0,0,1,0-.072.608.608,0,0,1,.154-.093s-.031-.044-.158,0c0,0,0-.162.007-.237a.6.6,0,0,1,.093.081s.066.024.092.008a.32.32,0,0,1,.2-.043,1.333,1.333,0,0,1,.2.109.1.1,0,0,1,.076.063c.015.047-.01.069,0,.093s.021.04.118.075.112.035.138.056.074.013.094.012.04-.038.062-.044a.514.514,0,0,1,.1,0c.061.017.031.082.033.135,0,.09-.092.122-.15.2C9.827,7.915,9.671,8.2,9.615,8.009Zm.573-.725a.375.375,0,0,0-.2.041.109.109,0,0,1-.149-.039c-.022-.041-.014-.071,0-.157s-.112-.068-.167-.1.008-.11.027-.165-.107-.066-.142-.058-.051.127-.119.162-.084.009-.163-.037a.162.162,0,0,1-.1-.16,7.083,7.083,0,0,0,.731-.127c.062-.01.034.039.093.016a.139.139,0,0,0,.053-.04,1.781,1.781,0,0,1,.054.171c-.023-.008-.068-.018-.092-.029a.459.459,0,0,0-.217.049c-.023.021.043.025.074.036s.079.04.111.051.055.076.112.072c.015,0,.043,0,.052.026a2.226,2.226,0,0,1,.088.309A.122.122,0,0,0,10.188,7.284Zm-.081-.821a.456.456,0,0,0,0-.133c-.014-.056.2-.152.2-.152s.084-.034.148-.066.066-.227.034-.3-.053-.162-.012-.209.166.08.233.055c.05-.018.046-.063.064-.1a4.27,4.27,0,0,1,.275.5,3.189,3.189,0,0,1-.905.4Zm.5-1.312.085.007c.065.005.16-.008.179-.081a.75.75,0,0,0-.016-.235c-.018-.059-.106-.065-.129-.1l-.007-.009a.783.783,0,0,0,.117-.154,2.928,2.928,0,0,1,.8.851,1.71,1.71,0,0,1-.514.588A4.394,4.394,0,0,0,10.612,5.151Zm.2-.588a.692.692,0,0,1-.119.148.156.156,0,0,0-.135-.026.111.111,0,0,1-.122-.061s.133-.1.072-.157a1.093,1.093,0,0,0-.382-.055c-.116-.033-.109.049-.126.088-.085-.071-.17-.138-.258-.2h.005c0-.125.141-.05.148-.1s-.153-.112-.1-.124A3.373,3.373,0,0,1,10.813,4.563Zm-1.245-.9c-.026-.005-.141-.056-.178-.061.027-.014.038-.022.046-.026a2.772,2.772,0,0,1,.589.1A1.989,1.989,0,0,0,9.569,3.659ZM7.185,4.59a.58.58,0,0,0-.03.288,2.971,2.971,0,0,0-.487.9A.7.7,0,0,1,6.6,5.547,2.768,2.768,0,0,1,7.185,4.59Zm.352,2.783c.073-.027.111-.035.118-.038s.02.031.034.115a1.387,1.387,0,0,1-.536.017A1.17,1.17,0,0,0,7.536,7.373Zm2.225.936a.224.224,0,0,1-.051-.1c.39-.1.794-.524.556-.251a.653.653,0,0,1-.33.273Zm.586-.163c.222-.169.2-.113.038.02a1.116,1.116,0,0,1-.506.354.144.144,0,0,1-.049-.092A3.224,3.224,0,0,0,10.347,8.147Zm.268.151c-.175.139-.114.183-.441.332-.092.037-.208.082-.213.086a.32.32,0,0,1-.048-.1C10.391,8.484,10.673,8.172,10.615,8.3Zm-.038.269c.161-.1-.042.039-.085.124a1.109,1.109,0,0,1-.4.211.388.388,0,0,1-.06-.087A1.824,1.824,0,0,0,10.577,8.567Zm.91-.721c.068-.169.111-.262.09-.349-.008-.038.05-.061-.025-.125s-.37.266-.456.213c-.06-.033-.105.016-.17,0a.133.133,0,0,1-.065-.038,2.614,2.614,0,0,0,.973-.763,2.438,2.438,0,0,1-1.061.709c-.04-.01-.049.018-.086-.02a.331.331,0,0,0-.248-.061.443.443,0,0,1-.12-.007.3.3,0,0,0-.067-.09c-.017-.131-.022-.2-.049-.346a.241.241,0,0,1,.063-.009c.063.008.065.041.1.051a.12.12,0,0,0,.113-.069c.01-.034-.047-.066-.1-.09a.647.647,0,0,1-.094-.062c-.03-.018-.094.011-.125.013-.015-.072-.024-.146-.04-.219l.034-.009a2.816,2.816,0,0,0,.908-.488,3.579,3.579,0,0,1,.344.869,3.757,3.757,0,0,0-.275-.914,1.526,1.526,0,0,0,.51-.6,2.488,2.488,0,0,1,.3.7,2.787,2.787,0,0,0-.288-.719c.012-.029.021-.059.029-.087-.011.025-.023.051-.035.076a3.008,3.008,0,0,0-.782-.9.446.446,0,0,0,0-.289,2.692,2.692,0,0,1,.829.813l-.011-.015a2.344,2.344,0,0,0-1.48-1.13l-.087-.041-.306-.058c-.009-.038-.085-.079-.1-.085a1.531,1.531,0,0,1,.494.025,2.807,2.807,0,0,1,1.87,2.647,3.191,3.191,0,0,1-.628,1.769A2.208,2.208,0,0,1,11.487,7.846ZM7.366,10.927a2,2,0,0,0,.883-.477.244.244,0,0,0-.017.034A.723.723,0,0,1,7.366,10.927Zm.326.1a.763.763,0,0,0,.674-.4C8.206,11.188,7.793,11.068,7.691,11.028Zm1.492-.05a.263.263,0,0,1-.025-.369c.007-.074.043-.093.029.056-.027.292.189.3.262.335S9.291,11.05,9.184,10.978Zm.454-.165c-.014-.033-.011-.075.069-.143.352-.3-.037-.264.135-.395-.026.086.532.119-.088.428A.4.4,0,0,0,9.637,10.813Zm.55.124c-.008.009-.011-.012-.013-.02a.028.028,0,0,0-.051,0c.047.05.024.118,0,.067a.034.034,0,0,0-.053-.01.09.09,0,0,1-.009.12c-.029.036-.092.049-.1.025s.024-.007.041-.026a.068.068,0,0,0-.028-.1c-.047-.028-.12-.014-.1.038.018.024.042.049-.012.05a.234.234,0,0,1-.076-.009.1.1,0,0,1-.081-.066c0-.039.025.013.059.008.052,0,.075-.119.192-.105a.052.052,0,0,0,.044-.02c.005-.013,0-.025.021-.031a.076.076,0,0,1,.041,0c.031,0,.028-.012.035-.026s.03-.011.052,0C10.2,10.863,10.2,10.922,10.187,10.937Zm.059-.22a.06.06,0,0,1,.041.1c-.029.031-.013-.013-.029-.047a.09.09,0,0,0-.064-.033c-.02-.005-.028-.028-.02-.03A.188.188,0,0,0,10.246,10.716ZM12.1,9.249a.212.212,0,0,0,.183.139c.153.028.356.109.375.246.01.069.422.062.328.341a3.625,3.625,0,0,1-.455-.048c-.013.02.132.031.063.066-.1.059-.6.08-.49-.048.026-.029.133-.044.135-.06a.663.663,0,0,0-.19.014.228.228,0,0,1-.171,0c-.059-.031-.1-.081.052-.114s.06-.028-.073-.024c0,0-.247,0-.243-.047s.112-.055.277-.1c.136-.037-.007-.02-.094-.031,0,0-.216,0-.247-.041s.094-.063.053-.1c-.072.047-.27.028-.22.115a.418.418,0,0,0,.191.074c-.179.04-.132.144-.05.2a.452.452,0,0,0,.086.047c-.145.081-.282.1-.308.068s.081-.056.061-.1c-.646.094-.1-.109-.1-.109-.007-.058-.477.1-.439-.021.075-.04.178-.047.263-.085-.024-.053-.369.027-.418-.027s.11-.039.139-.062a1.087,1.087,0,0,0-.492-.049.56.56,0,0,0-.3-.148.358.358,0,0,0-.23-.2.454.454,0,0,0-.118-.169.49.49,0,0,0-.11-.069.642.642,0,0,0-.1-.189c-.039-.06-.077-.063-.116-.093a.3.3,0,0,0-.066-.154.4.4,0,0,0-.09-.091.293.293,0,0,0-.056-.135c-.225-.4-1.118-.371-2.225-.336a11.719,11.719,0,0,1-2.3-.1C5.024,8.2,7,8.1,7.92,8.223a3.261,3.261,0,0,1-.865.08c-.061.074.595.189,1.221.231a6.5,6.5,0,0,0-.686.118,3.819,3.819,0,0,0,1.136.171c-.368.08-.792.085-.726.155a4.263,4.263,0,0,0,1.007.076c-.4.151-.741.043-.722.112a1.652,1.652,0,0,0,.422.076,3.351,3.351,0,0,1,.545.023c.024.033-.158.026-.3.053-.351.064-.471,0-.386.063A1.532,1.532,0,0,0,9,9.432c.214,0,.442.009.482.074a1.47,1.47,0,0,0-.33.012c-.286.029-.43-.013-.371.039a1.4,1.4,0,0,0,.444.066c.322.026.391.066.449.115l-.082,0c-.229-.027-.473-.015-.689-.036-.042.061.238.06.269.142a2.9,2.9,0,0,1-.742.105c-.043,0-.144-.031-.135-.007s.106.038.154.05a1.508,1.508,0,0,0,.432.022c.063.106-.925.058-.818.155a2.948,2.948,0,0,1,.494.02c-.031.013.074.041-.266.1-.288.09-.728.645-1.262.531-.122-.049-.141-.089-.148-.1.409.111,1.171-.445,1.171-.445-.182-.086-.969.453-1.3.354-.072-.055-.073-.046-.072-.072A4.242,4.242,0,0,0,7.793,10.1c-.571.065-1,.342-1.342.33-.071,0-.082,0-.107-.058a5.894,5.894,0,0,1,1.89-.518c-.144-.026-.336-.168-.342-.283-.187-.039-.34-.153-.355-.257a.6.6,0,0,1-.589-.344c-.574,0-.676-.323-.676-.323-1.059,0-1.146-.513-1.146-.513a1.246,1.246,0,0,1-1.012-.556c.877.31,4.147-.1,4.889.237.657.3.754,1.666,1.8,1.489a1.52,1.52,0,0,1-.337-.122,3.091,3.091,0,0,0,.34-.174,6.5,6.5,0,0,0,1.2-1.227c.364-.482,2.258-.122,2.764-.254-.033.176-.253.308-.713.38-.2.03-.052.227-.406.306-.252.056-.264.259-.919.286a2.308,2.308,0,0,1-.76.343l-.148.035c-.113-.028-.158-.048-.191-.087.138.005.255.014.286-.027-.052-.008-.182-.036-.178-.067.216,0,.457-.012.423-.048a.345.345,0,0,1-.252-.091A1.007,1.007,0,0,0,12.45,8.5c.022-.031-.292.014-.443-.11l-.008,0c.179-.007,1.188.009,1.12-.115a3.994,3.994,0,0,1-.986-.055,3.373,3.373,0,0,1,.413-.054c.46-.014,1.173-.029,1.113-.2a5.81,5.81,0,0,1-1.272.018l.033-.022a4.17,4.17,0,0,1,.96-.122c.157-.02,1-.058,1.027-.181a5.772,5.772,0,0,1-1.012.029,1.962,1.962,0,0,0-1.173.175,1.582,1.582,0,0,0-.206.192c-.039.05-.173.22-.206.257a3.3,3.3,0,0,1-.754.731c-.08.044-.165.035-.179.065h0l.053.005a2.171,2.171,0,0,1,.87.235c-.029-.049-.02-.094.044-.128a.294.294,0,0,0,.231.169C12.028,9.279,12.1,9.249,12.1,9.249Z" transform="translate(-3.76 -3.32)" fill="#fff"/>
            <path id="Path_57790" data-name="Path 57790" d="M42.847,60.338c.084.094.263.171.643.073.155.021-.106-.127-.18-.122C42.983,60.4,42.815,60.271,42.847,60.338Z" transform="translate(-38.602 -54.107)" fill="#fff"/>
            <path id="Path_57791" data-name="Path 57791" d="M80.33,61.03c.126.039.165.29.391.112C80.856,61.034,80.035,60.939,80.33,61.03Z" transform="translate(-71.964 -54.735)" fill="#fff"/>
            <path id="Path_57792" data-name="Path 57792" d="M45.651,62.2a1.557,1.557,0,0,1-.393.039c.059.091.349.125.591.068.125.005,0-.041-.036-.047C45.7,62.25,45.695,62.186,45.651,62.2Z" transform="translate(-40.751 -55.809)" fill="#fff"/>
            <path id="Path_57793" data-name="Path 57793" d="M29.119,52.513c-.085-.007-.271-.061-.22-.013.1.133.3.285,1.339.211,0-.02-.078-.035-.168-.063-.354-.033-.141-.1-.4-.105A4.792,4.792,0,0,1,29.119,52.513Z" transform="translate(-26.163 -47.146)" fill="#fff"/>
            <path id="Path_57794" data-name="Path 57794" d="M35.075,55.585c-.155-.014-.211-.054-.2-.026.1.25.793.231,1.045.171,0-.021-.081-.037-.124-.055-.3-.052-.118-.074-.276-.1S35.2,55.6,35.075,55.585Z" transform="translate(-31.496 -49.882)" fill="#fff"/>
          </g>
        </g>
      </g>
    </g>
  </g>
</svg>
