<svg xmlns="http://www.w3.org/2000/svg" width="31.233" height="22.105" viewBox="0 0 31.233 22.105">
  <g id="menu" transform="translate(0.25 -75.75)">
    <g id="Grupo_3118" data-name="Grupo 3118" transform="translate(0 85.606)">
      <g id="Grupo_3117" data-name="Grupo 3117" transform="translate(0 0)">
        <path id="Trazado_1" data-name="Trazado 1" d="M29.536,236H1.2a1.2,1.2,0,1,0,0,2.4H29.536a1.2,1.2,0,0,0,0-2.4Z" transform="translate(0 -236)" fill="#006cad" stroke="#fff" stroke-width="0.5"/>
      </g>
    </g>
    <g id="Grupo_3120" data-name="Grupo 3120" transform="translate(0 76)">
      <g id="Grupo_3119" data-name="Grupo 3119">
        <path id="Trazado_2" data-name="Trazado 2" d="M29.536,76H1.2a1.2,1.2,0,1,0,0,2.4H29.536a1.2,1.2,0,0,0,0-2.4Z" transform="translate(0 -76)" fill="#006cad" stroke="#fff" stroke-width="0.5"/>
      </g>
    </g>
    <g id="Grupo_3122" data-name="Grupo 3122" transform="translate(0 95.21)">
      <g id="Grupo_3121" data-name="Grupo 3121">
        <path id="Trazado_3" data-name="Trazado 3" d="M29.536,396H1.2a1.2,1.2,0,1,0,0,2.4H29.536a1.2,1.2,0,1,0,0-2.4Z" transform="translate(0 -396)" fill="#006cad" stroke="#fff" stroke-width="0.5"/>
      </g>
    </g>
  </g>
</svg>
