<svg xmlns="http://www.w3.org/2000/svg" width="16.409" height="25.218" viewBox="0 0 16.409 25.218">
  <g id="RIBBON" transform="translate(-210.991 -88.594)">
    <path id="Path_1" data-name="Path 1" d="M235.292,88.594l-.005.015v-.015c-4.315,0-3.93,4.855-3.93,4.855a8.978,8.978,0,0,1,3.93-1.541v-.019l.005.019a8.98,8.98,0,0,1,3.93,1.541S239.607,88.594,235.292,88.594Z" transform="translate(-16.094)" fill="#b79a57"/>
    <path id="Path_2" data-name="Path 2" d="M222.417,92.064s-4.557,3.266-4.311,6.806c.289,4.161,12.079,17.685,12.079,17.685l2.832-3.526s-11-13.295-11.617-16.414A4.965,4.965,0,0,1,222.417,92.064Z" transform="translate(-5.617 -2.743)" fill="#b79a57"/>
    <path id="Path_3" data-name="Path 3" d="M221.591,92.064s4.558,3.266,4.312,6.806c-.289,4.161-12.079,17.685-12.079,17.685l-2.832-3.526s11-13.295,11.617-16.414A4.965,4.965,0,0,0,221.591,92.064Z" transform="translate(0 -2.743)" fill="#b79a57"/>
    <path id="Path_4" data-name="Path 4" d="M261.678,95.71a4.909,4.909,0,0,0-1.32-4.5A3.959,3.959,0,0,1,261.239,97,5.715,5.715,0,0,0,261.678,95.71Z" transform="translate(-39.029 -2.065)" fill="#b79a57"/>
    <path id="Path_5" data-name="Path 5" d="M232.111,95.71a4.909,4.909,0,0,1,1.319-4.5A3.959,3.959,0,0,0,232.549,97,5.727,5.727,0,0,1,232.111,95.71Z" transform="translate(-16.367 -2.065)" fill="#b79a57"/>
    <path id="Path_6" data-name="Path 6" d="M252.973,159.7l.264.344-3.069,3.427Z" transform="translate(-30.973 -56.212)" fill="#b79a57"/>
    <path id="Path_7" data-name="Path 7" d="M238.616,141.6l-3.06,3.427.255.363Z" transform="translate(-19.421 -41.904)" fill="#b79a57"/>
    <path id="Path_8" data-name="Path 8" d="M214.492,171.384l-2.953,4.329.621,1.482-1.169-1.456Z" transform="translate(0 -65.452)" fill="#b79a57"/>
    <path id="Path_9" data-name="Path 9" d="M272.629,171.384l2.953,4.329-.621,1.482,1.17-1.456Z" transform="translate(-48.731 -65.452)" fill="#b79a57"/>
  </g>
</svg>
