<svg xmlns="http://www.w3.org/2000/svg" width="11" height="10.49" viewBox="0 0 11 10.49">
  <g id="star" transform="translate(-3.566 -11.311)">
    <path id="Trazado_3862" data-name="Trazado 3862" d="M60.286,19.48l-3.562-.33-1.415-3.286a.285.285,0,0,0-.524,0L53.369,19.15l-3.562.33a.285.285,0,0,0-.162.5l2.688,2.361-.787,3.49a.285.285,0,0,0,.424.308l3.076-1.827,3.076,1.829a.285.285,0,0,0,.424-.308l-.787-3.49,2.688-2.361a.285.285,0,0,0-.163-.5Z" transform="translate(-45.982 -4.38)" fill="#c4ad76"/>
  </g>
</svg>
