<svg id="velas" xmlns="http://www.w3.org/2000/svg" width="69.32" height="96.944" viewBox="0 0 69.32 96.944">
  <g id="Group_8373" data-name="Group 8373" transform="translate(5.991 88.164)">
    <g id="Group_8372" data-name="Group 8372" transform="translate(0)">
      <path id="Path_57916" data-name="Path 57916" d="M107.09,466.093a1.444,1.444,0,1,0,.2,1.692A1.457,1.457,0,0,0,107.09,466.093Z" transform="translate(-104.586 -465.633)" fill="#c4ad76"/>
    </g>
  </g>
  <g id="Group_8375" data-name="Group 8375" transform="translate(11.269 87.876)">
    <g id="Group_8374" data-name="Group 8374" transform="translate(0)">
      <path id="Path_57917" data-name="Path 57917" d="M134.583,464.277a1.443,1.443,0,1,0,.742,1.52A1.459,1.459,0,0,0,134.583,464.277Z" transform="translate(-132.463 -464.11)" fill="#c4ad76"/>
    </g>
  </g>
  <g id="Group_8377" data-name="Group 8377" transform="translate(60.077 87.874)">
    <g id="Group_8376" data-name="Group 8376" transform="translate(0)">
      <path id="Path_57918" data-name="Path 57918" d="M392.884,464.739a1.444,1.444,0,1,0-.181,1.824A1.46,1.46,0,0,0,392.884,464.739Z" transform="translate(-390.239 -464.098)" fill="#c4ad76"/>
    </g>
  </g>
  <g id="Group_8379" data-name="Group 8379" transform="translate(5.995 82.681)">
    <g id="Group_8378" data-name="Group 8378" transform="translate(0)">
      <path id="Path_57919" data-name="Path 57919" d="M105.277,436.89a1.443,1.443,0,1,0,2.153,1.638A1.458,1.458,0,0,0,105.277,436.89Z" transform="translate(-104.609 -436.673)" fill="#c4ad76"/>
    </g>
  </g>
  <g id="Group_8381" data-name="Group 8381" transform="translate(0 0)">
    <g id="Group_8380" data-name="Group 8380" transform="translate(0 0)">
      <path id="Path_57920" data-name="Path 57920" d="M140.822,54.507a1.445,1.445,0,0,0,1.444-1.444V32.841a5.816,5.816,0,0,0-5.816-5.816H123.493v-2.84c3.628-2.279,5.625-5.175,5.928-8.614.67-7.607-7.4-14.9-7.743-15.206a1.445,1.445,0,0,0-2.394,1.262c.006.045.542,4.548-1.851,7.665a9.771,9.771,0,0,0-1.7,9.617,8.995,8.995,0,0,0,4.869,5.043v3.073H107.646a5.816,5.816,0,0,0-5.816,5.816V51.478H93.454V49.471a8.94,8.94,0,0,0,5.58-5.3,9.77,9.77,0,0,0-1.7-9.617c-2.393-3.117-1.857-7.619-1.852-7.661a1.444,1.444,0,0,0-2.394-1.266c-.344.307-8.414,7.6-7.743,15.206.283,3.207,2.039,5.941,5.217,8.144v2.505h-11.8a5.816,5.816,0,0,0-5.816,5.816V79.4a1.444,1.444,0,0,0,2.889,0v-22.1a2.928,2.928,0,0,1,2.928-2.928h26.494a2.928,2.928,0,0,1,2.928,2.928v36.76H75.836V75.636a1.444,1.444,0,0,0-2.889,0V95.5a1.444,1.444,0,0,0,1.444,1.444h66.431a1.444,1.444,0,0,0,1.444-1.444v-42a1.444,1.444,0,1,0-2.889,0V94.055h-28.3V57.295a5.816,5.816,0,0,0-5.816-5.816h-.538V32.841a2.928,2.928,0,0,1,2.928-2.928h28.8a2.928,2.928,0,0,1,2.928,2.928V53.062A1.444,1.444,0,0,0,140.822,54.507ZM92.01,41.851a1.444,1.444,0,0,0-1.444,1.444v1.964a7.316,7.316,0,0,1-2.339-4.677c-.342-3.845,2.359-7.852,4.455-10.337a12.645,12.645,0,0,0,2.365,6.065,6.866,6.866,0,0,1,1.3,6.809,6.224,6.224,0,0,1-2.888,3.236V43.295A1.444,1.444,0,0,0,92.01,41.851ZM122.048,17.4a1.444,1.444,0,0,0-1.444,1.444V20.66a6.267,6.267,0,0,1-2.178-2.8,6.867,6.867,0,0,1,1.3-6.809,12.65,12.65,0,0,0,2.365-6.067c.425.5.874,1.071,1.32,1.689,1.584,2.2,3.414,5.485,3.136,8.645a7.653,7.653,0,0,1-3.051,5.321v-1.8A1.445,1.445,0,0,0,122.048,17.4Z" transform="translate(-72.947 0.001)" fill="#c4ad76"/>
    </g>
  </g>
</svg>
