<svg xmlns="http://www.w3.org/2000/svg" width="82.4" height="115.238" viewBox="0 0 82.4 115.238">
  <g id="velas" transform="translate(-72.947 0.001)">
    <g id="Group_8373" data-name="Group 8373" transform="translate(80.068 104.8)">
      <g id="Group_8372" data-name="Group 8372" transform="translate(0)">
        <path id="Path_57916" data-name="Path 57916" d="M107.562,466.18a1.716,1.716,0,1,0,.232,2.011A1.732,1.732,0,0,0,107.562,466.18Z" transform="translate(-104.586 -465.633)" fill="#006cad"/>
      </g>
    </g>
    <g id="Group_8375" data-name="Group 8375" transform="translate(86.342 104.458)">
      <g id="Group_8374" data-name="Group 8374" transform="translate(0)">
        <path id="Path_57917" data-name="Path 57917" d="M134.983,464.309a1.716,1.716,0,1,0,.882,1.807A1.735,1.735,0,0,0,134.983,464.309Z" transform="translate(-132.463 -464.11)" fill="#006cad"/>
      </g>
    </g>
    <g id="Group_8377" data-name="Group 8377" transform="translate(144.36 104.455)">
      <g id="Group_8376" data-name="Group 8376" transform="translate(0)">
        <path id="Path_57918" data-name="Path 57918" d="M393.384,464.86a1.716,1.716,0,1,0-.215,2.168A1.736,1.736,0,0,0,393.384,464.86Z" transform="translate(-390.239 -464.098)" fill="#006cad"/>
      </g>
    </g>
    <g id="Group_8379" data-name="Group 8379" transform="translate(80.073 98.282)">
      <g id="Group_8378" data-name="Group 8378" transform="translate(0)">
        <path id="Path_57919" data-name="Path 57919" d="M105.4,436.931a1.715,1.715,0,1,0,2.559,1.948A1.733,1.733,0,0,0,105.4,436.931Z" transform="translate(-104.609 -436.673)" fill="#006cad"/>
      </g>
    </g>
    <g id="Group_8381" data-name="Group 8381" transform="translate(72.947 -0.001)">
      <g id="Group_8380" data-name="Group 8380" transform="translate(0 0)">
        <path id="Path_57920" data-name="Path 57920" d="M153.63,64.792a1.717,1.717,0,0,0,1.717-1.717V39.038a6.913,6.913,0,0,0-6.913-6.914h-15.4V28.749c4.313-2.709,6.686-6.152,7.046-10.239.8-9.042-8.8-17.711-9.2-18.076a1.718,1.718,0,0,0-2.845,1.5c.007.054.644,5.406-2.2,9.111-2.729,3.554-3.464,7.721-2.017,11.432a10.692,10.692,0,0,0,5.788,5.994v3.653h-15.4a6.913,6.913,0,0,0-6.914,6.914V61.192H97.324V58.806a10.627,10.627,0,0,0,6.632-6.3c1.447-3.711.712-7.878-2.017-11.432-2.845-3.7-2.207-9.057-2.2-9.107a1.717,1.717,0,0,0-2.845-1.5c-.409.365-10,9.033-9.2,18.076.336,3.812,2.424,7.063,6.2,9.681v2.978H79.861a6.913,6.913,0,0,0-6.914,6.914V94.381a1.717,1.717,0,0,0,3.434,0V68.106a3.48,3.48,0,0,1,3.48-3.48h31.493a3.48,3.48,0,0,1,3.48,3.48v43.7H76.381V89.908a1.717,1.717,0,0,0-3.434,0V113.52a1.717,1.717,0,0,0,1.717,1.717H153.63a1.717,1.717,0,0,0,1.717-1.717V63.6a1.717,1.717,0,1,0-3.434,0V111.8H118.267v-43.7a6.913,6.913,0,0,0-6.914-6.914h-.64V39.039a3.48,3.48,0,0,1,3.48-3.48h34.24a3.48,3.48,0,0,1,3.48,3.48V63.075A1.717,1.717,0,0,0,153.63,64.792ZM95.607,49.748a1.717,1.717,0,0,0-1.717,1.717V53.8a8.7,8.7,0,0,1-2.781-5.56c-.406-4.57,2.8-9.334,5.3-12.288a15.031,15.031,0,0,0,2.811,7.209c2.009,2.616,2.557,5.491,1.542,8.094A7.4,7.4,0,0,1,97.324,55.1V51.465A1.717,1.717,0,0,0,95.607,49.748ZM131.314,20.68A1.717,1.717,0,0,0,129.6,22.4v2.162a7.45,7.45,0,0,1-2.589-3.328c-1.015-2.6-.467-5.478,1.542-8.094a15.037,15.037,0,0,0,2.811-7.212c.5.6,1.039,1.274,1.569,2.008,1.883,2.615,4.059,6.52,3.728,10.276a9.1,9.1,0,0,1-3.626,6.325V22.4A1.717,1.717,0,0,0,131.314,20.68Z" transform="translate(-72.947 0.001)" fill="#006cad"/>
      </g>
    </g>
  </g>
</svg>
